<?xml version="1.0" encoding="UTF-8"?>
<svg id="Camada_2" data-name="Camada 2" xmlns="http://www.w3.org/2000/svg" viewBox="0 0 97.6 97.6">
  <g id="Camada_1-2" data-name="Camada 1">
    <g>
      <path d="M48.8,0C21.89,0,0,21.89,0,48.8s21.89,48.8,48.8,48.8,48.8-21.89,48.8-48.8S75.71,0,48.8,0ZM48.8,97.11C22.16,97.11.49,75.44.49,48.8S22.16.49,48.8.49s48.31,21.67,48.31,48.31-21.67,48.31-48.31,48.31Z"/>
      <path d="M93.42,41.27c-.1.08-.12.16-.05.28.16.3.34.6.49.91.02.04.02.05-.02.07-.1.03-.14.14-.11.23.01.03.02.07.04.1.03.04.02.06-.03.05-.39-.03-.77-.07-1.16-.05-.19.01-1.13.1-1.32.16-.11.04-.17.16-.12.25.08.15.33.25.49.18.07-.03.87-.12.94-.13.47-.04.94.01,1.41.04.02,0,.03.02.04.03.05.09.09.19.14.28.16.34.31.68.48,1.02.06.12.16.22.31.25h.02c.14-.07.17-.13.16-.29-.02-.16-.05-.31-.1-.46-.24-.74-.56-1.44-.91-2.13-.08-.16-.21-.3-.22-.49,0,0,0-.02-.01-.03-.08-.12-.18-.23-.31-.31-.05-.03-.11-.03-.16,0Z"/>
      <path d="M94.82,46.78c.07,0,.11,0,.15-.04.03-.03.05-.07.06-.14,0-.02,0-.03,0-.04,0-.08-.06-.13-.16-.16-.03,0-.06-.01-.09-.02-.87-.08-1.51-.75-1.81-.97.04,0,.07,0,.11-.01.47-.05.96-.1,1.44-.08.07,0,.11,0,.15-.04.03-.03.05-.07.06-.14,0-.02,0-.03,0-.04,0-.08-.06-.13-.16-.16-.03,0-.06-.01-.09-.02-.32-.04-.64-.02-.96,0-.02,0-.05,0-.07,0-.32.02-1.75.19-1.81.2-.11.01-.18.1-.18.21,0,.01,0,.02,0,.04.02.11.09.14.21.16.15.02.29,0,.43-.02.03,0,.06,0,.09-.01.43.2.88.49,1.21.8-.12.01-.36.04-.66.12-.14.03-.28.07-.41.12-.21.07-.41.15-.59.25-.07.04-.15.08-.22.12-.04.02-.07.06-.08.1-.01.04-.01.08-.01.12h0c0,.08.05.13.12.15.1.03.23.05.37,0,.05-.02.08-.05.11-.08.02-.02.03-.03.05-.04.05-.03.21-.1.43-.18,1.22-.41,2.21-.21,2.28-.2Z"/>
      <path d="M92.83,48.03s.01,0,.02,0c.2.05.39.11.59.17.21.06.41.13.62.18.05.01.11.03.17.02.07,0,.12-.06.13-.13,0-.07-.03-.13-.1-.16-.08-.03-.16-.07-.24-.11-.08-.04-.16-.08-.24-.12-.02-.01-.04-.02-.07-.01-.05.02-.09,0-.13-.01-.03-.01-.07-.03-.1-.04-.28-.1-.56-.19-.85-.25-.18-.04-.37-.07-.59-.06-.03,0-.1,0-.16.01-.1.02-.2.05-.28.11-.07.05-.1.12-.1.2,0,.11.05.2.14.26.1.07.22.11.34.14.15.04.3.06.46.08.07,0,.13.02.2.02.11,0,.21-.12.2-.21,0-.02,0-.04-.01-.06,0-.03,0-.04.04-.04Z"/>
      <path d="M95.45,48.09c-.11.02-.22.06-.33.1-.05.01-.09.03-.14.05-.04.01-.04,0-.06-.03-.02-.05-.05-.09-.07-.14-.07-.14-.14-.28-.21-.42-.02-.04-.02-.07-.02-.11,0-.11-.03-.21-.1-.3-.08-.08-.26-.14-.39-.06-.05.03-.1.07-.12.1-.11.18-.07.38.08.48.04.03.07.06.11.1.16.14.28.3.39.47,0,0,0,.01.01.02,0,.02,0,.03-.01.04-.09.03-.18.06-.26.1-.08.03-.15.05-.22.09-.1.05-.15.14-.13.23.01.07.06.12.13.14.07.02.14.02.2-.02.05-.04.1-.05.16-.06.12-.04.23-.07.35-.11.05-.02.09,0,.12.04.08.1.16.19.24.29.03.04.07.07.11.1.07.05.15.04.19-.02.04-.05.04-.12,0-.18-.07-.09-.14-.18-.21-.27-.01-.02-.03-.03-.04-.05-.02-.03-.02-.03.02-.05.11-.04.23-.08.34-.13.06-.03.1-.07.12-.14.03-.13-.09-.25-.22-.23Z"/>
      <path d="M94.35,49.66c-.18-.12-.37-.21-.59-.25-.13-.02-.22.03-.27.14-.04.11-.02.18.09.26,0,0,.01,0,.02.01,0,0,.01.01.02.02,0,0-.02,0-.03,0-.06-.01-.11-.03-.17-.04,0,0-.02,0-.03-.01-.03-.07-.07-.15-.06-.21.03-.15-.03-.27-.1-.39-.01-.02-.03-.04-.03-.07-.01-.12-.08-.18-.18-.22-.05-.02-.1-.03-.14-.07h-.01s-.01.01-.02.02c-.08.03-.16.12-.13.2.05.17.03.34.08.51.01.04,0,.05-.04.04-.36-.1-.73-.14-1.11-.16-.07,0-.13.04-.16.13-.03.07-.01.13.05.18.08.06.17.1.26.11.36.07.73.14,1.09.21.03,0,.04.01.05.04.05.17.1.33.15.5.01.03,0,.04-.03.04-.19-.02-.39-.02-.58-.01-.15,0-.3.01-.45.05-.1.03-.15.1-.16.19-.01.08.04.13.1.17.19.12.41.13.63.12.06,0,.1-.03.13-.09.01-.03.03-.04.06-.04.13,0,.26.01.39.01.03,0,.05.01.06.05.08.28.16.56.23.85-.35-.17-.72-.28-1.12-.3-.44-.02-.76.22-.87.64-.06.21-.03.42,0,.62,0,.03,0,.05-.03.06-.06.03-.1.07-.13.13-.08.13-.1.28-.02.38.09.1.2.17.34.16.03,0,.05,0,.06.03.05.15.13.26.28.31-.22,0-.43.09-.6.28-.29.32-.39.71-.35,1.13.07.83.64,1.44,1.37,1.53.09,0,.17.02.26.02.46.03.9-.05,1.33-.2.05-.02.1-.04.13-.08.04-.04.07-.08.11-.12.19-.18.28-.41.32-.66.02-.13-.09-.19-.16-.26-.07-.06-.14-.08-.21-.01-.03.02-.03,0-.03-.02-.15-.32-.36-.6-.62-.84-.35-.34-.74-.61-1.22-.73-.06-.01-.12-.02-.17-.02.02,0,.03,0,.05-.02.07-.07.08-.14.05-.22-.04-.1-.08-.2-.12-.31,0-.01,0-.03-.01-.05.02,0,.03,0,.05.01.22.09.41.22.6.36.11.08.21.15.34.19.15.05.29-.06.27-.22-.03-.23-.16-.41-.27-.59-.14-.23-.3-.45-.42-.69-.07-.14-.17-.21-.3-.26-.06-.03-.12-.03-.17.02-.07.07-.09.16-.04.23.05.08.1.15.15.23.12.18.23.37.35.55,0,0,0,0,0,0,0,0,0,0,0,0,0,0,0,0,0,0,0,0,0,0,0,0-.02,0-.03,0-.05-.01-.18-.1-.37-.19-.57-.25-.03,0-.04-.02-.04-.05-.02-.1-.03-.2-.03-.3,0-.36.17-.53.53-.53.19,0,.36.03.54.08.49.14.91.39,1.2.83.14.21.21.43.18.69-.01.11-.1.14-.19.08-.15-.11-.28-.25-.37-.42-.06-.11-.15-.19-.26-.24-.06-.03-.12-.04-.18.02-.07.07-.09.15-.05.22.06.12.14.23.22.33.21.24.45.45.76.54.15.05.29,0,.4-.12.1-.11.15-.24.15-.39,0-.23-.04-.46-.15-.66-.19-.35-.47-.62-.8-.83.04-.04.06-.1.05-.18-.05-.29-.13-.57-.2-.86,0-.04-.02-.06.04-.05.27.04.54.11.81.17.22.05.43.12.66.13.15,0,.24-.06.28-.21.03-.13-.03-.24-.09-.34-.28-.49-.64-.9-1.12-1.21ZM92.59,54.54c.55.24.94.64,1.15,1.19.06.15.09.31.07.48,0,.06-.1.13-.17.11-.12-.03-.22-.1-.32-.16-.09-.06-.19-.11-.28-.17-.08-.04-.15-.03-.2.04-.05.07-.05.14,0,.2.08.09.18.13.28.2.01,0,.03.02.03.02,0,.02-.02.01-.04.01-.27.04-.53.03-.83,0-.05-.01-.14-.03-.23-.06-.18-.05-.3-.16-.39-.32-.2-.4-.26-.81-.1-1.23.1-.28.3-.43.56-.43.16,0,.32.04.46.11ZM94.19,50.01s0,0,0,0h0s0,0,0,0ZM93.98,49.86s.2.11.21.15c-.07-.02-.15-.04-.22-.07-.02,0-.06,0-.06-.02,0-.02.04-.04.07-.05ZM95,51c-.21-.05-.43-.1-.64-.15-.22-.05-.44-.1-.66-.13-.03,0-.04-.02-.05-.05-.03-.12-.07-.25-.1-.37,0-.01-.02-.03,0-.04,0,0,.02,0,.04,0,.26.12.53.25.79.37.06.03.12.07.19.06.1-.01.12-.08.15-.16,0-.01,0-.02,0-.03,0,0,.02.01.02.02.11.14.21.27.29.43,0,.01,0,.02.01.04,0,0-.02,0-.04,0Z"/>
      <polygon points="92.62 53.24 92.62 53.24 92.62 53.24 92.62 53.24 92.62 53.24"/>
      <path d="M92.8,59.67c-.04-.19-.1-.36-.24-.5-.07-.08-.15-.09-.24-.02-.11.08-.15.17-.1.26.03.06.07.12.12.16.01.01.03.03.03.05.02.12.04.24.06.36,0,0,0,.02,0,.03-.01,0-.02,0-.03-.01-.11-.07-.22-.14-.33-.21-.03-.02-.05-.04-.04-.08,0-.14-.05-.26-.14-.37-.08-.09-.15-.1-.26-.03-.03.02-.06.05-.08.09-.02.04-.04.04-.08.02-.16-.1-.34-.17-.51-.25-.07-.03-.15,0-.21.06-.05.05-.06.11-.03.17.03.06.07.12.12.17.12.11.27.16.42.22.04.01.05.02.02.06-.21.31-.45.59-.75.82-.22.18-.46.32-.75.36-.13.02-.25.01-.36-.07-.06-.05-.13-.03-.21.04-.05.05-.07.11-.04.18.09.19.24.31.46.34.25.03.47-.03.69-.14.51-.25.91-.63,1.25-1.08.02-.03.04-.05.06-.07,0,.03.01.06.01.09.04.46.09.92.23,1.36.07.25.18.48.37.67.11.11.25.13.38.03.14-.1.19-.26.23-.38.04-.13.05-.24.07-.34.05-.43.04-.87,0-1.3-.03-.24-.06-.47-.11-.7ZM92.42,61.76s-.02.08-.03.12c0,.01-.01.04-.02.04-.02,0-.02-.02-.02-.03-.08-.23-.13-.46-.17-.7-.05-.28-.08-.57-.1-.85,0-.01,0-.03,0-.04.01-.01.03,0,.04.01.11.07.23.15.34.22.02.01.03.03.04.05.02.39.02.79-.08,1.17Z"/>
      <path d="M92.11,62.96c-.14-.17-.29-.31-.49-.41-.11-.06-.22-.03-.3.06-.07.09-.07.16.01.28,0,0,0,.01.01.02,0,0,0,.01.01.02,0,0-.02,0-.03,0-.05-.03-.1-.06-.15-.09,0,0-.02-.01-.02-.02,0-.07-.02-.16,0-.22.08-.14.05-.27.01-.4,0-.02-.01-.05-.01-.07.02-.11-.03-.19-.11-.27-.04-.03-.09-.05-.11-.1h0s0,0,0,0c0,.01-.01.01-.03.01-.09,0-.19.07-.19.15,0,.17-.07.34-.08.51,0,.04,0,.05-.05.02-.32-.21-.66-.35-1.01-.48-.07-.02-.14,0-.19.07-.04.06-.05.12,0,.18.06.08.13.14.22.19.33.17.65.35.98.52.02.01.03.03.03.05,0,.17,0,.35,0,.52,0,.04,0,.04-.04.03-.18-.07-.36-.13-.55-.18-.14-.04-.29-.07-.44-.08-.1,0-.17.05-.21.14-.04.07,0,.13.05.19.15.17.35.24.56.3.06.02.11,0,.15-.05.02-.02.04-.03.06-.02.12.04.25.09.37.13.03.01.04.03.04.06,0,.11,0,.22,0,.33-.03-.05-.06-.1-.1-.15-.06-.06-.12-.07-.2-.03-.1.05-.16.25-.1.34.05.07.12.13.16.2.05.1.08.21.11.32,0,.02.01.03-.01.05-.13.09-.14.13-.09.27.06.17.11.33.14.5,0,.01,0,.03,0,.04-.01,0-.03,0-.04-.01-.22-.11-.43-.25-.64-.38-.03-.02-.05-.05-.06-.09-.04-.13-.08-.26-.11-.39-.03-.12-.09-.23-.17-.33-.06-.06-.12-.07-.2-.02-.08.05-.11.12-.08.2.03.08.06.17.08.25,0,.01.01.03,0,.04-.01.01-.02,0-.03-.01-.16-.07-.33-.12-.5-.13-.18,0-.31.15-.24.29.03.07.08.14.13.2.08.09.16.1.25.02.03-.03.06-.03.09-.02.15.04.28.1.41.18.05.03.07.06.09.12.14.5.28,1.01.47,1.5.13.35.28.69.59.93l.06.03c.21.05.33-.08.42-.24,0-.01.02-.02.02-.03l.04-.1s0-.02,0-.03c.1-.31.13-.64.12-.96-.02-.56-.12-1.1-.27-1.64.05-.03.09-.08.09-.15.03-.29.05-.58.06-.87,0-.04,0-.06.05-.04.25.12.48.26.72.4.19.11.38.24.59.32.14.05.25.01.33-.12.07-.11.05-.24.02-.35-.13-.55-.35-1.05-.71-1.49ZM90.65,67.72s-.01.07-.04.07c-.03,0-.05-.04-.06-.06-.1-.17-.17-.36-.24-.55-.12-.35-.23-.71-.34-1.07,0-.01,0-.03,0-.04,0,0,.02,0,.02,0,.15.09.29.18.45.25.1.05.2.09.32.08.02,0,.02,0,.02.02.04.44.05.88-.12,1.3ZM91.7,63.04s.16.17.16.2c-.06-.04-.13-.08-.19-.13-.02-.01-.06-.02-.05-.04.01-.02.05-.03.08-.03ZM91.86,63.23h0s0,0,0,0h0ZM92.37,64.44s-.02,0-.04,0c-.18-.11-.38-.22-.57-.33-.19-.11-.39-.23-.6-.32-.03-.01-.04-.03-.03-.06,0-.13,0-.26.01-.38,0-.01,0-.03,0-.04,0,0,.02.01.03.02.21.2.43.39.64.59.05.05.1.1.17.11.09.02.14-.04.19-.11,0,0,.01-.02.02-.03,0,0,.01.02.01.03.06.16.12.32.15.5,0,.01,0,.03,0,.04Z"/>
      <path d="M90.33,68.27c-.26-.2-.55-.34-.83-.48-.02-.01-.04-.02-.07-.03-.29-.14-1.62-.71-1.67-.73-.11-.04-.21,0-.26.09,0,.01-.01.02-.01.03-.04.11,0,.17.11.24.11.09.25.15.38.2.03.01.06.02.09.04.27.39.51.86.66,1.3-.11-.05-.33-.14-.63-.23-.14-.04-.28-.07-.41-.1-.22-.04-.43-.07-.64-.08-.08,0-.16,0-.25,0-.05,0-.09.02-.12.05-.03.03-.05.07-.07.1h0c-.03.07-.02.14.03.19.07.07.18.16.32.19.05,0,.1,0,.14-.01.02,0,.05-.01.07-.01.05,0,.23.01.46.06,1.26.26,2.02.92,2.08.96.06.04.1.05.15.04.04,0,.08-.04.12-.09,0-.01.02-.03.02-.04.04-.07.02-.14-.06-.21-.02-.02-.05-.04-.07-.06-.71-.51-.93-1.4-1.09-1.74.03.01.07.03.1.04.44.19.88.39,1.29.65.06.04.1.05.15.04.04,0,.08-.04.12-.09,0-.01.02-.03.02-.04.04-.07.02-.14-.06-.21-.02-.02-.05-.04-.07-.06Z"/>
      <path d="M88.78,70.67c-.1-.19-.23-.36-.4-.5-.1-.08-.21-.07-.3,0-.09.08-.1.15-.04.27,0,0,0,.01,0,.02,0,0,0,.01,0,.02,0,0-.02,0-.02-.01-.04-.04-.09-.08-.13-.12,0,0-.02-.02-.02-.02,0-.07,0-.16.05-.22.1-.12.1-.25.09-.39,0-.03,0-.05,0-.07.04-.11.01-.2-.06-.28-.03-.04-.08-.07-.09-.12h0s-.02,0-.03,0c-.08-.02-.2.04-.21.12-.04.17-.13.32-.17.49,0,.04-.02.04-.05.01-.27-.26-.58-.47-.91-.66-.06-.04-.13-.02-.2.04-.05.05-.07.11-.04.18.04.09.1.16.18.22.29.23.58.46.87.69.02.02.03.03.02.06-.03.17-.07.34-.1.51,0,.04-.02.04-.05.02-.16-.1-.33-.2-.51-.28-.14-.06-.27-.13-.42-.16-.1-.02-.18.02-.23.1-.05.07-.02.13.02.19.12.2.3.3.5.4.05.03.11.02.15-.02.02-.02.04-.02.07,0,.11.07.23.13.34.2.03.02.04.03.03.07-.06.29-.12.59-.19.88,0,.01,0,.03,0,.04-.03-.09-.08-.17-.15-.25-.05-.06-.12-.08-.2-.05-.15.06-.22.19-.28.33-.11.24-.21.48-.31.72,0,0,0,.01-.01.02,0,0,0-.02,0-.03.01-.09.03-.17.05-.26.05-.3.1-.59.1-.9,0-.14-.08-.23-.15-.32-.11-.07-.26.02-.27.15-.03.41-.1.82-.18,1.23-.06.31-.13.61-.17.92-.02.17.04.3.14.43.07.08.16.1.25.04.15-.08.23-.22.32-.36.2-.34.35-.71.5-1.08,0-.01.01-.02.02-.03,0,.01,0,.03,0,.04,0,.22.01.44.01.66,0,.43,0,.87,0,1.3,0,.15.06.27.16.38.05.05.11.06.17.04.09-.04.14-.1.12-.17-.01-.08-.03-.16-.02-.24,0-.3.01-.59.01-.89,0-.47,0-.95-.05-1.42.01.02.03.04.04.05.11.11.26.08.31-.07.09-.28.15-.56.22-.85,0-.04.01-.06.06-.03.22.16.43.35.64.52.17.15.33.31.52.42.13.08.24.06.34-.06.09-.1.09-.22.08-.35-.02-.56-.15-1.1-.42-1.59ZM88.36,70.67s.12.19.12.23h0s0,0,0,0c-.06-.05-.11-.11-.17-.16-.01-.02-.05-.03-.04-.05.02-.02.06-.02.08-.02ZM88.76,72.17s-.02,0-.04-.01c-.16-.14-.33-.29-.5-.43-.17-.15-.34-.29-.53-.43-.02-.02-.03-.04-.02-.06.03-.12.06-.25.08-.37,0-.01,0-.03.01-.03,0,0,.02.02.03.03.18.23.35.47.53.7.04.05.08.11.14.14.09.03.15-.02.2-.08,0,0,.01-.02.02-.02,0,0,0,.02,0,.03.03.17.06.34.06.52,0,.01,0,.03,0,.04Z"/>
      <path d="M85.47,70.94c-.1.04-.16.15-.26.19-.03.04-.04.07-.03.1.01.39-.05.78-.15,1.16-.11.44-.26.87-.4,1.31-.05.14-.03.25.06.36.04.06.09.12.17.11.09-.01.15-.06.18-.14.06-.14.11-.28.16-.43.12-.37.21-.75.3-1.13.09-.35.19-.7.25-1.06.03-.16-.02-.3-.13-.42-.04-.05-.09-.06-.15-.04Z"/>
      <path d="M85.6,75.76c-.1.02-.17.08-.15.2,0,.01,0,.03,0,.05-.01-.01-.02-.02-.03-.03-.19-.26-.39-.52-.58-.78-.39-.56-.79-1.11-1.07-1.74-.05-.11-.1-.13-.22-.08-.02,0-.04.02-.06.03l-.02.03c-.03.07,0,.14-.01.2-.04.21-.11.4-.2.6-.18.43-.39.84-.64,1.24-.02.03-.03.06-.06.08-.13.12-.08.24-.02.37,0,.02.01.03.02.05l.07.05c.07.02.14,0,.21-.03.11-.03.13-.06.12-.18,0-.02,0-.03.01-.04.3-.49.55-1,.75-1.55,0,0,0-.03.01-.03.01,0,.02.02.02.03.05.09.1.18.15.26.35.57.74,1.11,1.14,1.64.13.17.25.35.4.5.09.1.27.07.31-.06.08-.25.1-.5-.03-.75-.03-.06-.08-.09-.15-.07Z"/>
      <path d="M82.58,78.91c-.12-.03-.2,0-.25.14-.13.32-.26.64-.4.95-.02.04-.03.05-.07.02-.09-.06-.2-.03-.25.06-.02.03-.04.06-.05.1-.02.05-.03.05-.06,0-.22-.32-.43-.65-.69-.93-.13-.14-.78-.82-.95-.93-.1-.06-.23-.03-.27.07-.07.16.01.42.17.5.07.03.64.61.69.66.33.34.58.74.85,1.13.01.02,0,.03,0,.05-.05.09-.09.19-.14.28-.17.34-.34.67-.5,1.02-.06.13-.07.27,0,.4h.01c.14.08.21.07.32-.04.11-.11.21-.23.29-.37.42-.65.78-1.34,1.1-2.04.07-.16.1-.35.24-.48,0,0,.01-.02.01-.03.04-.14.07-.29.05-.44,0-.06-.04-.1-.1-.12Z"/>
      <path d="M80.4,82.03c-.17-.28-.39-.51-.6-.75l-.05-.05c-.22-.24-1.25-1.24-1.29-1.29-.08-.08-.19-.08-.27,0,0,0-.02.02-.03.03-.07.09-.05.16.01.27.07.13.18.22.28.32.02.02.05.04.07.07.11.46.16.99.14,1.45-.09-.08-.26-.25-.51-.44-.12-.09-.23-.17-.35-.24-.19-.12-.37-.22-.56-.31-.08-.03-.15-.06-.23-.09-.04-.02-.09-.02-.13,0-.04.02-.07.04-.1.06h0c-.05.05-.07.12-.04.19.04.1.1.21.23.29.04.03.09.03.13.04.02,0,.05,0,.07.01.05.02.21.1.41.22,1.08.7,1.55,1.59,1.59,1.65.04.05.08.08.12.09.04,0,.09,0,.15-.04.01,0,.03-.02.04-.03.06-.05.07-.13.02-.22-.01-.03-.03-.05-.04-.08-.48-.73-.36-1.65-.38-2.02.03.03.05.05.08.08.34.34.68.68.97,1.07.04.05.08.08.12.09.04,0,.09,0,.15-.04.01,0,.03-.02.04-.03.06-.05.07-.13.02-.22-.01-.03-.03-.05-.04-.08Z"/>
      <path d="M78.17,84.28c.07-.14.14-.28.2-.43.02-.04.04-.06.07-.09.09-.07.15-.15.17-.27.02-.11-.05-.29-.19-.35-.06-.02-.12-.04-.15-.03-.21.02-.34.18-.33.36,0,.05,0,.1,0,.15-.01.21-.06.4-.13.6,0,0,0,.01,0,.02,0,.02-.02.02-.04.01-.08-.05-.16-.1-.24-.15-.07-.04-.14-.08-.21-.12-.1-.05-.2-.03-.27.04-.05.06-.05.12-.03.18.03.06.07.12.14.14.06.01.1.05.15.08.1.07.2.14.3.21.05.03.06.06.05.12-.03.12-.05.25-.07.37,0,.05-.02.1-.01.15,0,.08.06.14.14.14.07,0,.12-.04.13-.11.03-.11.05-.22.08-.33,0-.02,0-.04.02-.06.01-.03.02-.03.05-.02.1.06.2.13.31.18.06.03.12.04.19,0,.12-.06.14-.23.04-.32-.09-.08-.19-.14-.29-.2-.04-.03-.08-.05-.12-.08-.03-.02-.03-.03-.02-.07.02-.05.04-.09.07-.14Z"/>
      <path d="M77.42,83.85c.02.05.04.1.09.15.05.05.13.06.18.02.06-.04.08-.1.06-.18-.03-.08-.05-.17-.06-.25-.02-.09-.04-.17-.06-.26,0-.02-.01-.05-.03-.06-.05-.02-.06-.07-.07-.11-.01-.04-.02-.07-.04-.11-.09-.28-.2-.56-.33-.83-.08-.17-.17-.33-.32-.5-.02-.03-.06-.08-.11-.12-.08-.07-.16-.13-.26-.15-.08-.02-.15,0-.22.04-.09.07-.12.16-.12.27,0,.13.05.24.1.35.06.14.14.28.22.41.03.06.07.12.11.17.06.09.22.09.29.02.01-.02.03-.03.04-.05.02-.03.03-.03.05,0,0,0,0,0,0,.01.08.19.16.37.24.56.08.2.15.4.25.6Z"/>
      <path d="M76.45,84.27c-.06-.11-.16-.15-.28-.12-.11.03-.15.09-.15.23,0,0,0,.01,0,.02,0,0,0,.02,0,.02,0,0-.01-.01-.02-.02-.03-.05-.05-.11-.07-.16,0,0-.01-.02,0-.03.04-.06.07-.15.13-.18.14-.07.19-.19.24-.33,0-.02.01-.05.03-.07.08-.08.09-.18.06-.28-.01-.05-.04-.1-.04-.15h0s-.02,0-.03-.01c-.07-.05-.19-.05-.24.02-.1.14-.25.24-.35.38-.02.03-.03.03-.05,0-.15-.35-.35-.66-.57-.96-.04-.06-.11-.08-.2-.05-.07.02-.11.07-.11.15,0,.1.03.19.08.28.17.33.34.65.52.98.01.02.01.04,0,.06-.1.14-.2.28-.3.43-.02.03-.03.03-.05,0-.11-.16-.23-.31-.35-.46-.1-.11-.2-.22-.32-.31-.08-.06-.17-.06-.25,0-.07.04-.07.11-.06.19.03.23.16.4.29.57.04.05.09.06.15.04.03,0,.05,0,.06.02.08.11.16.21.24.32.02.03.02.05,0,.07-.17.24-.33.48-.51.71-.09-.38-.23-.73-.47-1.06-.26-.36-.64-.46-1.04-.28-.2.09-.34.24-.48.4-.02.02-.04.03-.07.02-.06-.03-.12-.03-.18-.03-.15.01-.28.1-.31.22-.03.13,0,.26.09.37.02.02.03.04.01.06-.09.13-.12.26-.07.42-.15-.17-.34-.28-.6-.29-.43-.03-.79.14-1.1.43-.6.57-.72,1.4-.33,2.02.05.07.1.14.15.21.27.37.6.67.99.91.05.03.09.05.15.05.05,0,.11,0,.16.01.26.04.49-.03.71-.16.11-.07.09-.19.1-.29,0-.09-.02-.16-.13-.17-.03,0,0-.03,0-.04.16-.32.24-.66.27-1.01.04-.48.01-.96-.2-1.41-.03-.06-.06-.1-.09-.15.02,0,.03.02.05.02.1.01.16-.02.2-.1.05-.1.11-.19.16-.29,0-.01.02-.03.03-.04,0,.01.02.03.02.04.07.23.08.46.09.7,0,.13.02.26.06.39.06.15.23.19.34.07.16-.16.22-.38.29-.58.09-.25.16-.51.27-.76.06-.14.05-.26.01-.4-.02-.07-.05-.12-.13-.12-.1,0-.18.04-.21.11-.03.09-.06.17-.09.26-.07.21-.14.41-.21.62,0,0,0,0,0,0,0,0,0,0,0,0,0,0,0,0,0,0h0s-.02-.03-.02-.05c-.04-.21-.08-.41-.16-.6-.01-.03,0-.04.01-.06.07-.08.14-.15.22-.21.28-.23.52-.2.74.08.12.14.2.31.27.47.2.47.26.95.1,1.45-.08.23-.2.44-.42.57-.09.06-.17.01-.18-.1,0-.19.02-.38.1-.55.05-.12.05-.23.02-.35-.02-.07-.05-.12-.13-.13-.09,0-.17.03-.2.1-.06.12-.09.25-.12.38-.05.32-.07.63.06.93.06.15.18.23.34.24.15,0,.28-.04.4-.12.19-.14.33-.32.42-.53.16-.37.19-.75.15-1.14.06,0,.12-.01.17-.07.19-.22.37-.46.54-.69.02-.03.03-.05.06,0,.14.24.25.49.37.73.1.2.18.41.31.6.09.12.2.15.34.09.12-.06.17-.17.21-.28.2-.52.3-1.07.25-1.63-.02-.21-.07-.42-.17-.62ZM71.51,88.2c-.08.14-.19.26-.33.35-.05.03-.16,0-.19-.06-.05-.11-.06-.23-.08-.35-.02-.11-.03-.22-.05-.33-.01-.09-.07-.13-.16-.13-.08,0-.14.05-.15.13-.02.12.01.23.02.34,0,.01,0,.03,0,.04-.02,0-.02-.01-.03-.02-.19-.18-.36-.39-.52-.65-.02-.05-.06-.13-.1-.22-.07-.17-.07-.34.01-.5.19-.4.47-.71.89-.85.29-.1.52-.04.69.17.1.13.16.27.21.43.16.58.09,1.13-.21,1.65ZM76.17,85.73c-.04.17-.08.34-.15.5,0,.01-.01.02-.02.03,0,0-.01-.01-.03-.03-.09-.19-.19-.39-.28-.59-.1-.2-.2-.41-.31-.6-.01-.03-.01-.04,0-.07.08-.1.15-.21.23-.31,0,0,.01-.03.03-.02,0,0,.01.02.01.03.07.28.14.57.2.85.02.07.02.14.08.19.07.07.14.04.22.01,0,0,.02,0,.03-.01,0,0,0,.02,0,.03ZM76.25,84.97h0c-.03-.07-.06-.14-.09-.21,0-.02-.04-.05-.02-.06.02,0,.06,0,.08.02.03.01.04.23.02.25h0Z"/>
      <polygon points="72.75 85.77 72.75 85.76 72.75 85.77 72.75 85.77 72.75 85.77"/>
      <path d="M67.93,89.23c-.14-.04-.23,0-.27.09-.03.06-.05.13-.05.2,0,.02,0,.04-.02.05-.08.09-.16.18-.24.27,0,0-.02.02-.02.02-.01,0,0-.02-.01-.03-.01-.13-.03-.26-.04-.39,0-.04,0-.06.03-.08.12-.08.17-.2.2-.34.02-.12-.02-.19-.14-.22-.04-.01-.08-.02-.12,0-.05.01-.06,0-.06-.05-.03-.19-.08-.37-.13-.55-.02-.07-.08-.12-.18-.12-.07,0-.12.02-.15.09-.03.06-.05.13-.06.2,0,.16.04.31.09.46.01.04.01.05-.03.06-.37.03-.74.02-1.11-.07-.27-.06-.54-.16-.75-.36-.1-.09-.17-.19-.17-.33,0-.08-.06-.12-.16-.14-.07-.01-.13.01-.16.08-.09.19-.09.38.02.57.13.21.32.35.54.45.52.24,1.06.32,1.62.29.03,0,.06,0,.09,0-.02.02-.04.05-.06.07-.33.32-.66.65-.92,1.03-.15.21-.26.44-.29.71-.02.16.06.27.21.32.17.05.32-.02.44-.06.13-.05.22-.1.31-.16.37-.23.7-.51,1.01-.82.17-.17.33-.34.48-.52.12-.15.22-.31.24-.5.01-.11-.03-.17-.13-.2ZM66.93,90.27c-.29.26-.6.51-.96.68-.04.02-.08.03-.11.05-.01,0-.04.01-.04,0-.01-.01,0-.03.01-.04.12-.21.28-.39.44-.57.19-.21.4-.41.6-.61,0,0,.02-.02.03-.02.02,0,.01.02.01.04.01.14.03.27.04.41,0,.02,0,.04-.02.06Z"/>
      <path d="M65.08,89.77s-.02,0-.02-.01c-.05-.07-.17-.1-.24-.05-.14.11-.31.16-.45.26-.03.02-.04.02-.05-.02-.04-.38-.14-.74-.26-1.09-.02-.07-.09-.1-.18-.1-.07,0-.13.04-.15.11-.03.09-.03.19,0,.29.07.36.14.73.21,1.09,0,.03,0,.04-.02.06-.14.11-.27.21-.41.32-.03.02-.04.02-.05-.02-.05-.19-.12-.37-.2-.54-.06-.14-.12-.27-.21-.39-.06-.08-.15-.1-.24-.08-.08.02-.1.09-.11.16-.04.22.03.43.12.63.02.06.07.08.13.08.03,0,.04.01.05.04.04.12.09.25.13.37.01.03,0,.05-.02.07-.09.07-.18.14-.27.21.02-.06.05-.12.06-.18.01-.09-.02-.14-.1-.17-.11-.05-.29.03-.33.14-.03.08-.02.17-.06.25-.05.1-.12.19-.18.29,0,.01-.02.03-.04.02-.15-.05-.19-.03-.27.1-.09.15-.19.3-.3.43,0,.01-.02.02-.03.03,0-.01-.01-.03-.02-.04-.05-.24-.08-.49-.11-.74,0-.04,0-.07.03-.11.08-.11.15-.22.23-.33.08-.1.13-.21.15-.34.01-.09-.02-.14-.11-.17-.09-.03-.17-.01-.2.06-.04.08-.1.15-.15.22,0,.01-.02.03-.03.03-.02,0-.01-.02-.01-.03-.04-.17-.11-.33-.22-.47-.11-.14-.31-.15-.38,0-.04.07-.06.15-.08.23-.02.12.02.19.14.21.04,0,.05.03.07.06.06.14.09.28.12.43,0,.06,0,.1-.03.14-.3.43-.61.85-.87,1.31-.19.32-.37.65-.35,1.04l.02.07c.1.2.26.21.45.18.01,0,.03,0,.04,0l.11-.03s.02-.01.03-.01c.31-.12.58-.29.83-.51.42-.37.79-.78,1.11-1.24.05.02.12.02.18-.02.25-.16.49-.33.72-.5.03-.02.05-.04.06.02.06.27.1.54.14.81.03.22.05.45.12.66.05.14.15.2.3.18.13-.02.21-.11.29-.21.35-.44.6-.93.72-1.49.04-.21.06-.43.02-.64-.03-.13-.11-.19-.23-.19-.12,0-.17.05-.21.18,0,0,0,.01,0,.02,0,0,0,.01,0,.02,0,0,0-.02-.01-.02,0-.06-.02-.12-.02-.17,0,0,0-.02,0-.03.06-.05.11-.12.18-.13.15-.03.24-.13.32-.24.02-.02.03-.04.05-.05.1-.05.14-.14.14-.25,0-.05-.01-.1,0-.15h0ZM61.3,92.57c-.32.3-.65.59-1.09.72-.03,0-.06.03-.08,0-.02-.02,0-.06,0-.09.07-.19.17-.36.28-.53.2-.32.41-.63.63-.93,0-.01.02-.02.03-.03,0,0,0,.01,0,.02.02.17.04.34.08.51.03.11.05.21.14.29.02.01,0,.02,0,.03ZM64.18,92.13c-.09.15-.18.3-.29.43,0,0-.02.02-.03.02,0,0,0-.02-.02-.04-.03-.21-.06-.43-.1-.65-.03-.22-.07-.45-.12-.67,0-.03,0-.05.02-.06.1-.08.2-.15.31-.23.01,0,.02-.03.03-.02,0,0,0,.02,0,.04-.02.29-.04.58-.06.87,0,.07-.02.14.02.2.05.08.12.08.2.08.01,0,.02,0,.03,0,0,0,0,.02-.01.03ZM64.47,91.43s0,0,0,0h0s0,0,0,0ZM64.46,91.13s.05.02.07.04c.02.02-.03.23-.06.25,0-.08-.01-.15-.02-.23,0-.02-.02-.06,0-.06Z"/>
      <path d="M59.42,92.37c-.07-.31-.46-1.7-.48-1.76-.03-.11-.12-.17-.23-.14-.01,0-.02,0-.04.01-.11.04-.12.11-.12.24,0,.15.04.28.08.42,0,.03.02.06.03.09-.13.45-.35.94-.6,1.32-.03-.12-.1-.35-.22-.64-.06-.13-.12-.26-.18-.39-.1-.2-.21-.38-.34-.55-.05-.07-.1-.13-.15-.19-.03-.04-.07-.06-.11-.06-.04,0-.09,0-.12,0h0c-.07.02-.12.07-.13.14-.01.1-.02.24.05.37.03.05.06.07.1.1.02.01.04.03.05.04.04.04.13.19.24.4.59,1.15.54,2.15.55,2.22,0,.07.03.11.06.14.03.03.08.04.15.04.02,0,.03,0,.04,0,.08-.02.12-.08.13-.18,0-.03,0-.06,0-.09-.05-.87.51-1.6.68-1.94,0,.04.02.07.03.11.12.46.25.93.3,1.41,0,.07.03.11.06.14.03.03.08.04.15.04.02,0,.03,0,.04,0,.08-.02.12-.08.13-.18,0-.03,0-.06,0-.09,0-.32-.08-.64-.15-.95,0-.02-.01-.05-.02-.07Z"/>
      <path d="M57.26,92.05c-.04-.08-.15-.13-.22-.09-.16.08-.33.1-.49.17-.04.02-.05.01-.04-.03.03-.38,0-.75-.06-1.12-.01-.07-.07-.12-.15-.13-.07-.01-.13.01-.17.08-.04.09-.06.18-.06.28,0,.37,0,.74,0,1.11,0,.03,0,.04-.03.05-.15.08-.31.16-.46.24-.03.02-.04.01-.04-.02-.02-.19-.05-.38-.1-.57-.04-.15-.07-.29-.14-.43-.04-.09-.12-.13-.22-.12-.08,0-.12.06-.14.13-.08.21-.05.43,0,.64.01.06.05.1.11.11.03,0,.04.02.05.05.02.13.04.26.06.39,0,.03,0,.05-.03.06-.27.13-.53.28-.81.4-.01,0-.02.01-.03.02.05-.08.08-.17.1-.27.01-.08-.02-.14-.09-.19-.14-.09-.29-.06-.43-.02-.25.07-.5.14-.75.21,0,0-.02,0-.02,0,0,0,.01-.01.02-.02.08-.04.15-.08.23-.12.26-.15.53-.29.76-.48.11-.09.13-.21.16-.32-.01-.13-.18-.19-.28-.12-.34.23-.71.43-1.07.63-.28.15-.56.28-.82.45-.14.09-.21.22-.24.38-.02.11.02.18.13.22.16.06.32.04.48.02.39-.06.77-.18,1.15-.28.01,0,.03,0,.04,0,0,.01-.02.02-.03.03-.17.14-.34.29-.51.42-.34.27-.68.54-1.02.8-.12.09-.17.22-.2.36-.01.07.02.12.08.16.09.05.16.04.21-.01.05-.06.11-.12.17-.17.24-.18.47-.36.7-.55.37-.3.74-.59,1.08-.93,0,0,0,0,0,0,0,.02-.01.04-.02.07-.02.16.1.25.25.2.27-.11.54-.23.8-.36.03-.02.05-.03.06.03.01.27,0,.55-.01.82,0,.22-.04.45,0,.67.02.15.11.23.26.23.13,0,.23-.07.32-.15.42-.37.76-.8.98-1.33.08-.2.14-.41.14-.62,0-.13-.07-.21-.19-.23-.11-.02-.18.01-.24.14,0,0,0,.01,0,.02,0,0,0,.01-.01.02,0,0,0-.02,0-.03,0-.06,0-.12,0-.17,0,0,0-.02,0-.03.06-.04.13-.1.2-.1.16,0,.26-.08.36-.18.02-.02.04-.04.06-.04.11-.03.16-.11.19-.22.01-.05,0-.11.04-.15h0s-.02-.02-.02-.03ZM56,93.02c-.07.28-.14.56-.22.85-.02.07-.04.13-.02.2.03.09.11.1.19.11.01,0,.02,0,.03,0,0,0,0,.02-.02.02-.11.13-.23.26-.37.37,0,0-.02.01-.03.02,0,0,0-.02-.01-.04,0-.21.02-.44.03-.66,0-.23.02-.45,0-.68,0-.03,0-.04.03-.06.12-.06.23-.11.34-.17.01,0,.02-.02.04,0,0,0,0,.02,0,.04ZM56.38,93.57s0,0,0,0h0s0,0,0,0ZM56.48,93.34s-.07.22-.1.23c0-.08.01-.15.02-.23,0-.02,0-.06.01-.06.02,0,.05.03.07.06Z"/>
      <path d="M53.29,92.23c.33-.15.67-.3.98-.47.15-.08.22-.2.25-.36.01-.06,0-.11-.06-.14-.1-.05-.22-.03-.3-.08-.05,0-.08.02-.1.04-.3.26-.64.45-1,.61-.42.19-.84.34-1.27.5-.14.05-.21.14-.25.27-.02.07-.04.14.02.2.06.06.14.08.23.06.15-.04.29-.09.44-.14.37-.13.72-.31,1.07-.47Z"/>
      <path d="M49.32,91.35s-.04-.02-.06-.03h-.04c-.07.01-.11.08-.17.11-.19.09-.39.14-.6.19-.45.11-.91.18-1.38.22-.03,0-.07,0-.1,0-.17-.03-.24.08-.31.2,0,.02-.02.03-.03.05v.09c.03.07.09.11.14.15.09.07.13.07.22-.01.01-.01.03-.01.04-.02.57-.05,1.14-.14,1.69-.3,0,0,.03,0,.03,0,.01.01,0,.02,0,.03-.04.09-.08.18-.12.28-.25.62-.46,1.25-.66,1.88-.06.2-.13.41-.17.62-.02.13.1.26.23.22.25-.08.46-.21.59-.46.03-.06.02-.12-.03-.16-.08-.07-.17-.09-.25,0-.01.01-.03.02-.04.02,0-.01,0-.03,0-.04.1-.31.19-.62.29-.93.22-.64.43-1.29.78-1.88.06-.11.04-.16-.06-.23Z"/>
      <path d="M47.36,93.93c-.33.1-.65.22-.98.31-.04.01-.06.01-.06-.04-.01-.1-.11-.17-.21-.15-.04,0-.07.01-.11.02-.05.02-.06,0-.05-.04.11-.37.22-.74.27-1.13.03-.19.12-1.13.09-1.32-.01-.12-.13-.2-.23-.16-.17.05-.31.28-.27.45.02.07-.05.88-.06.95-.05.47-.19.92-.31,1.38,0,.02-.02.03-.04.03-.1.03-.2.05-.3.08-.37.09-.73.18-1.1.28-.13.04-.25.12-.3.26v.02c.04.15.09.19.25.21.16.01.31,0,.47-.01.77-.1,1.52-.27,2.27-.49.17-.05.33-.15.52-.13,0,0,.02,0,.03,0,.14-.06.26-.13.37-.24.04-.05.05-.1.02-.16-.06-.12-.13-.15-.27-.11Z"/>
      <path d="M43.81,94.48s.02-.06.03-.08c.1-.31.14-.63.18-.94,0-.02,0-.05,0-.07.04-.32.14-1.76.15-1.82,0-.11-.06-.2-.17-.21-.01,0-.02,0-.04,0-.11,0-.15.06-.2.18-.05.14-.06.28-.06.42,0,.03,0,.06,0,.1-.28.38-.65.77-1.01,1.04,0-.12.02-.36,0-.67,0-.15-.02-.29-.04-.43-.03-.22-.07-.43-.13-.63-.02-.08-.05-.16-.08-.23-.02-.04-.04-.08-.09-.1-.04-.02-.08-.03-.11-.03h0c-.07,0-.13.02-.17.09-.05.09-.1.22-.08.36,0,.05.03.09.06.13.01.02.03.04.03.06.02.05.06.22.09.45.17,1.28-.22,2.21-.23,2.28-.02.06-.01.11.01.15.02.04.06.07.13.09.01,0,.03,0,.04.01.08.01.14-.03.18-.13.01-.03.02-.06.03-.08.25-.84,1.02-1.34,1.3-1.6,0,.04,0,.07,0,.11-.04.47-.08.96-.19,1.43-.02.06-.01.11.01.15.02.04.06.07.13.09.01,0,.03,0,.04.01.08.01.14-.03.18-.13Z"/>
      <path d="M41.56,90.87c-.11-.03-.2,0-.28.08-.09.09-.15.2-.2.31-.07.14-.12.29-.17.43-.02.06-.04.13-.06.19-.02.11.08.23.17.23.02,0,.04,0,.06,0,.03,0,.04,0,.03.04,0,0,0,0,0,.01-.09.18-.18.36-.28.54-.1.19-.21.38-.3.57-.02.05-.05.1-.05.16,0,.07.04.13.11.15.07.02.13,0,.17-.07.05-.07.1-.14.15-.21.06-.07.11-.14.16-.21.01-.02.03-.04.02-.06-.01-.05.01-.09.04-.13.02-.03.04-.06.06-.1.15-.25.29-.51.41-.79.08-.17.14-.35.18-.56,0-.03.02-.1.02-.16,0-.1,0-.2-.05-.3-.03-.07-.09-.12-.18-.14Z"/>
      <path d="M41.63,93.47c-.15-.15-.36-.14-.49-.02-.04.04-.08.06-.12.09-.16.13-.35.21-.54.29,0,0-.01,0-.02,0-.02,0-.03,0-.03-.02-.01-.09-.03-.18-.04-.28-.01-.08-.02-.16-.04-.23-.03-.11-.11-.17-.2-.17-.07,0-.13.04-.16.1-.03.06-.05.13-.02.2.03.05.03.11.03.16.01.12.02.24.04.36,0,.05,0,.09-.06.11-.11.06-.22.12-.33.18-.04.02-.09.05-.12.08-.06.06-.07.14-.02.19.04.05.11.06.17.03.1-.05.21-.1.31-.15.02,0,.04-.02.06-.03.03-.01.04,0,.04.02.02.12.04.24.06.35.02.07.05.12.12.14.12.05.27-.04.27-.18,0-.12-.02-.23-.03-.35,0-.05-.01-.09-.02-.14,0-.04,0-.04.04-.05.05-.01.1-.03.15-.04.15-.04.3-.08.46-.12.04-.01.08,0,.11,0,.11.02.22.02.32-.04.1-.06.18-.23.14-.37-.02-.06-.05-.11-.07-.14Z"/>
      <path d="M39.47,92.53c-.1-.06-.17-.05-.27.04,0,0,0,0-.01.01,0,0-.01,0-.02.01,0,0,0-.02,0-.03.02-.05.05-.11.07-.16,0,0,0-.02.02-.02.07-.01.16-.04.22-.01.14.06.27.02.4-.03.02,0,.05-.02.07-.02.11.01.19-.05.25-.13.03-.04.04-.1.09-.13h0s-.01-.02-.01-.03c0-.09-.09-.18-.17-.17-.17.01-.34-.04-.52-.02-.04,0-.05,0-.03-.04.17-.34.28-.69.37-1.06.02-.07-.02-.14-.09-.18-.06-.04-.13-.04-.18.01-.07.07-.13.14-.16.24-.14.34-.28.68-.41,1.03-.01.02-.02.04-.05.04-.17.01-.34.03-.52.05-.04,0-.04,0-.03-.04.05-.19.09-.37.12-.57.02-.15.04-.3.03-.45,0-.1-.07-.17-.16-.2-.08-.03-.13.02-.18.07-.15.17-.2.38-.24.59-.01.06.01.11.06.14.02.02.03.03.02.06-.03.13-.06.26-.09.38,0,.03-.02.04-.06.05-.3.02-.59.05-.89.06.23-.31.41-.65.51-1.04.1-.43-.07-.78-.46-.98-.19-.09-.4-.11-.61-.11-.03,0-.05,0-.06-.04-.02-.06-.05-.11-.1-.15-.11-.11-.26-.15-.37-.09-.12.06-.21.16-.22.31,0,.03,0,.05-.04.05-.14.02-.26.08-.34.2.03-.21-.02-.42-.17-.62-.26-.35-.62-.52-1.04-.56-.83-.1-1.54.36-1.76,1.05-.02.08-.05.17-.07.25-.11.44-.12.89-.06,1.35,0,.05.02.1.06.15.03.04.07.09.1.13.14.22.34.36.59.44.13.04.2-.05.29-.11.07-.05.11-.12.05-.21-.02-.03.01-.02.03-.03.35-.09.66-.24.95-.44.4-.28.74-.61.95-1.06.02-.05.03-.09.05-.14,0,0,0,.01,0,.02.05.08.12.11.21.09.11-.02.22-.04.32-.06.02,0,.03,0,.05,0,0,.01-.01.03-.02.04-.13.2-.3.36-.47.52-.1.09-.19.18-.25.3-.08.14,0,.3.16.3.23.01.43-.08.64-.15.25-.09.5-.21.76-.28.15-.04.24-.13.31-.25.04-.06.06-.11.01-.17-.06-.08-.14-.12-.22-.09-.09.03-.17.07-.26.1-.2.08-.4.16-.61.23,0,0,0,0,0,0,0,0,0,0,0,0,0,0,0,0,0,0,0,0,0,0,0,0,0-.02.01-.03.02-.05.13-.16.26-.33.36-.51.01-.02.03-.03.06-.03.1,0,.2.01.3.03.35.06.49.27.42.62-.04.18-.1.35-.19.51-.23.46-.56.82-1.04,1.01-.23.09-.47.13-.71.05-.1-.03-.12-.12-.04-.2.14-.13.3-.23.48-.28.13-.04.21-.11.29-.21.04-.06.06-.12.01-.18-.05-.08-.13-.11-.21-.09-.13.04-.25.09-.37.16-.28.16-.53.35-.68.64-.07.14-.06.28.04.41.09.12.21.19.35.23.23.05.46.04.68-.02.39-.12.7-.35.98-.63.03.05.09.09.17.09.29,0,.58-.01.88-.03.04,0,.06,0,.04.05-.09.26-.21.51-.32.76-.09.2-.2.4-.25.62-.04.15.01.25.15.31.12.05.24.02.35-.02.53-.18,1.01-.46,1.4-.86.15-.15.28-.32.36-.53.05-.12.01-.22-.09-.29ZM34.96,90.25c-.03.16-.1.3-.19.43-.34.49-.8.8-1.39.9-.16.03-.32.03-.48-.03-.06-.02-.11-.13-.08-.18.05-.11.14-.2.22-.29.07-.08.15-.16.22-.25.06-.07.06-.14,0-.21-.06-.06-.13-.07-.2-.03-.1.06-.17.16-.25.24,0,0-.02.03-.03.02-.02,0,0-.03,0-.04.02-.27.07-.53.17-.82.02-.05.06-.14.1-.22.08-.16.21-.27.39-.32.43-.12.84-.1,1.23.14.26.16.36.38.31.63ZM38.75,92.46c-.17.23-.35.47-.52.7-.04.05-.09.11-.09.18,0,.1.06.14.13.17,0,0,.02.01.03.02,0,0-.01.01-.02.02-.15.08-.31.15-.48.2-.01,0-.03,0-.04,0,0,0,0-.02,0-.04.09-.19.18-.4.27-.6.09-.21.18-.41.26-.63.01-.03.03-.04.05-.04.13,0,.25-.02.38-.03.01,0,.03-.01.04,0,0,0,0,.02-.02.03ZM38.9,93.12s0,0,0,0h0s0,0,0,0ZM38.9,93.12c.04-.07.07-.14.11-.2.01-.02.02-.06.03-.05.02.01.03.05.04.08,0,.03-.15.17-.18.18Z"/>
      <polygon points="36.02 90.96 36.02 90.95 36.02 90.96 36.02 90.96 36.02 90.96"/>
      <path d="M30.33,87.9c-.07.02-.13.04-.19.08-.13.1-.21.23-.3.37-.02.04-.03.04-.06.01-.27-.26-.49-.56-.66-.89-.13-.25-.22-.51-.21-.8,0-.13.03-.25.14-.34.06-.05.06-.12,0-.21-.04-.06-.09-.09-.16-.07-.2.05-.35.18-.42.38-.08.24-.06.47,0,.7.15.55.44,1.02.82,1.43.02.02.04.05.06.07-.03,0-.06,0-.1,0-.46-.05-.92-.09-1.38-.04-.26.02-.51.09-.73.23-.14.09-.17.22-.11.37.07.16.22.23.33.3.12.06.22.1.32.13.42.13.84.21,1.28.25.24.02.47.03.71.03.19,0,.37-.03.54-.14.09-.06.11-.13.07-.23-.06-.13-.14-.18-.24-.15-.07.02-.13.05-.18.09-.02.01-.03.02-.06.02-.12,0-.24,0-.36,0,0,0-.02,0-.03,0,0-.01,0-.02.02-.03.09-.09.18-.19.27-.28.02-.03.05-.04.08-.03.14.03.27,0,.39-.07.11-.06.13-.13.08-.24-.02-.04-.04-.07-.07-.1-.04-.03-.03-.05,0-.08.13-.14.23-.3.34-.45.04-.06.04-.14-.02-.21-.04-.06-.1-.08-.16-.06ZM29.18,89.09c-.09.1-.19.2-.28.29-.02.02-.03.03-.06.03-.39-.05-.78-.13-1.14-.3-.04-.02-.08-.04-.11-.06-.01,0-.03-.02-.03-.03,0-.02.02-.01.04-.01.24-.04.48-.04.72-.03.29,0,.57.04.85.07.01,0,.03,0,.04,0,0,.02-.01.03-.02.04Z"/>
      <path d="M27.09,87.89c-.07-.09-.15-.1-.27-.04,0,0-.01,0-.02,0,0,0-.01,0-.02,0,0,0,0-.02.01-.02.04-.04.08-.09.12-.13,0,0,.02-.02.02-.02.07.01.16,0,.21.05.12.1.25.1.39.09.03,0,.05,0,.07,0,.11.05.2.01.28-.05.04-.03.07-.08.12-.09h0s0-.03,0-.04c.02-.08-.03-.2-.11-.21-.17-.04-.32-.13-.49-.17-.04,0-.04-.02-.01-.05.26-.27.47-.58.66-.9.04-.06.02-.13-.04-.2-.05-.06-.11-.07-.18-.04-.09.04-.16.1-.23.18-.23.29-.47.57-.7.86-.02.02-.03.03-.06.02-.17-.04-.34-.07-.51-.11-.04,0-.04-.02-.02-.05.11-.16.2-.33.28-.5.06-.14.13-.27.16-.42.02-.1-.01-.18-.09-.24-.07-.05-.13-.02-.2.01-.2.11-.3.3-.41.49-.03.05-.02.11.02.15.02.02.02.04,0,.07-.07.11-.13.23-.2.34-.02.03-.03.04-.07.03-.11-.03-.22-.05-.33-.07.06-.02.12-.04.17-.08.07-.05.09-.11.07-.19-.03-.11-.21-.2-.32-.16-.08.03-.15.09-.23.11-.11.03-.22.03-.34.05-.02,0-.03,0-.04-.02-.06-.14-.1-.17-.25-.14-.17.02-.35.05-.52.04-.01,0-.03,0-.04,0,0-.01.01-.03.02-.04.15-.2.32-.38.5-.56.03-.03.06-.04.1-.05.13,0,.27-.02.4-.03.13,0,.25-.04.35-.11.07-.05.09-.11.06-.19-.03-.09-.1-.13-.18-.12-.09.02-.17.02-.26.03-.01,0-.03,0-.04,0,0-.01,0-.02.02-.03.1-.14.18-.3.22-.47.04-.18-.09-.33-.24-.29-.08.02-.16.05-.23.09-.1.06-.13.14-.06.24.02.04.01.06,0,.09-.07.14-.16.25-.25.37-.04.04-.07.06-.13.07-.52.04-1.05.08-1.56.17-.37.06-.73.14-1.02.4l-.04.06c-.09.2.01.34.15.46,0,0,.02.02.03.03l.09.06s.02,0,.03.01c.29.16.6.25.92.3.55.09,1.11.1,1.66.05.02.05.06.1.13.13.28.09.56.16.85.23.04,0,.06.01.03.06-.17.22-.35.42-.53.63-.15.17-.31.33-.43.52-.08.13-.06.24.05.34.1.09.22.09.34.09.56-.02,1.1-.14,1.6-.41.19-.1.36-.23.5-.4.08-.1.08-.21,0-.3ZM23.94,85.9c-.12.13-.23.25-.33.39-.06.09-.13.18-.14.29,0,.02-.01.02-.03.02-.44-.05-.87-.12-1.25-.37-.02-.01-.06-.03-.06-.05,0-.03.04-.04.08-.05.19-.07.39-.1.58-.13.37-.05.74-.09,1.12-.12.01,0,.03,0,.04,0,0,0,0,.01,0,.02ZM25.65,88.48s.01.02.02.02c0,0-.02,0-.03,0-.17.03-.34.06-.52.05-.01,0-.03,0-.04,0,0,0,0-.02.02-.04.14-.16.29-.33.44-.49.15-.17.3-.34.43-.52.02-.02.04-.03.06-.02.12.03.25.06.37.09.01,0,.03,0,.03.01,0,0-.02.02-.03.03-.23.17-.47.35-.7.52-.05.04-.11.08-.14.14-.04.09.02.15.07.21ZM26.37,88.28h0s0,0,0,0h0ZM26.37,88.28c.05-.05.11-.11.16-.16.02-.01.03-.05.05-.04.02.02.02.06.02.08,0,.03-.19.12-.23.12Z"/>
      <path d="M21.72,85.81c.24-.21.44-.47.63-.72.02-.02.03-.04.05-.06.19-.25,1.01-1.45,1.04-1.5.06-.09.05-.2-.04-.27,0,0-.02-.01-.03-.02-.1-.06-.16-.03-.26.06-.11.09-.19.22-.27.33-.02.03-.03.05-.05.08-.43.19-.95.34-1.4.39.07-.1.2-.3.34-.58.07-.13.13-.26.18-.39.08-.2.15-.41.2-.61.02-.08.04-.16.05-.24,0-.05,0-.09-.02-.13-.02-.04-.05-.07-.08-.09h0c-.06-.05-.13-.05-.19,0-.09.06-.19.14-.25.28-.02.05-.02.1-.01.14,0,.02,0,.05,0,.07,0,.05-.06.22-.15.44-.5,1.19-1.29,1.8-1.34,1.85-.05.05-.07.09-.07.14s.02.09.06.14c.01.01.02.02.03.03.06.05.13.04.22-.02.03-.02.05-.04.07-.05.63-.6,1.56-.64,1.92-.73-.02.03-.04.06-.06.09-.27.39-.55.79-.88,1.14-.05.05-.07.09-.07.14s.02.09.06.14c.01.01.02.02.03.03.06.05.13.04.22-.02.03-.02.05-.04.07-.05Z"/>
      <path d="M20.29,83.24c-.06-.1-.13-.13-.26-.09,0,0-.01,0-.02,0,0,0-.02,0-.02,0,0,0,0-.02.02-.02.05-.04.09-.07.14-.11,0,0,.02-.02.03-.01.07.02.16.04.2.09.1.12.23.15.37.16.03,0,.05,0,.07.02.1.06.19.05.29,0,.05-.02.08-.06.14-.07h0s0-.03,0-.04c.03-.08,0-.2-.07-.23-.16-.07-.29-.19-.45-.26-.04-.02-.04-.03,0-.05.31-.22.57-.48.82-.77.05-.06.05-.13,0-.2-.04-.06-.1-.09-.17-.07-.09.02-.18.07-.25.13-.28.24-.56.48-.84.72-.02.02-.04.02-.06.01-.16-.07-.32-.13-.48-.2-.03-.01-.04-.02-.01-.05.13-.14.26-.29.37-.44.09-.12.18-.24.24-.38.04-.09.02-.18-.05-.25-.06-.06-.12-.05-.19-.02-.21.08-.35.24-.49.41-.04.05-.04.1,0,.15.01.02.01.04,0,.07-.09.1-.17.2-.26.3-.02.03-.04.03-.07.02-.28-.12-.56-.23-.83-.36-.01,0-.03,0-.04-.01.09-.02.19-.05.27-.1.07-.04.1-.1.09-.19-.03-.16-.14-.25-.27-.34-.21-.15-.43-.29-.65-.44,0,0-.01-.01-.02-.02,0,0,.02,0,.03,0,.08.03.16.06.24.09.28.1.56.21.86.27.13.03.24-.03.34-.09.09-.09.03-.26-.09-.29-.4-.11-.79-.26-1.17-.41-.29-.12-.57-.25-.87-.34-.16-.05-.31-.02-.45.06-.1.05-.13.14-.09.24.06.16.17.27.3.38.3.26.63.47.96.69.01,0,.02.02.03.02-.01,0-.03,0-.04,0-.22-.04-.44-.07-.65-.11-.42-.08-.85-.17-1.27-.26-.15-.03-.28,0-.41.08-.06.04-.08.09-.07.16.02.1.07.15.14.15.08,0,.16,0,.24.02.29.06.58.12.87.18.47.09.93.19,1.4.22,0,0,0,0,0,0-.02,0-.04.02-.06.03-.13.08-.13.24.01.32.26.14.52.26.79.38.03.02.06.02.01.06-.2.19-.42.35-.63.52-.18.14-.36.26-.51.43-.1.11-.1.23,0,.35.08.1.2.13.32.15.56.08,1.11.06,1.64-.11.21-.07.4-.16.56-.3.1-.08.11-.19.05-.3ZM18.77,83.55s.01.02.02.03c0,0-.02,0-.03,0-.17,0-.35,0-.52-.04-.01,0-.02,0-.04-.01,0,0,.01-.02.02-.03.17-.13.34-.27.52-.41.18-.14.35-.28.52-.43.02-.02.04-.02.07-.01.12.05.23.1.35.15.01,0,.03,0,.03.02,0,0-.02.02-.03.02-.26.13-.52.25-.78.38-.06.03-.13.05-.17.11-.05.08-.01.15.03.22ZM19.76,83.42s-.21.09-.24.07h0s0,0,0,0c.06-.04.13-.09.19-.13.02-.01.04-.05.05-.03.01.02,0,.06,0,.09Z"/>
      <path d="M18.7,79.82c-.41-.2-.81-.42-1.2-.65-.13-.07-.24-.07-.36-.01-.06.03-.14.06-.14.15,0,.09.03.16.1.21.13.09.26.16.39.24.34.19.7.35,1.05.51.33.15.66.32,1,.45.16.06.3.03.43-.04.06-.03.08-.08.07-.14-.02-.11-.12-.19-.13-.29-.04-.03-.06-.05-.1-.05-.39-.06-.76-.2-1.11-.37Z"/>
      <path d="M15.12,79.55s-.03,0-.05-.01c.01,0,.02-.02.04-.02.29-.14.58-.28.88-.42.62-.28,1.24-.57,1.91-.72.12-.03.15-.08.12-.2,0-.02-.01-.04-.02-.06l-.02-.03c-.06-.04-.13-.02-.2-.05-.19-.08-.37-.19-.55-.3-.39-.26-.75-.55-1.1-.86-.02-.02-.05-.04-.07-.07-.09-.15-.22-.12-.36-.09-.02,0-.03,0-.05.01l-.07.06c-.03.07-.02.14-.01.21,0,.12.04.14.16.15.02,0,.03,0,.04.02.43.38.88.74,1.37,1.03,0,0,.02.01.02.02,0,.01-.02.01-.03.02-.09.03-.19.06-.29.1-.62.24-1.23.51-1.83.8-.19.09-.39.18-.57.3-.11.07-.12.25,0,.31.23.13.47.2.74.12.07-.02.1-.06.1-.13,0-.1-.05-.19-.17-.18Z"/>
      <path d="M13.34,73.39c-.05.06-.72.51-.78.55-.4.26-.84.43-1.27.62-.02.01-.03,0-.05,0-.08-.06-.17-.12-.25-.19-.3-.23-.6-.46-.9-.68-.11-.08-.25-.12-.39-.07h-.02c-.09.13-.09.2,0,.33.09.13.19.25.3.36.56.54,1.16,1.02,1.8,1.46.14.1.32.16.42.33,0,0,.01.01.02.02.13.07.27.12.42.13.06,0,.11-.02.14-.08.06-.12.04-.2-.08-.28-.29-.19-.58-.37-.85-.58-.03-.02-.04-.04-.01-.07.07-.08.06-.19-.01-.26-.03-.02-.05-.05-.08-.07-.04-.03-.04-.04,0-.06.36-.15.72-.3,1.05-.5.17-.1.95-.61,1.09-.75.08-.09.07-.22-.01-.28-.14-.1-.41-.07-.52.07Z"/>
      <path d="M11.24,72.3l-.09.06c-.39.27-.8.54-1.24.75-.06.03-.1.06-.11.1-.02.04-.01.09.01.15,0,.02.01.03.02.04.04.07.11.09.21.06.03,0,.06-.02.08-.03.3-.11.58-.28.85-.45l.06-.04c.27-.17,1.46-.99,1.51-1.02.09-.06.12-.17.06-.27,0-.01-.01-.02-.02-.03-.07-.09-.14-.08-.26-.04-.14.05-.26.13-.37.21-.03.02-.05.04-.08.06-.47.02-1-.03-1.45-.14.1-.07.3-.21.53-.41.11-.1.21-.2.31-.3.15-.16.29-.33.41-.5.05-.07.09-.14.14-.2.02-.04.03-.08.02-.13,0-.04-.03-.08-.04-.11h0c-.04-.06-.1-.09-.17-.08-.1.02-.23.06-.33.17-.04.04-.05.08-.06.12,0,.02-.01.04-.03.06-.03.05-.14.19-.3.36-.89.93-1.86,1.21-1.92,1.24-.06.03-.1.06-.11.1-.02.04-.01.09.01.15,0,.01.01.03.02.04.04.07.11.09.21.06.03,0,.06-.02.08-.03.81-.33,1.68-.04,2.05.01Z"/>
      <path d="M9.02,71.4c.11.04.29,0,.38-.12.03-.05.06-.11.06-.14.02-.21-.11-.37-.29-.39-.05,0-.1-.02-.14-.04-.2-.05-.38-.14-.56-.24,0,0-.01,0-.02-.01-.02-.01-.02-.02,0-.04.06-.07.13-.14.19-.21.05-.06.11-.12.16-.18.07-.09.07-.19,0-.27-.05-.06-.11-.08-.18-.06-.07.01-.13.04-.17.11-.03.05-.07.09-.11.13-.09.09-.17.17-.26.26-.04.04-.07.05-.13.02-.11-.05-.23-.1-.35-.14-.05-.02-.09-.04-.14-.04-.08-.01-.15.03-.16.11-.01.07.02.12.09.15.1.05.21.1.31.14.02,0,.04.02.06.03.03.02.03.02,0,.05-.08.09-.16.18-.24.27-.04.06-.06.11-.04.18.04.13.2.18.3.1.09-.07.17-.16.25-.24.03-.03.07-.07.1-.1.03-.03.03-.03.07,0,.04.03.08.06.12.09.13.09.25.19.38.28.03.02.05.05.07.09.05.1.12.18.23.22Z"/>
      <path d="M10.13,69.91c-.2.05-.4.09-.6.12-.21.04-.42.07-.63.13-.05.01-.11.02-.16.06-.06.04-.08.11-.05.18.03.07.09.1.16.09.09-.01.17-.01.26-.01.09,0,.18,0,.26,0,.02,0,.05,0,.06-.02.03-.04.08-.05.12-.05.04,0,.07-.01.11-.01.29-.04.59-.09.87-.17.18-.05.36-.11.55-.21.03-.02.09-.05.14-.09.08-.06.15-.14.2-.23.04-.07.04-.15,0-.22-.05-.1-.13-.15-.24-.17-.12-.02-.25,0-.37.03-.15.04-.3.08-.44.14-.06.02-.13.04-.19.07-.1.05-.13.2-.08.28.01.02.02.03.04.05.02.03.02.04-.01.05,0,0-.01,0-.02,0Z"/>
      <path d="M8.68,69.13c.12-.04.18-.13.17-.25-.01-.12-.06-.17-.2-.19,0,0-.01,0-.02,0,0,0-.01,0-.02,0,0,0,.01-.01.02-.01.06-.01.11-.03.17-.04,0,0,.02,0,.03,0,.06.05.13.1.15.16.04.15.15.23.27.3.02.01.04.02.06.04.06.1.15.12.26.12.05,0,.1-.03.15,0h0s0-.02.01-.03c.06-.06.08-.18.03-.24-.12-.13-.19-.29-.31-.42-.03-.03-.03-.04.02-.05.37-.08.72-.21,1.06-.38.07-.03.1-.1.08-.19-.01-.07-.05-.12-.13-.14-.1-.02-.19,0-.29.02-.35.11-.71.21-1.06.32-.03,0-.04,0-.06-.01-.12-.13-.24-.25-.36-.37-.03-.03-.02-.04.01-.05.18-.07.35-.16.52-.26.13-.08.26-.15.37-.25.08-.07.09-.16.06-.25-.03-.08-.1-.09-.17-.1-.23-.02-.42.08-.61.18-.05.03-.08.08-.07.14,0,.03,0,.05-.03.06-.12.06-.24.11-.36.17-.03.01-.05.01-.07-.01-.2-.22-.41-.43-.6-.65.39-.01.77-.08,1.13-.25.4-.19.57-.54.48-.97-.05-.21-.17-.38-.29-.55-.02-.03-.02-.04,0-.07.04-.05.05-.11.06-.17.02-.15-.04-.3-.16-.34-.12-.05-.26-.06-.38.02-.03.02-.04.02-.06,0-.11-.11-.24-.17-.4-.15.2-.11.34-.28.4-.53.11-.42.01-.8-.21-1.16-.44-.7-1.24-.97-1.92-.72-.08.03-.16.07-.24.1-.42.19-.77.46-1.08.8-.04.04-.07.08-.08.14-.01.05-.02.11-.04.16-.09.25-.06.49.02.73.04.13.16.13.27.15.08.02.16,0,.2-.09.01-.03.03,0,.04,0,.28.21.6.36.94.46.47.14.94.2,1.42.08.06-.01.11-.04.17-.06-.01.01-.03.02-.04.05-.03.09,0,.16.06.22.08.07.17.14.25.21.01.01.02.02.03.04-.02,0-.03,0-.05.01-.24.02-.47,0-.7-.04-.13-.02-.26-.04-.39-.01-.16.03-.23.19-.13.32.13.19.33.29.52.4.23.14.47.26.69.41.13.09.25.1.39.09.07,0,.12-.03.14-.1.02-.1,0-.18-.07-.23-.08-.05-.16-.09-.24-.14-.19-.11-.38-.22-.56-.33h0s0,0,0,0c0,0,0,0,0,0,0,0,0,0,0,0,.01-.02.03-.01.05-.01.21,0,.42,0,.62-.04.03,0,.04,0,.06.03.06.08.12.16.17.25.17.31.09.55-.22.71-.16.09-.34.14-.52.18-.5.11-.99.07-1.44-.18-.22-.12-.39-.29-.48-.52-.04-.1.02-.17.13-.15.19.03.37.1.52.2.11.07.22.09.34.09.07,0,.13-.03.15-.1.03-.09,0-.17-.06-.22-.11-.08-.23-.14-.35-.19-.3-.11-.61-.19-.93-.13-.16.03-.26.13-.3.29-.03.14-.02.28.04.42.1.21.25.38.44.52.33.23.7.33,1.09.37-.02.06-.01.12.04.19.18.23.38.45.57.67.03.03.04.04-.01.06-.26.09-.53.15-.79.23-.22.06-.44.09-.64.19-.14.06-.19.17-.15.32.03.13.13.2.24.26.48.3.99.5,1.55.56.21.02.43.02.64-.05ZM7.8,63.91c-.14.08-.3.11-.46.12-.6.04-1.12-.13-1.58-.52-.12-.11-.22-.24-.28-.39-.02-.06.03-.16.09-.18.12-.03.24-.02.36-.01.11,0,.22.01.33.02.09,0,.14-.04.16-.13.01-.08-.02-.14-.1-.18-.11-.05-.23-.03-.34-.04-.01,0-.03,0-.04,0,0-.02.02-.02.03-.03.22-.15.45-.27.74-.38.05-.01.14-.04.23-.06.18-.04.34,0,.49.11.36.26.6.59.66,1.04.04.3-.06.52-.3.64ZM7.38,68.35c-.08.05-.07.13-.05.21,0,.01,0,.02,0,.03,0,0-.02,0-.03,0-.16-.07-.31-.15-.46-.24-.01,0-.02-.02-.03-.03l.03-.02c.21-.05.42-.11.64-.16.22-.06.44-.11.65-.19.03,0,.05,0,.06.02.09.09.17.19.26.28,0,0,.03.02.02.03,0,0-.02,0-.04,0-.29.01-.58.02-.87.04-.07,0-.14,0-.2.04ZM8.03,68.8h0c.08-.02.15-.03.23-.05.02,0,.06-.03.06,0,0,.02-.02.06-.03.08-.02.02-.23,0-.25-.03h0Z"/>
      <polygon points="7.92 65.2 7.92 65.2 7.92 65.2 7.92 65.2 7.92 65.2"/>
      <path d="M5.45,59.82c.06-.13.05-.22-.04-.28-.06-.04-.12-.07-.18-.09-.02,0-.04-.01-.05-.03-.07-.1-.15-.19-.22-.29,0,0-.01-.02-.01-.03,0-.01.02,0,.03,0,.13.01.26.02.39.03.04,0,.06.01.07.05.06.13.17.21.3.26.12.04.18.02.24-.09.02-.04.03-.07.03-.11,0-.05.02-.05.06-.05.19,0,.38,0,.57-.02.08,0,.13-.06.16-.15.02-.07,0-.12-.06-.16-.06-.04-.12-.08-.19-.1-.16-.04-.31-.02-.47,0-.04,0-.05,0-.05-.04.04-.37.13-.73.28-1.08.12-.26.26-.5.49-.67.1-.08.22-.13.35-.1.07.01.13-.03.17-.13.03-.07.01-.13-.05-.18-.17-.13-.36-.16-.56-.09-.23.09-.4.25-.55.44-.33.46-.52.98-.6,1.54,0,.03-.01.06-.02.09-.02-.03-.04-.05-.06-.08-.25-.39-.51-.77-.83-1.1-.18-.19-.38-.34-.64-.42-.15-.05-.28,0-.35.15-.08.16-.05.32-.03.45.03.13.06.23.1.33.16.41.36.79.61,1.15.13.2.27.39.42.57.12.15.26.27.45.33.1.03.17,0,.22-.09ZM4.69,58.66s-.04,0-.06-.03c-.2-.34-.38-.69-.48-1.08,0-.04-.02-.08-.03-.12,0-.01,0-.04,0-.04.01,0,.02.01.04.02.18.16.33.35.47.54.17.23.33.47.48.71,0,.01.02.03.02.03,0,.02-.03,0-.04,0-.14-.01-.27-.02-.41-.04Z"/>
      <path d="M4.49,56.5c.13,0,.21-.07.23-.19.02-.11-.01-.18-.14-.24,0,0-.01,0-.02,0,0,0-.01,0-.02-.01,0,0,.02,0,.03,0,.06,0,.12,0,.17.01,0,0,.02,0,.03,0,.04.06.1.13.09.2,0,.16.08.26.17.36.02.02.04.04.04.06.03.11.11.16.22.19.05.01.11,0,.15.04h0s0-.02.02-.02c.08-.04.13-.15.09-.22-.08-.16-.09-.33-.17-.49-.02-.04-.01-.05.03-.04.38.04.75,0,1.12-.05.07-.01.12-.06.13-.15.01-.07-.01-.13-.08-.17-.09-.04-.18-.06-.28-.06-.37,0-.74,0-1.11,0-.03,0-.04,0-.05-.03-.08-.15-.16-.31-.24-.46-.02-.03-.01-.04.03-.04.19-.02.38-.05.57-.1.15-.03.29-.07.43-.13.09-.04.13-.12.13-.22,0-.08-.06-.12-.13-.14-.21-.08-.43-.05-.64,0-.06.01-.1.05-.11.11,0,.03-.02.04-.05.05-.13.02-.26.04-.39.06-.03,0-.05,0-.06-.04-.05-.11-.1-.21-.16-.31.05.04.11.07.17.09.08.03.14,0,.19-.07.07-.09.03-.29-.08-.35-.08-.04-.16-.06-.23-.11-.09-.07-.17-.15-.25-.23-.01-.01-.02-.02-.01-.05.08-.14.07-.18-.04-.29-.13-.12-.25-.24-.36-.38,0-.01-.01-.03-.02-.04.01,0,.03,0,.04,0,.25,0,.5.02.75.04.04,0,.07.02.1.05.09.1.19.19.28.29.09.09.19.17.31.21.08.03.14,0,.19-.07.05-.08.04-.16-.02-.21-.07-.06-.13-.12-.19-.19,0,0-.02-.02-.02-.03,0-.02.02,0,.03,0,.18-.01.35-.04.51-.12.16-.08.2-.27.08-.37-.06-.05-.14-.09-.21-.12-.11-.04-.19-.01-.23.1-.01.04-.04.05-.07.06-.15.03-.3.04-.45.03-.06,0-.09-.02-.13-.06-.36-.38-.72-.76-1.11-1.11-.28-.25-.57-.49-.95-.55h-.07c-.21.06-.26.23-.27.41,0,.01,0,.03,0,.04v.11s.02.02.02.03c.05.33.18.63.34.91.28.48.62.92,1,1.32-.04.05-.05.11-.02.19.1.27.23.54.35.81.02.03.03.05-.03.06-.27,0-.55,0-.82-.02-.22,0-.45-.04-.67,0-.15.02-.23.11-.23.26,0,.13.07.23.15.32.37.43.8.77,1.32.99.2.08.41.14.62.14ZM4.2,56.1s-.22-.07-.23-.1h0s0,0,0,0c.08,0,.15.02.23.03.02,0,.06,0,.06.01,0,.02-.03.05-.06.06ZM3.49,52.66s-.02,0-.03,0c-.24-.37-.45-.75-.5-1.2,0-.03-.02-.07,0-.08.03-.01.06,0,.09.03.17.11.32.24.47.38.27.26.54.52.79.79,0,0,.01.02.02.03,0,0-.02,0-.02,0-.17-.01-.34-.03-.51-.02-.11,0-.22,0-.31.08ZM3.48,55.37c-.09.03-.11.11-.11.19v.03s-.02,0-.03-.01c-.13-.11-.26-.23-.36-.37,0,0-.01-.02-.02-.03,0,0,.02,0,.04-.01.21.01.44.02.66.03.23.01.45.02.68.01.03,0,.04,0,.06.04.05.12.11.23.17.35,0,.01.02.02,0,.04,0,0-.02,0-.04,0-.28-.07-.56-.15-.84-.22-.07-.02-.13-.04-.2-.02Z"/>
      <path d="M5.19,49.3c.21-.06.41-.14.6-.22.08-.03.15-.07.22-.11.04-.02.07-.06.09-.1.01-.04.02-.08.02-.12h0c0-.08-.04-.13-.11-.15-.1-.03-.23-.06-.37-.02-.05.02-.08.05-.12.07-.02.02-.03.03-.05.04-.05.03-.21.09-.44.16-1.24.36-2.21.12-2.29.11-.07,0-.11,0-.15.03-.03.03-.06.07-.07.14,0,.02,0,.03,0,.04,0,.08.05.13.15.16.03,0,.06.02.09.02.87.12,1.48.81,1.77,1.04-.04,0-.07,0-.11,0-.47.03-.96.07-1.45.03-.07,0-.11,0-.15.03-.03.03-.06.07-.07.14,0,.02,0,.03,0,.04,0,.08.05.13.15.16.03,0,.06.01.09.02.32.05.64.05.96.04.02,0,.05,0,.07,0,.32,0,1.76-.12,1.82-.13.11,0,.19-.09.18-.2,0-.01,0-.02,0-.04-.02-.11-.08-.14-.21-.17-.14-.03-.29-.01-.43,0-.03,0-.06,0-.09,0-.42-.22-.85-.53-1.18-.84.12,0,.36-.03.67-.09.14-.03.28-.06.41-.1Z"/>
      <path d="M3.25,47.98c.18.12.37.21.59.25.13.02.22-.03.27-.14.04-.11.02-.18-.09-.26,0,0-.01,0-.02-.01,0,0-.01-.01-.02-.02,0,0,.02,0,.03,0,.06.01.11.03.17.04,0,0,.02,0,.03.01.03.07.07.15.06.21-.03.15.03.27.1.39.01.02.03.04.03.07.01.12.08.18.18.22.05.02.1.03.14.07h.01s.01-.01.02-.02c.08-.03.16-.12.13-.2-.05-.17-.03-.34-.08-.51-.01-.04,0-.05.04-.04.36.1.73.14,1.11.16.07,0,.13-.04.16-.13.02-.07.01-.13-.05-.18-.08-.06-.17-.1-.26-.11-.36-.07-.72-.14-1.09-.21-.03,0-.04-.01-.05-.04-.05-.17-.1-.33-.15-.5-.01-.03,0-.04.03-.04.19.02.39.02.58.01.15,0,.3-.01.45-.05.1-.03.15-.1.16-.19.01-.08-.04-.13-.1-.17-.19-.12-.41-.13-.63-.12-.06,0-.1.03-.13.09-.01.03-.03.04-.06.04-.13,0-.26-.01-.39-.01-.03,0-.05-.01-.06-.05-.08-.29-.17-.58-.24-.87,0,0,0-.02,0-.02.07.06.15.11.24.14.08.03.14.01.2-.05.11-.12.11-.27.1-.42-.02-.26-.04-.52-.06-.78,0,0,0-.02,0-.02,0,0,.01.01.01.02.03.08.05.17.08.25.1.29.18.57.33.84.06.12.18.17.28.21.13.01.22-.14.17-.26-.16-.38-.29-.77-.41-1.17-.09-.3-.17-.6-.28-.89-.06-.15-.18-.25-.33-.31-.1-.04-.19-.01-.24.08-.09.14-.1.31-.11.47-.02.4.03.79.06,1.19,0,.01,0,.03,0,.04,0-.01-.02-.02-.03-.03-.11-.19-.22-.39-.32-.58-.2-.38-.4-.77-.6-1.15-.07-.13-.18-.21-.32-.26-.07-.03-.12,0-.17.05-.06.08-.07.15-.03.21.05.06.1.13.13.2.13.26.27.53.4.79.22.42.43.83.7,1.22-.02,0-.03-.02-.05-.02-.15-.05-.27.05-.24.21.05.29.13.57.2.86,0,.04.02.06-.04.05-.27-.04-.54-.11-.81-.17-.22-.05-.43-.12-.66-.13-.15,0-.24.06-.28.21-.03.13.03.24.09.34.28.49.64.9,1.12,1.21ZM3.41,47.63s0,0,0,0h0s0,0,0,0ZM3.63,47.78s-.2-.11-.21-.15c.07.02.15.04.22.07.02,0,.06,0,.06.02,0,.02-.04.04-.07.05ZM2.57,46.64s.02,0,.04,0c.21.05.43.1.64.15.22.05.44.1.66.13.03,0,.04.02.05.05.03.12.07.25.1.37,0,.01.02.03,0,.04,0,0-.02,0-.04,0-.26-.12-.53-.25-.79-.37-.06-.03-.12-.07-.19-.06-.1.01-.12.08-.15.16v.03s-.02-.01-.03-.02c-.11-.14-.21-.27-.29-.43,0-.01,0-.02-.01-.04Z"/>
      <path d="M5.52,43.37c-.02-.14-.09-.23-.22-.29-.06-.03-.13-.07-.2-.02-.07.05-.1.12-.1.21.01.15.03.3.06.46.06.39.17.76.26,1.14.09.35.16.71.28,1.06.05.16.16.25.31.31.06.02.11.01.15-.04.07-.09.07-.21.14-.28,0-.05,0-.08-.02-.11-.2-.34-.32-.72-.41-1.1-.11-.44-.18-.89-.25-1.34Z"/>
      <path d="M3.54,42.01c.06.04.11.04.17,0,.08-.06.12-.15.04-.25,0-.01-.01-.03-.02-.04.01,0,.03,0,.04.01.29.14.59.28.87.42.61.31,1.22.61,1.75,1.04.1.08.15.06.23-.03.01-.02.02-.04.04-.05v-.04c0-.07-.06-.12-.08-.19-.06-.2-.09-.41-.1-.62-.04-.46-.05-.93-.02-1.39,0-.03,0-.07.01-.1.06-.16-.04-.25-.16-.33-.01-.01-.03-.02-.04-.03h-.09c-.07,0-.12.06-.17.1-.08.08-.08.12-.02.21,0,.01.01.03,0,.04-.03.57-.02,1.15.05,1.72,0,0,0,.03,0,.03-.01,0-.02,0-.03-.01-.09-.05-.17-.11-.26-.16-.57-.34-1.17-.64-1.77-.92-.19-.09-.38-.19-.59-.26-.13-.04-.27.06-.25.19.04.26.14.49.37.65Z"/>
      <path d="M5.45,35.82c.13-.02.18-.09.17-.23-.01-.34-.04-.69-.04-1.03,0-.04,0-.06.05-.05.1.01.19-.06.2-.16,0-.04,0-.07,0-.11,0-.05,0-.06.06-.03.33.2.66.4,1.02.55.18.07,1.06.41,1.25.44.12.02.22-.07.22-.18,0-.17-.19-.37-.36-.38-.07,0-.84-.28-.9-.3-.44-.17-.84-.43-1.25-.66-.02-.01-.02-.03-.02-.05,0-.1,0-.21,0-.31,0-.38.02-.75.02-1.13,0-.14-.05-.27-.17-.36h-.02c-.15,0-.21.03-.27.18-.06.15-.09.3-.11.45-.11.77-.14,1.54-.13,2.31,0,.18.06.36-.01.53,0,0,0,.02,0,.03.02.15.06.29.14.42.03.05.08.07.14.06Z"/>
      <path d="M6.09,32.07c.27.18.57.3.86.42.02,0,.05.02.07.03.3.12,1.66.6,1.72.62.11.04.21,0,.25-.11,0-.01,0-.02.01-.04.03-.11-.02-.16-.12-.24-.12-.08-.26-.13-.39-.17-.03,0-.06-.02-.09-.03-.3-.37-.57-.83-.74-1.25.11.04.34.12.65.18.14.03.28.06.42.07.22.03.43.04.64.04.08,0,.16,0,.25-.01.05,0,.09-.02.12-.06.03-.03.05-.07.06-.1h0c.03-.07.01-.14-.04-.19-.08-.07-.18-.15-.33-.17-.05,0-.1,0-.14.02-.02,0-.04.01-.07.02-.05,0-.23,0-.46-.03-1.28-.17-2.07-.79-2.14-.82-.06-.03-.11-.04-.15-.03-.04.01-.08.04-.12.1,0,.01-.02.03-.02.04-.03.07,0,.14.07.21.02.02.05.04.07.05.74.46,1.02,1.34,1.2,1.67-.04-.01-.07-.03-.1-.04-.45-.16-.91-.33-1.33-.56-.06-.03-.11-.04-.15-.03-.04.01-.08.04-.12.1,0,.01-.02.03-.02.04-.03.07,0,.14.07.21.02.02.05.04.07.05Z"/>
      <path d="M10.09,30.5c-.06-.11-.15-.2-.24-.28-.12-.1-.24-.19-.37-.28-.06-.04-.11-.08-.17-.11-.1-.05-.24.01-.27.1,0,.02-.01.04-.02.06,0,.03-.02.04-.05.02,0,0,0,0-.01-.01-.15-.13-.3-.27-.45-.41-.16-.15-.31-.3-.47-.44-.04-.04-.08-.08-.14-.1-.07-.03-.14,0-.17.06-.04.06-.03.13.02.19.06.06.11.13.16.2.05.07.11.14.16.21.01.02.03.04.05.04.05,0,.08.03.11.07.02.03.05.05.08.08.2.22.42.42.65.61.15.12.3.23.5.32.03.01.09.04.15.06.1.03.2.05.3.03.08-.01.14-.06.18-.13.06-.1.04-.2,0-.29Z"/>
      <path d="M6.65,28.78c.11.03.23.04.34.06.05,0,.09.01.14.02.04,0,.04.01.04.05,0,.05,0,.1,0,.15,0,.16,0,.31,0,.47,0,.04-.01.07-.03.11-.05.1-.07.2-.04.32.03.11.17.24.32.23.06,0,.12-.02.15-.03.18-.11.23-.31.14-.47-.03-.04-.04-.09-.06-.14-.08-.19-.11-.39-.14-.6,0,0,0-.01,0-.02,0-.02,0-.03.03-.03.09.01.19.02.28.03.08.01.16.02.24.02.11,0,.2-.06.22-.15.02-.07,0-.13-.05-.18-.05-.05-.11-.08-.19-.07-.06.01-.11,0-.17-.01-.12-.02-.24-.04-.36-.06-.05,0-.08-.03-.09-.09-.03-.12-.06-.24-.09-.37-.01-.05-.03-.1-.05-.14-.04-.07-.11-.1-.18-.07-.06.03-.09.09-.07.16.02.11.04.23.07.34,0,.02,0,.04.01.06,0,.03,0,.04-.03.03-.12-.01-.24-.03-.36-.03-.07,0-.13.02-.17.08-.08.11-.03.27.1.3Z"/>
      <path d="M8.32,27.88c.11.19.24.36.41.49.1.08.21.07.3-.01.09-.08.1-.15.03-.27,0,0,0-.01,0-.02,0,0,0-.01,0-.02,0,0,.02,0,.02.01.04.04.09.07.13.11,0,0,.02.01.02.02,0,.07,0,.16-.04.22-.1.12-.09.26-.08.4,0,.03,0,.05,0,.07-.04.11,0,.2.06.28.03.04.08.07.1.12h0s.02,0,.03,0c.08.01.19-.04.21-.12.03-.17.12-.32.16-.49,0-.04.02-.05.05-.02.28.25.59.45.92.63.06.04.13.02.2-.04.05-.05.07-.11.04-.18-.04-.09-.11-.16-.18-.22-.29-.22-.59-.45-.88-.67-.02-.02-.03-.03-.02-.06.03-.17.06-.34.09-.51,0-.04.02-.04.05-.02.16.1.34.19.51.27.14.06.27.12.42.15.1.02.18-.02.23-.1.05-.07.02-.13-.02-.19-.12-.19-.31-.29-.51-.39-.05-.03-.11-.02-.15.02-.02.02-.04.02-.07,0-.11-.06-.23-.13-.35-.19-.03-.02-.04-.03-.03-.07.06-.29.1-.58.17-.86.24.31.52.57.87.76.39.21.77.14,1.06-.19.14-.16.21-.36.27-.56,0-.03.02-.04.05-.04.06,0,.12-.02.17-.05.13-.08.22-.21.19-.33-.03-.13-.1-.24-.24-.29-.03-.01-.04-.02-.04-.05.02-.15,0-.28-.11-.4.2.09.42.1.66.01.4-.16.66-.46.82-.86.31-.77.06-1.57-.55-1.97-.07-.04-.15-.09-.22-.13-.4-.23-.83-.35-1.28-.41-.05,0-.11,0-.16.01-.05.02-.1.04-.15.06-.25.07-.43.24-.58.45-.07.11,0,.21.03.31.03.08.09.13.19.11.03,0,.02.02.02.03,0,.36.06.7.18,1.03.17.46.39.88.77,1.2.04.04.09.07.14.09-.02,0-.03,0-.05,0-.09.03-.14.09-.14.18,0,.11-.02.22-.03.33,0,.02,0,.03-.01.05-.01-.01-.03-.02-.04-.03-.16-.18-.27-.38-.38-.59-.06-.12-.13-.23-.22-.32-.12-.11-.29-.08-.34.08-.07.22-.04.44-.02.65.02.27.07.54.07.81,0,.15.06.26.16.37.05.05.09.08.17.06.09-.04.15-.11.14-.19,0-.09-.02-.18-.03-.27-.02-.22-.04-.43-.07-.65,0,0,0,0,0,0,0,0,0,0,0,0,0,0,0,0,0,0,0,0,0,0,0,0,.02,0,.03.02.04.03.12.17.25.33.4.48.02.02.02.04.01.06-.03.1-.06.19-.11.28-.15.32-.39.4-.71.24-.17-.08-.31-.19-.45-.32-.38-.34-.64-.76-.7-1.27-.03-.24,0-.48.14-.69.06-.09.15-.08.2.01.09.17.14.35.15.54,0,.13.05.23.13.33.04.06.1.09.17.06.09-.03.14-.1.14-.18,0-.13-.02-.27-.06-.39-.08-.31-.2-.6-.44-.82-.12-.11-.26-.14-.41-.07-.14.06-.24.15-.31.28-.11.21-.16.43-.16.66,0,.4.15.76.34,1.1-.06.02-.1.06-.12.14-.08.28-.14.57-.2.85,0,.04-.01.06-.06.03-.22-.16-.43-.33-.65-.51-.17-.14-.34-.3-.53-.41-.13-.07-.25-.05-.34.06-.08.1-.08.23-.07.35.04.56.18,1.09.46,1.58ZM12.07,24.29c-.39-.46-.56-.98-.51-1.58.01-.16.06-.32.15-.46.03-.05.15-.07.2-.03.09.08.15.18.22.28.06.09.12.18.18.28.05.08.12.09.2.05.08-.04.1-.1.08-.19-.03-.12-.11-.2-.16-.3,0-.01-.02-.03-.01-.03.01-.01.03,0,.04,0,.25.09.49.21.74.38.04.04.11.09.18.16.14.12.2.28.2.46,0,.44-.13.84-.45,1.15-.22.21-.46.25-.69.14-.14-.07-.26-.18-.37-.3ZM8.74,27.87s-.13-.19-.12-.22c.06.05.11.1.17.16.01.01.05.03.04.05-.02.02-.06.02-.08.02ZM8.62,27.65h0s0,0,0,0h0ZM8.3,26.38s.02,0,.04.01c.16.14.34.28.51.42.17.14.35.29.54.42.02.02.03.03.02.06-.03.13-.05.25-.08.38,0,.01,0,.03-.01.03,0,0-.02-.01-.03-.02-.18-.23-.36-.46-.54-.68-.04-.05-.08-.11-.15-.14-.09-.03-.15.02-.2.08,0,0-.01.02-.02.02,0,0,0-.02-.01-.03-.04-.17-.07-.34-.07-.51,0-.01,0-.03,0-.04Z"/>
      <polygon points="11.46 25.44 11.46 25.44 11.46 25.44 11.46 25.44 11.46 25.44"/>
      <path d="M14.36,20.29c.14-.02.21-.09.2-.19,0-.07-.01-.14-.04-.2,0-.02,0-.04,0-.06.03-.12.07-.23.1-.35,0,0,0-.02.01-.02.01,0,.02.01.02.02.07.11.13.22.2.33.02.03.02.06,0,.09-.07.13-.07.26-.03.39.03.12.09.16.22.14.04,0,.08-.02.11-.04.04-.03.06-.02.08.02.11.16.23.3.35.45.05.06.13.07.21.04.06-.02.1-.07.1-.14,0-.07,0-.14-.03-.21-.06-.15-.17-.27-.28-.38-.03-.03-.03-.04,0-.06.32-.19.67-.33,1.03-.41.28-.06.55-.08.83,0,.12.04.23.1.29.22.03.07.1.09.2.06.07-.02.11-.07.11-.14,0-.21-.08-.38-.26-.5-.21-.14-.44-.18-.68-.18-.57,0-1.1.16-1.6.42-.03.01-.06.03-.08.04,0-.03.02-.06.03-.09.16-.43.32-.86.4-1.32.04-.26.05-.51-.03-.76-.05-.15-.17-.22-.33-.2-.17.03-.28.15-.38.24-.09.1-.15.19-.21.27-.24.37-.42.76-.57,1.17-.08.22-.15.45-.21.68-.05.19-.07.37,0,.56.03.1.1.14.21.12ZM15.42,17.9s.05-.06.08-.09c0-.01.03-.03.03-.02.02,0,0,.03,0,.04-.02.24-.09.47-.16.7-.08.27-.18.54-.29.81,0,.01-.01.03-.02.03-.02,0-.02-.02-.03-.03-.07-.12-.14-.23-.21-.35-.01-.02-.02-.04,0-.06.15-.36.33-.72.59-1.02Z"/>
      <path d="M16.47,17.55c.08.1.18.13.29.08.11-.05.14-.11.11-.25,0,0,0-.01,0-.02,0,0,0-.02,0-.02,0,0,.01.01.02.02.03.05.06.1.09.15,0,0,.01.02.01.03-.03.07-.05.15-.11.19-.13.09-.16.22-.19.36,0,.02,0,.05-.02.07-.07.09-.06.19-.02.29.02.05.06.09.06.14h0s.02,0,.03,0c.08.04.2.02.24-.05.08-.15.21-.27.29-.42.02-.04.03-.04.05,0,.19.32.44.61.7.87.05.05.12.06.2.02.07-.03.1-.09.09-.16-.02-.1-.06-.18-.11-.26-.22-.3-.43-.6-.65-.9-.02-.02-.02-.04,0-.06.08-.15.16-.31.23-.46.02-.03.03-.03.05,0,.13.14.27.28.41.4.11.1.23.19.36.27.09.05.18.03.25-.03.06-.05.06-.12.04-.19-.06-.22-.21-.37-.37-.52-.04-.04-.1-.05-.15-.02-.03.01-.04,0-.07-.01-.09-.09-.18-.19-.28-.28-.02-.02-.03-.04,0-.07.05-.1.1-.19.15-.29,0,.06,0,.12.03.18.02.08.08.11.16.11.12,0,.25-.15.24-.27-.01-.09-.05-.17-.05-.25,0-.11.03-.22.04-.34,0-.02,0-.03.03-.04.15-.02.18-.05.2-.21.02-.17.04-.35.09-.52,0-.01.01-.03.02-.04.01.01.02.02.03.03.15.2.28.41.41.63.02.04.03.07.02.11-.03.13-.05.27-.07.4-.02.12-.02.25.01.37.02.08.08.12.17.11.09,0,.16-.06.16-.14,0-.09.02-.18.04-.26,0-.01,0-.03.01-.04.02,0,.02.01.03.02.11.14.24.25.4.34.16.08.34,0,.35-.15,0-.08,0-.16-.03-.24-.03-.12-.1-.16-.22-.13-.04.01-.06,0-.09-.02-.11-.1-.21-.22-.29-.34-.03-.05-.04-.09-.03-.14.09-.52.19-1.03.24-1.55.03-.37.06-.75-.12-1.09l-.05-.05c-.17-.14-.33-.08-.49.03-.01,0-.02.01-.03.02l-.08.07s-.01.02-.02.02c-.23.24-.4.51-.53.81-.23.51-.38,1.04-.48,1.58-.05,0-.11.03-.15.09-.16.25-.3.5-.44.76-.02.03-.03.05-.06,0-.17-.22-.32-.45-.47-.67-.12-.19-.23-.38-.39-.55-.11-.11-.22-.12-.35-.04-.11.07-.14.19-.17.31-.13.55-.15,1.1-.02,1.65.05.21.12.41.25.59ZM18.95,14.45c.16-.41.34-.81.68-1.11.02-.02.04-.05.07-.04.03.01.03.05.03.09.01.2,0,.4-.03.6-.04.37-.11.74-.17,1.11,0,.01,0,.02-.01.04,0,0-.01-.01-.02-.01-.09-.15-.18-.29-.29-.42-.07-.09-.14-.17-.25-.21-.02,0-.02-.02-.01-.03ZM16.63,17.07s-.07-.22-.05-.25c.04.07.08.13.11.2,0,.02.04.04.02.06-.02.01-.06,0-.09,0ZM16.57,16.83h0s0,0,0,0h0ZM16.62,15.55s.01-.02.02-.03c0,0,.02.01.03.02.12.18.24.36.36.55.12.19.25.38.39.55.02.02.02.04,0,.07-.06.11-.12.23-.18.34,0,.01,0,.03-.02.03,0,0-.01-.02-.02-.03-.11-.27-.21-.54-.32-.81-.02-.06-.04-.13-.1-.17-.08-.06-.15-.02-.22.02,0,0-.02.01-.03.02,0,0,0-.02,0-.03.02-.17.04-.34.08-.51Z"/>
      <path d="M20.17,12.98c.14.29.34.55.54.79.02.02.03.04.05.06.2.25,1.14,1.35,1.18,1.39.07.09.18.1.27.03,0,0,.02-.02.03-.02.08-.08.07-.15.01-.27-.06-.13-.16-.24-.25-.34-.02-.02-.04-.05-.06-.07-.07-.47-.08-1-.02-1.45.08.09.24.27.47.48.11.1.22.19.33.27.18.13.35.25.54.35.07.04.15.08.22.11.04.02.09.02.13.01.04-.01.08-.04.1-.06h0c.06-.05.08-.11.06-.18-.03-.1-.09-.22-.2-.31-.04-.03-.09-.04-.13-.05-.02,0-.05-.01-.07-.02-.05-.02-.2-.11-.39-.26-1.02-.79-1.4-1.71-1.44-1.78-.03-.06-.07-.09-.11-.1-.04-.01-.09,0-.15.03-.01,0-.03.01-.04.02-.06.05-.08.12-.04.22.01.03.02.06.04.08.42.77.22,1.67.21,2.04-.02-.03-.05-.06-.07-.09-.31-.36-.62-.74-.88-1.15-.03-.06-.07-.09-.11-.1-.04-.01-.09,0-.15.03-.01,0-.03.01-.04.02-.06.05-.08.12-.04.22.01.03.02.06.04.08Z"/>
      <path d="M23.03,12.27c.11-.03.15-.09.16-.23,0,0,0-.01,0-.02,0,0,0-.02,0-.02,0,0,.01.01.02.02.02.05.04.11.07.16,0,0,0,.02,0,.03-.04.06-.08.14-.14.17-.14.06-.2.19-.25.31,0,.02-.02.05-.04.06-.09.08-.1.17-.08.28,0,.05.04.1.03.15h0s.02,0,.03.01c.07.05.19.05.24-.01.11-.14.26-.23.37-.36.03-.03.04-.03.05,0,.13.35.32.68.53.99.04.06.11.08.2.05.07-.02.11-.07.12-.14,0-.1-.02-.19-.06-.28-.16-.33-.31-.67-.47-1-.01-.02-.01-.04,0-.06.11-.14.21-.27.32-.41.02-.03.03-.03.05,0,.1.17.21.32.33.47.09.12.19.23.31.33.08.06.17.06.25.02.07-.04.08-.11.07-.18-.02-.23-.14-.4-.27-.58-.04-.05-.09-.06-.15-.05-.03,0-.05,0-.06-.02-.07-.11-.15-.22-.22-.33-.02-.03-.02-.05,0-.07.19-.24.37-.48.56-.7,0-.01.01-.02.02-.03,0,.09,0,.19.03.28.02.08.07.12.16.13.16.02.28-.07.4-.17.2-.17.4-.34.59-.51,0,0,.01,0,.02-.01,0,0,0,.02,0,.02-.05.07-.1.14-.15.21-.17.25-.35.49-.49.76-.06.12-.03.24,0,.35.07.11.24.1.31-.01.21-.36.45-.69.7-1.02.19-.25.39-.49.56-.76.09-.14.1-.29.06-.45-.03-.11-.1-.16-.21-.15-.17.01-.31.1-.45.19-.33.22-.62.49-.92.75,0,0-.02.02-.03.02,0-.01,0-.03.01-.04.09-.2.18-.4.28-.6.19-.39.39-.77.58-1.16.07-.13.06-.27.03-.41-.02-.07-.07-.1-.14-.11-.1,0-.16.03-.19.1-.02.08-.05.15-.08.23-.14.26-.27.53-.4.79-.21.42-.42.85-.58,1.3,0-.02,0-.04-.01-.06-.05-.15-.2-.19-.31-.07-.2.21-.39.44-.57.66-.02.03-.04.05-.06,0-.13-.24-.23-.5-.34-.75-.09-.21-.16-.42-.28-.61-.08-.13-.19-.16-.33-.1-.12.05-.18.16-.23.27-.23.51-.35,1.05-.32,1.62.01.21.05.43.14.62.06.11.16.16.27.13ZM23.09,10.7c.05-.17.1-.33.17-.49,0-.01.02-.02.02-.03,0,0,.01.01.03.03.08.2.17.4.26.61.09.21.18.42.28.62.01.03.01.04,0,.07-.08.1-.16.2-.24.3,0,0-.01.03-.03.02,0,0-.01-.02-.01-.03-.06-.29-.11-.57-.16-.86-.01-.07-.02-.14-.07-.19-.06-.07-.14-.05-.22-.02-.01,0-.02,0-.03.01,0,0,0-.02,0-.03ZM22.99,11.45s0,0,0,0h0,0ZM22.99,11.45c.03.07.05.14.08.22,0,.02.03.05.01.06-.02,0-.06,0-.08-.02-.03-.02-.03-.23,0-.25Z"/>
      <path d="M26.35,11.36c-.23.28-.48.55-.69.84-.1.13-.11.28-.07.43.02.06.06.1.12.1.11,0,.21-.06.31-.05.04-.03.06-.05.08-.08.16-.36.39-.68.65-.97.3-.35.62-.67.94-.99.1-.1.13-.21.11-.35-.01-.07-.02-.15-.1-.17-.08-.03-.16-.01-.23.05-.12.1-.23.21-.33.32-.28.28-.52.58-.77.88Z"/>
      <path d="M27.71,8.35c.1.02.19,0,.22-.12,0-.01.02-.03.02-.04,0,.01,0,.03.01.04.06.32.12.64.17.96.11.67.22,1.34.19,2.03,0,.12.04.16.16.17.02,0,.04,0,.07,0l.03-.02c.06-.05.06-.12.1-.18.13-.17.28-.31.44-.45.35-.31.72-.58,1.12-.83.03-.02.06-.04.09-.05.16-.05.18-.18.18-.32,0-.02,0-.04,0-.05l-.04-.08c-.06-.05-.13-.06-.2-.07-.11-.02-.14,0-.19.11,0,.01-.02.02-.03.03-.48.31-.94.66-1.36,1.06,0,0-.02.02-.02.02-.01,0,0-.02,0-.03,0-.1-.01-.2-.02-.3-.07-.66-.17-1.32-.3-1.97-.04-.21-.07-.42-.14-.63-.04-.13-.21-.18-.3-.08-.19.19-.31.4-.31.68,0,.07.04.11.1.13Z"/>
      <path d="M32.1,6.85c.26-.23.51-.46.78-.67.03-.03.05-.03.07,0,.05.09.16.11.25.05.03-.02.06-.04.09-.06.04-.03.05-.03.06.02.05.38.1.77.21,1.14.05.19.34,1.08.44,1.25.06.1.19.13.27.06.13-.11.17-.38.07-.52-.04-.06-.31-.83-.33-.9-.15-.45-.19-.92-.26-1.39,0-.02,0-.03.02-.04.08-.06.16-.13.25-.19.3-.23.6-.46.89-.69.11-.09.18-.21.17-.36v-.02c-.1-.12-.17-.14-.32-.09-.15.05-.29.12-.42.2-.67.4-1.29.86-1.89,1.35-.14.11-.24.27-.43.32,0,0-.02.01-.02.02-.1.11-.19.23-.24.37-.02.06,0,.11.04.15.1.08.18.09.29,0Z"/>
      <path d="M35.35,5.95s.01.05.02.07c.09.31.57,1.67.59,1.73.04.11.13.16.24.13.01,0,.02,0,.03-.01.1-.04.12-.12.11-.24-.01-.15-.06-.28-.11-.41-.01-.03-.02-.06-.03-.09.1-.46.29-.96.51-1.36.04.11.12.34.26.62.06.13.13.25.21.37.11.19.24.36.37.52.05.06.11.13.16.18.03.03.07.05.12.06.04,0,.08,0,.12-.01h0c.07-.02.11-.08.12-.15,0-.1,0-.24-.08-.36-.03-.04-.07-.07-.1-.09-.02-.01-.04-.03-.05-.04-.04-.04-.15-.18-.27-.38-.66-1.11-.68-2.11-.69-2.18-.01-.07-.03-.11-.07-.14-.04-.03-.08-.04-.15-.03-.02,0-.03,0-.04,0-.08.02-.11.08-.12.19,0,.03,0,.06,0,.09.11.87-.41,1.63-.55,1.98-.01-.04-.02-.07-.04-.11-.15-.45-.31-.91-.39-1.39-.01-.07-.03-.11-.07-.14-.04-.03-.08-.04-.15-.03-.02,0-.03,0-.04,0-.08.02-.11.08-.12.19,0,.03,0,.06,0,.09.03.32.12.63.21.93Z"/>
      <path d="M37.55,4.98c.2.07.39-.01.45-.18.02-.05.05-.09.07-.13.1-.18.24-.33.38-.48,0,0,.01,0,.02-.01.02-.01.03-.01.04,0,.05.08.1.16.15.24.04.07.08.14.13.2.07.09.17.12.26.08.07-.03.1-.08.11-.15,0-.07,0-.14-.06-.19-.04-.04-.07-.09-.1-.14-.06-.11-.12-.21-.18-.32-.03-.05-.03-.08,0-.13.08-.1.15-.2.23-.3.03-.04.06-.08.08-.13.03-.08,0-.15-.06-.18-.06-.03-.12-.01-.17.04-.07.09-.15.18-.22.26-.01.02-.03.03-.04.05-.02.02-.03.02-.05,0-.07-.1-.13-.2-.2-.3-.04-.06-.09-.09-.17-.09-.13,0-.23.14-.17.27.05.11.11.21.17.31.02.04.05.08.07.12.02.03.02.04-.01.07-.04.03-.08.06-.12.1-.12.1-.25.19-.37.29-.03.02-.07.04-.1.05-.11.03-.21.07-.28.17-.07.09-.08.28.02.4.04.05.09.09.12.1Z"/>
      <path d="M38.22,5.39c-.04.29-.07.59-.07.89,0,.19,0,.37.06.59,0,.03.02.1.05.16.04.1.09.18.17.25.06.05.14.07.22.06.11-.02.18-.09.22-.19.05-.12.06-.24.06-.36,0-.16,0-.31-.02-.47,0-.07,0-.13-.02-.2-.02-.11-.16-.18-.25-.15-.02,0-.04.01-.06.02-.03.01-.04,0-.04-.03,0,0,0-.01,0-.02,0-.2.02-.41.04-.61.02-.21.04-.43.05-.64,0-.06,0-.11-.01-.17-.02-.07-.09-.11-.16-.1-.07.01-.12.06-.13.13-.01.09-.03.17-.06.25-.02.09-.04.17-.06.26,0,.02-.01.05,0,.07.03.04.02.09.02.13,0,.04,0,.07-.01.11Z"/>
      <path d="M39.33,5.77c.04.07.15.13.23.09.15-.08.33-.1.48-.18.04-.02.05-.02.04.03-.02.38.02.75.08,1.12.01.07.07.12.16.13.07,0,.13-.02.16-.09.04-.09.06-.18.06-.28-.01-.37-.02-.74-.03-1.11,0-.03,0-.04.03-.06.15-.08.3-.17.45-.25.03-.02.04-.01.05.02.02.19.06.38.11.57.04.14.08.29.15.42.05.09.13.13.22.12.08,0,.11-.07.14-.14.07-.21.04-.43-.01-.64-.01-.06-.05-.09-.11-.1-.03,0-.04-.02-.05-.05-.02-.13-.05-.26-.07-.39,0-.03,0-.05.03-.07.27-.14.53-.29.8-.42-.09.38-.12.77-.06,1.16.08.43.37.69.81.71.22.01.41-.06.61-.14.03-.01.05-.01.07.02.04.05.09.08.15.1.14.06.3.04.37-.06.08-.11.12-.23.08-.37-.01-.03,0-.05.02-.06.13-.07.2-.17.24-.32.06.21.18.38.4.5.38.22.77.23,1.18.1.8-.24,1.27-.94,1.2-1.66-.01-.09-.02-.17-.04-.26-.07-.45-.24-.87-.48-1.26-.03-.05-.06-.09-.11-.11s-.1-.05-.14-.08c-.22-.15-.46-.19-.71-.17-.13.01-.17.12-.22.22-.04.08-.05.15.03.21.03.02,0,.03-.01.03-.28.22-.51.48-.69.79-.25.42-.44.86-.45,1.35,0,.05,0,.1.01.14,0,0,0,0-.01-.01-.08-.05-.16-.05-.23,0-.09.06-.18.12-.27.18-.01,0-.03.01-.04.02,0-.02,0-.03,0-.05.04-.23.13-.45.23-.66.05-.12.1-.24.12-.37.02-.16-.12-.27-.27-.21-.21.08-.36.24-.52.39-.2.18-.38.39-.58.56-.12.1-.16.21-.19.35-.01.07,0,.13.06.16.09.05.18.05.24,0,.07-.06.13-.13.19-.19.15-.15.31-.3.46-.46h0s0,0,0,0c0,0,0,0,0,0,0,0,0,0,0,0,.01.02,0,.03,0,.05-.06.2-.11.4-.13.61,0,.03-.01.04-.04.05-.09.04-.19.07-.29.09-.35.08-.55-.05-.63-.4-.04-.18-.04-.36-.03-.55.03-.51.19-.97.55-1.35.17-.18.38-.3.63-.32.11-.01.16.07.12.17-.08.17-.19.33-.33.45-.1.09-.15.19-.18.31-.02.07,0,.13.06.17.08.05.17.05.23,0,.1-.08.19-.18.27-.29.19-.26.34-.53.37-.86.01-.16-.06-.29-.2-.36-.13-.07-.27-.09-.42-.07-.23.04-.44.14-.62.29-.31.26-.51.6-.65.97-.05-.04-.12-.05-.2-.02-.27.11-.53.24-.79.37-.03.02-.05.03-.06-.03-.02-.27-.01-.55,0-.82,0-.22.02-.45-.01-.67-.03-.15-.11-.22-.26-.23-.13,0-.23.08-.32.16-.41.38-.74.82-.95,1.35-.08.2-.13.41-.12.63,0,.13.08.21.2.23.11.02.18-.02.23-.14,0,0,0-.01,0-.02,0,0,0-.01.01-.02,0,0,0,.02,0,.03,0,.06,0,.12,0,.17,0,0,0,.02,0,.03-.06.04-.13.1-.2.1-.16,0-.26.09-.36.19-.02.02-.03.04-.06.04-.11.04-.16.12-.18.22-.01.05,0,.11-.03.15h0s.02.02.02.03ZM44.94,4.81c.12-.59.42-1.05.92-1.38.14-.09.29-.15.45-.17.06,0,.15.07.14.14,0,.12-.05.23-.08.35-.03.1-.07.21-.1.31-.03.09,0,.15.09.19.08.04.14.02.2-.05.07-.09.09-.21.13-.32,0-.01.01-.03.02-.03.02,0,.02.02.02.03.09.25.15.51.17.82,0,.05,0,.15,0,.24-.01.18-.09.33-.23.45-.35.28-.73.42-1.18.36-.3-.04-.48-.2-.54-.46-.03-.16-.03-.32,0-.48ZM40.57,3.58c.11-.13.22-.26.36-.38,0,0,.02-.01.03-.02,0,0,0,.02.01.04,0,.21,0,.44,0,.66,0,.23,0,.45.01.68,0,.03,0,.04-.03.06-.11.06-.23.12-.34.18-.01,0-.02.02-.04.01,0,0,0-.03,0-.04.06-.28.13-.57.2-.85.01-.07.04-.13.01-.2-.03-.09-.11-.1-.19-.11-.01,0-.02,0-.03,0,0,0,0-.02.01-.03ZM40.08,4.46s.07-.22.1-.24h0s0,0,0,0c0,.08-.01.15-.02.23,0,.02,0,.06-.01.06-.02,0-.05-.03-.07-.05Z"/>
      <polygon points="43.68 5.06 43.68 5.06 43.68 5.06 43.68 5.06 43.68 5.06"/>
      <path d="M49.79,4.13c.05-.04.1-.09.13-.15.01-.02.02-.03.04-.04.11-.05.22-.09.34-.14,0,0,.02,0,.03,0,.01,0,0,.02,0,.03-.04.12-.09.24-.13.37-.01.03-.03.05-.06.06-.14.02-.24.1-.33.22-.07.1-.07.17.03.25.03.03.06.05.1.06.05.01.05.03.03.08-.06.18-.09.37-.13.55-.02.07.02.14.1.19.06.03.12.03.17-.01.05-.04.11-.09.14-.15.08-.14.1-.3.12-.45,0-.04.01-.05.05-.04.35.13.68.31.97.55.22.18.41.38.52.65.05.12.07.24,0,.37-.03.07,0,.13.08.19.06.04.12.05.18,0,.17-.13.25-.3.23-.52-.02-.25-.14-.45-.29-.64-.36-.44-.81-.75-1.33-.98-.03-.01-.06-.03-.08-.04.03-.01.06-.02.09-.03.44-.14.87-.29,1.28-.51.23-.13.43-.28.57-.5.09-.14.07-.27-.05-.38-.13-.12-.29-.13-.42-.14-.14,0-.24,0-.35,0-.43.05-.85.14-1.27.29-.22.08-.44.16-.66.26-.17.08-.33.18-.44.34-.06.09-.05.16.03.24.11.09.2.11.28.04ZM50.69,4.04c.05-.13.09-.26.14-.38,0-.02.02-.04.05-.05.38-.11.76-.19,1.16-.18.04,0,.08,0,.12,0,.01,0,.04,0,.04.01,0,.02-.02.02-.03.03-.2.13-.42.23-.64.32-.27.11-.54.2-.81.28-.01,0-.03.01-.04,0-.01-.01,0-.03,0-.04Z"/>
      <path d="M53.09,4.3c.1.05.17.03.27-.07,0,0,0-.01.01-.01,0,0,.01-.01.02-.01,0,0,0,.02,0,.03-.02.06-.04.11-.05.17,0,0,0,.02-.01.03-.07.02-.15.06-.22.04-.15-.04-.27,0-.4.07-.02.01-.04.03-.07.03-.12,0-.18.07-.24.16-.03.04-.03.1-.08.14h0s.01.02.02.03c.02.08.11.16.19.15.17-.03.35,0,.52-.04.04,0,.05,0,.03.04-.13.35-.2.72-.24,1.09,0,.07.03.13.11.17.07.03.13.02.18-.03.06-.07.11-.16.13-.25.1-.36.2-.71.29-1.07,0-.03.02-.04.04-.04.17-.03.34-.07.51-.11.04,0,.04,0,.04.04-.03.19-.05.38-.06.58,0,.15,0,.3.02.45.02.1.09.16.18.18.08.02.13-.03.17-.09.13-.18.16-.4.17-.61,0-.06-.03-.11-.08-.13-.03-.01-.04-.03-.03-.06.02-.13.03-.26.04-.39,0-.03.02-.05.05-.05.11-.02.22-.04.34-.07-.05.04-.09.09-.13.14-.05.07-.04.13.01.2.07.09.28.1.36.02.06-.06.1-.14.16-.2.09-.07.19-.12.29-.18.02,0,.03-.02.05,0,.11.11.16.11.29.03.15-.09.3-.18.46-.25.01,0,.03,0,.04,0,0,.01,0,.03,0,.04-.06.24-.15.48-.23.71-.01.04-.04.06-.07.08-.12.06-.24.13-.36.19-.11.06-.21.14-.28.24-.05.07-.04.13.02.2.07.07.14.08.21.04.07-.05.15-.09.23-.13.01,0,.03-.02.04-.01.01,0,0,.02,0,.04-.04.17-.05.35-.02.52.03.18.21.27.34.17.07-.05.12-.11.17-.17.07-.1.06-.18-.04-.25-.03-.02-.04-.05-.04-.08,0-.15.04-.3.09-.44.02-.05.04-.09.09-.11.46-.25.92-.5,1.36-.79.31-.21.62-.42.78-.78v-.07c.01-.22-.13-.3-.31-.36-.01,0-.02-.01-.04-.01l-.11-.02s-.02,0-.03,0c-.33-.03-.65,0-.97.09-.54.14-1.05.36-1.54.62-.04-.04-.1-.07-.17-.06-.29.03-.58.08-.87.13-.04,0-.06.01-.05-.04.06-.27.15-.53.23-.79.07-.21.15-.42.18-.65.02-.15-.04-.25-.19-.29-.13-.04-.24,0-.35.06-.51.24-.95.57-1.3,1.02-.13.17-.24.35-.3.57-.03.12.01.22.12.28ZM56.78,4.86c.06-.16.11-.32.15-.49.02-.11.05-.22,0-.32,0-.02,0-.02.02-.03.42-.13.84-.24,1.29-.17.03,0,.07,0,.07.03,0,.03-.02.06-.05.08-.15.14-.31.25-.48.35-.32.2-.64.38-.97.56-.01,0-.02,0-.04.01,0,0,0-.02,0-.02ZM53.82,4.29c.14-.25.29-.5.43-.76.03-.06.07-.11.07-.19,0-.1-.07-.13-.15-.16,0,0-.02,0-.03-.01,0,0,.01-.01.02-.02.14-.1.29-.19.45-.26.01,0,.03,0,.04,0,0,0,0,.02,0,.04-.06.2-.13.42-.2.63-.07.22-.14.43-.19.65,0,.03-.02.04-.05.05-.13.02-.25.05-.38.07-.01,0-.03.01-.04,0,0,0,0-.02.01-.04ZM53.6,3.65h0s0,0,0,0c-.03.07-.06.15-.09.22,0,.02,0,.06-.03.05-.02,0-.04-.04-.05-.07,0-.03.13-.19.16-.2Z"/>
      <path d="M58.54,5.04c-.08.31-.34,1.73-.35,1.79-.02.11.04.2.15.23.01,0,.02,0,.04,0,.11.01.16-.04.21-.16.06-.13.09-.27.11-.41,0-.03.01-.06.02-.09.32-.35.73-.69,1.12-.92-.02.12-.06.36-.08.67,0,.14-.01.29,0,.43,0,.22.03.43.06.64.01.08.03.16.05.24.01.05.04.08.07.11.04.02.08.04.11.05h0c.07.02.14,0,.17-.07.06-.09.12-.21.12-.35,0-.05-.02-.09-.04-.13-.01-.02-.02-.04-.03-.06-.01-.05-.04-.23-.04-.46-.02-1.29.46-2.17.49-2.24.02-.06.03-.11,0-.15-.02-.04-.05-.07-.11-.1-.01,0-.03-.01-.04-.02-.08-.02-.14.01-.2.1-.02.03-.03.05-.04.08-.34.81-1.17,1.21-1.47,1.44l.02-.11c.09-.47.19-.95.35-1.4.02-.06.03-.11,0-.15-.02-.04-.05-.07-.12-.1-.01,0-.03-.01-.04-.02-.08-.02-.14.02-.2.1-.02.03-.03.05-.04.08-.14.29-.21.61-.29.91,0,.02-.01.05-.02.07Z"/>
      <path d="M60.43,6.12s-.05.09-.1.12h0s.01.02.01.03c0,.09.08.18.16.18.17,0,.34.06.51.06.04,0,.05,0,.03.05-.19.32-.33.67-.44,1.03-.02.07,0,.14.08.19.06.04.13.05.18,0,.08-.06.14-.14.18-.22.16-.33.33-.66.49-1,.01-.02.02-.04.05-.04.17,0,.35,0,.52-.01.04,0,.04,0,.03.04-.07.18-.12.37-.16.56-.03.15-.06.29-.06.44,0,.1.05.17.14.21.08.03.13,0,.19-.06.17-.16.23-.36.28-.57.02-.06,0-.11-.05-.15-.02-.02-.03-.04-.02-.06.04-.13.08-.25.12-.38,0-.03.03-.04.06-.04.3,0,.6-.01.9,0,.01,0,.02,0,.03,0-.08.05-.15.12-.21.2-.05.07-.05.13,0,.2.09.14.23.18.38.21.26.05.51.1.77.14,0,0,.02,0,.02,0,0,0-.02,0-.02,0-.09,0-.17,0-.26.01-.3.02-.6.03-.9.09-.13.03-.21.13-.28.21-.05.12.07.25.2.23.41-.06.82-.08,1.24-.09.31,0,.63,0,.94-.04.17-.02.29-.1.39-.23.07-.09.06-.18-.01-.26-.12-.13-.27-.18-.42-.23-.38-.12-.77-.18-1.16-.25-.01,0-.03,0-.04,0,.01,0,.03-.01.04-.02.22-.05.43-.11.65-.16.42-.09.85-.18,1.27-.27.15-.03.25-.12.34-.24.04-.06.04-.12,0-.18-.06-.08-.13-.11-.19-.08-.08.03-.15.06-.23.08-.29.06-.58.12-.87.18-.46.1-.93.2-1.37.35.02-.02.04-.03.05-.05.09-.13.02-.27-.14-.29-.29-.02-.58-.03-.88-.03-.04,0-.06,0-.04-.05.11-.25.24-.49.37-.73.11-.2.23-.39.3-.6.05-.14,0-.25-.13-.32-.12-.06-.24-.04-.36,0-.54.14-1.04.39-1.46.76-.16.14-.3.3-.4.5-.05.11-.03.22.07.29.09.07.16.06.27-.02,0,0,.01,0,.02-.01,0,0,.01,0,.02-.01,0,0,0,.02,0,.03-.03.05-.06.1-.08.15,0,0-.01.02-.02.02-.07,0-.16.03-.22,0-.14-.07-.27-.04-.4,0-.02,0-.05.02-.07.01-.11-.02-.19.03-.26.11ZM61.91,5.96c.19-.22.38-.44.57-.66.04-.05.1-.1.11-.17.01-.09-.05-.14-.12-.18,0,0-.02-.01-.03-.02,0,0,.02-.01.02-.02.16-.07.32-.13.49-.17.01,0,.03,0,.04,0,0,0,0,.02,0,.04-.1.19-.21.38-.31.58-.11.2-.21.4-.3.61-.01.03-.03.04-.06.04-.13,0-.26,0-.38,0-.01,0-.03,0-.04,0,0,0,.01-.02.02-.03ZM61.81,5.29h0s0,0,0,0c-.04.07-.08.13-.12.2-.01.02-.02.06-.04.05-.02-.01-.03-.05-.03-.08,0-.03.16-.16.2-.16Z"/>
      <path d="M65.71,8.31c.05-.05.1-.11.07-.19s-.09-.13-.18-.15c-.15-.03-.3-.05-.45-.06-.39-.04-.78-.04-1.17-.05-.36,0-.73-.03-1.09-.01-.17,0-.29.09-.38.21-.04.05-.04.1,0,.16.07.09.18.13.24.21.05.02.08.02.11.01.38-.1.77-.12,1.16-.1.46.01.91.06,1.36.11.14.01.25-.03.34-.13Z"/>
      <path d="M66.79,7.91c-.46.5-.91,1.01-1.47,1.42-.1.07-.1.13-.03.23.01.02.03.03.04.05h.03c.07.03.13-.02.2-.02.21,0,.42.02.62.06.46.08.91.2,1.35.35.03.01.06.02.09.04.14.1.25.02.36-.06.01-.01.03-.02.04-.03l.04-.08c0-.07-.04-.14-.07-.2-.06-.1-.09-.11-.2-.08-.02,0-.03,0-.04,0-.55-.18-1.1-.32-1.67-.4-.01,0-.03,0-.03,0,0-.01.01-.02.02-.03.07-.07.15-.14.22-.21.48-.47.92-.96,1.36-1.46.14-.16.28-.32.4-.5.08-.11.01-.27-.12-.29-.26-.03-.51,0-.72.19-.05.04-.07.1-.04.16.04.09.12.15.23.1.01,0,.03,0,.05,0,0,.01-.02.03-.03.04-.21.24-.42.49-.64.73Z"/>
      <path d="M71.09,9.53c.34.06.68.11,1.01.19.04,0,.05.02.04.06-.04.1.02.2.11.23.03.01.07.02.11.03.05,0,.06.02.02.06-.27.28-.54.56-.76.88-.11.16-.63.94-.7,1.12-.04.11.02.23.12.25.17.03.4-.1.45-.27.02-.07.46-.76.49-.82.26-.4.6-.73.92-1.08.02-.02.03-.01.05-.01.1.02.2.05.31.07.37.09.73.18,1.1.26.14.03.27.01.39-.09v-.02c.05-.15.02-.21-.11-.3-.13-.09-.27-.15-.42-.21-.73-.27-1.47-.47-2.23-.63-.17-.04-.36-.02-.52-.13,0,0-.02,0-.03,0-.15-.01-.3,0-.44.04-.06.02-.09.06-.09.13,0,.13.05.19.19.22Z"/>
      <path d="M74.76,10.99c.04-.05.06-.09.06-.14,0-.04-.02-.09-.07-.14-.01-.01-.02-.02-.03-.03-.06-.05-.14-.04-.22.03-.03.02-.05.04-.07.06-.23.22-.42.49-.6.75-.01.02-.03.04-.04.06-.18.26-.95,1.49-.98,1.54-.06.1-.04.2.05.27,0,0,.02.01.03.02.1.05.16.02.26-.07.11-.1.18-.22.25-.34.02-.03.03-.05.05-.08.42-.21.93-.37,1.38-.45-.06.1-.19.31-.32.59-.06.13-.12.26-.16.39-.08.21-.14.41-.18.62-.02.08-.03.16-.04.24,0,.05,0,.09.03.13.02.04.06.06.08.08h0c.06.04.13.04.19,0,.08-.06.19-.15.24-.29.02-.05.01-.1,0-.14,0-.02,0-.05,0-.07,0-.05.05-.23.13-.44.45-1.21,1.22-1.85,1.27-1.9.04-.05.06-.09.06-.14,0-.04-.02-.09-.07-.14-.01-.01-.02-.02-.03-.03-.06-.05-.14-.04-.22.03-.02.02-.05.04-.07.06-.61.63-1.53.7-1.89.81.02-.03.04-.06.06-.09.26-.4.52-.81.84-1.18Z"/>
      <path d="M75.82,14.01c.16-.12.33-.24.5-.35.18-.12.36-.24.53-.37.04-.03.09-.07.12-.11.04-.06.03-.14-.02-.18-.06-.05-.12-.06-.19-.02-.08.04-.15.08-.23.11-.08.03-.16.07-.24.11-.02,0-.04.02-.05.04-.01.05-.05.07-.09.1-.03.02-.06.04-.1.06-.25.15-.5.32-.73.5-.15.12-.29.24-.42.42-.02.03-.06.08-.09.14-.05.09-.09.19-.09.29,0,.08.03.15.09.21.09.08.18.09.29.06.12-.03.22-.1.32-.18.13-.09.24-.2.35-.3.05-.05.1-.09.14-.14.07-.08.04-.24-.04-.28-.02-.01-.04-.02-.05-.03-.03-.01-.03-.03,0-.05,0,0,0,0,.01,0Z"/>
      <path d="M75.95,12.47c-.01.06-.01.12,0,.16.07.2.25.3.42.24.05-.01.1-.02.15-.03.2-.03.41-.03.61,0,0,0,.01,0,.02,0,.02,0,.03.01.02.03-.03.09-.06.18-.09.26-.03.08-.05.15-.07.23-.03.11.01.2.1.25.06.03.13.03.19-.01.06-.04.11-.09.11-.17,0-.06.03-.11.05-.16.04-.11.09-.23.14-.34.02-.05.05-.07.11-.07.13,0,.25,0,.38,0,.05,0,.1,0,.15-.02.08-.02.12-.09.11-.16-.01-.06-.06-.1-.14-.11-.11,0-.23,0-.34,0-.02,0-.04,0-.06,0-.03,0-.04,0-.03-.04.04-.11.08-.23.11-.34.02-.07,0-.13-.04-.18-.09-.1-.25-.09-.32.03-.06.1-.09.21-.13.32-.02.04-.03.09-.05.13-.01.04-.02.04-.06.03-.05-.01-.1-.02-.15-.03-.15-.04-.31-.07-.46-.11-.04,0-.07-.03-.1-.05-.09-.07-.18-.12-.3-.11-.11,0-.27.11-.3.26Z"/>
      <path d="M77.47,14.16c-.1.08-.11.19-.05.3.06.1.12.13.26.09,0,0,.01,0,.02,0,0,0,.02,0,.02,0,0,0,0,.02-.02.02-.05.04-.09.07-.14.11,0,0-.02.02-.03.01-.07-.02-.16-.04-.2-.09-.1-.12-.23-.15-.37-.16-.03,0-.05,0-.07-.02-.1-.06-.19-.05-.29,0-.05.02-.08.06-.14.07h0s0,.03,0,.04c-.03.08,0,.2.07.23.16.07.29.19.45.26.04.02.04.03,0,.05-.31.22-.57.48-.82.77-.05.06-.05.13,0,.2.04.06.1.09.17.07.09-.02.18-.07.25-.13.28-.24.56-.48.85-.72.02-.02.04-.02.06-.01.16.07.32.13.48.2.03.01.04.02.01.05-.13.14-.26.29-.37.44-.09.12-.18.24-.24.38-.04.09-.02.18.05.25.06.06.12.05.19.02.21-.08.36-.24.49-.41.04-.05.04-.1,0-.15-.01-.02-.01-.04,0-.07.09-.1.17-.2.26-.3.02-.03.04-.03.07-.02.27.12.54.23.81.35-.35.16-.67.38-.94.68-.29.33-.31.72-.05,1.08.13.17.31.28.49.39.03.02.04.03.03.06-.01.06,0,.12.01.18.05.14.16.25.28.25.13,0,.26-.05.34-.17.02-.03.03-.04.06-.02.14.06.27.05.4-.01-.12.18-.18.38-.14.63.07.43.31.74.66.98.69.47,1.52.4,2.05-.11.06-.06.12-.12.18-.19.31-.34.52-.73.67-1.16.02-.05.03-.1.02-.16,0-.05-.02-.11-.03-.16-.02-.26-.14-.48-.31-.66-.09-.1-.2-.05-.31-.03-.09.02-.15.06-.14.16,0,.04-.02.01-.03.01-.35-.08-.7-.09-1.05-.05-.48.06-.94.2-1.34.49-.04.03-.08.07-.11.11,0-.01,0-.02,0-.03,0-.1-.06-.15-.14-.18-.11-.03-.21-.06-.31-.1-.01,0-.03-.01-.04-.02.01,0,.02-.02.04-.03.21-.11.43-.18.66-.24.13-.03.25-.07.36-.14.14-.09.14-.26,0-.35-.19-.12-.42-.13-.63-.16-.27-.04-.54-.05-.8-.1-.15-.03-.27,0-.39.07-.06.03-.1.07-.09.15.02.1.07.17.15.18.09.01.18.02.27.03.22.02.43.05.65.08,0,0,0,0,0,0,0,0,0,0,0,0,0,0,0,0,0,0,0,0,0,0,0,0,0,.02-.03.02-.04.03-.19.08-.38.17-.55.28-.02.01-.04.01-.06,0-.09-.05-.17-.1-.25-.17-.28-.22-.3-.47-.08-.74.12-.14.26-.26.4-.37.42-.3.88-.46,1.39-.41.25.02.47.11.65.29.08.08.05.17-.06.19-.18.05-.37.06-.56.02-.13-.02-.24,0-.35.05-.06.03-.11.07-.1.15.01.09.06.16.14.18.13.03.26.04.4.03.32-.01.63-.07.9-.25.13-.09.19-.22.16-.38-.03-.15-.1-.27-.21-.37-.18-.15-.38-.25-.61-.3-.39-.08-.77-.02-1.15.1,0-.06-.04-.12-.11-.15-.26-.14-.52-.26-.79-.38-.03-.02-.06-.02-.01-.06.2-.18.42-.35.64-.52.18-.14.37-.26.52-.43.1-.11.1-.23.01-.35-.08-.1-.2-.13-.32-.15-.56-.09-1.11-.06-1.64.11-.21.06-.4.16-.57.3ZM80.34,18.58c.1-.13.23-.22.37-.29.53-.28,1.08-.33,1.65-.15.16.05.3.13.42.25.04.05.03.16-.02.2-.1.07-.21.11-.32.15-.1.04-.21.08-.31.12-.08.03-.11.1-.09.18.02.08.08.12.16.12.12,0,.22-.06.33-.1.01,0,.03-.01.04,0,.01.01,0,.03-.01.04-.14.23-.31.43-.53.64-.04.03-.12.09-.19.15-.15.11-.31.14-.49.1-.43-.1-.79-.3-1.02-.69-.16-.26-.15-.5.02-.71ZM77.95,14.36s0-.06,0-.09c0-.03.21-.08.24-.07-.06.04-.13.09-.19.13-.02.01-.04.05-.05.03ZM78.94,14.14s-.01-.02-.02-.03c0,0,.02,0,.03,0,.17,0,.35,0,.52.04.01,0,.02,0,.04.01,0,0-.01.02-.02.03-.17.13-.34.27-.52.41-.18.14-.36.28-.52.43-.02.02-.04.02-.07.01-.12-.05-.23-.1-.35-.16-.01,0-.03,0-.03-.02,0,0,.02-.02.03-.02.26-.13.52-.25.79-.38.06-.03.13-.05.17-.11.05-.08.01-.15-.03-.22ZM78.2,14.2s0,0,0,0h0s0,0,0,0Z"/>
      <polygon points="79.73 17.46 79.73 17.46 79.73 17.46 79.73 17.46 79.73 17.46"/>
      <path d="M83.32,22.48c-.07.03-.1.11-.08.2.01.07.05.11.12.13.07.02.14.03.21.01.16-.03.3-.11.43-.19.04-.02.05-.02.06.02.11.36.18.72.17,1.1,0,.28-.04.56-.18.81-.06.11-.15.2-.28.24-.07.02-.11.08-.1.18,0,.07.04.13.11.14.21.05.39,0,.55-.14.18-.17.27-.39.32-.63.12-.55.08-1.1-.06-1.65,0-.03-.01-.06-.02-.09.03.02.06.03.08.05.38.25.77.5,1.2.68.24.1.49.16.75.13.16-.02.26-.12.26-.28.01-.18-.09-.31-.15-.42-.08-.11-.15-.19-.22-.26-.31-.31-.65-.58-1.02-.81-.2-.13-.4-.25-.61-.35-.17-.08-.35-.14-.54-.13-.11.01-.16.06-.17.17,0,.14.04.22.14.24.07.01.14.02.2,0,.02,0,.04,0,.06,0,.11.06.21.12.32.18,0,0,.02.01.02.02,0,.01-.02.01-.03.02-.12.04-.25.08-.37.13-.03.01-.06.01-.09-.01-.11-.1-.23-.12-.38-.12-.13,0-.18.06-.18.18,0,.04,0,.08.02.12.02.04,0,.06-.04.07-.18.07-.34.16-.51.24ZM84.92,22.28c.13-.04.26-.09.39-.13.02,0,.04-.01.06,0,.32.23.63.48.87.79.02.03.05.07.07.1,0,.01.02.03.02.04-.01.01-.03,0-.04,0-.23-.08-.44-.19-.65-.3-.25-.14-.49-.3-.73-.46-.01,0-.03-.02-.03-.03,0-.02.02-.02.03-.02Z"/>
      <path d="M86.21,24.32c.02.11.08.16.22.16,0,0,.01,0,.02,0,0,0,.02,0,.02,0,0,0-.01.01-.02.01-.05.02-.11.04-.16.06,0,0-.02,0-.03,0-.06-.04-.14-.08-.17-.15-.06-.14-.18-.21-.31-.26-.02-.01-.05-.02-.06-.04-.07-.09-.17-.1-.28-.08-.05,0-.1.04-.15.02h0s0,.02,0,.03c-.05.07-.06.19,0,.24.13.11.22.27.35.38.03.03.03.04-.01.05-.36.12-.69.29-1.01.49-.06.04-.08.11-.06.19.02.07.06.12.14.12.1,0,.19-.01.28-.05.34-.15.68-.29,1.02-.44.02-.01.04-.01.06,0,.13.11.27.22.4.33.03.02.03.03,0,.05-.17.09-.33.2-.48.32-.12.09-.24.18-.34.29-.07.08-.07.16-.03.25.04.07.11.08.18.08.23-.01.41-.13.59-.25.05-.03.07-.09.05-.14,0-.03,0-.05.03-.06.11-.07.22-.14.33-.21.03-.02.05-.02.07,0,.08.07.16.14.24.21-.06,0-.12-.02-.18-.01-.09,0-.13.05-.15.14-.02.11.09.28.21.29.09,0,.17-.01.26,0,.11.03.21.07.32.11.02,0,.03,0,.03.04-.01.15,0,.19.16.24.16.06.33.12.48.2.01,0,.02.02.03.03-.01,0-.02.02-.04.02-.23.11-.46.19-.7.26-.04.01-.07.01-.11,0-.12-.05-.25-.1-.37-.16-.12-.05-.24-.08-.36-.07-.09,0-.13.05-.14.14-.01.09.02.16.1.19.09.02.17.06.25.09.01,0,.03.01.03.02,0,.02-.02.01-.03.02-.16.08-.3.18-.42.31-.12.14-.08.33.08.37.08.02.16.03.24.02.12,0,.18-.06.17-.18,0-.04.01-.06.04-.08.12-.09.26-.15.4-.21.05-.02.09-.02.15,0,.48.2.97.41,1.47.57.35.11.71.22,1.09.12l.06-.03c.17-.14.15-.3.08-.48,0-.01,0-.03-.01-.04l-.05-.1s-.01-.01-.02-.02c-.18-.28-.41-.5-.68-.7-.45-.33-.93-.6-1.44-.81,0-.05,0-.11-.06-.16-.21-.21-.42-.4-.64-.6-.03-.03-.05-.04,0-.06.25-.12.5-.21.76-.31.21-.08.43-.14.62-.26.13-.08.17-.19.11-.33-.05-.12-.16-.18-.26-.24-.51-.24-1.04-.38-1.6-.38-.22,0-.43.03-.63.12-.12.05-.16.15-.14.27ZM88.81,27.15s.02-.01.03,0c.37.24.72.51.94.9.01.02.04.05.03.07-.02.02-.06.02-.09.01-.2-.03-.39-.09-.58-.16-.35-.12-.7-.26-1.05-.41-.01,0-.02-.01-.03-.02,0,0,.01,0,.02-.01.16-.06.32-.11.48-.19.1-.05.2-.1.26-.2ZM87.04,24.31s0,0,0,0h0s0,0,0,0ZM86.78,24.31s.23-.02.25,0c-.07.02-.15.05-.22.07-.02,0-.05.03-.06.01,0-.02,0-.06.03-.08ZM86.68,24.88c.29-.04.57-.09.86-.13.07-.01.14-.01.19-.06.07-.06.05-.14.03-.22,0-.01,0-.02,0-.03,0,0,.02,0,.03,0,.16.05.33.11.48.19.01,0,.02.02.03.02,0,0-.01.01-.03.02-.2.08-.41.16-.62.24-.21.08-.42.16-.63.26-.03.01-.04,0-.07,0-.1-.08-.19-.17-.29-.25,0,0-.03-.01-.02-.03,0,0,.02-.01.04-.01Z"/>
      <path d="M90.18,29.01c.06-.02.1-.05.12-.09.02-.04.02-.09,0-.15,0-.02,0-.03-.01-.04-.03-.07-.1-.1-.2-.09-.03,0-.06.01-.09.02-.31.08-.61.22-.89.35-.02.01-.04.02-.07.03-.29.14-1.56.82-1.62.85-.1.05-.13.16-.09.26,0,.01.01.02.02.03.06.09.13.1.26.07.14-.03.27-.1.39-.17.03-.02.06-.03.08-.05.47.03.99.14,1.42.3-.11.06-.32.17-.57.35-.12.08-.23.17-.34.26-.17.14-.32.29-.46.45-.06.06-.11.12-.16.19-.03.04-.04.08-.04.13,0,.04.02.08.03.11h0c.03.07.09.1.16.1.1-.01.24-.03.35-.13.04-.03.06-.08.08-.11.01-.02.02-.04.03-.06.03-.04.16-.17.34-.32.99-.82,1.98-.99,2.05-1.02.06-.02.1-.05.12-.09.02-.04.02-.09,0-.15,0-.02,0-.03-.01-.04-.03-.07-.1-.1-.2-.09-.03,0-.06,0-.09.02-.84.24-1.68-.15-2.04-.24.03-.02.07-.03.1-.05.42-.22.86-.45,1.31-.6Z"/>
      <path d="M90.26,31.36c-.12.03-.19.12-.19.24,0,.12.05.17.19.2,0,0,.01,0,.02,0,0,0,.01,0,.02,0,0,0-.02,0-.02.01-.06.01-.11.02-.17.03,0,0-.02,0-.03,0-.05-.05-.12-.11-.14-.17-.03-.15-.14-.24-.25-.32-.02-.01-.04-.03-.05-.05-.06-.1-.15-.13-.25-.13-.05,0-.1.02-.15,0h0s0,.02-.01.03c-.06.06-.09.18-.04.24.11.13.17.3.27.44.03.03.02.04-.02.05-.37.05-.73.16-1.08.3-.07.03-.1.09-.1.18,0,.07.04.13.12.14.09.02.19.02.29,0,.36-.08.72-.16,1.08-.24.03,0,.04,0,.06.02.11.13.22.27.33.4.02.03.02.04-.01.05-.18.06-.36.14-.53.22-.13.07-.27.13-.39.23-.08.06-.1.15-.07.24.02.08.09.1.16.11.23.03.43-.05.62-.14.06-.02.08-.07.08-.13,0-.03,0-.05.04-.06.12-.05.24-.1.37-.15.03-.01.05,0,.07.02.19.23.39.46.56.7,0,0,.01.01.02.02-.09-.03-.18-.04-.27-.03-.08,0-.14.05-.16.12-.05.16,0,.29.08.42.12.23.25.46.37.69,0,0,0,.02,0,.02,0,0-.02,0-.02-.01-.06-.06-.11-.13-.17-.2-.2-.22-.4-.45-.63-.64-.11-.09-.23-.09-.34-.08-.12.04-.15.21-.06.3.3.29.58.59.84.91.2.24.39.49.62.71.12.12.26.16.42.15.11,0,.17-.06.19-.17.03-.17-.03-.32-.09-.48-.14-.37-.34-.71-.53-1.06,0-.01-.01-.02-.02-.04.01,0,.03.01.04.02.18.14.35.27.53.41.34.27.67.55,1.01.82.12.09.25.12.4.11.07,0,.12-.04.14-.11.03-.1,0-.17-.06-.2-.07-.04-.14-.08-.2-.13-.23-.19-.45-.38-.68-.57-.37-.29-.73-.59-1.13-.84.02,0,.04,0,.06,0,.16-.01.23-.16.14-.29-.16-.24-.34-.47-.52-.71-.02-.03-.04-.05.02-.06.27-.07.54-.12.81-.17.22-.04.44-.06.66-.14.14-.05.2-.15.17-.3-.02-.13-.12-.21-.22-.28-.45-.33-.95-.57-1.51-.67-.21-.04-.43-.05-.64,0ZM90.63,31.69s.23.02.25.05h0s0,0,0,0c-.08,0-.15.02-.23.03-.02,0-.06.02-.06,0,0-.02.02-.06.04-.08ZM91.5,32.24c.08-.05.08-.13.07-.21,0-.01,0-.02,0-.03,0,0,.02,0,.03,0,.15.08.3.17.44.28,0,0,.02.02.03.03,0,0-.02,0-.03.02-.21.04-.43.08-.65.12-.22.04-.44.08-.66.14-.03,0-.05,0-.06-.02-.08-.1-.16-.2-.24-.3,0,0-.03-.02-.02-.03,0,0,.02,0,.04,0,.29,0,.58.02.87.03.07,0,.14.01.2-.02Z"/>
      <path d="M89.08,34.51c.32.24.58.53.81.84.27.37.52.75.77,1.13.08.12.18.18.32.18.07,0,.15.01.19-.06.04-.07.05-.15,0-.23-.07-.14-.15-.27-.23-.39-.21-.33-.46-.63-.69-.95-.22-.29-.43-.59-.67-.86-.11-.13-.25-.17-.4-.16-.06,0-.11.03-.13.09-.03.11.01.22-.02.32.02.05.03.07.06.09Z"/>
      <path d="M92.88,37.03c-.04.09-.04.19.06.24.01,0,.02.02.03.03-.01,0-.03,0-.04,0-.32-.01-.65-.02-.97-.04-.68-.05-1.36-.08-2.02-.26-.12-.03-.17,0-.2.12,0,.02,0,.04-.01.06v.04c.04.07.12.08.16.14.13.16.24.34.34.53.22.41.41.83.57,1.27.01.03.03.06.03.1.01.17.14.21.27.24.02,0,.03,0,.05.01l.09-.02c.06-.05.08-.11.11-.18.05-.11.03-.14-.07-.2-.01,0-.02-.02-.03-.04-.2-.54-.44-1.06-.73-1.55,0,0-.01-.02-.01-.03,0-.01.02,0,.03,0,.1.01.2.03.3.04.66.08,1.33.12,1.99.14.21,0,.43.02.64,0,.13-.01.22-.16.15-.28-.14-.22-.33-.39-.6-.45-.07-.01-.12,0-.15.07Z"/>
      <path d="M7.58,48.8c0,22.73,18.49,41.22,41.22,41.22s41.22-18.49,41.22-41.22S71.53,7.58,48.8,7.58,7.58,26.07,7.58,48.8ZM48.8,8.07c22.46,0,40.73,18.27,40.73,40.73s-18.27,40.73-40.73,40.73S8.07,71.26,8.07,48.8,26.34,8.07,48.8,8.07Z"/>
    </g>
  </g>
</svg>