<?xml version="1.0" encoding="UTF-8"?>
<svg id="Camada_2" data-name="Camada 2" xmlns="http://www.w3.org/2000/svg" viewBox="0 0 231.54 94.22">
  <g id="Camada_1-2" data-name="Camada 1">
    <g>
      <path d="M19.75,36.84v-.1c-.25-.74-.53-.95-1.33-.97-.8-.02-1.59.07-2.37.22-3.88.76-7.64,1.9-11.35,3.25-.85.31-1.62.88-2.59.82-.05,0-.1.02-.14.05-.68.34-1.3.77-1.78,1.36-.21.25-.22.52-.06.8.32.57.72.72,1.4.45,1.63-.63,3.24-1.33,4.9-1.9.2-.07.28-.07.33.17.11.52.6.81,1.11.69.18-.04.37-.08.54-.15.24-.1.3-.06.25.21-.41,1.93-.84,3.86-.96,5.83-.06.99-.22,5.77-.03,6.75.12.59.7.95,1.21.76.83-.32,1.48-1.52,1.22-2.37-.11-.36-.05-4.5-.04-4.85.07-2.42.65-4.76,1.1-7.12.02-.12.1-.15.18-.17.5-.17,1.01-.35,1.51-.51,1.82-.6,3.66-1.16,5.47-1.8.66-.23,1.22-.68,1.45-1.41Z"/>
      <path d="M29.45,52.09c-.08-.09-.16-.18-.21-.28-.13-.24-.46-1.09-.77-2.24-1.7-6.34-.38-11.28-.34-11.66.04-.34-.01-.58-.15-.76-.14-.18-.36-.29-.69-.36-.08-.02-.16-.02-.23-.02-.4,0-.68.25-.84.76-.05.15-.08.3-.1.43-.69,4.4-4.27,7.44-5.47,8.92,0-.19-.02-.38-.03-.57-.12-2.42-.24-4.91.01-7.36.04-.34-.01-.58-.15-.76-.14-.18-.36-.29-.69-.36-.08-.02-.16-.02-.23-.02-.4,0-.68.25-.84.76-.05.15-.08.3-.1.43-.31,1.62-.3,3.27-.29,4.87,0,.13,0,.25,0,.38,0,1.63.45,8.97.47,9.28.03.58.43.96,1.01.96.06,0,.12,0,.19-.01.57-.08.74-.41.87-1.04.15-.73.1-1.46.04-2.16-.01-.16-.03-.32-.04-.48,1.14-2.11,2.77-4.3,4.41-5.93.03.61.12,1.84.41,3.4.13.73.3,1.43.48,2.12.3,1.08.66,2.11,1.08,3.08.17.39.35.76.54,1.13.11.21.28.36.5.45.2.08.42.09.59.1h.02c.37,0,.66-.21.78-.56.17-.5.35-1.17.14-1.89-.07-.26-.23-.44-.37-.6Z"/>
      <path d="M35.29,40.56c-.38-.02-.65.15-.8.51-.17.41-.36.81-.57,1.19-.22.39-.41.8-.62,1.2-.05.11-.11.22-.07.33.1.24.02.45-.07.67-.07.17-.13.35-.2.53-.54,1.41-1.02,2.84-1.37,4.31-.22.93-.39,1.86-.38,2.98,0,.17,0,.5.05.83.08.52.23,1.02.54,1.45.24.34.58.52,1,.55.58.04,1-.23,1.33-.67.38-.52.58-1.11.74-1.72.21-.76.35-1.54.47-2.32.05-.34.11-.67.13-1.02.03-.55-.59-1.07-1.05-1.01-.11.01-.21.02-.32.05-.17.04-.21,0-.18-.18,0-.03.01-.05.02-.08.27-1,.58-1.98.9-2.97.34-1.04.7-2.08.97-3.14.07-.28.16-.55.13-.85-.03-.36-.31-.64-.67-.66Z"/>
      <path d="M38.61,41.89c.1-.34.13-.7-.09-1.01-.17-.24-.23-.52-.31-.8-.18-.59-.34-1.19-.52-1.78-.08-.27-.03-.45.2-.63.5-.39.99-.81,1.48-1.21.19-.16.38-.33.54-.53.25-.34.21-.74-.09-.99-.26-.22-.58-.21-.89.01-.47.35-.94.7-1.41,1.05-.09.06-.17.13-.26.19-.14.09-.17.08-.23-.09-.21-.57-.4-1.16-.64-1.72-.14-.33-.37-.54-.73-.61-.67-.14-1.29.45-1.17,1.13.1.59.3,1.15.47,1.71.07.23.15.46.22.69.06.19.04.22-.15.31-.23.11-.47.22-.71.34-.72.34-1.45.68-2.17,1.01-.18.09-.37.11-.57.11-.57,0-1.1.11-1.55.5-.44.37-.72,1.3-.36,1.99.15.28.34.53.49.63.89.59,1.94.4,2.46-.36.14-.21.34-.37.5-.56.71-.78,1.56-1.38,2.45-1.93.03-.02.06-.04.09-.05.09-.05.15-.03.18.07.15.45.31.9.46,1.35.13.38.26.77.43,1.14.24.52.68.78,1.18.69.37-.07.6-.3.71-.63Z"/>
      <polygon points="60.46 48.22 60.45 48.23 60.46 48.22 60.46 48.22 60.46 48.22"/>
      <path d="M145.85,51.65c-.12-.13-.24-.26-.37-.38v-7.75c1.02-.67,1.92-1.46,2.55-2.55.41-.71.28-1.4-.35-1.92-.7-.57-1.53-.57-2.2-.62,0,0,0,0,0,0V6.1c0-3.37-2.74-6.1-6.1-6.1h-63.23c-3.37,0-6.1,2.74-6.1,6.1v33.72c-1.06.87-1.97,1.89-2.76,3.02-1.42,2.03-2.5,4.22-2.73,6.73-.02.27-.03.53-.02.78-.04-.07-.09-.13-.17-.2-.37-.32-.76-.35-1.15-.14-.49.26-.99.51-1.49.76-.07.04-.15.05-.23.08.01-.08.02-.16.04-.24.35-1.15.93-2.2,1.56-3.22.35-.57.66-1.16.82-1.82.18-.81-.44-1.44-1.25-1.25-1.13.26-1.98,1.01-2.88,1.67-1.11.81-2.14,1.73-3.29,2.48-.66.43-.97.97-1.17,1.66-.1.33-.11.64.2.87.41.3.87.35,1.21.11.38-.27.74-.57,1.1-.86.87-.68,1.75-1.35,2.63-2.02,0,0,0,0,0,0,0,0,0,0,0,0,0,0,0,0,0,0h0s0,0,0,0c.06.1,0,.17-.04.25-.42.97-.79,1.97-1.01,3.01-.03.14-.1.19-.23.23-.5.13-1.01.24-1.52.29-1.8.19-2.77-.62-2.94-2.42-.09-.94,0-1.86.17-2.78.46-2.57,1.55-4.8,3.62-6.46.98-.78,2.09-1.28,3.39-1.25.55.02.77.43.48.91-.51.83-1.15,1.54-1.95,2.08-.55.37-.87.86-1.09,1.45-.13.34-.12.65.18.9.37.31.81.36,1.15.15.58-.36,1.09-.8,1.56-1.3,1.12-1.19,2.05-2.49,2.38-4.13.16-.79-.1-1.48-.78-1.96-.61-.43-1.31-.64-2.06-.6-1.19.06-2.29.44-3.29,1.1-1.68,1.1-2.86,2.63-3.8,4.36-.18-.07-.39-.09-.62-.03-1.45.33-2.88.75-4.31,1.16-.19.05-.29.1-.26-.19.16-1.39.44-2.76.7-4.13.21-1.12.53-2.23.53-3.38,0-.77-.36-1.23-1.12-1.37-.66-.13-1.21.18-1.73.51-2.42,1.53-4.46,3.45-5.95,5.91-.57.94-1.01,1.94-1.17,3.04-.09.64.2,1.11.78,1.32.56.2.9.07,1.3-.52.02-.03.04-.06.06-.08.03-.03.06-.06.08-.09,0,.05.02.09,0,.14-.06.29-.12.58-.18.87-.01.05-.02.12-.05.13-.35.15-.73.38-1.08.33-.78-.13-1.37.21-1.97.61-.11.07-.21.15-.33.17-.58.08-.89.45-1.11.96-.1.24-.11.53-.3.73h0v.05c.06,0,.08.05.1.1.14.41.66.77,1.05.64.85-.27,1.74-.23,2.59-.49.19-.06.24-.03.19.19-.45,1.86-.58,3.76-.58,5.67,0,.38.24.65.68.79.36.11.68.04.9-.28.28-.41.45-.87.53-1.36.28-1.86.57-3.72.85-5.57.02-.13.07-.21.2-.25.84-.28,1.67-.56,2.5-.84.17-.06.22-.03.21.16-.05.98-.02,1.97.06,2.95.06.76.13,1.52.36,2.25.15.5.52.74,1.01.8.41.04.64-.24.82-.57.57-1.01.56-2.11.51-3.21-.01-.31-.19-.52-.48-.62-.13-.05-.2-.13-.19-.28,0-.67,0-1.34,0-2.01,0-.17.06-.25.22-.3,1.34-.42,2.67-.88,4.02-1.26-.66,1.81-1.03,3.69-.93,5.68.11,2.24,1.46,3.73,3.66,4.11,1.08.18,2.12-.07,3.16-.33.16-.04.25-.02.33.12.16.28.42.46.7.61.68.37,1.48.37,1.93-.08.48-.49.77-1.1.64-1.81-.03-.17-.02-.24.13-.3.74-.3,1.25-.81,1.47-1.6.01-.04.02-.09.03-.13.18,1.22.79,2.26,1.97,3.03,1.11.73,2.28,1.08,3.49,1.14v33c0,3.37,2.74,6.1,6.1,6.1h63.23c3.37,0,6.1-2.74,6.1-6.1v-30.56s.02.01.03.02c.31.2.64.2.92-.04.81-.71,1.2-1.59,1.04-2.69-.18-1.25-.8-2.28-1.62-3.2ZM43.39,42.43c-.03.1,0,.31-.11.29-.12-.03-.23-.2-.29-.33-.06-.14.53-1.04.7-1.09-.1.38-.19.76-.3,1.14ZM43.69,41.29h-.01s.01,0,.01,0c0,0,0,0,0,0ZM47.97,40.28c-.22,1.13-.43,2.26-.55,3.41-.02.15-.08.22-.22.26-.62.19-1.24.39-1.87.58-.06.02-.14.09-.18.02-.02-.03.02-.12.04-.18.58-1.36,1.16-2.72,1.74-4.09.13-.32.31-.63.25-.99-.07-.48-.45-.61-.85-.71-.05-.01-.1-.03-.16-.04.03-.04.06-.08.09-.11.67-.57,1.36-1.13,2.12-1.57.06-.03.12-.04.18-.07,0,.05.01.1.03.2-.21,1.07-.42,2.18-.64,3.3ZM74.91,53.94c2.7-1.5,4.32-4.22,4.23-7.14-.03-.44-.05-.88-.1-1.32-.22-2.33-.96-4.49-2.07-6.53-.13-.24-.29-.46-.52-.61-.23-.15-.48-.29-.7-.46-.27-.22-.56-.39-.85-.54V11.57c0-3.09,2.51-5.6,5.6-5.6h54.5c3.09,0,5.6,2.51,5.6,5.6v27.67c-1.1.3-2.19.67-3.25,1.1-1.12.45-2.22.93-3.28,1.49-.86.45-1.63,1-2.14,1.86-.27.47-.21.85.22,1.2.56.45,1.05.5,1.43.12.25-.24.48-.5.65-.81.05-.09.11-.16.21-.21.56-.26,1.12-.53,1.68-.79.04-.02.11-.05.14-.03.06.04,0,.11-.01.16-.19.63-.39,1.26-.58,1.89-.05.17-.13.28-.31.32-.71.16-1.21.6-1.6,1.2-.35.54-.3.9.2,1.29.16.13.33.24.54.28.25.04.25.16.19.37-.25.93-.38,1.89-.53,2.84-.06.38.16.72.57.94.31.16.61.13.87-.1.27-.24.52-.5.68-.82.36-.73.44-1.54.52-2.34.02-.22.05-.27.27-.19,1.24.41,2.42.93,3.54,1.58v32.06c0,3.09-2.51,5.6-5.6,5.6h-54.5c-3.09,0-5.6-2.51-5.6-5.6v-28.71ZM74.91,40.48c.13.15.22.33.2.49-.03.3-.11.59-.2.87v-1.36ZM74.41,43.13c-.15.38-.31.75-.45,1.13-.16.43-.03.76.37.98.03.01.05.02.08.03v6.5c-1.21.65-2.49,1-3.87.94v-10.71c.47-.38.97-.75,1.52-1.07.72-.42,1.5-.68,2.34-.71v2.91ZM74.91,45.33c.16-.04.31-.13.44-.29.4-.45.53-1.03.77-1.56.03-.06.07-.16.1-.16.09,0,.07.11.09.18.38,1.31.58,2.64.62,4.2-.03.28-.05.75-.11,1.22-.11.92-.56,1.66-1.33,2.19-.19.13-.39.26-.58.38v-6.16ZM144.99,41.45c-.84.54-1.73.99-2.64,1.41-.4.19-.82.35-1.23.52v-1.93c1.21-.32,2.44-.54,3.72-.57.05,0,.1,0,.15,0v.58ZM140.62,43.59c-.77.31-1.54.61-2.32.9-.06.02-.15.07-.19.04-.08-.06,0-.14.02-.21.21-.66.42-1.32.62-1.99.04-.12.08-.2.22-.25.55-.18,1.1-.35,1.65-.51v2.02ZM138.85,46.99c-.15-.06-.29-.12-.44-.18.15-.07.29-.14.44-.2.59-.22,1.18-.45,1.76-.68v1.83c-.57-.28-1.16-.54-1.76-.77ZM141.12,45.72c1.33-.55,2.63-1.16,3.87-1.9v6.94c-1.16-1.11-2.46-2-3.87-2.74v-2.3ZM145.68,40.93c.03.08-.08.11-.14.15-.02.01-.04.02-.05.03v-.24c.07,0,.18.02.19.05ZM70.55,6.1c0-3.09,2.51-5.6,5.6-5.6h63.23c3.09,0,5.6,2.51,5.6,5.6v32.34c-.46.02-.86.06-1.25.12-.88.14-1.75.33-2.62.55V11.57c0-3.37-2.74-6.1-6.1-6.1h-54.5c-3.37,0-6.1,2.74-6.1,6.1v25.58c-.7-.25-1.44-.37-2.22-.36-.68,0-.89.58-1.18,1.03-.24.38-.29.76.11,1.09.14.11-.03.13-.08.17-.18.12-.34.25-.51.38V6.1ZM69.39,52.58c-1.51-.31-2.39-1.17-2.6-2.49-.13-.81-.03-1.63.18-2.42.55-2.1,1.58-3.85,3.08-5.24v10.24c-.22-.02-.44-.05-.66-.1ZM139.38,93.72h-63.23c-3.09,0-5.6-2.51-5.6-5.6v-32.99c.65-.01,1.31-.09,1.98-.25.67-.16,1.3-.39,1.89-.67v28.45c0,3.37,2.74,6.1,6.1,6.1h54.5c3.37,0,6.1-2.74,6.1-6.1v-31.76c.34.22.68.44,1.01.68,1.16.85,2.18,1.84,2.79,3.18.03.06.05.12.07.18v33.19c0,3.09-2.51,5.6-5.6,5.6Z"/>
      <path d="M177.98,37.87c-.19-1.09-1-1.39-1.94-1.53-.07,0-.13-.03-.19-.04h-.56s-.1.03-.15.04c-1.68.13-3.26.62-4.77,1.32-2.54,1.19-4.88,2.66-7.05,4.39-.17-.06-.38-.08-.6-.03-1.45.33-2.88.75-4.31,1.16-.19.05-.29.1-.26-.19.16-1.39.44-2.76.7-4.13.21-1.12.53-2.23.53-3.38,0-.77-.36-1.23-1.12-1.37-.66-.13-1.21.18-1.73.51-2.42,1.53-4.46,3.45-5.95,5.91-.57.94-1.01,1.94-1.17,3.04-.09.64.2,1.11.78,1.32.56.2.9.07,1.3-.52.02-.03.04-.06.06-.08.03-.03.06-.06.08-.09,0,.05.02.09,0,.14-.06.29-.12.58-.18.87-.01.05-.02.12-.05.13-.35.15-.73.38-1.08.33-.78-.13-1.37.21-1.97.61-.11.07-.21.15-.33.17-.58.08-.89.45-1.11.96-.1.24-.11.53-.3.73h0v.05c.06,0,.08.05.1.1.14.41.66.77,1.05.64.85-.27,1.74-.23,2.59-.49.19-.06.24-.03.19.19-.45,1.86-.58,3.76-.58,5.67,0,.38.24.65.68.79.36.11.68.04.9-.28.28-.41.45-.87.53-1.36.28-1.86.57-3.72.85-5.57.02-.13.07-.21.2-.25.84-.28,1.67-.56,2.5-.84.17-.06.22-.03.21.16-.05.98-.02,1.97.06,2.95.06.76.13,1.52.36,2.25.15.5.52.74,1.01.8.41.04.64-.24.82-.57.57-1.01.56-2.11.51-3.21-.01-.31-.19-.52-.48-.62-.13-.05-.2-.13-.19-.28,0-.67,0-1.34,0-2.01,0-.17.06-.25.22-.3.5-.16.99-.32,1.49-.48-.22.27-.42.56-.57.89-.19.4-.08.7.25.99.45.39,1.47.27,1.81-.23.25-.37.36-.81.65-1.13.39-.42.85-.78,1.28-1.16.07-.06.12-.11.23-.03.66.44.88.42,1.47-.1.67-.59,1.33-1.19,2.09-1.66.06-.04.13-.06.2-.08,0,.07.02.15.02.22-.08,1.27-.3,2.52-.53,3.77-.04.21-.12.35-.29.48-.54.42-1.07.86-1.61,1.28-.51.4-.92.87-1.19,1.46-.18.4-.1.71.29.99.39.28.8.29,1.09,0,.32-.32.68-.59,1.02-.87.05-.04.13-.11.16-.09.08.03.02.12.02.18-.02.9.07,1.78.39,2.62.33.86,1.3,1.15,1.84.57.29-.3.52-.65.7-1.03.26-.56.15-.94-.41-1.21-.19-.09-.23-.21-.25-.39-.1-.76-.06-1.52.03-2.28.03-.28.14-.47.36-.65,2.09-1.66,4.19-3.31,6.12-5.16,1.37-1.31,2.73-2.66,3.19-4.6v-.36ZM152.03,42.43c-.03.1,0,.31-.11.29-.12-.03-.23-.2-.29-.33-.06-.14.53-1.04.7-1.09-.1.38-.19.76-.3,1.14ZM152.33,41.29h-.01s.01,0,.01,0c0,0,0,0,0,0ZM156.61,40.28c-.22,1.13-.43,2.26-.55,3.41-.02.15-.08.22-.22.26-.62.19-1.24.39-1.87.58-.06.02-.14.09-.18.02-.02-.03.02-.12.04-.18.58-1.36,1.16-2.72,1.74-4.09.13-.32.31-.63.25-.99-.07-.48-.45-.61-.85-.71-.05-.01-.1-.03-.16-.04.03-.04.06-.08.1-.11.67-.57,1.36-1.13,2.12-1.57.06-.03.12-.04.18-.07,0,.05.01.1.03.2-.21,1.07-.42,2.18-.64,3.3ZM175.59,39.22c-.62.81-1.35,1.51-2.11,2.2-1.42,1.28-2.89,2.49-4.38,3.68-.05.04-.11.06-.17.09,0-.04-.01-.08-.02-.1.14-.88.28-1.73.31-2.59.02-.56.05-1.12-.25-1.63-.06-.09,0-.12.06-.15,1.99-1.04,4.02-1.97,6.33-1.99.14,0,.34-.07.39.07.06.14-.07.3-.17.43Z"/>
      <path d="M188.74,52.09c-.08-.09-.16-.18-.21-.28-.13-.24-.46-1.09-.77-2.24-1.7-6.34-.38-11.28-.34-11.66.04-.34-.01-.58-.15-.76-.14-.18-.36-.29-.69-.36-.08-.02-.16-.02-.23-.02-.4,0-.68.25-.84.76-.05.15-.08.3-.1.43-.69,4.4-4.27,7.44-5.47,8.92,0-.19-.02-.38-.03-.57-.12-2.42-.24-4.91.01-7.36.04-.34-.01-.58-.15-.76-.14-.18-.36-.29-.69-.36-.08-.02-.16-.02-.23-.02-.4,0-.68.25-.84.76-.05.15-.08.3-.1.43-.31,1.62-.3,3.27-.29,4.87,0,.13,0,.25,0,.38,0,1.63.45,8.97.47,9.28.03.58.43.96,1.01.96.06,0,.12,0,.19-.01.57-.08.74-.41.87-1.04.15-.73.1-1.46.04-2.16-.01-.16-.03-.32-.04-.48,1.14-2.11,2.77-4.3,4.41-5.93.03.61.12,1.84.4,3.4.13.73.3,1.43.48,2.12.3,1.08.66,2.11,1.08,3.08.17.39.35.76.54,1.13.11.21.28.36.5.45.2.08.42.09.59.1h.02c.37,0,.66-.21.78-.56.17-.5.35-1.17.14-1.89-.07-.26-.23-.44-.37-.6Z"/>
      <path d="M199.4,48.53c-.13-.05-.2-.13-.19-.28,0-.67,0-1.34,0-2.01,0-.17.06-.25.22-.3,1.39-.44,2.78-.92,4.18-1.32-.23.35-.41.73-.52,1.16-.11.4,0,.73.35.98.67.5,1.43.42,2.18.29,1.31-.22,2.62-.47,3.92-.7.04,0,.08,0,.12-.01-.03.03-.06.07-.1.08-.4.17-.81.34-1.21.52-1.4.63-2.81,1.22-4.1,2.07-.58.38-.77.98-.94,1.52,0,.67.81,1.06,1.39.74,1.85-1.02,3.78-1.87,5.73-2.67,1.47-.61,2.97-1.14,4.39-1.88.75-.39,1.18-1.02,1.41-1.81.16-.54-.03-.94-.53-1.2-.78-.39-1.61-.37-2.44-.33-2.02.11-3.99.53-5.97.9-.06.01-.13.02-.2.02.05-.05.1-.11.16-.15.93-.64,1.85-1.29,2.79-1.91,1.84-1.21,3.69-2.4,5.54-3.6.64-.42.99-1.03,1.18-1.75.09-.35-.03-.63-.33-.83-.43-.28-.8-.3-1.07-.04-.3.28-.6.56-.96.78-1.28.8-2.55,1.61-3.81,2.44-1.84,1.21-3.68,2.41-5.4,3.79.11-.68-.41-1.19-1.15-1.02-1.45.33-2.88.75-4.31,1.16-.19.05-.29.1-.26-.19.16-1.39.44-2.76.7-4.13.21-1.12.53-2.23.53-3.38,0-.77-.36-1.23-1.12-1.37-.66-.13-1.21.18-1.74.51-2.42,1.53-4.46,3.45-5.95,5.91-.57.94-1.01,1.94-1.17,3.04-.09.64.2,1.11.78,1.32.56.2.9.07,1.3-.52.02-.03.04-.06.06-.08.03-.03.06-.06.08-.09,0,.05.02.09,0,.14-.06.29-.12.58-.18.87-.01.05-.02.12-.05.13-.35.15-.73.38-1.08.33-.78-.13-1.37.21-1.97.61-.11.07-.21.15-.33.17-.58.08-.89.45-1.11.96-.1.24-.11.53-.3.73h0v.05c.06,0,.08.05.1.1.14.41.66.77,1.05.64.85-.27,1.74-.23,2.59-.49.19-.06.24-.03.19.19-.45,1.86-.58,3.76-.58,5.67,0,.38.24.65.68.79.36.11.68.04.9-.28.28-.41.45-.87.53-1.36.28-1.86.57-3.72.85-5.57.02-.13.07-.21.2-.25.84-.28,1.67-.56,2.5-.84.17-.06.22-.03.21.16-.05.98-.02,1.97.06,2.95.06.76.13,1.52.36,2.25.15.5.52.74,1.01.8.41.04.64-.24.82-.57.57-1.01.56-2.11.51-3.21-.01-.31-.19-.52-.48-.62ZM193.35,42.43c-.03.1,0,.31-.11.29-.12-.03-.23-.2-.29-.33-.06-.14.53-1.04.7-1.09-.1.38-.19.76-.3,1.14ZM193.65,41.29h-.01s.01,0,.01,0c0,0,0,0,0,0ZM197.93,40.28c-.22,1.13-.43,2.26-.55,3.41-.02.15-.08.22-.22.26-.62.19-1.24.39-1.87.58-.06.02-.14.09-.18.02-.02-.03.02-.12.04-.18.58-1.36,1.16-2.72,1.74-4.09.13-.32.31-.63.25-.99-.07-.48-.45-.61-.85-.71-.05-.01-.1-.03-.16-.04.03-.04.06-.08.1-.11.67-.57,1.36-1.13,2.12-1.57.06-.03.12-.04.18-.07,0,.05.01.1.03.2-.21,1.07-.42,2.18-.64,3.3Z"/>
      <path d="M216.13,47.78c-.77.13-1.52.32-2.28.52-1.93.51-3.78,1.22-5.66,1.88-1.75.62-3.51,1.18-5.22,1.92-.78.34-1.2.93-1.43,1.71-.09.31-.01.58.26.76.48.32,1.1.28,1.5.57.25-.01.4-.05.54-.15,1.64-1.16,3.47-1.96,5.35-2.61,2.19-.75,4.44-1.34,6.68-1.94.71-.19,1.13-.59,1.37-1.25.13-.34.28-.71,0-1.03-.29-.33-.67-.47-1.12-.39Z"/>
      <path d="M230.8,50.64c-.47-.36-.65-.33-1.1.08-.06.06-.13.08-.21.08-2.91.31-5.78.83-8.59,1.69-.05.01-.13.04-.15.02-.05-.05.01-.11.03-.16.2-.48.41-.94.59-1.42,1.22-3.16,2.24-6.4,3.18-9.65.3-1.05.63-2.08.81-3.16.11-.68-.53-1.3-1.18-1.08-1.27.42-2.35,1.12-2.95,2.39-.15.32-.1.6.17.83.39.33.87.45,1.28-.02.05-.06.13-.09.2-.13-.01.07-.02.15-.04.22-.47,1.58-.91,3.17-1.41,4.74-1.07,3.3-2.07,6.62-3.79,9.66-.31.55-.2.82.35,1.15.1.06.2.09.31.14h.18c.36-.08.54-.43.86-.58.97-.46,1.98-.77,3.02-1.03,2.3-.59,4.63-.99,6.99-1.22.17-.02.34-.05.5-.02.86.15,1.22-.43,1.54-1.05.04-.08.08-.16.12-.24v-.46c-.15-.34-.46-.55-.73-.76Z"/>
      <rect x="82.42" y="16.35" width="18.42" height="11.19"/>
      <path d="M93.6,66.68h7.24v11.19h11.19v-11.19h7.04v11.19h11.18v-11.19l-6.58-5.59,6.58-5.59v-23.99h-18.22v-3.97h18.22v-11.19h-18.23l-11.19,11.19h0v3.97h-18.42v46.36h11.18v-11.19ZM112.03,42.34h7.04v13.16h-7.04v-13.16ZM93.6,42.34h7.24v13.16h-7.24v-13.16Z"/>
      <rect x="131.11" y="70.6" width="7.27" height="7.27"/>
    </g>
  </g>
</svg>