<?xml version="1.0" encoding="UTF-8"?>
<svg id="Camada_2" data-name="Camada 2" xmlns="http://www.w3.org/2000/svg" viewBox="0 0 98.68 98.68">
  <g id="Camada_1-2" data-name="Camada 1">
    <g>
      <path d="M42.79,39.79c-2.14,1.12-4.06,2.48-5.31,4.63-.68,1.16-.53,2.12.55,2.99,1.39,1.13,2.6,1.23,3.56.31.63-.6,1.19-1.25,1.61-2.02.12-.22.28-.41.53-.52,1.39-.65,2.78-1.31,4.17-1.97.11-.05.28-.13.35-.09.16.11.01.27-.03.4-.48,1.57-.98,3.14-1.44,4.71-.13.43-.32.7-.77.79-1.77.39-3.02,1.49-3.99,2.98-.87,1.34-.74,2.23.51,3.21.4.31.83.61,1.33.69.61.1.62.4.48.93-.61,2.33-.96,4.71-1.32,7.08-.14.94.39,1.8,1.41,2.33.77.4,1.52.33,2.17-.24.66-.59,1.29-1.24,1.68-2.04.9-1.83,1.1-3.83,1.29-5.82.05-.54.12-.66.67-.48,4.52,1.48,8.75,3.55,12.57,6.37,2.88,2.12,5.42,4.58,6.93,7.9.68,1.49,1.02,3.01.34,4.64-.37.89.04,1.68,1.14,2.4.77.5,1.6.51,2.29-.1,2.02-1.77,2.98-3.97,2.58-6.7-.45-3.11-2-5.67-4.03-7.95-4.79-5.36-10.74-9.02-17.41-11.59-.37-.14-.73-.3-1.1-.45.37-.16.73-.35,1.1-.49,5.46-2.06,10.88-4.21,15.87-7.3,2.81-1.74,5.28-3.84,6.96-6.75,1.03-1.78.71-3.49-.86-4.77-1.73-1.41-3.81-1.43-5.47-1.54-1.73,0-3.05.13-4.36.33-5.46.85-10.73,2.36-15.85,4.43-2.78,1.12-5.52,2.31-8.17,3.7ZM52.85,45.98c.51-1.65,1.03-3.3,1.55-4.94.09-.29.2-.51.54-.62,4.74-1.6,9.55-2.91,14.6-3.01.53,0,1.05-.01,1.58,0,.18,0,.48.04.51.13.07.21-.2.28-.34.38-2.47,1.78-5.19,3.14-7.94,4.41-3.29,1.52-6.67,2.81-10.07,4.06-.15.06-.38.16-.46.1-.19-.14-.01-.35.04-.52Z"/>
      <path d="M49.34,0C22.13,0,0,22.13,0,49.34s22.13,49.34,49.34,49.34,49.34-22.13,49.34-49.34S76.55,0,49.34,0ZM49.34,98.19C22.41,98.19.5,76.27.5,49.34S22.41.5,49.34.5s48.84,21.91,48.84,48.84-21.91,48.84-48.84,48.84Z"/>
      <path d="M94.45,41.73c-.1.08-.12.16-.05.29.16.31.34.6.49.92.02.04.02.05-.02.07-.1.03-.14.14-.11.24.01.03.02.07.04.1.03.05.02.06-.04.05-.39-.03-.78-.07-1.17-.05-.2.01-1.14.1-1.33.16-.11.04-.17.16-.12.26.08.16.34.25.5.18.07-.03.88-.12.96-.13.48-.04.95.01,1.43.04.02,0,.03.02.04.03.05.1.09.19.14.29.16.34.32.69.49,1.03.06.12.16.22.31.25h.02c.14-.07.17-.13.16-.29-.02-.16-.05-.31-.1-.46-.24-.74-.56-1.46-.92-2.16-.08-.16-.21-.3-.22-.49,0,0,0-.02-.01-.03-.08-.13-.18-.24-.31-.32-.05-.04-.11-.03-.16,0Z"/>
      <path d="M95.87,47.3c.07,0,.11,0,.15-.04.03-.03.05-.07.06-.14,0-.02,0-.03,0-.05,0-.08-.06-.13-.16-.16-.03,0-.06-.01-.09-.02-.88-.08-1.52-.76-1.83-.98.04,0,.07,0,.11-.01.48-.05.97-.11,1.46-.08.07,0,.11,0,.15-.04.03-.03.05-.07.06-.14,0-.02,0-.03,0-.05,0-.08-.06-.13-.16-.16-.03,0-.06-.01-.09-.02-.32-.04-.65-.02-.97,0-.03,0-.05,0-.08,0-.32.02-1.77.2-1.83.2-.11.01-.18.1-.18.21,0,.01,0,.02,0,.04.02.11.09.14.22.16.15.02.29,0,.43-.02.03,0,.06,0,.1-.01.43.2.88.5,1.23.8-.12.01-.36.05-.67.12-.14.04-.28.08-.41.12-.21.07-.41.16-.6.25-.07.04-.15.08-.22.12-.04.02-.07.06-.08.1-.01.04-.01.08-.01.12h0c0,.08.05.13.12.15.1.03.24.05.38,0,.05-.02.08-.05.11-.08.02-.02.03-.03.05-.04.05-.03.21-.1.43-.18,1.24-.41,2.23-.21,2.31-.21Z"/>
      <path d="M96.5,48.62c-.12.02-.23.06-.34.1-.05.02-.09.03-.14.05-.04.01-.04,0-.06-.03-.02-.05-.05-.09-.07-.14-.07-.14-.14-.29-.21-.43-.02-.04-.02-.07-.02-.11,0-.11-.03-.22-.1-.31-.08-.09-.26-.14-.39-.06-.06.03-.1.07-.12.1-.12.18-.07.39.08.49.04.03.08.07.11.1.16.14.28.3.39.48,0,0,0,.01.01.02.01.02,0,.03-.01.04-.09.03-.18.07-.27.1-.08.03-.15.05-.22.09-.1.05-.15.14-.13.24.01.07.06.12.13.14.07.02.14.02.2-.02.05-.04.1-.05.16-.07.12-.04.24-.07.35-.11.05-.02.09,0,.12.04.08.1.16.19.25.29.03.04.07.07.11.1.07.05.15.04.2-.02.04-.05.04-.12,0-.18-.07-.09-.14-.18-.21-.28-.01-.02-.03-.03-.04-.05-.02-.03-.02-.03.02-.05.11-.04.23-.08.34-.13.06-.03.11-.07.12-.15.03-.13-.09-.25-.23-.23Z"/>
      <path d="M93.85,48.56s.01,0,.02,0c.2.05.4.11.59.17.21.06.41.13.63.18.06.01.11.03.17.02.07,0,.12-.06.13-.14,0-.07-.03-.13-.1-.16-.08-.03-.16-.07-.24-.11-.08-.04-.16-.08-.24-.12-.02-.01-.04-.02-.07-.01-.05.02-.09,0-.13-.01-.04-.01-.07-.03-.11-.04-.28-.1-.57-.19-.86-.26-.18-.04-.37-.07-.59-.07-.03,0-.1,0-.16.01-.1.02-.2.05-.29.11-.07.05-.1.12-.11.2,0,.12.05.2.14.26.1.07.22.11.34.14.15.04.31.06.46.08.07,0,.13.02.2.02.11,0,.21-.12.2-.21,0-.02,0-.04-.01-.06,0-.03,0-.04.04-.04Z"/>
      <path d="M95.4,50.21c-.18-.12-.38-.22-.59-.26-.13-.02-.22.03-.27.14-.04.11-.02.18.09.26,0,0,.01,0,.02.01,0,0,.01.01.02.02,0,0-.02,0-.03,0-.06-.01-.11-.03-.17-.04,0,0-.02,0-.03-.01-.03-.07-.07-.15-.06-.22.03-.15-.03-.27-.11-.39-.01-.02-.03-.04-.03-.07-.01-.12-.08-.18-.18-.23-.05-.02-.1-.03-.14-.07h-.01s-.01.01-.02.02c-.08.03-.16.12-.14.2.05.17.03.35.08.52.01.04,0,.05-.04.04-.37-.1-.74-.14-1.12-.16-.07,0-.13.04-.16.13-.02.07-.01.13.05.18.08.06.17.1.27.12.37.07.73.14,1.1.21.03,0,.04.02.05.04.05.17.1.34.15.5.01.03,0,.04-.03.04-.19-.02-.39-.02-.58-.01-.15,0-.3.02-.45.05-.1.03-.15.1-.17.2-.01.08.04.13.11.17.2.12.41.13.63.13.06,0,.1-.03.13-.09.01-.03.03-.04.06-.04.13,0,.27.01.4.01.03,0,.05.01.06.05.08.29.17.57.23.86-.35-.17-.73-.28-1.13-.3-.45-.02-.77.22-.88.65-.06.21-.03.42,0,.63,0,.03,0,.05-.03.06-.06.03-.1.07-.13.13-.09.13-.1.29-.02.38.09.1.2.17.35.16.03,0,.05,0,.06.03.05.15.14.26.28.32-.23,0-.43.09-.61.29-.3.33-.39.71-.36,1.14.07.84.65,1.45,1.38,1.54.09,0,.17.02.26.02.46.03.91-.05,1.34-.21.05-.02.1-.04.14-.08.04-.04.07-.09.11-.12.19-.18.29-.41.32-.67.02-.13-.09-.19-.17-.26-.07-.06-.14-.08-.22-.01-.03.02-.03,0-.03-.02-.15-.33-.37-.61-.63-.85-.36-.34-.75-.62-1.24-.74-.06-.01-.12-.02-.18-.02.02,0,.03,0,.05-.02.07-.07.08-.14.05-.22-.04-.1-.08-.21-.12-.31,0-.01,0-.03-.01-.05.02,0,.03,0,.05.01.22.09.42.23.61.37.11.08.22.15.35.2.16.05.29-.06.27-.22-.03-.23-.16-.41-.28-.6-.14-.23-.3-.46-.43-.7-.07-.14-.17-.21-.31-.26-.06-.03-.12-.03-.18.02-.07.08-.09.17-.04.24.05.08.1.16.15.23.12.19.23.37.35.56,0,0,0,0,0,0,0,0,0,0,0,0,0,0,0,0,0,0,0,0,0,0,0,0-.02,0-.03,0-.05-.01-.18-.1-.37-.19-.58-.25-.03,0-.04-.02-.04-.05-.02-.1-.03-.2-.03-.31,0-.36.17-.54.53-.54.19,0,.37.04.55.08.5.14.92.4,1.21.84.14.21.21.44.18.69-.01.11-.1.14-.19.08-.15-.12-.28-.26-.37-.42-.06-.12-.15-.19-.27-.24-.07-.03-.13-.04-.18.02-.07.07-.09.15-.05.22.06.12.14.23.23.33.21.24.45.45.77.55.15.05.29,0,.4-.12.1-.11.15-.25.16-.4,0-.24-.05-.46-.16-.67-.19-.36-.47-.62-.8-.84.04-.04.07-.1.05-.18-.05-.29-.13-.58-.2-.87,0-.04-.02-.06.04-.05.27.04.54.11.81.17.22.05.44.12.67.13.15,0,.25-.06.28-.21.03-.13-.03-.24-.09-.35-.28-.49-.65-.91-1.13-1.23ZM93.61,55.14c.55.24.95.64,1.17,1.21.06.15.09.32.07.48,0,.06-.1.13-.17.11-.12-.03-.22-.1-.33-.16-.1-.06-.19-.11-.29-.17-.08-.04-.15-.03-.2.04-.05.07-.05.14,0,.21.08.09.19.14.28.2.01,0,.03.02.03.02,0,.02-.02.01-.04.01-.27.04-.54.03-.84,0-.05-.01-.15-.03-.24-.06-.18-.05-.31-.16-.39-.33-.2-.4-.26-.81-.1-1.24.11-.29.3-.43.57-.43.16,0,.32.04.47.11ZM95.23,50.56s0,0,0,0h0s0,0,0,0ZM95.02,50.41s.2.11.21.15c-.07-.02-.15-.04-.22-.07-.02,0-.06,0-.06-.02,0-.02.04-.04.07-.05ZM96.05,51.57c-.21-.05-.43-.1-.65-.15-.22-.05-.45-.1-.67-.14-.03,0-.04-.02-.05-.05-.03-.13-.07-.25-.1-.37,0-.01-.02-.03,0-.04,0,0,.02,0,.04,0,.27.13.53.25.8.38.06.03.12.07.19.06.1-.01.12-.09.15-.16,0-.01,0-.02,0-.03,0,0,.02.01.02.02.11.14.21.28.29.43,0,.01,0,.02.01.04-.01,0-.02,0-.04,0Z"/>
      <polygon points="93.64 53.83 93.64 53.83 93.64 53.83 93.64 53.83 93.64 53.83"/>
      <path d="M93.82,60.33c-.04-.19-.11-.36-.24-.51-.08-.08-.15-.09-.24-.02-.12.08-.15.17-.1.27.03.06.07.12.12.17.01.01.03.03.03.05.02.12.04.24.06.36,0,0,0,.02,0,.03-.01,0-.02,0-.03-.01-.11-.07-.22-.14-.33-.21-.03-.02-.05-.04-.04-.08,0-.14-.05-.26-.15-.37-.08-.1-.16-.1-.26-.03-.03.02-.06.05-.08.09-.02.05-.04.04-.08.02-.17-.1-.34-.17-.52-.25-.07-.03-.15,0-.21.06-.05.05-.06.11-.03.17.03.06.07.13.12.17.12.11.27.17.42.22.04.02.05.02.02.06-.21.32-.46.6-.76.83-.22.18-.47.32-.76.37-.13.02-.25.02-.36-.07-.06-.05-.13-.03-.21.04-.05.05-.07.11-.04.18.09.19.24.31.46.34.25.03.48-.03.7-.14.51-.26.92-.64,1.26-1.1.02-.03.04-.05.06-.08,0,.03.01.06.01.1.04.46.09.93.23,1.38.07.25.18.49.37.68.12.12.25.13.39.03.15-.1.19-.26.23-.39.04-.13.05-.24.07-.34.05-.44.04-.88,0-1.31-.03-.24-.06-.47-.11-.71ZM93.44,62.44s-.02.08-.03.12c0,.01-.01.04-.02.04-.02,0-.02-.02-.02-.03-.09-.23-.13-.47-.17-.71-.05-.29-.08-.57-.1-.86,0-.01,0-.03,0-.04.01-.01.03,0,.04.01.12.07.23.15.35.22.02.01.04.03.04.05.02.4.02.8-.08,1.19Z"/>
      <path d="M93.13,63.65c-.14-.17-.3-.32-.49-.42-.11-.06-.22-.03-.3.06-.07.09-.07.16.01.28,0,0,0,.01.01.02,0,0,0,.01.01.02,0,0-.02,0-.03,0-.05-.03-.1-.06-.15-.09,0,0-.02-.01-.02-.02,0-.08-.02-.16,0-.22.08-.14.05-.27.02-.41,0-.02-.02-.05-.01-.07.02-.11-.03-.2-.11-.27-.04-.04-.09-.05-.12-.1h0s0,0,0,0c0,.01-.02.01-.03.01-.09,0-.19.07-.19.16,0,.18-.07.34-.08.52,0,.04,0,.05-.05.02-.32-.21-.67-.36-1.02-.48-.07-.02-.14,0-.19.07-.04.06-.05.12,0,.19.06.08.13.14.22.19.33.17.66.35.99.53.02.01.03.03.03.05,0,.18,0,.35,0,.52,0,.04,0,.04-.04.03-.18-.07-.37-.13-.56-.18-.15-.04-.29-.07-.45-.08-.1,0-.17.05-.22.14-.04.07,0,.13.05.19.15.17.36.24.57.31.06.02.11,0,.15-.05.02-.02.04-.03.07-.02.12.05.25.09.38.13.03.01.04.03.04.06,0,.11,0,.22,0,.33-.03-.05-.06-.11-.1-.15-.06-.07-.12-.07-.2-.03-.11.05-.16.25-.1.35.05.07.12.13.16.21.05.1.08.21.11.32,0,.02.01.03-.01.05-.13.09-.14.13-.09.28.06.17.12.33.14.51,0,.01,0,.03,0,.04-.01,0-.03,0-.04-.01-.23-.11-.44-.25-.65-.39-.04-.02-.05-.05-.07-.09-.04-.13-.08-.26-.11-.39-.03-.12-.09-.24-.18-.33-.06-.06-.12-.07-.2-.02-.08.05-.11.12-.08.2.03.08.06.17.08.25,0,.01.01.03,0,.04-.01.01-.02,0-.03-.01-.16-.07-.33-.12-.51-.13-.18,0-.31.15-.25.3.03.07.08.14.13.21.08.09.16.1.25.02.03-.03.06-.03.09-.02.15.04.28.11.42.18.05.03.08.06.09.12.14.51.29,1.02.48,1.52.14.35.28.7.6.94l.07.03c.21.05.33-.08.43-.24,0-.01.02-.02.02-.03l.04-.1s0-.02,0-.03c.1-.32.14-.64.12-.98-.02-.57-.12-1.12-.28-1.65.05-.03.09-.08.09-.15.03-.29.05-.59.07-.88,0-.04,0-.06.05-.04.25.12.49.26.73.4.2.11.38.24.6.32.14.05.25.01.33-.12.07-.11.05-.24.02-.36-.13-.55-.35-1.06-.72-1.5ZM91.66,68.47s-.01.07-.04.07c-.03,0-.05-.04-.07-.06-.1-.18-.17-.36-.24-.55-.13-.36-.23-.72-.34-1.08,0-.01,0-.03,0-.04h.02c.15.1.3.19.45.26.1.05.2.1.32.08.02,0,.02,0,.02.02.04.44.05.89-.12,1.31ZM92.71,63.73s.16.17.16.2c-.06-.04-.13-.09-.19-.13-.02-.01-.06-.02-.05-.04.01-.02.05-.03.08-.03ZM92.87,63.93h0s0,0,0,0h0ZM93.4,65.15s-.02,0-.04,0c-.19-.11-.38-.22-.58-.34-.2-.12-.4-.23-.6-.33-.03-.01-.04-.03-.03-.06,0-.13,0-.26.01-.39,0-.01,0-.03,0-.04,0,0,.02.01.03.02.22.2.43.4.65.59.05.05.1.1.17.11.1.02.14-.04.19-.11,0,0,.01-.02.02-.03,0,0,.01.02.01.03.06.16.12.33.15.5,0,.01,0,.03,0,.04Z"/>
      <path d="M91.33,69.03c-.26-.2-.56-.34-.84-.48-.02-.01-.05-.02-.07-.03-.29-.14-1.63-.72-1.69-.74-.11-.05-.21,0-.26.09,0,.01-.01.02-.01.03-.04.11,0,.17.11.25.12.09.25.15.38.2.03.01.06.02.09.04.27.39.52.87.66,1.31-.11-.05-.34-.14-.64-.23-.14-.04-.28-.07-.42-.1-.22-.04-.43-.07-.64-.08-.08,0-.17,0-.25,0-.05,0-.09.02-.12.05-.03.03-.05.07-.07.1h0c-.03.07-.02.14.03.19.07.07.18.16.32.19.05,0,.1,0,.14-.01.02,0,.05-.01.07-.01.05,0,.23.02.47.06,1.28.26,2.04.93,2.1.97.06.04.1.05.15.04.04,0,.08-.04.12-.09,0-.01.02-.03.02-.04.04-.07.02-.14-.06-.22-.02-.02-.05-.04-.07-.06-.72-.51-.94-1.42-1.1-1.76l.1.05c.44.19.89.39,1.31.65.06.04.1.05.15.04.04,0,.08-.04.13-.09,0-.01.02-.03.02-.04.04-.07.02-.14-.06-.22-.02-.02-.05-.04-.07-.06Z"/>
      <path d="M89.76,71.45c-.11-.19-.23-.37-.41-.5-.1-.08-.21-.07-.31,0-.09.08-.1.15-.04.28,0,0,0,.01,0,.02,0,0,0,.02,0,.02,0,0-.02,0-.02-.01-.04-.04-.09-.08-.13-.12,0,0-.02-.02-.02-.02,0-.07,0-.16.05-.22.1-.12.1-.26.09-.4,0-.03,0-.05,0-.07.04-.11.01-.2-.06-.29-.03-.04-.08-.07-.1-.12h0s-.02,0-.03,0c-.08-.02-.2.04-.21.12-.04.17-.13.32-.17.49,0,.04-.02.05-.05.01-.28-.26-.59-.47-.92-.66-.06-.04-.14-.02-.2.04-.06.05-.07.11-.04.18.04.09.1.16.18.23.29.23.58.47.88.7.02.02.03.03.02.06-.04.17-.07.34-.1.51,0,.04-.02.04-.05.02-.16-.11-.34-.2-.51-.28-.14-.06-.27-.13-.42-.16-.1-.02-.18.02-.24.1-.05.07-.02.13.02.2.12.2.31.31.5.41.05.03.11.02.16-.02.02-.02.04-.02.07,0,.11.07.23.13.35.2.03.02.04.04.03.07-.07.3-.12.6-.2.89,0,.01,0,.03,0,.04-.03-.09-.08-.17-.15-.25-.06-.06-.12-.08-.2-.05-.16.06-.23.19-.29.33-.11.24-.21.49-.31.73,0,0,0,.01-.01.02,0,0,0-.02,0-.03.02-.09.03-.17.05-.26.05-.3.1-.6.11-.91,0-.14-.08-.23-.15-.32-.11-.07-.26.02-.28.15-.03.42-.1.83-.18,1.24-.06.31-.14.62-.17.93-.02.17.04.31.15.43.07.09.16.1.26.04.15-.09.24-.23.32-.37.2-.35.35-.72.5-1.09,0-.01.01-.02.02-.04,0,.01,0,.03,0,.04,0,.22.01.45.01.67,0,.44,0,.87,0,1.31,0,.15.06.28.16.39.05.05.11.06.17.04.09-.04.14-.1.12-.17-.01-.08-.03-.16-.03-.25,0-.3.01-.6.01-.9,0-.48,0-.96-.05-1.44.01.02.03.04.04.05.11.12.27.08.31-.08.09-.28.16-.57.23-.86,0-.04.01-.06.06-.03.22.17.43.35.64.53.17.15.33.31.53.43.13.08.25.06.35-.06.09-.1.09-.23.08-.35-.02-.57-.15-1.11-.43-1.61ZM89.33,71.45s.13.19.12.23h0s0,0,0,0c-.06-.05-.11-.11-.17-.17-.01-.02-.05-.03-.04-.05.02-.02.06-.02.09-.02ZM89.75,72.97s-.02,0-.04-.02c-.16-.14-.33-.29-.5-.44-.17-.15-.35-.3-.53-.43-.02-.02-.03-.04-.02-.06.03-.13.06-.25.09-.38,0-.01,0-.03.01-.03,0,0,.02.02.03.03.18.23.35.47.53.7.04.05.08.12.14.14.09.04.15-.02.21-.08,0,0,.02-.02.02-.02,0,0,0,.02,0,.03.03.17.06.34.06.52,0,.01,0,.03,0,.04Z"/>
      <path d="M86.41,71.72c-.11.04-.17.15-.26.19-.03.04-.04.07-.04.11.01.4-.05.79-.15,1.17-.11.45-.26.88-.41,1.32-.05.14-.03.25.06.36.04.06.09.12.17.11.09-.01.15-.06.19-.14.06-.14.11-.29.16-.43.13-.38.21-.76.31-1.14.09-.36.19-.71.25-1.08.03-.17-.02-.3-.13-.42-.04-.05-.09-.07-.15-.04Z"/>
      <path d="M86.54,76.59c-.1.02-.18.08-.15.2,0,.02,0,.03,0,.05-.01-.01-.02-.02-.03-.03-.19-.26-.39-.52-.58-.79-.4-.56-.8-1.12-1.08-1.76-.05-.12-.11-.13-.22-.08-.02,0-.04.02-.06.03l-.02.03c-.03.07,0,.14-.01.21-.04.21-.12.41-.2.6-.18.43-.4.85-.64,1.25-.02.03-.03.06-.06.08-.13.12-.08.24-.02.37l.02.05.07.06c.07.02.14,0,.21-.03.11-.03.13-.06.12-.18,0-.02,0-.03.01-.04.3-.5.56-1.02.76-1.56,0,0,0-.03.01-.03.02,0,.02.02.02.03.05.09.1.18.15.26.36.57.75,1.12,1.15,1.66.13.17.25.35.4.51.09.1.27.07.31-.06.08-.25.1-.51-.03-.75-.03-.06-.08-.09-.15-.07Z"/>
      <path d="M83.49,79.78c-.13-.03-.2,0-.26.14-.14.32-.26.65-.41.96-.02.04-.03.05-.07.02-.09-.06-.2-.03-.25.06-.02.03-.04.06-.05.1-.02.05-.03.05-.06,0-.22-.33-.43-.65-.7-.94-.13-.15-.79-.83-.96-.94-.1-.07-.23-.03-.27.07-.07.16.01.42.17.5.07.03.65.62.7.67.33.34.59.75.86,1.14.01.02,0,.03,0,.05-.05.1-.09.19-.14.29-.17.34-.34.68-.5,1.03-.06.13-.07.27,0,.4h.01c.14.08.21.07.32-.04.11-.11.21-.24.3-.37.43-.66.79-1.35,1.11-2.07.07-.16.1-.35.24-.48,0,0,.01-.02.01-.03.05-.14.07-.29.05-.44,0-.06-.04-.1-.11-.12Z"/>
      <path d="M81.29,82.94c-.17-.28-.39-.52-.61-.75-.02-.02-.03-.04-.05-.06-.22-.24-1.26-1.26-1.31-1.3-.08-.08-.19-.08-.28,0,0,0-.02.02-.03.03-.07.09-.05.16.01.27.07.13.18.23.28.32.02.02.05.04.07.07.11.46.17,1,.14,1.46-.09-.09-.26-.25-.51-.44-.12-.09-.23-.17-.35-.25-.19-.12-.38-.22-.57-.31-.08-.03-.15-.07-.23-.09-.04-.02-.09-.02-.13,0-.04.02-.07.04-.1.07h0c-.05.05-.07.12-.04.19.04.1.11.22.23.3.04.03.09.03.13.04.02,0,.05,0,.07.01.05.02.21.1.41.23,1.1.7,1.56,1.61,1.61,1.67.04.05.08.08.12.09.04,0,.09,0,.15-.04.01,0,.03-.02.04-.03.06-.05.07-.13.02-.22-.01-.03-.03-.06-.04-.08-.49-.74-.37-1.66-.39-2.04.03.03.05.05.08.08.34.34.69.69.98,1.08.04.05.08.08.12.09.04,0,.09,0,.15-.04.01,0,.03-.02.04-.03.06-.05.07-.13.02-.22-.01-.03-.03-.05-.04-.08Z"/>
      <path d="M78.28,84.78c.02.05.05.11.09.15.05.05.13.06.19.02.06-.04.08-.11.06-.18-.03-.08-.05-.17-.06-.25-.02-.09-.04-.17-.06-.26,0-.02-.01-.05-.03-.06-.05-.02-.06-.07-.07-.11-.01-.04-.02-.07-.04-.11-.1-.28-.2-.56-.34-.83-.08-.17-.18-.34-.32-.51-.02-.03-.06-.08-.11-.12-.08-.07-.16-.13-.27-.15-.08-.02-.16,0-.22.04-.09.07-.12.16-.12.27,0,.13.05.24.1.36.06.14.14.28.22.42.04.06.07.12.11.17.07.09.23.09.29.02.01-.02.03-.03.04-.05.02-.03.03-.03.05,0,0,0,0,0,0,.01.08.19.16.38.24.57.08.2.16.41.25.6Z"/>
      <path d="M79.03,85.22c.07-.14.14-.29.2-.43.02-.04.04-.06.07-.09.09-.07.15-.16.18-.27.02-.11-.05-.29-.2-.35-.06-.02-.12-.04-.16-.03-.21.02-.35.18-.33.37,0,.05,0,.1,0,.15-.01.21-.06.41-.13.61,0,0,0,.01,0,.02,0,.02-.02.02-.04.01-.08-.05-.16-.1-.24-.15-.07-.04-.14-.08-.21-.12-.1-.05-.2-.03-.27.04-.05.06-.05.12-.03.19.03.07.07.12.14.14.06.02.1.05.15.08.1.07.2.14.31.21.05.03.06.06.05.12-.03.12-.05.25-.07.37,0,.05-.02.1-.02.15,0,.08.06.14.14.14.07,0,.12-.04.14-.12.03-.11.05-.23.08-.34,0-.02,0-.04.02-.06.01-.03.02-.03.05-.02.1.06.21.13.32.18.06.03.12.04.19,0,.12-.06.14-.23.04-.32-.09-.08-.19-.14-.29-.2-.04-.03-.08-.05-.12-.08-.03-.02-.03-.03-.02-.07.02-.05.04-.09.07-.14Z"/>
      <path d="M77.29,85.2c-.06-.11-.16-.15-.28-.12-.11.03-.15.1-.15.24,0,0,0,.01,0,.02,0,0,0,.02,0,.02,0,0-.01-.01-.02-.02-.03-.05-.05-.11-.07-.16,0,0-.01-.02,0-.03.04-.07.07-.15.13-.18.14-.07.19-.2.24-.33,0-.02.02-.05.03-.07.08-.08.09-.18.06-.28-.01-.05-.04-.1-.04-.15h0,0s-.02,0-.03-.01c-.07-.05-.2-.05-.24.02-.1.14-.25.24-.35.38-.02.03-.04.03-.05,0-.15-.35-.35-.67-.58-.97-.04-.06-.12-.08-.2-.05-.07.02-.11.07-.11.15,0,.1.03.19.08.28.17.33.35.66.52.99.01.02.01.04,0,.06-.1.14-.2.29-.3.43-.02.03-.03.03-.05,0-.11-.16-.23-.32-.36-.46-.1-.11-.2-.23-.32-.32-.08-.06-.17-.06-.26,0-.07.04-.07.11-.06.19.03.23.16.4.3.57.04.05.09.06.15.04.03,0,.05,0,.06.02.08.11.16.21.24.32.02.03.02.05,0,.07-.17.24-.34.48-.52.71-.09-.38-.23-.74-.47-1.07-.26-.36-.65-.46-1.05-.28-.2.09-.35.24-.49.4-.02.02-.04.03-.07.02-.06-.03-.12-.03-.18-.03-.15.01-.29.1-.31.22-.03.13,0,.27.09.37.02.02.03.04.01.06-.09.13-.12.27-.07.42-.15-.17-.35-.28-.61-.29-.44-.03-.8.14-1.11.44-.61.58-.72,1.42-.34,2.04.05.07.1.15.15.22.27.38.61.68,1,.92.05.03.1.05.15.05.05,0,.11,0,.17.01.26.04.5-.03.72-.17.12-.07.1-.19.1-.29,0-.09-.02-.16-.13-.18-.04,0,0-.03,0-.04.16-.32.24-.67.27-1.02.04-.49.01-.97-.2-1.43-.03-.06-.06-.1-.09-.15.02,0,.03.02.05.02.1.01.16-.02.21-.1.05-.1.11-.19.16-.29,0-.01.02-.03.03-.04,0,.02.02.03.02.04.07.23.08.47.09.7,0,.13.02.26.06.39.06.15.23.19.34.07.16-.17.22-.38.3-.59.09-.26.17-.52.27-.77.06-.14.05-.27.01-.4-.02-.07-.05-.12-.13-.12-.1,0-.18.04-.21.11-.03.09-.06.18-.09.26-.07.21-.14.41-.21.62,0,0,0,0,0,0,0,0,0,0,0,0,0,0,0,0,0,0,0,0,0,0,0,0-.02,0-.02-.03-.02-.05-.04-.21-.08-.41-.16-.61,0-.03,0-.04.01-.06.07-.08.14-.15.22-.21.28-.23.53-.2.75.08.12.15.2.31.28.48.21.48.27.97.1,1.47-.08.24-.21.44-.43.58-.09.06-.18.01-.18-.1,0-.19.02-.38.1-.56.05-.12.05-.24.02-.36-.02-.07-.05-.12-.13-.13-.1,0-.17.03-.21.1-.06.12-.09.25-.12.39-.06.32-.07.64.06.94.06.15.18.23.34.24.15,0,.29-.04.41-.13.19-.14.33-.32.43-.54.16-.37.19-.76.15-1.15.06,0,.12-.02.17-.07.19-.22.37-.46.55-.7.02-.03.04-.05.06,0,.14.24.26.49.38.74.1.2.18.42.31.6.09.12.2.15.34.09.12-.06.17-.17.22-.29.21-.53.3-1.08.25-1.65-.02-.22-.07-.43-.17-.62ZM72.3,89.18c-.08.14-.19.27-.33.36-.05.03-.17,0-.19-.06-.05-.11-.06-.23-.08-.35-.02-.11-.03-.22-.05-.33-.02-.09-.07-.13-.16-.13-.08,0-.14.05-.16.14-.02.12.01.23.02.35,0,.01,0,.04,0,.04-.02,0-.02-.01-.03-.02-.2-.19-.36-.4-.52-.66-.02-.05-.07-.14-.1-.22-.07-.17-.07-.34.01-.51.19-.41.47-.71.9-.86.29-.1.53-.04.69.17.1.13.17.28.21.43.16.58.09,1.14-.21,1.66ZM77.02,86.68c-.04.17-.08.34-.15.5,0,.01-.01.02-.02.03,0,0-.01-.01-.03-.03-.09-.19-.19-.4-.29-.6-.1-.21-.2-.41-.31-.61-.02-.03-.01-.04,0-.07.08-.1.15-.21.23-.31,0,0,.01-.03.03-.02,0,0,.01.02.02.03.07.29.14.57.21.86.02.07.02.14.08.19.07.07.14.04.22.01.01,0,.02,0,.03-.01,0,0,0,.02,0,.03ZM77.09,85.91s0,0,0,0h0s0,0,0,0ZM77.09,85.91c-.03-.07-.06-.14-.09-.22,0-.02-.04-.05-.02-.06.02,0,.06,0,.08.02.03.01.04.23.02.26Z"/>
      <polygon points="73.55 86.71 73.55 86.71 73.55 86.71 73.55 86.72 73.55 86.71"/>
      <path d="M68.69,90.22c-.14-.04-.23,0-.27.09-.03.06-.05.13-.05.2,0,.02,0,.04-.02.05-.08.09-.16.18-.24.28,0,0-.02.02-.02.02-.01,0,0-.02-.01-.03-.01-.13-.03-.26-.04-.39,0-.04,0-.06.03-.08.12-.08.17-.2.2-.34.02-.13-.02-.19-.14-.22-.04-.01-.08-.02-.12,0-.05.01-.06,0-.06-.05-.03-.19-.08-.37-.13-.56-.02-.07-.09-.12-.18-.13-.07,0-.12.02-.15.09-.03.06-.05.13-.06.2,0,.16.04.32.09.47.01.04.01.05-.03.06-.38.03-.75.02-1.12-.07-.28-.06-.54-.16-.76-.36-.1-.09-.17-.19-.17-.33,0-.08-.06-.12-.16-.14-.07-.01-.13.01-.16.08-.09.19-.09.39.02.57.13.21.33.35.55.45.52.24,1.07.32,1.64.3.03,0,.06,0,.09,0-.02.02-.04.05-.07.07-.34.32-.66.65-.93,1.04-.15.22-.27.45-.3.72-.02.16.06.28.21.32.17.05.32-.02.45-.06.13-.05.22-.11.31-.16.37-.23.71-.51,1.02-.83.17-.17.33-.34.48-.53.12-.15.22-.31.24-.51.01-.11-.03-.17-.14-.2ZM67.67,91.26c-.3.27-.61.52-.97.68-.04.02-.08.03-.12.05-.01,0-.04.01-.04,0-.01-.01,0-.03.01-.04.12-.21.28-.39.44-.57.19-.22.4-.42.61-.62,0,0,.02-.02.03-.02.02,0,.01.02.01.04.01.14.03.27.04.41,0,.02,0,.04-.02.06Z"/>
      <path d="M65.8,90.77s-.02,0-.02-.01c-.05-.07-.17-.1-.24-.05-.14.11-.31.16-.45.26-.03.02-.04.02-.05-.02-.04-.38-.14-.74-.27-1.1-.02-.07-.09-.11-.18-.1-.08,0-.13.04-.15.11-.03.1-.03.19,0,.29.07.37.14.73.21,1.1,0,.03,0,.04-.02.06-.14.11-.28.21-.41.32-.03.02-.04.02-.05-.02-.06-.19-.13-.37-.21-.55-.06-.14-.13-.28-.22-.4-.06-.08-.15-.1-.24-.08-.08.02-.1.09-.12.16-.04.23.03.43.12.64.02.06.07.08.13.09.03,0,.05.01.06.04.04.13.09.25.13.38.01.03,0,.05-.02.07-.09.07-.18.14-.27.21.02-.06.05-.12.06-.19.01-.09-.02-.14-.1-.17-.11-.05-.3.03-.33.14-.03.08-.02.17-.06.25-.05.1-.12.2-.18.29,0,.02-.02.03-.04.02-.15-.05-.19-.03-.28.1-.09.15-.19.3-.31.43,0,.01-.02.02-.03.03,0-.01-.01-.03-.02-.04-.05-.25-.08-.5-.11-.75,0-.04,0-.07.03-.11.08-.11.16-.22.24-.33.08-.1.13-.22.15-.34.01-.09-.02-.14-.11-.17-.09-.03-.17-.01-.21.06-.04.08-.1.15-.15.22,0,.01-.02.03-.03.03-.02,0-.01-.02-.01-.03-.05-.17-.11-.34-.22-.48-.11-.15-.31-.15-.38,0-.04.07-.06.15-.08.23-.02.12.02.19.14.21.04,0,.06.03.07.06.06.14.1.29.12.44,0,.06,0,.1-.03.14-.31.43-.62.86-.88,1.32-.19.33-.37.66-.36,1.05l.02.07c.1.2.27.21.46.19.01,0,.03,0,.04,0l.11-.03s.02-.01.03-.02c.31-.12.59-.3.84-.52.43-.37.79-.79,1.12-1.25.05.02.12.02.18-.02.25-.16.49-.33.73-.5.03-.02.05-.04.06.02.06.27.1.55.14.82.03.22.05.45.12.67.05.15.15.21.3.18.13-.02.22-.11.29-.21.35-.45.61-.94.72-1.5.04-.21.06-.43.02-.65-.03-.13-.11-.19-.23-.2-.12,0-.17.05-.21.18,0,0,0,.01,0,.02,0,0,0,.01,0,.02,0,0,0-.02-.01-.02,0-.06-.02-.12-.02-.18,0,0,0-.02,0-.03.06-.05.11-.12.18-.13.16-.03.24-.13.33-.24.02-.02.03-.04.05-.05.1-.05.14-.14.14-.25,0-.05-.01-.11,0-.16h0ZM61.98,93.6c-.32.31-.66.6-1.1.73-.03,0-.06.03-.08,0-.02-.02,0-.06,0-.09.07-.19.18-.36.28-.54.2-.32.42-.63.63-.94,0-.01.02-.02.03-.03,0,0,0,.01,0,.02.02.17.04.35.08.51.03.11.05.22.14.3.02.02,0,.02,0,.03ZM64.89,93.15c-.09.15-.18.3-.29.43,0,0-.02.02-.03.02,0,0,0-.02-.02-.04-.03-.21-.07-.44-.1-.66-.03-.23-.07-.45-.12-.67,0-.03,0-.05.02-.06.1-.08.21-.15.31-.23,0,0,.02-.03.03-.02,0,0,0,.02,0,.04-.02.29-.04.59-.06.88,0,.07-.02.14.02.2.05.09.13.08.21.08.01,0,.02,0,.03,0,0,0,0,.02-.01.03ZM65.19,92.44s0,0,0,0h0s0,0,0,0ZM65.17,92.14s.06.02.08.04c.02.02-.03.23-.06.25,0-.08-.01-.16-.02-.23,0-.02-.02-.06,0-.06Z"/>
      <path d="M60.08,93.39c-.07-.32-.46-1.72-.48-1.78-.03-.11-.12-.17-.24-.14-.01,0-.02,0-.04.01-.11.04-.13.11-.13.24,0,.15.04.29.08.42,0,.03.02.06.03.09-.13.46-.36.95-.61,1.34-.03-.12-.1-.35-.22-.64-.06-.14-.12-.27-.18-.39-.1-.2-.22-.38-.34-.55-.05-.07-.1-.13-.15-.2-.03-.04-.07-.06-.12-.07-.04,0-.09,0-.12,0h0c-.07.02-.12.07-.13.14-.01.1-.02.24.05.37.03.05.06.08.1.1.02.01.04.03.05.04.04.04.13.19.24.4.6,1.16.55,2.17.56,2.25,0,.07.03.11.06.14.03.03.08.04.15.04.02,0,.03,0,.04,0,.08-.02.12-.08.13-.18,0-.03,0-.06,0-.09-.05-.88.52-1.62.69-1.96,0,.04.02.07.03.11.12.46.25.94.31,1.43,0,.07.03.11.06.14.03.03.08.04.15.04.02,0,.03,0,.04,0,.08-.02.12-.08.13-.18,0-.03,0-.06,0-.09,0-.33-.08-.65-.15-.96,0-.02-.01-.05-.02-.07Z"/>
      <path d="M57.9,93.06c-.04-.08-.15-.13-.23-.09-.16.08-.34.1-.49.17-.04.02-.05.01-.04-.03.03-.38,0-.76-.06-1.13-.01-.07-.07-.12-.16-.13-.07-.01-.13.01-.17.08-.04.09-.06.18-.06.28,0,.37,0,.75,0,1.12,0,.03,0,.04-.03.06-.16.08-.31.16-.47.24-.03.02-.04.01-.05-.02-.02-.19-.05-.39-.1-.58-.04-.15-.07-.29-.14-.43-.05-.09-.13-.13-.22-.13-.08,0-.12.07-.14.14-.08.22-.05.43,0,.65.01.06.05.1.11.11.03,0,.04.02.05.05.02.13.04.26.06.39,0,.03,0,.05-.04.07-.27.13-.54.28-.82.4-.01,0-.02.01-.04.02.05-.08.08-.17.1-.27.01-.08-.02-.14-.09-.19-.14-.09-.29-.06-.44-.02-.26.07-.51.14-.76.21,0,0-.02,0-.02,0,0,0,.01-.01.02-.02.08-.04.15-.08.23-.12.26-.15.53-.29.77-.48.11-.09.13-.21.16-.32-.01-.13-.18-.2-.29-.12-.35.24-.71.44-1.08.63-.28.15-.57.28-.83.45-.14.09-.21.22-.25.38-.02.11.02.19.13.23.16.06.32.04.49.02.4-.06.78-.18,1.16-.29.01,0,.03,0,.04,0,0,.01-.02.02-.03.03-.17.14-.34.29-.52.43-.34.27-.69.54-1.03.81-.12.09-.18.22-.2.37-.01.07.02.12.08.16.09.05.16.04.21-.01.05-.06.11-.12.18-.17.24-.18.47-.36.71-.55.37-.3.75-.6,1.09-.94,0,0,0,0,0,0,0,.02-.01.04-.02.07-.02.16.11.26.26.2.28-.11.54-.23.81-.36.04-.02.05-.03.06.03,0,.28,0,.55-.01.83,0,.23-.04.45,0,.68.02.15.11.23.26.24.13,0,.23-.07.33-.15.43-.37.77-.81.99-1.34.08-.2.14-.41.14-.63,0-.13-.07-.21-.19-.24-.12-.02-.18.01-.24.14,0,0,0,.01,0,.02,0,0,0,.01-.01.02,0,0,0-.02,0-.03,0-.06,0-.12,0-.18,0,0,0-.02,0-.03.06-.04.13-.1.2-.1.16,0,.26-.08.37-.18.02-.02.04-.04.06-.04.11-.03.16-.11.19-.22.01-.05,0-.11.04-.15h0s-.02-.02-.02-.03ZM56.61,94.05c-.07.28-.15.57-.22.85-.02.07-.04.13-.02.2.03.09.11.11.19.11.01,0,.02,0,.03,0,0,0,0,.02-.02.02-.11.13-.23.26-.37.37,0,0-.02.01-.03.02,0,0,0-.02-.01-.04,0-.22.02-.44.03-.67,0-.23.02-.46,0-.69,0-.03,0-.05.04-.06.12-.06.23-.11.35-.17.01,0,.02-.02.04,0,0,0,0,.02,0,.04ZM57.11,94.37s-.07.22-.1.24h0s0,0,0,0c0-.08.01-.16.02-.23,0-.02,0-.06.01-.06.02,0,.05.03.07.06Z"/>
      <path d="M53.88,93.25c.33-.15.67-.3,1-.48.15-.08.22-.21.25-.36.01-.06,0-.11-.06-.15-.1-.05-.22-.03-.31-.08-.05,0-.08.02-.1.04-.3.26-.65.45-1.01.61-.42.19-.85.35-1.29.51-.14.05-.21.14-.25.27-.02.07-.04.14.02.2.06.06.14.08.23.06.15-.04.3-.09.44-.14.37-.14.73-.31,1.08-.48Z"/>
      <path d="M49.87,92.36s-.04-.02-.06-.03h-.04c-.07.01-.11.08-.17.11-.19.09-.4.15-.6.19-.46.11-.92.18-1.39.22-.03,0-.07,0-.1,0-.17-.03-.24.08-.31.2,0,.02-.02.03-.03.05v.09c.03.07.09.11.14.15.09.07.13.07.22-.01.01-.01.03-.01.04-.02.58-.05,1.15-.14,1.71-.3,0,0,.03,0,.03,0,.01.01,0,.02,0,.03-.04.09-.08.19-.12.28-.25.62-.47,1.26-.66,1.9-.06.21-.13.41-.17.62-.02.13.1.26.23.22.25-.08.47-.21.59-.46.03-.06.02-.12-.03-.16-.08-.07-.17-.09-.25,0-.01.01-.03.02-.04.02,0-.01,0-.03,0-.04.1-.31.19-.63.3-.94.22-.65.43-1.31.79-1.9.06-.11.04-.16-.06-.23Z"/>
      <path d="M47.87,94.96c-.33.1-.66.22-1,.31-.04.01-.06.01-.06-.04-.01-.11-.11-.17-.21-.15-.04,0-.07.01-.11.02-.05.02-.06,0-.05-.04.11-.38.22-.75.27-1.14.03-.19.12-1.14.1-1.34-.01-.12-.13-.2-.23-.17-.17.05-.31.28-.27.45.02.07-.05.89-.06.96-.05.48-.19.93-.31,1.4,0,.02-.02.03-.04.03-.1.03-.2.05-.31.08-.37.09-.74.18-1.11.28-.13.04-.25.12-.31.26v.02c.04.15.09.19.25.21.16.01.32,0,.47-.01.78-.1,1.54-.27,2.29-.49.17-.05.33-.15.52-.13,0,0,.02,0,.03,0,.14-.06.27-.14.37-.25.04-.05.05-.1.02-.16-.06-.12-.13-.15-.27-.11Z"/>
      <path d="M44.29,95.52s.02-.06.03-.08c.1-.31.14-.64.18-.95,0-.02,0-.05,0-.07.04-.32.14-1.78.15-1.84,0-.12-.06-.2-.17-.21-.01,0-.02,0-.04,0-.11,0-.16.06-.2.18-.05.14-.06.28-.06.43,0,.03,0,.06,0,.1-.28.39-.66.77-1.02,1.05,0-.12.02-.37,0-.68,0-.15-.02-.29-.04-.43-.03-.22-.07-.43-.13-.64-.02-.08-.05-.16-.08-.24-.02-.04-.05-.08-.09-.1-.04-.02-.08-.03-.11-.03h0c-.07,0-.13.02-.17.09-.05.09-.1.22-.08.37,0,.05.03.09.06.13.01.02.03.04.03.06.02.05.06.23.09.46.17,1.29-.22,2.23-.24,2.3-.02.07-.01.11.01.15.02.04.06.07.13.09.02,0,.03,0,.04.01.08.01.14-.03.18-.13.01-.03.02-.06.03-.08.25-.85,1.03-1.35,1.31-1.61,0,.04,0,.07,0,.11-.04.48-.08.97-.19,1.45-.02.07-.01.11.01.15.02.04.06.07.13.09.02,0,.03,0,.04.01.08.01.14-.03.19-.13Z"/>
      <path d="M42.09,94.5c-.15-.15-.36-.15-.49-.02-.04.04-.08.06-.12.09-.17.13-.35.22-.55.29,0,0-.01,0-.02,0-.02,0-.03,0-.03-.02-.01-.09-.03-.19-.04-.28-.01-.08-.02-.16-.04-.24-.03-.11-.11-.18-.21-.18-.07,0-.13.04-.16.1-.03.06-.05.13-.02.2.03.05.03.11.03.17.01.12.02.25.04.37,0,.05,0,.09-.06.12-.11.06-.22.12-.33.18-.04.02-.09.05-.12.09-.06.06-.07.14-.02.2.04.05.11.06.18.03.1-.05.21-.1.31-.16.02,0,.04-.02.06-.03.03-.01.04,0,.04.02.02.12.04.24.06.36.02.07.05.12.12.15.13.05.27-.04.27-.18,0-.12-.02-.23-.03-.35,0-.05-.01-.1-.02-.14,0-.04,0-.04.04-.06.05-.01.1-.03.15-.04.15-.04.31-.08.46-.12.04-.01.08,0,.12,0,.11.02.22.02.32-.04.1-.06.19-.23.14-.38-.02-.06-.05-.11-.07-.14Z"/>
      <path d="M42.02,91.88c-.11-.03-.2,0-.28.09-.09.09-.15.2-.21.31-.07.14-.12.29-.17.44-.02.06-.04.13-.06.19-.03.11.08.23.17.23.02,0,.04,0,.06,0,.03,0,.04,0,.03.04,0,0,0,0,0,.01-.09.19-.18.37-.28.55-.1.19-.21.38-.3.58-.02.05-.05.1-.06.16,0,.07.04.14.11.15.07.02.13,0,.17-.07.05-.07.1-.15.15-.21.06-.07.11-.14.16-.21.01-.02.03-.04.02-.06-.01-.05.01-.09.04-.13.02-.03.04-.06.06-.1.16-.26.3-.52.42-.8.08-.17.14-.35.18-.57,0-.03.02-.1.02-.16,0-.11,0-.21-.05-.3-.04-.07-.1-.12-.18-.14Z"/>
      <path d="M39.91,93.55c-.1-.06-.17-.05-.28.04,0,0,0,0-.02.01,0,0-.01,0-.02.01,0,0,0-.02,0-.03.02-.05.05-.11.07-.16,0,0,0-.02.02-.02.07-.01.16-.04.22-.01.15.06.27.02.41-.03.02,0,.05-.02.07-.02.12.01.19-.05.26-.13.03-.04.04-.1.09-.13h0s-.01-.02-.01-.03c0-.09-.09-.18-.17-.17-.18.01-.35-.04-.52-.02-.04,0-.05,0-.03-.04.17-.34.28-.7.37-1.07.02-.07-.02-.14-.09-.18-.06-.04-.13-.04-.19.01-.07.07-.13.15-.16.24-.14.35-.28.69-.42,1.04-.01.02-.02.04-.05.04-.17.01-.35.03-.52.05-.04,0-.04,0-.03-.04.05-.19.09-.38.12-.57.02-.15.04-.3.03-.45,0-.1-.07-.17-.16-.2-.08-.03-.13.02-.18.07-.16.17-.2.38-.25.6-.01.06.01.11.06.14.02.02.03.03.02.06-.03.13-.06.26-.09.39,0,.03-.02.04-.06.05-.3.02-.6.05-.9.06.24-.31.42-.66.51-1.05.1-.43-.07-.79-.46-.99-.2-.1-.41-.11-.62-.11-.03,0-.05,0-.06-.04-.02-.06-.05-.11-.1-.16-.11-.11-.26-.15-.37-.09-.12.07-.21.16-.22.31,0,.03,0,.05-.04.05-.15.02-.26.08-.35.2.03-.22-.02-.43-.17-.63-.26-.35-.63-.52-1.05-.57-.84-.1-1.55.36-1.78,1.06-.02.08-.05.17-.07.25-.12.45-.12.9-.06,1.36,0,.05.02.11.06.15.03.04.07.09.1.13.14.23.35.36.59.44.13.04.2-.05.29-.11.07-.05.11-.12.05-.21-.02-.03.01-.02.03-.03.35-.09.67-.24.96-.45.4-.28.75-.62.96-1.07.02-.05.03-.09.05-.14,0,0,0,.01,0,.02.05.08.12.11.21.09.11-.02.22-.04.33-.06.02,0,.03,0,.05,0,0,.01-.01.03-.02.04-.13.2-.3.37-.48.53-.1.09-.19.18-.26.3-.08.14,0,.3.17.31.23.01.43-.08.64-.16.26-.09.5-.21.77-.29.15-.04.24-.13.32-.25.04-.06.06-.11.01-.18-.06-.08-.15-.12-.22-.09-.09.03-.17.07-.26.1-.2.08-.41.16-.61.24,0,0,0,0,0,0,0,0,0,0,0,0,0,0,0,0,0,0,0,0,0,0,0,0,0-.02.01-.03.02-.05.14-.16.26-.33.36-.52.01-.02.03-.03.06-.03.1,0,.2.01.31.03.35.07.49.27.42.63-.04.18-.11.35-.19.52-.23.46-.57.83-1.05,1.03-.23.09-.47.13-.72.05-.1-.03-.12-.13-.04-.2.14-.13.31-.23.49-.29.13-.04.21-.11.29-.21.04-.06.06-.12.02-.18-.05-.08-.13-.11-.21-.09-.13.04-.25.09-.37.16-.28.16-.53.36-.69.65-.07.14-.06.29.04.42.09.12.21.19.36.23.23.05.46.04.69-.02.39-.12.71-.35.99-.63.03.05.09.09.17.09.3,0,.59-.01.89-.03.04,0,.06,0,.04.05-.1.26-.21.51-.32.77-.09.21-.2.41-.26.63-.04.15.01.25.15.32.12.05.24.02.36-.02.54-.18,1.02-.46,1.42-.87.15-.16.28-.33.37-.53.05-.12.01-.22-.09-.29ZM35.35,91.24c-.03.16-.1.31-.2.44-.34.5-.81.81-1.41.91-.16.03-.33.03-.49-.03-.06-.02-.11-.13-.08-.19.05-.11.14-.2.22-.29.07-.08.15-.16.22-.25.06-.07.06-.14,0-.21-.06-.06-.13-.07-.2-.03-.11.06-.17.16-.25.24,0,0-.02.03-.03.02-.02,0,0-.03,0-.04.02-.27.07-.53.17-.83.02-.05.06-.14.1-.22.08-.16.22-.27.4-.32.43-.12.85-.1,1.24.14.26.16.37.38.32.64ZM39.18,93.49c-.17.24-.35.47-.52.71-.04.05-.09.11-.09.18,0,.1.06.14.13.18,0,0,.02.01.03.02,0,0-.01.01-.02.02-.16.08-.31.16-.48.21-.01,0-.03,0-.04,0,0,0,0-.02,0-.04.09-.2.18-.4.27-.61.09-.21.19-.42.26-.63,0-.03.03-.04.05-.04.13,0,.26-.02.39-.03.01,0,.03-.01.04,0,0,0,0,.02-.02.03ZM39.33,94.15s0,0,0,0h0s0,0,0,0ZM39.33,94.15c.04-.07.07-.14.11-.21.01-.02.02-.06.04-.05.02.01.03.05.04.08,0,.03-.15.18-.19.18Z"/>
      <polygon points="36.42 91.96 36.42 91.96 36.42 91.96 36.42 91.96 36.42 91.96"/>
      <path d="M30.67,88.87c-.07.02-.14.04-.19.09-.13.1-.22.23-.3.37-.02.04-.03.04-.06.01-.27-.27-.5-.57-.67-.9-.13-.25-.22-.52-.21-.81,0-.13.03-.25.14-.34.06-.05.06-.12,0-.21-.04-.06-.1-.09-.17-.07-.21.05-.35.18-.42.39-.08.24-.06.48,0,.71.15.55.45,1.03.83,1.45.02.02.04.05.06.07-.03,0-.06,0-.1,0-.46-.05-.93-.09-1.39-.04-.26.02-.51.09-.74.23-.14.09-.17.22-.11.37.07.16.22.24.34.3.12.06.22.1.32.13.42.13.85.21,1.29.25.24.02.48.03.72.03.19,0,.38-.03.54-.14.09-.06.11-.13.07-.23-.06-.13-.14-.18-.24-.15-.07.02-.13.05-.19.09-.02.01-.03.02-.06.02-.12,0-.25,0-.37,0,0,0-.02,0-.03,0,0-.01,0-.02.02-.03.09-.09.18-.19.27-.29.02-.03.05-.04.08-.03.14.04.27,0,.39-.07.11-.06.13-.13.08-.25-.02-.04-.04-.07-.07-.1-.04-.03-.03-.05,0-.08.13-.14.24-.3.35-.46.04-.06.04-.14-.02-.22-.04-.06-.1-.08-.16-.06ZM29.51,90.08c-.1.1-.19.2-.29.3-.02.02-.03.03-.06.03-.4-.05-.79-.13-1.15-.3-.04-.02-.08-.04-.11-.06-.01,0-.03-.02-.03-.03,0-.02.02-.01.04-.01.24-.04.48-.04.72-.03.29,0,.58.04.86.07.01,0,.03,0,.04,0,0,.02-.01.03-.02.04Z"/>
      <path d="M27.39,88.86c-.07-.09-.15-.1-.27-.04,0,0-.01,0-.02,0,0,0-.02,0-.02,0,0,0,0-.02.01-.02.04-.04.08-.09.12-.13,0,0,.02-.02.02-.02.07.01.16,0,.22.05.12.1.26.1.4.09.03,0,.05,0,.07,0,.11.05.2.01.29-.05.04-.03.07-.08.13-.09h0s0-.03,0-.04c.02-.08-.04-.2-.12-.22-.17-.04-.32-.14-.49-.18-.04,0-.05-.02-.01-.05.27-.27.48-.59.67-.91.04-.06.02-.14-.04-.2-.05-.06-.11-.07-.18-.04-.09.04-.16.1-.23.18-.24.29-.47.58-.71.87-.02.02-.03.03-.06.02-.17-.04-.34-.07-.51-.11-.04,0-.04-.02-.02-.05.11-.16.2-.33.29-.51.07-.14.13-.27.17-.42.02-.1-.02-.18-.09-.24-.07-.05-.13-.02-.2.01-.2.12-.31.3-.41.5-.03.05-.02.11.02.16.02.02.02.04,0,.07-.07.11-.13.23-.2.34-.02.03-.04.04-.07.03-.11-.03-.23-.05-.34-.07.06-.02.12-.04.18-.08.08-.05.09-.11.07-.19-.03-.11-.21-.21-.32-.16-.08.03-.15.09-.23.11-.11.03-.23.03-.34.05-.02,0-.03,0-.04-.02-.06-.15-.1-.17-.25-.15-.18.02-.35.05-.53.04-.01,0-.03,0-.04,0,0-.01.01-.03.02-.04.15-.2.33-.38.5-.56.03-.03.06-.04.1-.05.14,0,.27-.02.41-.03.13,0,.25-.04.36-.11.07-.05.09-.11.06-.2-.03-.09-.1-.14-.18-.12-.09.02-.18.02-.27.03-.01,0-.03,0-.04,0,0-.01,0-.02.02-.03.1-.15.19-.3.23-.48.04-.18-.09-.33-.24-.3-.08.02-.16.05-.23.09-.11.06-.13.14-.07.25.02.04.01.06,0,.09-.07.14-.16.26-.26.37-.04.04-.08.06-.13.07-.53.04-1.06.08-1.58.18-.37.07-.74.14-1.04.41l-.04.06c-.09.2.01.34.15.47,0,0,.02.02.03.03l.09.06s.02,0,.03.01c.29.16.61.26.93.31.56.09,1.12.1,1.68.05.02.06.06.1.13.13.28.09.57.16.86.23.04,0,.06.01.03.06-.17.22-.35.43-.53.64-.15.17-.31.33-.43.53-.08.13-.06.25.05.35.1.09.23.09.35.09.57-.02,1.11-.14,1.61-.41.19-.1.37-.23.51-.4.08-.1.08-.21,0-.31ZM24.2,86.84c-.12.13-.24.25-.34.39-.06.09-.13.18-.14.3,0,.02-.01.02-.03.02-.44-.05-.88-.12-1.26-.37-.02-.01-.06-.03-.06-.05,0-.03.05-.04.08-.05.19-.07.39-.1.59-.13.37-.05.75-.09,1.13-.12.01,0,.03,0,.04,0,0,0,0,.01,0,.02ZM25.93,89.46s.02.02.02.02c0,0-.02,0-.03,0-.17.03-.35.06-.52.05-.01,0-.03,0-.04,0,0,0,0-.02.02-.04.14-.16.29-.33.44-.5.15-.17.3-.34.44-.53.02-.02.04-.03.06-.02.13.03.25.06.38.09.01,0,.03,0,.03.02,0,0-.02.02-.03.03-.24.18-.47.35-.71.52-.05.04-.12.08-.14.14-.04.09.02.15.07.21ZM26.66,89.26h0s0,0,0,0h0ZM26.66,89.26c.05-.05.11-.11.17-.16.02-.01.03-.05.05-.04.02.02.02.06.02.09,0,.03-.19.12-.23.12Z"/>
      <path d="M21.96,86.76c.24-.22.44-.48.64-.73.02-.02.03-.04.05-.06.2-.26,1.02-1.47,1.05-1.52.06-.1.05-.2-.04-.27,0,0-.02-.01-.03-.02-.1-.06-.17-.03-.26.06-.11.1-.19.22-.27.34-.02.03-.04.05-.05.08-.44.19-.96.34-1.41.4.07-.1.2-.3.35-.58.07-.13.13-.26.18-.39.08-.21.15-.41.2-.62.02-.08.04-.16.05-.24,0-.05,0-.09-.02-.13-.02-.04-.06-.07-.08-.09h0c-.06-.05-.13-.05-.19,0-.09.06-.2.14-.25.28-.02.05-.02.1-.01.14,0,.02,0,.05,0,.07,0,.05-.06.23-.15.44-.5,1.2-1.31,1.82-1.36,1.87-.05.05-.07.09-.07.14s.02.09.07.14c.01.01.02.02.03.03.06.05.14.04.22-.02.03-.02.05-.04.07-.06.64-.61,1.57-.65,1.94-.74-.02.03-.04.06-.06.09-.27.39-.56.8-.89,1.16-.05.05-.07.09-.07.14s.02.09.07.14c.01.01.02.02.03.03.06.05.14.04.22-.02.03-.02.05-.04.07-.06Z"/>
      <path d="M20.52,84.16c-.06-.1-.13-.13-.26-.09,0,0-.01,0-.02,0,0,0-.02,0-.02,0,0,0,0-.02.02-.02.05-.04.09-.07.14-.11,0,0,.02-.02.03-.01.07.02.16.04.2.09.1.12.23.15.37.16.03,0,.05,0,.07.02.1.06.19.05.29,0,.05-.02.08-.07.14-.07h0s0-.03,0-.04c.03-.08,0-.2-.07-.23-.16-.07-.29-.19-.45-.26-.04-.02-.04-.03,0-.05.31-.22.58-.49.83-.78.05-.06.05-.13,0-.21-.04-.06-.1-.09-.17-.07-.1.02-.18.07-.26.13-.28.24-.57.48-.85.73-.02.02-.04.02-.06.01-.16-.07-.32-.13-.49-.2-.03-.01-.04-.02-.01-.05.14-.14.26-.29.37-.45.09-.12.18-.25.24-.38.04-.09.02-.18-.05-.25-.06-.06-.13-.05-.2-.02-.22.08-.36.24-.49.42-.04.05-.04.1,0,.16.01.02.01.04,0,.07-.09.1-.17.2-.26.3-.02.03-.04.03-.07.02-.28-.12-.56-.23-.84-.36-.01,0-.03,0-.04-.01.1-.02.19-.05.28-.1.07-.04.1-.1.09-.19-.03-.16-.14-.26-.27-.34-.22-.15-.44-.3-.65-.44,0,0-.01-.01-.02-.02,0,0,.02,0,.03,0,.08.03.16.07.24.1.29.11.57.22.87.28.14.03.25-.03.34-.09.09-.09.03-.26-.09-.3-.4-.11-.8-.26-1.18-.42-.29-.12-.58-.25-.88-.34-.16-.05-.31-.02-.45.06-.1.05-.13.14-.09.24.06.16.18.28.3.39.3.26.64.48.97.7.01,0,.02.02.03.02-.01,0-.03,0-.04,0-.22-.04-.44-.07-.66-.12-.43-.08-.86-.17-1.29-.26-.15-.03-.28,0-.41.08-.06.04-.08.09-.07.16.02.1.07.15.15.16.08,0,.16,0,.24.02.29.06.59.13.88.18.47.09.94.19,1.42.23,0,0,0,0,0,0-.02,0-.04.02-.06.03-.13.09-.13.25.01.32.26.14.53.26.8.39.04.02.06.02.01.06-.2.19-.42.36-.64.53-.18.14-.37.27-.52.44-.1.12-.11.23,0,.35.08.1.21.13.33.15.56.09,1.12.06,1.66-.11.21-.07.4-.16.57-.3.1-.08.11-.19.05-.3ZM18.98,84.48s.01.02.02.03c0,0-.02,0-.03,0-.17,0-.35,0-.52-.04-.01,0-.02,0-.04-.01,0,0,.01-.02.02-.03.17-.13.35-.27.52-.41.18-.14.36-.28.53-.44.02-.02.04-.02.07-.01.12.05.24.1.36.16.01,0,.03,0,.03.02,0,0-.02.02-.03.02-.26.13-.53.26-.79.39-.06.03-.13.05-.17.12-.05.08-.01.15.03.22ZM19.97,84.34s-.21.09-.25.07h0s0,0,0,0c.06-.04.13-.09.19-.13.02-.01.04-.05.05-.03.01.02,0,.06,0,.09Z"/>
      <path d="M18.91,80.7c-.42-.2-.82-.43-1.22-.65-.13-.07-.24-.07-.37-.01-.07.03-.14.06-.14.15,0,.09.03.16.11.21.13.09.26.17.4.24.34.2.71.35,1.06.52.33.16.66.32,1.01.45.16.06.3.03.44-.04.06-.03.08-.08.07-.14-.02-.11-.12-.19-.13-.29-.04-.03-.06-.05-.1-.05-.39-.06-.76-.2-1.12-.37Z"/>
      <path d="M15.29,80.43s-.03,0-.05-.01c.01,0,.02-.02.04-.02.3-.14.59-.29.89-.42.63-.28,1.25-.57,1.93-.72.12-.03.15-.08.12-.2,0-.02-.01-.04-.02-.06l-.02-.03c-.06-.04-.14-.02-.2-.05-.2-.08-.38-.19-.55-.31-.39-.26-.76-.55-1.11-.87-.02-.02-.05-.04-.07-.07-.09-.15-.22-.12-.36-.09-.02,0-.03,0-.05.01l-.07.06c-.03.07-.02.14-.01.21,0,.12.04.14.16.15.02,0,.03,0,.04.02.43.39.89.74,1.39,1.04,0,0,.02.01.02.02,0,.02-.02.01-.03.02-.1.03-.19.07-.29.1-.63.24-1.24.52-1.85.81-.19.09-.39.18-.57.3-.12.07-.12.25,0,.32.23.13.48.2.74.12.07-.02.1-.06.1-.13,0-.1-.05-.19-.17-.19Z"/>
      <path d="M13.48,74.21c-.05.06-.73.52-.79.56-.4.26-.85.43-1.28.63-.02.01-.03,0-.05,0-.09-.06-.17-.12-.26-.19-.3-.23-.6-.46-.91-.69-.11-.08-.25-.12-.39-.08h-.02c-.09.14-.09.21,0,.34.09.13.19.25.31.36.56.55,1.18,1.03,1.82,1.48.15.1.33.16.43.33,0,0,.02.01.02.02.13.07.27.12.42.14.06,0,.11-.02.14-.08.06-.12.04-.2-.09-.28-.29-.19-.58-.38-.86-.58-.03-.02-.04-.04-.01-.07.07-.08.06-.19-.01-.26-.03-.02-.05-.05-.09-.07-.04-.03-.04-.04,0-.06.36-.15.72-.3,1.06-.5.17-.1.96-.62,1.1-.76.08-.09.08-.22-.01-.28-.15-.1-.42-.07-.52.07Z"/>
      <path d="M11.36,73.1l-.09.06c-.4.27-.81.55-1.25.75-.06.03-.1.06-.11.1-.02.04-.01.09.01.15,0,.02.01.03.02.04.04.07.11.09.21.06.03,0,.06-.02.08-.03.31-.11.59-.29.86-.45l.06-.04c.28-.17,1.48-1,1.53-1.03.1-.07.12-.17.06-.27,0-.01-.01-.02-.02-.03-.07-.09-.15-.08-.27-.04-.14.05-.26.13-.37.22-.03.02-.05.04-.08.06-.48.02-1.02-.03-1.46-.14.1-.07.3-.21.54-.42.11-.1.21-.2.31-.3.15-.16.29-.33.41-.5.05-.07.09-.14.14-.21.02-.04.03-.08.02-.13,0-.04-.03-.08-.04-.11h0c-.04-.07-.1-.09-.17-.08-.1.02-.23.06-.33.17-.04.04-.05.08-.06.12,0,.02-.01.04-.03.06-.03.05-.14.19-.3.36-.9.94-1.88,1.22-1.95,1.26-.06.03-.1.06-.11.1-.02.04-.01.09.01.15,0,.02.01.03.02.04.04.07.11.09.21.06.03,0,.06-.02.08-.03.82-.34,1.7-.04,2.08.01Z"/>
      <path d="M10.25,70.68c-.2.05-.4.09-.6.12-.21.04-.43.07-.64.13-.06.01-.11.02-.16.06-.06.04-.08.11-.05.18.03.07.09.1.17.09.09-.01.17-.01.26-.01.09,0,.18,0,.27,0,.02,0,.05,0,.06-.02.03-.04.08-.05.12-.05.04,0,.07-.01.11-.01.3-.04.59-.09.88-.17.18-.05.36-.11.56-.22.03-.02.09-.05.14-.09.08-.06.16-.14.2-.23.04-.07.04-.15,0-.23-.05-.1-.13-.15-.24-.17-.13-.02-.25,0-.37.03-.15.04-.3.08-.45.14-.06.02-.13.04-.19.07-.1.05-.13.2-.08.28.01.02.02.03.04.05.02.03.02.04-.01.05,0,0-.01,0-.02,0Z"/>
      <path d="M9.12,72.18c.11.04.3,0,.38-.13.04-.05.06-.11.06-.15.02-.21-.11-.38-.3-.39-.05,0-.1-.02-.15-.04-.2-.05-.39-.14-.57-.24,0,0-.01,0-.02-.01-.02-.01-.02-.02,0-.04.06-.07.13-.14.19-.21.05-.06.11-.12.16-.18.07-.09.07-.19,0-.27-.05-.06-.11-.08-.18-.06-.07.01-.13.04-.17.11-.03.05-.07.09-.11.13-.09.09-.18.17-.26.26-.04.04-.08.05-.13.02-.12-.05-.23-.1-.35-.14-.05-.02-.09-.04-.14-.04-.08-.01-.15.03-.16.11-.01.07.02.12.09.15.1.05.21.1.32.15.02,0,.04.02.06.03.03.02.03.02,0,.05-.08.09-.16.18-.24.27-.04.06-.06.12-.04.19.04.13.2.18.31.1.09-.07.17-.16.25-.25.03-.03.07-.07.1-.1.03-.03.03-.03.07,0,.04.03.08.06.13.09.13.09.26.19.38.28.03.02.05.05.07.09.05.1.12.18.23.22Z"/>
      <path d="M8.78,69.89c.12-.04.18-.13.17-.25-.01-.12-.06-.17-.2-.19,0,0-.01,0-.02,0,0,0-.02,0-.02,0,0,0,.02-.01.02-.01.06-.01.11-.03.17-.04,0,0,.02,0,.03,0,.06.05.13.1.15.17.04.15.16.23.28.3.02.01.05.02.06.04.06.1.16.12.27.12.05,0,.1-.03.16,0h0s0-.02.01-.03c.06-.06.08-.18.03-.24-.12-.13-.19-.29-.31-.42-.03-.03-.03-.04.02-.05.37-.08.72-.22,1.07-.38.07-.03.1-.1.08-.19-.01-.07-.05-.12-.13-.14-.1-.02-.19,0-.29.02-.36.11-.72.21-1.07.32-.03,0-.04,0-.06-.01-.12-.13-.24-.25-.36-.38-.03-.03-.02-.04.01-.05.18-.08.35-.16.52-.26.13-.08.26-.15.37-.26.08-.07.09-.16.06-.25-.03-.08-.1-.09-.17-.1-.23-.02-.43.08-.62.18-.05.03-.08.08-.07.14,0,.03,0,.05-.03.06-.12.06-.24.11-.36.17-.03.02-.05.01-.07-.02-.2-.22-.42-.43-.61-.66.39-.01.78-.08,1.15-.26.4-.19.58-.55.48-.98-.05-.21-.17-.39-.3-.56-.02-.03-.02-.04,0-.07.04-.05.05-.11.06-.17.02-.15-.04-.3-.16-.35-.13-.05-.26-.06-.38.02-.03.02-.04.02-.06,0-.11-.11-.24-.17-.4-.15.2-.11.34-.29.41-.54.11-.43.01-.81-.22-1.18-.45-.71-1.25-.98-1.94-.73-.08.03-.16.07-.24.1-.42.19-.78.47-1.1.81-.04.04-.07.08-.08.14-.01.05-.02.11-.04.16-.09.25-.06.5.02.74.05.13.17.13.27.15.09.02.16,0,.2-.09.01-.03.03,0,.04,0,.29.22.61.37.95.47.47.14.95.2,1.44.08.06-.02.12-.04.17-.06-.01.01-.03.02-.04.05-.03.09,0,.17.06.22.09.07.17.14.25.22.01.01.02.02.03.04-.02,0-.03,0-.05.01-.24.02-.47,0-.71-.04-.13-.02-.26-.04-.4-.01-.16.03-.23.19-.14.32.13.19.33.29.52.4.23.14.48.26.7.42.13.09.25.1.39.09.07,0,.13-.03.14-.1.02-.1,0-.19-.07-.23-.08-.05-.16-.09-.24-.14-.19-.11-.38-.22-.57-.33h0s0,0,0,0c0,0,0,0,0,0,0,0,0,0,0,0,.01-.02.03-.01.05-.01.21,0,.42,0,.63-.04.03,0,.04,0,.06.03.06.08.12.17.17.26.17.32.09.55-.23.72-.17.09-.34.14-.52.18-.51.11-1,.07-1.46-.18-.22-.12-.39-.29-.48-.53-.04-.1.02-.17.13-.16.19.03.37.1.53.2.11.07.22.1.35.09.07,0,.13-.03.15-.1.03-.09,0-.18-.06-.22-.11-.08-.23-.14-.36-.19-.3-.12-.61-.19-.94-.13-.16.03-.26.13-.3.29-.03.15-.02.29.04.42.1.21.25.39.45.52.33.23.71.33,1.11.37-.02.06-.01.13.04.19.18.23.38.45.58.67.03.03.04.04-.01.06-.26.09-.53.16-.8.23-.22.06-.44.1-.65.19-.14.07-.19.17-.15.32.03.13.14.2.24.27.48.3,1,.5,1.57.56.22.02.43.02.64-.05ZM7.89,64.62c-.14.08-.3.11-.47.12-.6.04-1.14-.13-1.59-.53-.12-.11-.23-.24-.29-.4-.02-.06.03-.16.1-.18.12-.03.24-.02.36-.01.11,0,.22.01.33.02.09,0,.14-.04.16-.13.01-.08-.02-.14-.1-.18-.11-.05-.23-.03-.34-.04-.01,0-.04,0-.04,0,0-.02.02-.02.03-.03.22-.16.46-.28.75-.39.05-.01.14-.04.24-.06.18-.04.35,0,.5.11.36.26.61.6.67,1.05.04.3-.07.52-.3.65ZM7.46,69.1c-.08.05-.07.13-.06.21,0,.01,0,.02,0,.03,0,0-.02,0-.03,0-.16-.07-.32-.15-.46-.25-.01,0-.02-.02-.03-.03l.03-.02c.21-.05.43-.11.65-.17.22-.06.44-.12.66-.19.03,0,.05,0,.07.02.09.1.18.19.26.28,0,0,.03.02.02.03,0,0-.02,0-.04,0-.29.01-.59.02-.88.04-.07,0-.14,0-.2.04ZM8.12,69.56h0c.08-.02.15-.03.23-.05.02,0,.06-.03.06,0,0,.02-.02.06-.03.08-.02.02-.23,0-.26-.03h0Z"/>
      <polygon points="8.01 65.92 8.01 65.92 8.01 65.92 8.01 65.92 8.01 65.92"/>
      <path d="M5.51,60.48c.06-.13.05-.22-.04-.28-.06-.04-.12-.07-.19-.09-.02,0-.04-.02-.05-.03-.07-.1-.15-.19-.22-.29,0,0-.02-.02-.01-.03,0-.01.02,0,.03,0,.13.01.26.02.39.03.04,0,.06.01.08.05.06.13.17.21.3.26.12.05.19.02.24-.09.02-.04.03-.07.03-.12,0-.05.02-.05.06-.05.19,0,.38,0,.57-.02.08,0,.13-.06.16-.15.02-.07,0-.12-.06-.17-.06-.04-.12-.08-.19-.1-.16-.04-.32-.02-.48,0-.04,0-.05,0-.05-.04.04-.38.13-.74.28-1.09.12-.26.27-.5.5-.68.1-.08.22-.13.36-.11.08.01.13-.03.17-.13.03-.07.01-.13-.05-.18-.17-.13-.36-.17-.57-.09-.24.09-.41.25-.55.45-.34.46-.52.99-.61,1.55,0,.03-.01.06-.02.09-.02-.03-.04-.05-.06-.08-.25-.39-.51-.78-.84-1.11-.18-.19-.39-.35-.65-.43-.16-.05-.28,0-.36.15-.08.16-.05.32-.03.45.03.14.06.24.1.34.16.41.37.8.61,1.16.13.2.27.39.43.57.12.15.26.27.45.34.1.03.17,0,.22-.09ZM4.74,59.31s-.04,0-.06-.03c-.21-.34-.39-.7-.48-1.09,0-.04-.02-.08-.03-.12,0-.01,0-.04,0-.04.02,0,.03.01.04.02.18.16.33.35.48.55.17.23.33.47.49.72,0,.01.02.03.02.03,0,.02-.03,0-.04,0-.14-.01-.27-.02-.41-.04Z"/>
      <path d="M4.54,57.13c.13,0,.21-.07.24-.19.02-.12-.01-.18-.14-.24,0,0-.01,0-.02,0,0,0-.01,0-.02-.01,0,0,.02,0,.03,0,.06,0,.12,0,.18.01,0,0,.02,0,.03,0,.04.06.1.13.1.2,0,.16.08.26.18.37.02.02.04.04.04.06.03.11.11.16.22.19.05.01.11,0,.15.04h0s0-.02.02-.02c.08-.04.13-.15.1-.23-.08-.16-.09-.34-.17-.49-.02-.04-.01-.05.03-.04.38.04.76,0,1.13-.05.07-.01.12-.07.14-.16.01-.07-.01-.13-.08-.17-.09-.04-.18-.06-.28-.06-.37,0-.75,0-1.12,0-.03,0-.04,0-.05-.03-.08-.16-.16-.31-.24-.47-.02-.03-.01-.04.03-.05.19-.02.39-.05.58-.1.15-.03.29-.07.43-.14.09-.04.13-.12.13-.22,0-.08-.06-.12-.13-.14-.21-.08-.43-.05-.65,0-.06.01-.1.05-.11.11,0,.03-.02.04-.05.05-.13.02-.26.04-.39.06-.03,0-.05,0-.07-.04-.05-.11-.1-.21-.16-.32.06.04.11.07.18.09.08.03.14,0,.19-.07.07-.1.03-.3-.08-.35-.08-.04-.17-.06-.23-.11-.09-.07-.17-.15-.25-.23-.01-.01-.02-.02-.01-.05.08-.14.07-.18-.05-.29-.13-.12-.26-.24-.36-.38,0-.01-.01-.03-.02-.04.01,0,.03,0,.04,0,.25,0,.5.02.75.04.04,0,.07.02.1.05.09.1.19.2.28.3.09.09.19.17.31.21.08.03.14,0,.19-.07.05-.08.04-.16-.02-.21-.07-.06-.13-.12-.19-.19,0,0-.02-.02-.02-.03,0-.02.02,0,.03,0,.18-.01.35-.04.51-.12.16-.08.2-.28.08-.37-.06-.05-.14-.09-.21-.12-.12-.04-.19-.01-.23.1-.02.04-.04.05-.07.06-.15.03-.3.04-.45.03-.06,0-.1-.02-.13-.06-.36-.39-.73-.77-1.13-1.12-.28-.25-.57-.49-.96-.55h-.07c-.21.06-.26.23-.27.42,0,.01,0,.03,0,.04v.11s.02.02.02.03c.05.33.18.63.34.92.28.49.62.93,1.01,1.34-.04.05-.05.12-.02.19.11.28.23.54.35.81.02.04.03.05-.03.06-.28,0-.55,0-.83-.02-.23,0-.45-.04-.68,0-.15.02-.23.11-.24.26,0,.13.07.23.15.33.37.43.81.78,1.33,1,.2.08.41.14.63.14ZM4.25,56.72s-.22-.07-.24-.11h0s0,0,0,0c.08,0,.16.02.23.03.02,0,.06,0,.06.01,0,.02-.03.05-.06.07ZM3.52,53.25s-.02,0-.03,0c-.24-.38-.46-.76-.5-1.22,0-.03-.02-.07,0-.08.03-.01.06,0,.09.03.17.11.32.24.47.38.28.26.54.53.8.8,0,0,.01.02.02.03,0,0-.02,0-.02,0-.18-.01-.35-.03-.52-.02-.11,0-.22,0-.32.08ZM3.52,55.98c-.09.03-.11.11-.12.19v.03s-.02,0-.03-.02c-.13-.12-.26-.23-.37-.37,0,0-.01-.02-.02-.03,0,0,.02,0,.04-.01.22.01.44.02.67.03.23.01.46.02.69.01.03,0,.05,0,.06.04.05.12.11.23.17.35,0,.01.02.02,0,.04,0,0-.03,0-.04,0-.28-.07-.57-.15-.85-.22-.07-.02-.13-.04-.2-.02Z"/>
      <path d="M5.25,49.84c.21-.06.42-.14.61-.23.08-.04.15-.07.22-.11.04-.02.07-.06.09-.1.01-.04.02-.08.02-.12h0c0-.08-.04-.13-.11-.16-.1-.03-.23-.06-.38-.02-.05.02-.09.05-.12.07-.02.02-.04.03-.05.04-.05.03-.21.1-.44.16-1.25.36-2.24.12-2.31.11-.07,0-.12,0-.15.03-.03.03-.06.07-.07.14,0,.02,0,.03,0,.05,0,.08.05.13.15.16.03,0,.06.02.09.02.88.12,1.49.82,1.79,1.05-.04,0-.07,0-.11,0-.48.03-.97.07-1.46.03-.07,0-.11,0-.15.03-.03.03-.06.07-.07.14,0,.02,0,.03,0,.04,0,.08.05.13.15.16.03,0,.06.01.09.02.32.05.65.05.97.04.03,0,.05,0,.08,0,.32,0,1.78-.12,1.84-.13.12,0,.19-.09.19-.2,0-.01,0-.02,0-.04-.02-.11-.08-.14-.21-.17-.15-.03-.29-.01-.43,0-.03,0-.06,0-.1,0-.42-.22-.86-.53-1.2-.85.12,0,.36-.03.67-.09.14-.03.28-.06.42-.1Z"/>
      <path d="M3.29,48.51c.18.12.38.22.59.26.13.02.22-.03.27-.14.04-.11.02-.18-.09-.26,0,0-.01,0-.02-.01,0,0-.01-.01-.02-.02,0,0,.02,0,.03,0,.06.01.11.03.17.04,0,0,.02,0,.03.01.03.07.07.15.06.22-.03.15.03.27.11.39.01.02.03.04.03.07.01.12.08.18.18.23.05.02.1.03.14.07h.01s.01-.01.02-.02c.08-.03.16-.12.14-.2-.05-.17-.03-.35-.08-.52-.01-.04,0-.05.04-.04.37.1.74.14,1.12.16.07,0,.13-.04.16-.13.03-.07.01-.13-.05-.18-.08-.06-.17-.1-.27-.12-.37-.07-.73-.14-1.1-.21-.03,0-.04-.02-.05-.04-.05-.17-.1-.34-.15-.5-.01-.03,0-.04.03-.04.19.02.39.02.58.01.15,0,.3-.02.45-.05.1-.03.15-.1.17-.2.01-.08-.04-.13-.11-.17-.2-.12-.41-.13-.63-.13-.06,0-.1.03-.13.09-.01.03-.03.04-.06.04-.13,0-.27-.01-.4-.01-.03,0-.05-.01-.06-.05-.08-.29-.17-.58-.24-.88,0,0,0-.02,0-.02.07.06.15.11.24.14.08.03.14.01.2-.05.11-.12.11-.27.1-.42-.02-.26-.04-.53-.06-.79,0,0,0-.02,0-.02,0,0,.01.01.01.02.03.08.05.17.08.25.1.29.19.58.33.85.06.12.18.17.28.21.13.01.23-.14.17-.26-.17-.39-.3-.78-.42-1.18-.09-.3-.17-.61-.29-.9-.06-.16-.18-.25-.33-.31-.1-.04-.19-.01-.25.08-.09.15-.1.31-.11.48-.02.4.03.8.06,1.2,0,.01,0,.03,0,.04,0-.01-.02-.02-.03-.03-.11-.2-.22-.39-.32-.59-.2-.39-.4-.78-.6-1.17-.07-.13-.18-.21-.32-.27-.07-.03-.13,0-.17.05-.06.08-.07.15-.03.21.05.07.1.13.14.2.13.27.27.54.41.8.22.42.44.84.71,1.24-.02,0-.03-.02-.05-.02-.15-.05-.27.05-.24.21.05.29.13.58.2.87,0,.04.02.06-.04.05-.27-.04-.54-.11-.81-.17-.22-.05-.44-.12-.67-.13-.15,0-.25.06-.28.21-.03.13.03.24.09.35.29.49.65.91,1.13,1.23ZM3.45,48.16s0,0,0,0h0s0,0,0,0ZM3.67,48.31s-.2-.11-.21-.15c.07.02.15.04.22.07.02,0,.06,0,.06.02,0,.02-.04.04-.07.05ZM2.6,47.16s.02,0,.04,0c.21.05.43.1.65.15.22.05.45.1.67.14.03,0,.04.02.05.05.03.13.07.25.1.37,0,.01.02.03,0,.04,0,0-.02,0-.04,0-.27-.13-.53-.25-.8-.38-.06-.03-.12-.07-.19-.06-.1.01-.12.09-.15.16v.03s-.03-.01-.03-.02c-.11-.14-.21-.28-.29-.43,0-.01,0-.02-.01-.04Z"/>
      <path d="M5.58,43.85c-.02-.14-.1-.24-.22-.3-.07-.03-.13-.07-.2-.02-.07.05-.11.12-.1.21.01.15.03.31.06.46.06.39.17.77.26,1.16.09.36.17.72.28,1.07.05.16.16.26.31.32.06.02.11.01.16-.04.07-.09.08-.21.14-.29,0-.05,0-.08-.02-.11-.2-.35-.32-.72-.41-1.11-.11-.45-.18-.9-.25-1.36Z"/>
      <path d="M3.57,42.47c.06.04.11.04.17,0,.08-.07.12-.16.04-.25,0-.01-.01-.03-.02-.04.01,0,.03,0,.04.02.29.14.59.28.88.43.61.31,1.23.62,1.77,1.05.1.08.15.07.24-.03.01-.02.03-.04.04-.06v-.04c0-.07-.06-.12-.08-.19-.06-.2-.09-.41-.11-.62-.04-.47-.05-.94-.02-1.41,0-.03,0-.07.01-.1.06-.16-.05-.25-.16-.34-.01-.01-.03-.02-.04-.03h-.09c-.07,0-.12.06-.17.1-.09.08-.09.12-.02.22,0,.01.01.03,0,.04-.03.58-.02,1.16.06,1.74,0,0,0,.03,0,.03-.01,0-.02,0-.03-.01-.09-.05-.17-.11-.26-.16-.58-.34-1.18-.64-1.79-.93-.2-.09-.39-.19-.59-.26-.13-.04-.27.06-.25.2.04.26.15.5.37.66Z"/>
      <path d="M5.51,36.22c.13-.02.18-.09.18-.23-.01-.35-.04-.69-.04-1.04,0-.04,0-.06.05-.05.11.01.19-.06.2-.16,0-.04,0-.07,0-.11,0-.05,0-.06.06-.03.34.2.67.41,1.03.56.18.08,1.07.42,1.26.44.12.02.22-.07.22-.18,0-.18-.19-.38-.37-.38-.08,0-.85-.28-.91-.31-.45-.17-.85-.43-1.26-.67-.02-.01-.02-.03-.02-.05,0-.11,0-.21,0-.32,0-.38.02-.76.02-1.14,0-.14-.05-.27-.17-.36h-.02c-.16,0-.21.03-.27.18-.06.15-.09.3-.11.46-.11.78-.14,1.56-.13,2.34,0,.18.06.36-.01.54,0,0,0,.02,0,.03.02.15.06.29.14.42.03.06.08.07.15.06Z"/>
      <path d="M6.16,32.42c.27.18.58.31.87.43.02,0,.05.02.07.03.3.12,1.68.61,1.74.63.11.04.21,0,.25-.11,0-.01,0-.02.01-.04.03-.11-.02-.17-.12-.24-.12-.08-.26-.13-.39-.17-.03,0-.06-.02-.09-.03-.3-.37-.57-.84-.75-1.26.11.04.35.12.65.19.14.03.28.06.42.07.22.03.44.04.65.04.08,0,.17,0,.25-.01.05,0,.09-.02.12-.06.03-.03.05-.07.06-.1h0c.03-.07.01-.14-.04-.19-.08-.07-.19-.15-.33-.17-.05,0-.1,0-.14.02-.02,0-.04.01-.07.02-.05,0-.23,0-.47-.03-1.29-.18-2.09-.8-2.16-.83-.06-.03-.11-.04-.15-.03-.04.01-.08.04-.12.1,0,.01-.02.03-.02.04-.03.07,0,.14.07.21.02.02.05.04.07.05.75.46,1.03,1.35,1.21,1.69-.04-.01-.07-.03-.11-.04-.45-.16-.92-.33-1.35-.57-.06-.03-.11-.04-.15-.03-.04.01-.08.04-.12.1,0,.01-.02.03-.02.04-.03.07,0,.14.07.21.02.02.05.04.07.05Z"/>
      <path d="M10.2,30.84c-.06-.11-.15-.2-.25-.28-.12-.1-.25-.19-.38-.28-.06-.04-.11-.08-.17-.11-.1-.05-.24.01-.27.1,0,.02-.01.04-.02.06,0,.03-.02.04-.05.02,0,0,0,0-.01-.01-.16-.13-.31-.27-.46-.41-.16-.15-.31-.3-.48-.44-.04-.04-.09-.08-.14-.1-.07-.03-.14,0-.18.06-.04.07-.03.13.02.19.06.06.11.13.16.2.05.07.11.14.16.21.01.02.03.04.05.04.05,0,.08.04.11.07.02.03.05.05.08.08.21.22.42.43.66.61.15.12.3.23.5.32.03.02.09.04.15.06.1.03.2.05.31.03.08-.01.14-.06.18-.13.06-.1.04-.2,0-.3Z"/>
      <path d="M6.72,29.1c.11.03.23.04.35.06.05,0,.1.01.14.02.04,0,.04.01.04.05,0,.05,0,.1,0,.16,0,.16,0,.32,0,.48,0,.04-.01.08-.03.11-.05.1-.07.21-.04.32.03.11.17.24.33.23.06,0,.12-.02.16-.03.18-.11.24-.31.15-.47-.03-.04-.04-.09-.06-.14-.08-.19-.11-.4-.14-.6,0,0,0-.01,0-.02,0-.02,0-.03.03-.03.09.01.19.02.28.03.08.01.16.02.24.02.11,0,.2-.06.22-.15.02-.07,0-.13-.05-.18-.05-.05-.11-.08-.19-.07-.06.01-.11,0-.17-.01-.12-.02-.24-.04-.36-.06-.05,0-.08-.03-.1-.09-.03-.12-.06-.25-.09-.37-.01-.05-.03-.1-.05-.14-.04-.07-.11-.1-.19-.07-.06.03-.09.09-.07.16.02.11.05.23.07.34,0,.02,0,.04.01.06,0,.03,0,.04-.04.03-.12-.01-.24-.03-.36-.03-.07,0-.13.02-.17.08-.08.11-.03.27.1.31Z"/>
      <path d="M8.41,28.19c.11.19.24.36.42.49.1.08.21.07.31-.01.09-.08.1-.15.03-.28,0,0,0-.01,0-.02,0,0,0-.02,0-.02,0,0,.02,0,.02.01.05.04.09.08.13.11,0,0,.02.02.02.02,0,.07,0,.16-.05.22-.1.12-.09.26-.08.4,0,.03,0,.05,0,.07-.04.11,0,.2.06.28.03.04.08.07.1.12h0s.02,0,.03,0c.09.01.2-.04.21-.12.03-.17.13-.33.16-.5,0-.04.02-.05.05-.02.28.26.6.46.93.64.07.04.14.02.2-.04.05-.05.07-.11.04-.18-.04-.09-.11-.16-.19-.22-.3-.23-.59-.45-.89-.68-.02-.02-.03-.03-.02-.06.03-.17.06-.34.09-.52,0-.04.02-.04.05-.02.17.1.34.19.52.27.14.06.28.12.43.15.1.02.18-.02.24-.1.05-.07.02-.13-.02-.2-.12-.19-.31-.3-.51-.39-.05-.03-.11-.02-.15.02-.02.02-.04.02-.07,0-.12-.06-.23-.13-.35-.19-.03-.02-.04-.03-.03-.07.06-.29.1-.59.17-.87.24.31.52.58.88.77.39.22.78.14,1.08-.19.14-.16.21-.37.27-.57,0-.03.02-.04.05-.04.06,0,.12-.02.18-.05.13-.08.22-.21.19-.33-.03-.13-.1-.24-.24-.3-.03-.01-.04-.02-.04-.05.03-.15,0-.29-.11-.41.21.09.43.11.67.01.41-.16.67-.47.83-.87.31-.78.06-1.59-.55-2-.07-.04-.15-.09-.22-.13-.4-.23-.84-.36-1.3-.41-.05,0-.11,0-.16.02-.05.02-.1.04-.15.06-.26.08-.44.24-.58.46-.08.11,0,.21.03.31.03.08.09.13.19.11.03,0,.02.02.02.03,0,.36.06.71.18,1.04.17.46.4.89.78,1.21.05.04.09.07.14.1-.02,0-.03,0-.05,0-.09.03-.14.09-.14.18,0,.11-.02.22-.03.33,0,.02,0,.03-.01.05-.01-.01-.03-.02-.04-.03-.16-.18-.27-.39-.38-.6-.06-.12-.13-.23-.22-.33-.12-.12-.29-.08-.34.08-.07.22-.04.44-.02.66.02.27.07.54.07.81,0,.16.06.26.16.37.05.05.1.09.17.06.09-.04.15-.11.14-.19,0-.09-.02-.18-.03-.28-.02-.22-.05-.44-.07-.65,0,0,0,0,0,0,0,0,0,0,0,0,0,0,0,0,0,0,0,0,0,0,0,0,.02,0,.03.02.04.03.12.17.25.34.4.48.02.02.02.04.01.06-.03.1-.06.19-.11.29-.16.32-.39.4-.72.24-.17-.08-.31-.19-.45-.32-.39-.35-.65-.76-.71-1.29-.03-.25,0-.49.14-.7.06-.09.15-.09.2.01.09.17.14.36.15.55,0,.13.05.24.13.33.04.06.1.09.17.06.09-.03.15-.1.15-.18,0-.14-.02-.27-.06-.4-.08-.31-.21-.61-.45-.83-.12-.11-.26-.14-.41-.07-.14.06-.24.15-.32.29-.11.21-.16.43-.16.67.01.41.15.77.35,1.11-.06.02-.1.06-.13.14-.08.28-.14.57-.21.86,0,.04-.01.06-.06.03-.23-.16-.44-.34-.65-.51-.18-.14-.34-.3-.54-.41-.13-.07-.25-.05-.35.07-.08.1-.08.23-.08.35.04.57.18,1.11.47,1.6ZM12.2,24.56c-.39-.46-.56-.99-.51-1.6.01-.17.06-.32.15-.46.04-.05.15-.07.2-.03.09.08.16.18.22.29.06.09.12.19.18.28.05.08.12.09.2.05.08-.04.1-.1.08-.19-.03-.12-.11-.2-.17-.3,0-.01-.02-.03-.01-.03.01-.01.03,0,.04,0,.26.09.49.21.75.38.04.04.12.09.19.16.14.12.2.28.2.47,0,.45-.13.85-.46,1.16-.22.21-.46.26-.7.14-.15-.07-.27-.18-.37-.3ZM8.84,28.18s-.13-.19-.12-.23c.06.05.11.11.17.16.02.02.05.03.04.05-.02.02-.06.02-.08.02ZM8.72,27.95h0s0,0,0,0h0ZM8.39,26.67s.02,0,.04.01c.17.14.34.28.51.42.18.15.35.29.54.42.02.02.03.03.02.06-.03.13-.05.25-.08.38,0,.01,0,.03-.01.03,0,0-.02-.01-.03-.02-.18-.23-.36-.46-.55-.69-.04-.05-.08-.11-.15-.14-.09-.03-.15.02-.21.08,0,0-.01.02-.02.02,0,0,0-.02-.01-.03-.04-.17-.07-.34-.07-.52,0-.01,0-.03,0-.04Z"/>
      <polygon points="11.59 25.72 11.59 25.72 11.59 25.72 11.59 25.72 11.59 25.72"/>
      <path d="M14.51,20.51c.14-.02.21-.09.21-.2,0-.07-.01-.14-.04-.2,0-.02,0-.04,0-.06.04-.12.07-.24.1-.35,0,0,0-.02.01-.02.01,0,.02.01.02.02.07.11.14.22.2.34.02.03.02.06,0,.09-.07.13-.07.26-.03.4.03.12.09.16.22.14.04,0,.08-.02.11-.04.04-.03.06-.02.08.02.11.16.23.31.35.45.05.06.13.07.21.04.06-.02.1-.07.1-.14,0-.07,0-.14-.03-.21-.06-.15-.17-.27-.28-.39-.03-.03-.03-.04,0-.07.33-.19.67-.33,1.05-.41.28-.06.56-.08.84,0,.12.04.23.1.29.23.03.07.1.09.2.06.07-.02.11-.07.12-.14,0-.21-.08-.39-.26-.51-.21-.14-.44-.18-.69-.18-.57,0-1.11.16-1.61.42-.03.01-.06.03-.08.04,0-.03.02-.06.03-.09.17-.44.33-.87.41-1.33.04-.26.05-.52-.03-.77-.05-.16-.17-.23-.33-.2-.18.03-.29.15-.38.25-.09.1-.15.19-.21.28-.24.37-.43.77-.58,1.18-.08.22-.15.45-.21.68-.05.19-.07.37,0,.56.03.1.1.14.21.13ZM15.59,18.1s.06-.06.08-.09c0-.01.03-.03.04-.02.02,0,0,.03,0,.04-.02.24-.09.48-.16.71-.08.28-.19.55-.29.82,0,.01-.01.03-.02.03-.02,0-.02-.02-.03-.03-.07-.12-.14-.24-.21-.35-.01-.02-.02-.04,0-.07.16-.37.33-.72.59-1.03Z"/>
      <path d="M16.66,17.74c.08.1.18.13.29.08.11-.05.14-.12.11-.25,0,0,0-.01,0-.02,0,0,0-.02,0-.02,0,0,.02.01.02.02.03.05.06.1.1.15,0,0,.01.02.01.03-.03.07-.05.16-.11.2-.13.09-.17.22-.19.36,0,.02,0,.05-.02.07-.07.09-.06.19-.02.29.02.05.06.09.06.15h0s.02,0,.03,0c.08.04.2.02.24-.06.08-.16.22-.27.3-.43.02-.04.03-.04.05,0,.19.33.44.61.71.88.05.05.12.06.21.02.07-.03.1-.09.09-.16-.02-.1-.06-.19-.11-.27-.22-.3-.44-.61-.65-.91-.02-.02-.02-.04,0-.06.08-.16.16-.31.24-.47.02-.03.03-.03.05,0,.13.15.27.28.42.41.11.1.23.2.36.27.09.05.18.03.25-.03.06-.05.06-.12.04-.19-.06-.22-.21-.38-.37-.53-.04-.04-.1-.05-.16-.02-.03.01-.05,0-.07-.01-.09-.1-.19-.19-.28-.28-.02-.02-.03-.04,0-.07.05-.1.1-.19.15-.29,0,.06,0,.12.03.18.02.08.08.12.17.11.12,0,.26-.15.24-.27-.01-.09-.05-.17-.05-.25,0-.11.03-.23.04-.34,0-.02,0-.03.03-.04.16-.02.19-.05.21-.21.02-.18.04-.35.09-.52,0-.01.01-.03.02-.04.01.01.02.02.03.03.15.2.28.42.41.63.02.04.03.07.02.11-.03.13-.05.27-.07.4-.02.13-.02.25.01.37.03.08.08.12.17.11.1,0,.16-.06.16-.14,0-.09.02-.18.04-.26,0-.01,0-.03.01-.04.02,0,.02.02.03.02.11.14.24.26.4.34.16.09.34,0,.35-.16,0-.08,0-.16-.03-.24-.03-.12-.1-.16-.22-.13-.04.01-.06,0-.09-.02-.11-.1-.21-.22-.29-.35-.03-.05-.04-.09-.03-.14.1-.52.19-1.04.24-1.57.03-.38.06-.75-.12-1.11l-.05-.05c-.17-.14-.33-.08-.49.03-.01,0-.02.01-.03.02l-.08.07s-.01.02-.02.02c-.23.24-.41.52-.54.82-.23.52-.38,1.05-.48,1.6-.05,0-.11.03-.15.09-.16.25-.3.51-.45.76-.02.03-.03.05-.06,0-.17-.22-.32-.45-.48-.68-.13-.19-.24-.39-.39-.55-.11-.11-.22-.12-.35-.04-.11.07-.15.19-.17.31-.13.55-.15,1.11-.02,1.67.05.21.13.42.26.59ZM19.16,14.61c.16-.42.34-.82.69-1.12.02-.02.04-.05.07-.04.03.01.03.05.03.09.01.2,0,.4-.03.6-.04.38-.11.75-.17,1.12,0,.01,0,.02-.01.04,0,0-.01-.01-.02-.01-.09-.15-.18-.3-.29-.43-.07-.09-.14-.18-.25-.21-.02,0-.02-.02-.01-.03ZM16.81,17.26s-.07-.22-.05-.25c.04.07.08.13.12.2,0,.02.04.05.02.06-.02.01-.06,0-.09,0ZM16.76,17.01h0s0,0,0,0h0ZM16.81,15.73s.01-.02.02-.04c0,0,.02.01.03.02.12.18.24.37.37.56.13.19.25.38.4.56.02.02.02.04,0,.07-.06.11-.12.23-.18.34,0,.01,0,.03-.02.03,0,0-.01-.02-.02-.03-.11-.27-.21-.55-.32-.82-.03-.06-.04-.13-.1-.18-.08-.06-.15-.02-.22.02,0,0-.02.01-.03.02,0,0,0-.02,0-.03.02-.17.04-.35.08-.52Z"/>
      <path d="M20.39,13.13c.15.29.35.55.54.8.02.02.03.04.05.06.2.26,1.15,1.36,1.19,1.41.08.09.18.1.27.03,0,0,.02-.02.03-.02.08-.08.07-.15.01-.27-.06-.13-.16-.24-.25-.35-.02-.02-.04-.05-.06-.07-.07-.47-.08-1.01-.02-1.47.08.09.24.28.47.49.11.1.22.19.33.28.18.14.36.25.54.36.07.04.15.08.22.11.04.02.09.02.13.01.04-.01.08-.04.11-.06h0c.06-.05.08-.11.06-.18-.03-.1-.09-.23-.21-.31-.04-.03-.09-.04-.13-.05-.02,0-.05-.01-.07-.02-.05-.02-.2-.12-.39-.26-1.03-.8-1.42-1.73-1.46-1.8-.04-.06-.07-.09-.12-.1-.04-.01-.09,0-.15.03-.01,0-.03.02-.04.02-.06.05-.08.12-.04.22.01.03.02.06.04.08.42.78.22,1.69.21,2.07-.02-.03-.05-.06-.07-.09-.31-.37-.63-.75-.88-1.16-.04-.06-.07-.09-.12-.1-.04-.01-.09,0-.15.03-.01,0-.03.02-.04.02-.06.05-.08.12-.04.22.01.03.02.06.04.08Z"/>
      <path d="M23.29,12.41c.11-.03.16-.09.16-.23,0,0,0-.01,0-.02,0,0,0-.02,0-.02,0,0,.01.01.02.02.02.05.04.11.07.16,0,0,0,.02,0,.03-.04.06-.08.14-.14.17-.14.07-.2.19-.26.32,0,.02-.02.05-.04.06-.09.08-.1.17-.08.28,0,.05.04.1.03.15h0s.02,0,.03.02c.07.05.19.05.24-.01.11-.14.26-.23.37-.37.03-.03.04-.03.05,0,.13.36.32.68.53,1,.04.06.11.08.2.05.07-.02.12-.07.12-.15,0-.1-.02-.19-.06-.28-.16-.34-.32-.67-.48-1.01-.01-.02-.01-.04,0-.06.11-.14.21-.28.32-.42.02-.03.03-.03.05,0,.1.17.21.33.34.48.09.12.19.24.31.33.08.07.17.06.26.02.07-.04.08-.11.07-.18-.02-.23-.14-.41-.27-.59-.04-.05-.09-.06-.15-.05-.03,0-.05,0-.06-.02-.07-.11-.15-.22-.22-.33-.02-.03-.02-.05,0-.07.19-.24.37-.48.57-.71,0,0,.01-.02.02-.03,0,.09,0,.19.03.28.02.08.07.12.16.13.17.02.29-.07.4-.17.2-.17.4-.34.6-.52,0,0,.01,0,.02-.01,0,0,0,.02,0,.02-.05.07-.11.14-.16.21-.18.25-.36.49-.49.77-.06.12-.03.25,0,.36.07.11.25.1.31-.01.21-.36.46-.7.71-1.03.19-.25.39-.49.56-.76.09-.14.1-.29.06-.45-.03-.11-.1-.16-.21-.15-.17.01-.31.1-.45.19-.33.22-.63.49-.93.76,0,0-.02.02-.03.02,0-.01,0-.03.01-.04.09-.2.19-.41.28-.61.19-.39.39-.78.59-1.17.07-.14.07-.28.03-.42-.02-.07-.07-.11-.14-.11-.1,0-.17.03-.19.1-.02.08-.05.16-.09.23-.14.27-.27.53-.41.8-.21.43-.43.86-.59,1.31,0-.02,0-.04-.01-.06-.05-.15-.2-.19-.32-.07-.2.21-.39.44-.58.67-.02.03-.04.05-.06,0-.13-.25-.23-.5-.34-.76-.09-.21-.16-.42-.29-.62-.08-.13-.2-.16-.34-.1-.12.05-.18.16-.23.28-.23.52-.35,1.06-.32,1.63.01.22.05.43.14.63.06.12.16.16.28.13ZM23.35,10.82c.05-.17.1-.34.18-.49,0-.01.02-.02.02-.03,0,0,.01.01.03.03.08.2.17.41.26.61.09.21.18.42.29.62.01.03.01.04,0,.07-.08.1-.16.2-.24.3,0,0-.01.03-.03.02,0,0-.01-.02-.01-.04-.06-.29-.11-.58-.17-.87-.01-.07-.02-.14-.07-.19-.07-.07-.14-.05-.22-.02-.01,0-.02,0-.03.01,0,0,0-.02,0-.03ZM23.24,11.58s0,0,0,0h0,0ZM23.24,11.58c.03.07.05.15.08.22,0,.02.03.05.01.06-.02,0-.06,0-.08-.02-.03-.02-.03-.23,0-.26Z"/>
      <path d="M26.64,11.48c-.24.28-.48.56-.7.85-.1.14-.11.28-.07.44.02.06.06.1.12.1.11,0,.22-.06.31-.05.04-.03.06-.05.08-.08.16-.36.4-.68.65-.99.3-.35.63-.68.95-1.01.1-.1.13-.22.11-.35-.01-.07-.02-.15-.11-.18-.08-.03-.16-.01-.23.05-.12.1-.23.21-.34.32-.28.28-.53.59-.78.89Z"/>
      <path d="M28.02,8.45c.1.02.19,0,.22-.12,0-.02.02-.03.02-.04,0,.01,0,.03.01.04.06.32.12.64.17.97.11.68.23,1.36.19,2.05,0,.13.04.16.16.17.02,0,.04,0,.07,0l.03-.02c.06-.05.06-.12.1-.18.13-.17.28-.31.44-.45.35-.31.73-.59,1.13-.84.03-.02.06-.04.09-.05.17-.05.18-.18.18-.32,0-.02,0-.04,0-.05l-.04-.08c-.06-.05-.13-.06-.2-.07-.12-.02-.14,0-.19.11,0,.02-.02.02-.03.03-.49.32-.95.67-1.37,1.07,0,0-.02.02-.02.02-.01,0,0-.02,0-.03,0-.1-.01-.2-.02-.31-.07-.67-.18-1.33-.3-2-.04-.21-.07-.43-.14-.63-.04-.13-.21-.18-.31-.09-.19.19-.32.41-.31.69,0,.07.04.11.1.13Z"/>
      <path d="M32.46,6.92c.26-.23.52-.47.79-.68.03-.03.05-.03.07,0,.06.09.17.11.25.05.03-.02.06-.04.09-.06.04-.03.05-.03.06.02.05.39.1.78.21,1.16.05.19.34,1.09.44,1.26.06.1.19.13.28.06.13-.11.18-.38.07-.53-.04-.06-.31-.84-.33-.91-.15-.46-.2-.93-.27-1.41,0-.02,0-.03.02-.04.08-.07.17-.13.25-.2.3-.23.61-.46.9-.7.11-.09.18-.21.18-.36v-.02c-.1-.12-.17-.14-.32-.09-.15.05-.29.12-.43.2-.67.4-1.3.87-1.91,1.36-.14.11-.25.27-.43.33,0,0-.02.01-.02.02-.1.11-.19.23-.24.37-.02.06,0,.11.04.15.1.09.18.09.29,0Z"/>
      <path d="M35.75,6.01s.01.05.02.07c.09.31.58,1.69.6,1.75.04.11.13.16.25.13.01,0,.02,0,.04-.01.1-.05.12-.12.11-.25-.01-.15-.06-.28-.11-.42-.01-.03-.02-.06-.03-.09.1-.47.29-.97.52-1.37.04.12.12.34.26.63.07.13.13.26.21.38.12.19.24.37.37.53.05.06.11.13.16.19.03.03.07.05.12.06.04,0,.09,0,.12-.01h0c.07-.02.11-.08.12-.15,0-.11,0-.24-.08-.37-.03-.04-.07-.07-.1-.09-.02-.01-.04-.03-.05-.04-.04-.04-.15-.18-.27-.38-.67-1.12-.69-2.13-.7-2.21-.01-.07-.03-.11-.07-.14-.04-.03-.08-.04-.15-.03-.02,0-.03,0-.04,0-.08.02-.12.08-.12.19,0,.03,0,.06,0,.09.11.88-.41,1.65-.56,2-.01-.04-.02-.07-.04-.11-.15-.45-.31-.92-.4-1.41-.01-.07-.03-.11-.07-.14-.04-.03-.08-.04-.15-.03-.02,0-.03,0-.04,0-.08.02-.12.08-.12.19,0,.03,0,.06,0,.09.03.33.12.64.21.95Z"/>
      <path d="M37.97,5.04c.2.07.39-.01.46-.18.02-.05.05-.09.07-.13.1-.18.24-.34.38-.49,0,0,.01,0,.02-.01.02-.01.03-.01.04,0,.05.08.1.16.15.24.04.07.09.14.13.2.07.09.17.12.26.08.07-.03.1-.09.11-.15,0-.07,0-.14-.06-.19-.04-.04-.07-.09-.1-.14-.06-.11-.12-.22-.18-.32-.03-.05-.03-.09,0-.13.08-.1.15-.2.23-.3.03-.04.06-.08.08-.13.03-.08,0-.15-.06-.19-.06-.03-.12-.02-.17.04-.08.09-.15.18-.22.27-.01.02-.03.03-.04.05-.02.02-.03.02-.05,0-.07-.1-.13-.21-.2-.3-.04-.06-.1-.09-.17-.09-.14,0-.23.15-.18.27.05.11.11.21.17.31.02.04.05.08.07.12.02.03.02.04-.01.07-.04.03-.08.07-.12.1-.12.1-.25.2-.37.3-.03.02-.07.04-.11.05-.11.03-.21.07-.28.17-.07.09-.08.28.02.4.04.05.09.09.12.1Z"/>
      <path d="M38.64,5.45c-.04.3-.07.6-.07.9,0,.19,0,.38.06.59,0,.03.02.1.05.16.04.1.09.19.17.26.06.05.14.07.22.06.11-.02.18-.09.23-.19.05-.12.06-.24.07-.37,0-.16,0-.31-.02-.47,0-.07,0-.14-.02-.2-.02-.11-.16-.18-.25-.15-.02,0-.04.01-.06.02-.03.02-.04,0-.04-.03,0,0,0-.01,0-.02,0-.21.02-.41.04-.61.02-.22.04-.43.05-.65,0-.06,0-.11-.01-.17-.02-.07-.09-.11-.16-.1-.07.01-.12.06-.13.14-.01.09-.03.17-.06.26-.02.09-.04.17-.07.26,0,.02-.01.05,0,.07.03.04.02.09.02.13,0,.04,0,.07-.01.11Z"/>
      <path d="M39.76,5.83c.04.08.16.13.23.09.16-.08.33-.11.49-.19.04-.02.05-.02.04.03-.02.38.02.76.08,1.13.01.07.07.12.16.13.07,0,.13-.02.17-.09.04-.09.06-.18.06-.28-.01-.37-.02-.75-.03-1.12,0-.03,0-.04.03-.06.15-.08.31-.17.46-.25.03-.02.04-.01.05.02.02.19.06.39.11.57.04.15.08.29.15.43.05.09.13.13.23.12.08,0,.12-.07.14-.14.08-.22.04-.43-.01-.65-.01-.06-.06-.09-.12-.11-.03,0-.04-.02-.05-.05-.02-.13-.05-.26-.07-.39,0-.03,0-.05.03-.07.27-.14.53-.29.81-.42-.09.38-.13.77-.06,1.18.08.44.38.7.82.72.22.01.42-.06.62-.14.03-.01.05-.01.07.02.04.05.09.08.15.1.14.06.3.04.38-.06.08-.11.13-.23.08-.37-.01-.03,0-.05.02-.06.13-.07.21-.18.24-.32.06.21.19.38.4.51.38.22.78.23,1.19.1.8-.24,1.28-.95,1.21-1.68-.01-.09-.02-.17-.04-.26-.07-.46-.25-.88-.49-1.27-.03-.05-.06-.09-.11-.11-.05-.03-.1-.05-.14-.08-.22-.15-.46-.19-.72-.17-.13.01-.17.13-.22.22-.04.08-.05.15.04.21.03.02,0,.03-.01.03-.29.22-.51.49-.7.79-.26.42-.44.87-.46,1.37,0,.05,0,.1.01.14,0,0,0,0-.01-.01-.08-.05-.16-.05-.23,0-.09.06-.18.12-.28.19-.01,0-.03.01-.04.02,0-.02,0-.03,0-.05.04-.24.13-.46.23-.67.06-.12.1-.24.12-.38.02-.16-.12-.27-.28-.22-.22.08-.37.25-.53.4-.2.19-.38.39-.59.57-.12.1-.17.22-.19.36-.01.07,0,.13.06.17.09.05.18.05.24,0,.07-.06.13-.13.2-.2.16-.15.31-.31.47-.46,0,0,0,0,0,0,0,0,0,0,0,0h0s0,0,0,0c.01.02,0,.03,0,.05-.06.2-.11.41-.13.62,0,.03-.02.04-.04.05-.1.04-.19.07-.29.09-.35.08-.56-.05-.64-.41-.04-.18-.04-.37-.03-.55.03-.52.19-.98.56-1.36.17-.18.38-.3.64-.33.11-.01.16.07.12.17-.08.18-.19.33-.34.46-.1.09-.15.19-.18.31-.02.07,0,.13.06.17.08.05.17.05.23,0,.11-.08.2-.18.28-.29.19-.26.35-.54.37-.87.01-.16-.06-.29-.2-.37-.13-.07-.27-.09-.42-.07-.23.04-.44.14-.62.3-.31.26-.51.6-.66.98-.05-.04-.12-.05-.2-.02-.27.11-.54.25-.8.38-.03.02-.05.03-.06-.03-.02-.28-.01-.55,0-.83,0-.23.02-.45-.01-.68-.03-.15-.11-.23-.27-.23-.13,0-.23.08-.32.16-.42.38-.75.83-.96,1.36-.08.2-.13.41-.12.63,0,.13.08.21.2.23.12.02.18-.02.24-.15,0,0,0-.01,0-.02,0,0,0-.01.01-.02,0,0,0,.02,0,.03,0,.06,0,.12,0,.18,0,0,0,.02,0,.03-.06.04-.13.1-.2.1-.16,0-.26.09-.36.19-.02.02-.04.04-.06.04-.11.04-.16.12-.18.23-.01.05,0,.11-.03.15h0s.02.02.02.03ZM45.44,4.87c.12-.59.42-1.06.93-1.4.14-.09.29-.15.46-.17.06,0,.15.07.15.14,0,.12-.05.24-.08.35-.03.11-.07.21-.1.32-.03.09,0,.15.09.19.08.04.15.02.2-.05.07-.09.09-.21.13-.32,0-.01.01-.03.02-.03.02,0,.02.02.02.03.09.25.15.52.17.82,0,.06,0,.15,0,.24-.01.18-.09.34-.24.45-.35.28-.74.43-1.19.37-.3-.04-.49-.2-.55-.46-.04-.16-.03-.32,0-.48ZM41.02,3.61c.11-.14.23-.27.36-.38,0,0,.02-.01.03-.02,0,0,0,.02.01.04,0,.22,0,.44,0,.67,0,.23,0,.46.01.69,0,.03,0,.05-.03.06-.12.06-.23.12-.34.18-.01,0-.02.02-.04.01,0,0,0-.03,0-.04.07-.29.13-.57.2-.86.02-.07.04-.13.01-.2-.03-.09-.11-.1-.19-.11-.01,0-.02,0-.03,0,0,0,0-.02.01-.03ZM40.62,4.27s0,0,0,0h0s0,0,0,0ZM40.52,4.51s.07-.22.1-.24c0,.08-.01.16-.02.23,0,.02,0,.06-.01.06-.02,0-.05-.03-.07-.05Z"/>
      <polygon points="44.17 5.12 44.17 5.12 44.17 5.12 44.17 5.11 44.17 5.12"/>
      <path d="M50.34,4.18c.05-.05.1-.1.14-.15.01-.02.02-.03.04-.04.11-.05.23-.09.34-.14,0,0,.02,0,.03,0,.01,0,0,.02,0,.03-.04.12-.09.25-.13.37-.01.03-.03.05-.06.06-.14.02-.25.11-.33.22-.07.1-.07.17.03.26.03.03.06.05.1.06.05.01.05.03.03.08-.06.18-.09.37-.13.56-.02.07.02.14.1.19.06.03.12.03.17-.01.06-.04.11-.09.14-.16.08-.14.1-.3.13-.46,0-.04.01-.05.05-.04.35.14.68.32.98.56.22.18.41.39.52.66.05.12.07.24,0,.37-.03.07,0,.13.08.2.06.04.13.05.18,0,.17-.13.25-.3.23-.52-.02-.25-.14-.46-.29-.65-.36-.45-.82-.76-1.34-.99-.03-.01-.06-.03-.09-.04.03-.01.06-.02.09-.03.44-.14.88-.29,1.29-.52.23-.13.44-.28.58-.51.09-.14.07-.27-.05-.38-.13-.12-.3-.13-.43-.14-.14,0-.24,0-.35,0-.44.05-.86.15-1.28.29-.23.08-.45.16-.67.26-.17.08-.33.18-.44.35-.06.09-.05.17.03.24.11.1.2.11.28.04ZM51.25,4.08c.05-.13.1-.26.14-.39,0-.02.02-.04.05-.05.38-.11.77-.19,1.17-.18.04,0,.08,0,.13,0,.01,0,.04,0,.04.01,0,.02-.02.02-.03.03-.2.13-.43.23-.65.32-.27.11-.54.2-.82.28-.01,0-.03.01-.04,0-.01-.01,0-.03,0-.04Z"/>
      <path d="M53.68,4.35c.11.05.18.03.27-.07,0,0,0-.01.01-.02,0,0,.01-.01.02-.02,0,0,0,.02,0,.03-.02.06-.04.11-.06.17,0,0,0,.02-.01.03-.07.02-.15.06-.22.04-.15-.04-.28,0-.4.07-.02.01-.04.03-.07.03-.12,0-.19.07-.24.16-.03.05-.03.1-.08.14h0s0,0,0,0c.01,0,.01.01.02.02.02.08.11.17.19.15.17-.03.35,0,.52-.04.04,0,.05,0,.03.04-.13.36-.2.73-.25,1.11,0,.07.03.13.11.17.07.03.13.02.18-.03.06-.07.11-.16.14-.26.1-.36.2-.72.3-1.08,0-.03.02-.04.05-.04.17-.04.34-.07.51-.11.04,0,.04,0,.04.04-.03.19-.05.39-.06.58,0,.15,0,.3.02.45.02.1.09.16.18.18.08.02.13-.03.17-.09.14-.19.16-.4.18-.62,0-.06-.03-.11-.08-.13-.03-.01-.04-.03-.03-.06.02-.13.03-.26.04-.4,0-.03.02-.05.05-.05.11-.02.23-.04.34-.07-.05.04-.09.09-.13.14-.05.07-.04.13.01.2.07.09.28.1.36.02.06-.06.1-.15.17-.2.09-.07.19-.12.29-.18.02,0,.03-.02.05,0,.11.11.16.11.29.03.15-.09.3-.19.47-.25.01,0,.03,0,.04,0,0,.01,0,.03,0,.04-.06.25-.15.48-.23.72-.01.04-.04.06-.07.08-.12.06-.24.13-.36.19-.11.06-.21.14-.28.24-.05.07-.04.14.02.2.07.07.15.09.21.04.07-.05.15-.09.23-.14.01,0,.03-.02.04-.01.01,0,0,.02,0,.04-.04.17-.05.35-.02.53.03.18.21.27.34.18.07-.05.12-.11.17-.18.07-.1.06-.18-.04-.25-.03-.02-.04-.05-.04-.08,0-.15.04-.3.09-.44.02-.05.04-.09.09-.11.47-.25.93-.5,1.38-.8.31-.21.63-.42.78-.79v-.07c.01-.22-.13-.31-.31-.37-.01,0-.02-.01-.04-.02l-.11-.02s-.02,0-.03,0c-.33-.03-.66,0-.98.09-.55.15-1.06.36-1.55.63-.04-.05-.1-.07-.17-.06-.29.03-.59.08-.88.13-.04,0-.06.01-.05-.04.06-.27.15-.53.23-.8.07-.22.16-.43.18-.65.02-.15-.04-.25-.19-.3-.13-.04-.24,0-.35.06-.51.25-.96.58-1.31,1.03-.13.17-.25.36-.3.57-.03.12.01.22.12.28ZM57.4,4.92c.06-.17.12-.33.15-.5.02-.11.05-.22,0-.33,0-.02,0-.02.02-.03.43-.13.85-.24,1.31-.17.03,0,.07,0,.07.03,0,.03-.02.06-.05.08-.15.14-.32.25-.49.36-.32.2-.65.39-.98.57-.01,0-.02,0-.04.01,0,0,0-.02,0-.02ZM54.41,4.33c.15-.26.29-.51.44-.77.03-.06.08-.12.07-.19,0-.1-.08-.13-.15-.16,0,0-.02,0-.03-.01,0,0,.01-.01.02-.02.15-.1.29-.19.46-.26.01,0,.03,0,.04,0,0,0,0,.02,0,.04-.07.21-.13.42-.2.64-.07.22-.14.44-.19.66,0,.03-.02.04-.05.05-.13.02-.25.05-.38.07-.01,0-.03.01-.04,0,0,0,0-.02.01-.04ZM54.19,3.69h0s0,0,0,0c-.03.07-.06.15-.09.22,0,.02,0,.06-.03.05-.02,0-.04-.04-.05-.07,0-.03.13-.19.16-.2Z"/>
      <path d="M59.19,5.09c-.08.31-.34,1.75-.36,1.81-.02.11.04.2.15.23.01,0,.02,0,.04,0,.11.01.16-.04.22-.16.06-.13.09-.28.11-.42,0-.03.01-.06.02-.09.32-.35.74-.69,1.14-.93-.02.12-.07.36-.08.67,0,.15-.01.29,0,.43,0,.22.03.44.06.65.01.08.03.16.05.24.01.05.04.08.07.11.04.02.08.04.11.05h0c.07.02.14,0,.18-.07.06-.09.12-.21.12-.36,0-.05-.02-.1-.04-.13-.01-.02-.02-.04-.03-.06-.01-.05-.04-.23-.04-.47-.02-1.3.47-2.19.49-2.26.02-.06.03-.11,0-.15-.02-.04-.05-.07-.12-.1-.01,0-.03-.01-.04-.02-.08-.02-.14.02-.2.11-.02.03-.03.05-.04.08-.34.81-1.18,1.23-1.48,1.45,0-.04.01-.07.02-.11.09-.47.19-.96.36-1.42.02-.06.03-.11,0-.15-.02-.04-.05-.07-.12-.1-.01,0-.03-.01-.04-.02-.08-.02-.14.02-.2.11-.02.03-.03.05-.04.08-.14.3-.21.62-.29.92,0,.02-.01.05-.02.07Z"/>
      <path d="M61.1,6.19s-.05.09-.1.12h0s.01.02.01.04c0,.09.08.18.16.18.18,0,.34.06.52.06.04,0,.05,0,.03.05-.2.33-.33.68-.45,1.04-.02.07,0,.14.08.19.06.04.13.05.19,0,.08-.06.14-.14.18-.23.16-.34.33-.67.49-1.01.01-.02.02-.04.05-.04.17,0,.35,0,.52-.01.04,0,.04,0,.03.04-.07.18-.12.37-.16.56-.03.15-.06.3-.07.45,0,.1.06.17.15.21.08.03.13,0,.19-.06.17-.16.23-.37.29-.58.02-.06,0-.11-.05-.15-.02-.02-.03-.04-.02-.06.04-.13.08-.25.12-.38,0-.03.03-.04.06-.04.3,0,.61-.01.91,0,.01,0,.02,0,.03,0-.08.05-.15.12-.21.2-.05.07-.05.14,0,.21.09.14.24.18.38.21.26.05.52.1.78.15,0,0,.02,0,.02,0,0,0-.02,0-.03,0-.09,0-.17,0-.26.01-.3.02-.61.03-.91.09-.13.03-.21.13-.28.22-.05.12.07.25.21.24.42-.06.83-.08,1.25-.09.32,0,.63,0,.95-.04.17-.02.29-.11.39-.24.07-.09.06-.18-.01-.26-.12-.13-.27-.18-.43-.23-.38-.12-.78-.18-1.17-.26-.01,0-.03,0-.04,0,.01,0,.03-.01.04-.02.22-.05.43-.11.65-.16.43-.09.86-.18,1.28-.28.15-.03.26-.12.34-.24.04-.06.04-.12,0-.18-.06-.08-.13-.11-.2-.08-.08.03-.15.06-.23.08-.29.06-.59.12-.88.18-.47.1-.94.2-1.39.36.02-.02.04-.03.05-.05.09-.13.02-.28-.14-.29-.3-.02-.59-.03-.89-.04-.04,0-.06,0-.04-.05.11-.25.25-.5.38-.74.11-.2.23-.39.3-.61.05-.15,0-.25-.13-.33-.12-.06-.24-.04-.36,0-.55.15-1.05.39-1.48.77-.16.14-.31.31-.4.51-.06.12-.03.22.07.3.09.07.17.07.28-.02,0,0,.01,0,.02-.01,0,0,.01,0,.02-.01,0,0,0,.02,0,.03-.03.05-.06.1-.09.15,0,0-.01.02-.02.02-.08,0-.16.03-.22,0-.14-.07-.27-.04-.41,0-.02,0-.05.02-.07.01-.11-.02-.2.03-.27.12ZM62.6,6.02c.19-.22.38-.45.57-.67.04-.05.1-.1.11-.17.01-.1-.05-.14-.12-.19,0,0-.02-.01-.03-.02,0,0,.02-.01.02-.02.16-.07.32-.13.5-.17.01,0,.03,0,.04,0v.04c-.11.19-.22.39-.32.59-.11.2-.22.4-.31.61-.01.03-.03.04-.06.04-.13,0-.26,0-.39,0-.01,0-.03,0-.04,0,0,0,.01-.02.02-.03ZM62.49,5.35h0s0,0,0,0c-.04.07-.08.13-.13.2-.01.02-.02.06-.04.05-.02-.01-.03-.05-.03-.08,0-.03.16-.16.2-.17Z"/>
      <path d="M66.44,8.4c.05-.05.1-.11.07-.19-.03-.08-.09-.13-.18-.15-.15-.03-.31-.05-.46-.06-.39-.04-.79-.04-1.18-.05-.37,0-.74-.03-1.1-.01-.17,0-.29.09-.39.22-.04.05-.04.11,0,.16.07.09.18.13.24.21.05.02.08.02.11.01.39-.1.78-.12,1.18-.11.46.02.92.07,1.38.11.14.02.25-.03.34-.13Z"/>
      <path d="M67.53,8c-.46.51-.92,1.02-1.48,1.43-.1.07-.1.13-.03.24.01.02.03.03.04.05l.03.02c.07.02.13-.03.2-.03.21,0,.42.02.63.06.46.08.92.2,1.36.36.03.01.07.02.09.04.14.1.26.02.37-.06.01-.01.03-.02.04-.03l.04-.08c0-.07-.04-.14-.07-.2-.06-.1-.09-.11-.2-.08-.02,0-.03,0-.04,0-.55-.18-1.11-.33-1.69-.4-.01,0-.03,0-.03,0,0-.01.01-.02.02-.03.07-.07.15-.14.22-.21.48-.47.93-.97,1.37-1.48.14-.16.29-.32.41-.5.08-.11.01-.28-.12-.29-.26-.03-.52,0-.73.19-.05.04-.07.1-.04.16.04.09.12.15.23.1.01,0,.03,0,.05,0,0,.01-.02.03-.03.04-.21.25-.42.5-.65.74Z"/>
      <path d="M71.88,9.64c.34.06.69.11,1.03.19.04,0,.05.02.04.06-.04.1.02.2.12.23.04.01.07.02.11.03.05,0,.06.02.02.06-.27.28-.54.56-.77.88-.11.16-.64.95-.71,1.14-.04.11.02.23.12.25.17.03.41-.1.45-.27.02-.07.46-.76.5-.82.26-.4.61-.74.93-1.09.02-.02.03-.01.05-.01.1.02.21.05.31.07.37.09.74.19,1.11.27.14.03.28.01.39-.09v-.02c.05-.15.02-.22-.11-.3-.13-.09-.28-.15-.42-.21-.73-.28-1.49-.48-2.26-.64-.18-.04-.37-.02-.52-.13,0,0-.02,0-.03,0-.15-.01-.3,0-.44.04-.06.02-.09.07-.09.13,0,.13.05.2.19.22Z"/>
      <path d="M75.59,11.12c.04-.05.06-.1.06-.14,0-.04-.02-.09-.07-.14-.01-.01-.02-.02-.03-.03-.07-.05-.14-.04-.22.03-.03.02-.05.04-.07.06-.24.23-.42.5-.61.76-.01.02-.03.04-.04.06-.19.27-.96,1.5-.99,1.56-.06.1-.04.2.05.27,0,0,.02.01.03.02.1.05.17.02.26-.07.11-.1.18-.23.26-.35.02-.03.03-.05.05-.08.43-.21.94-.38,1.4-.45-.07.1-.19.31-.32.6-.06.13-.12.27-.16.4-.08.21-.14.42-.18.62-.02.08-.03.16-.04.24,0,.05,0,.09.03.13.02.04.06.06.09.08h0c.06.04.13.04.19,0,.09-.06.19-.15.24-.29.02-.05.01-.1,0-.14,0-.02,0-.05,0-.07,0-.05.05-.23.13-.45.45-1.22,1.23-1.87,1.28-1.93.04-.05.06-.1.06-.14,0-.04-.02-.09-.07-.14-.01-.01-.02-.02-.03-.03-.07-.05-.14-.04-.22.03-.02.02-.05.04-.07.06-.62.63-1.55.71-1.91.81.02-.03.04-.06.06-.09.26-.4.53-.82.85-1.19Z"/>
      <path d="M76.66,14.17c.16-.12.33-.24.5-.35.18-.12.36-.24.54-.37.05-.03.09-.07.12-.12.04-.06.03-.14-.02-.18-.06-.05-.12-.06-.19-.02-.08.04-.15.08-.24.12-.08.03-.16.07-.24.11-.02,0-.05.02-.05.04-.01.05-.05.07-.09.1-.03.02-.06.04-.1.06-.26.15-.51.32-.74.51-.15.12-.29.24-.42.42-.02.03-.06.08-.09.14-.05.09-.09.19-.09.29,0,.08.03.15.09.21.09.08.18.09.29.06.12-.03.23-.1.33-.18.13-.09.24-.2.36-.31.05-.05.1-.09.14-.14.07-.08.04-.24-.04-.29-.02-.01-.04-.02-.06-.03-.03-.01-.03-.03,0-.05,0,0,0,0,.01,0Z"/>
      <path d="M76.79,12.61c-.01.06-.01.12,0,.16.07.2.25.3.43.24.05-.02.1-.02.15-.03.21-.04.41-.03.62,0,0,0,.01,0,.02,0,.02,0,.03.01.02.03-.03.09-.06.18-.09.27-.03.08-.05.15-.07.23-.03.11.01.21.1.25.07.04.13.03.19-.01.06-.04.11-.09.11-.17,0-.06.03-.11.05-.16.04-.11.09-.23.14-.34.02-.05.05-.07.11-.07.13,0,.25,0,.38,0,.05,0,.1,0,.15-.02.08-.02.12-.09.11-.17-.01-.07-.06-.11-.14-.11-.12,0-.23,0-.35,0-.02,0-.04,0-.06,0-.03,0-.04,0-.03-.04.04-.12.08-.23.11-.35.02-.07,0-.13-.04-.18-.09-.1-.26-.09-.32.03-.06.1-.09.22-.14.33-.02.04-.03.09-.05.14-.01.04-.02.04-.06.03-.05-.01-.1-.02-.15-.03-.15-.04-.31-.07-.46-.11-.04,0-.07-.03-.1-.05-.09-.07-.19-.12-.3-.11-.11,0-.27.12-.3.27Z"/>
      <path d="M78.33,14.32c-.1.08-.11.19-.06.3.06.1.13.13.26.09,0,0,.01,0,.02,0,0,0,.02,0,.02,0,0,0,0,.02-.02.02-.05.04-.09.07-.14.11,0,0-.02.02-.03.01-.07-.02-.16-.04-.2-.09-.1-.12-.23-.15-.37-.17-.03,0-.05,0-.07-.02-.1-.06-.19-.05-.29,0-.05.02-.09.06-.14.07h0s0,.03,0,.04c-.03.08,0,.2.07.23.16.07.29.19.45.26.04.02.04.03,0,.05-.31.22-.58.49-.83.77-.05.06-.05.13,0,.21.04.06.1.09.17.07.1-.02.18-.07.26-.13.28-.24.57-.48.85-.72.02-.02.04-.02.06-.01.16.07.32.13.48.2.03.01.04.02.01.05-.14.14-.26.29-.38.45-.09.12-.18.24-.24.38-.04.09-.02.18.05.25.06.06.13.05.2.02.22-.08.36-.24.5-.41.04-.05.04-.1,0-.16-.01-.02-.01-.04,0-.07.09-.1.18-.2.26-.3.02-.03.04-.03.07-.02.27.12.55.23.82.36-.35.17-.68.39-.94.69-.29.33-.31.73-.05,1.09.13.18.31.28.49.39.03.02.04.03.03.06-.02.06,0,.12.01.18.05.15.16.26.29.26.14,0,.26-.05.34-.17.02-.03.03-.04.06-.02.14.06.27.06.41-.01-.13.18-.19.39-.15.64.07.43.31.75.67.99.69.47,1.54.4,2.07-.11.06-.06.12-.13.18-.19.31-.34.53-.74.68-1.18.02-.05.03-.1.02-.16,0-.05-.02-.11-.03-.16-.02-.27-.14-.48-.32-.67-.09-.1-.2-.05-.31-.03-.09.02-.15.06-.14.16,0,.04-.02.01-.03.01-.35-.09-.7-.09-1.06-.05-.49.06-.95.2-1.35.5-.04.03-.08.07-.11.11,0-.01,0-.02,0-.03,0-.1-.06-.15-.14-.18-.11-.03-.21-.06-.32-.1-.02,0-.03-.01-.04-.02.01,0,.02-.02.04-.03.21-.12.44-.18.67-.24.13-.03.26-.07.37-.15.14-.09.14-.27,0-.35-.2-.12-.42-.13-.64-.16-.27-.04-.54-.05-.81-.1-.15-.03-.27,0-.4.07-.06.03-.1.07-.09.15.02.1.08.17.16.18.09.01.18.02.28.03.22.03.44.05.65.08,0,0,0,0,0,0,0,0,0,0,0,0,0,0,0,0,0,0,0,0,0,0,0,0,0,.02-.03.02-.04.03-.19.08-.38.17-.56.29-.02.02-.04.01-.06,0-.09-.05-.18-.11-.26-.17-.28-.22-.31-.47-.08-.75.12-.15.26-.26.41-.37.42-.3.89-.47,1.41-.42.25.02.48.11.65.29.08.08.05.17-.06.2-.19.05-.38.06-.57.02-.13-.02-.24,0-.35.06-.07.03-.11.08-.1.15.01.1.06.16.14.18.13.03.27.04.4.03.32-.01.64-.07.91-.26.13-.09.19-.23.16-.39-.03-.15-.1-.27-.21-.37-.18-.16-.39-.25-.62-.3-.4-.08-.79-.02-1.17.1,0-.06-.04-.12-.11-.15-.26-.14-.53-.26-.8-.39-.04-.02-.06-.02-.01-.06.21-.19.43-.35.64-.53.18-.14.37-.26.52-.44.1-.11.11-.23.01-.35-.08-.11-.21-.13-.33-.15-.56-.09-1.12-.07-1.66.11-.21.07-.4.16-.57.3ZM81.23,18.79c.1-.13.23-.22.38-.3.54-.28,1.09-.33,1.67-.15.16.05.3.13.42.25.04.05.04.16-.02.2-.1.07-.21.11-.33.15-.1.04-.21.08-.31.12-.09.03-.12.1-.09.19.02.08.08.12.17.12.12,0,.22-.06.33-.1.01,0,.03-.01.04,0,.01.01,0,.03-.01.04-.14.23-.31.44-.53.65-.04.03-.12.09-.19.15-.15.11-.32.14-.5.1-.44-.1-.8-.31-1.03-.7-.16-.26-.15-.51.02-.71ZM79.81,14.3s-.01-.02-.02-.03c0,0,.02,0,.03,0,.18,0,.35,0,.52.04.01,0,.02,0,.04.01,0,0-.01.02-.02.03-.17.13-.35.27-.53.41-.18.14-.36.28-.53.44-.02.02-.04.02-.07.01-.12-.05-.24-.1-.35-.16-.01,0-.03,0-.03-.02,0,0,.02-.02.03-.02.26-.13.53-.26.79-.38.06-.03.13-.05.17-.11.05-.08.01-.15-.03-.22ZM79.06,14.36c-.06.04-.13.09-.19.13-.02.01-.04.05-.05.03-.01-.02,0-.06,0-.09,0-.03.21-.09.25-.07h0s0,0,0,0Z"/>
      <polygon points="80.61 17.65 80.61 17.65 80.61 17.65 80.61 17.65 80.61 17.65"/>
      <path d="M84.24,22.73c-.07.04-.1.11-.08.2.01.07.05.11.12.13.07.02.14.03.21.01.16-.03.3-.11.44-.19.04-.02.05-.02.06.02.12.36.18.73.18,1.11,0,.29-.04.56-.19.82-.06.11-.15.21-.28.24-.07.02-.11.08-.1.19,0,.07.04.13.11.14.21.05.4,0,.55-.15.18-.17.27-.39.33-.63.12-.56.08-1.12-.07-1.67,0-.03-.02-.06-.02-.09.03.02.06.03.08.05.39.26.78.51,1.21.68.24.1.49.16.76.13.16-.02.26-.12.27-.28.01-.18-.09-.31-.16-.43-.08-.11-.15-.19-.23-.27-.31-.31-.65-.58-1.03-.82-.2-.13-.41-.25-.62-.35-.17-.09-.35-.15-.55-.13-.11.01-.16.06-.17.18,0,.14.04.23.15.24.07.01.14.02.21,0,.02,0,.04,0,.06,0,.11.06.21.12.32.18,0,0,.02.01.02.02,0,.02-.02.01-.03.02-.12.04-.25.08-.37.13-.03.01-.06.01-.09-.01-.11-.1-.24-.13-.38-.12-.13,0-.18.06-.18.18,0,.04,0,.08.02.12.02.04,0,.06-.04.07-.18.07-.35.16-.52.25ZM85.86,22.53c.13-.04.26-.09.39-.13.02,0,.04-.01.07,0,.33.23.63.48.88.8.02.03.05.07.07.1,0,.01.02.03.02.04,0,.01-.03,0-.04,0-.23-.08-.45-.19-.66-.31-.25-.14-.49-.3-.73-.46-.01,0-.03-.02-.03-.03,0-.02.02-.02.04-.02Z"/>
      <path d="M87.17,24.59c.02.12.08.16.22.17,0,0,.01,0,.02,0,0,0,.02,0,.02,0,0,0-.01.01-.02.02-.05.02-.11.04-.17.06,0,0-.02,0-.03,0-.06-.04-.14-.08-.17-.15-.06-.15-.18-.21-.31-.27-.02-.01-.05-.02-.06-.04-.07-.09-.17-.1-.28-.09-.05,0-.1.04-.15.02h0s0,.02,0,.03c-.05.07-.06.19,0,.24.13.11.22.27.35.38.03.03.03.04-.01.05-.36.12-.69.3-1.02.5-.06.04-.09.11-.06.2.02.07.06.12.14.12.1,0,.19-.01.28-.05.34-.15.69-.29,1.03-.44.02-.01.04-.01.06,0,.13.11.27.22.4.33.03.02.03.03,0,.05-.17.09-.33.2-.49.32-.12.09-.24.18-.34.3-.07.08-.07.17-.03.25.04.07.11.08.18.08.23-.01.41-.13.59-.25.05-.03.07-.09.05-.15,0-.03,0-.05.03-.06.11-.07.23-.14.34-.21.03-.02.05-.02.07,0,.08.07.16.14.25.21-.06,0-.12-.02-.18-.01-.09,0-.13.05-.15.14-.02.12.09.28.21.29.09,0,.18-.01.26,0,.11.03.22.07.32.11.02,0,.03,0,.03.04-.02.16,0,.19.16.25.17.06.33.12.49.21.01,0,.02.02.03.03-.01,0-.02.02-.04.02-.23.11-.47.19-.71.27-.04.01-.07.01-.11,0-.12-.05-.25-.1-.38-.16-.12-.05-.24-.08-.37-.07-.09,0-.13.05-.15.14-.01.09.02.17.1.19.09.02.17.06.25.1.01,0,.03.01.03.02,0,.02-.02.01-.03.02-.16.08-.3.18-.42.32-.12.14-.08.34.08.38.08.02.16.03.25.02.12,0,.18-.06.17-.19,0-.04.02-.06.04-.08.12-.09.26-.15.4-.21.05-.02.1-.02.15,0,.49.21.98.42,1.48.58.36.11.72.22,1.11.12l.06-.03c.17-.14.15-.31.08-.48,0-.01,0-.03-.01-.04l-.05-.1s-.02-.01-.02-.02c-.18-.28-.42-.51-.68-.71-.45-.33-.94-.6-1.46-.82,0-.05,0-.11-.06-.17-.21-.21-.43-.41-.65-.6-.03-.03-.05-.04,0-.06.25-.12.51-.22.77-.32.21-.08.43-.15.63-.27.13-.08.17-.19.11-.33-.05-.12-.16-.19-.27-.24-.51-.25-1.05-.39-1.62-.38-.22,0-.43.03-.64.12-.12.05-.17.15-.14.27ZM89.79,27.45s.02-.01.03,0c.37.25.72.51.95.91.01.02.04.05.03.07-.02.02-.06.02-.09.01-.2-.03-.39-.09-.58-.16-.36-.12-.71-.27-1.06-.41-.01,0-.02-.01-.03-.02,0,0,.01,0,.02-.01.17-.06.33-.12.48-.19.1-.05.2-.1.26-.2ZM88,24.58s0,0,0,0h0s0,0,0,0ZM87.74,24.58s.23-.02.26,0c-.07.02-.15.05-.22.07-.02,0-.05.03-.06.01,0-.02,0-.06.03-.08ZM87.64,25.16c.29-.05.58-.09.87-.14.07-.01.14-.01.19-.06.07-.06.06-.14.03-.22,0-.01,0-.02,0-.03,0,0,.02,0,.03,0,.17.05.33.11.49.19.01,0,.02.02.03.02,0,0-.02.01-.03.02-.2.08-.41.16-.62.24-.21.08-.43.17-.63.27-.03.01-.05,0-.07,0-.1-.09-.2-.17-.29-.25,0,0-.03-.01-.02-.03,0,0,.02-.01.04-.01Z"/>
      <path d="M91.09,28.95s-.06.01-.09.02c-.32.08-.61.22-.9.35-.02.01-.05.02-.07.03-.29.14-1.58.83-1.63.86-.1.05-.14.16-.09.26,0,.01.01.02.02.03.06.1.13.1.26.07.14-.03.27-.1.39-.17.03-.02.06-.03.08-.05.48.03,1.01.14,1.44.3-.11.06-.32.17-.58.35-.12.08-.23.17-.34.26-.17.14-.33.29-.47.45-.06.06-.11.13-.16.19-.03.04-.04.08-.04.13,0,.04.02.08.03.11h0c.03.07.09.1.16.1.1-.01.24-.03.35-.13.04-.03.06-.08.08-.12.01-.02.02-.04.03-.06.03-.04.16-.17.34-.32,1-.83,2-1.01,2.07-1.03.06-.02.1-.05.12-.09.02-.04.02-.09,0-.15,0-.02,0-.03-.01-.04-.03-.07-.1-.1-.21-.09-.03,0-.06,0-.09.02-.85.24-1.7-.15-2.06-.25.03-.02.07-.04.1-.05.43-.22.87-.45,1.33-.61.06-.02.1-.05.12-.09.02-.04.02-.09,0-.15,0-.02,0-.03-.01-.04-.03-.07-.1-.1-.21-.09Z"/>
      <path d="M91.26,31.71c-.13.03-.19.12-.19.24,0,.12.05.17.19.2,0,0,.01,0,.02,0,0,0,.01,0,.02,0,0,0-.02,0-.02.01-.06.01-.12.02-.17.03,0,0-.02,0-.03,0-.05-.05-.12-.11-.14-.18-.03-.15-.14-.24-.25-.32-.02-.01-.04-.03-.05-.05-.06-.1-.15-.13-.26-.14-.05,0-.11.02-.16,0h0s0,.02-.01.03c-.07.06-.09.18-.04.24.11.14.17.31.28.44.03.03.02.04-.02.05-.38.05-.74.16-1.09.3-.07.03-.1.09-.1.18,0,.07.04.13.12.15.1.02.19.02.29,0,.36-.08.73-.16,1.09-.25.03,0,.04,0,.06.02.11.13.22.27.34.4.02.03.02.04-.01.05-.19.06-.37.14-.54.22-.14.07-.27.13-.39.23-.08.06-.1.15-.07.25.02.08.09.1.16.11.23.03.43-.05.63-.14.06-.02.08-.07.08-.13,0-.03,0-.05.04-.06.12-.05.25-.1.37-.15.03-.01.05,0,.07.02.19.24.39.47.57.71,0,0,.01.01.02.02-.09-.03-.18-.04-.28-.03-.08,0-.14.05-.16.13-.05.16,0,.3.08.43.12.23.25.47.37.7,0,0,0,.02,0,.02,0,0-.02,0-.02-.01-.06-.07-.11-.13-.17-.2-.2-.23-.4-.46-.64-.65-.11-.09-.23-.09-.35-.08-.13.04-.15.22-.06.31.3.29.58.6.85.92.2.24.4.49.62.72.12.12.27.16.43.16.11,0,.18-.06.19-.17.03-.17-.03-.33-.09-.48-.14-.37-.34-.72-.53-1.07,0-.01-.01-.02-.02-.04.01,0,.03.01.04.02.18.14.36.27.53.41.34.27.68.55,1.02.83.12.1.26.12.4.12.07,0,.12-.04.14-.11.03-.1,0-.17-.06-.21-.07-.04-.14-.08-.21-.13-.23-.19-.46-.38-.69-.57-.37-.3-.74-.6-1.14-.85.02,0,.04,0,.06,0,.16-.01.23-.16.14-.29-.17-.25-.35-.48-.53-.71-.02-.03-.04-.05.02-.06.27-.07.54-.12.81-.17.22-.04.45-.06.66-.15.14-.05.2-.16.17-.31-.02-.13-.12-.21-.22-.28-.46-.34-.96-.57-1.52-.67-.21-.04-.43-.05-.65,0ZM91.64,32.04s.23.02.25.05h0s0,0,0,0c-.08,0-.16.02-.23.03-.02,0-.06.02-.06,0,0-.02.02-.06.04-.08ZM92.51,32.59c.08-.05.08-.13.07-.21,0-.01,0-.02,0-.03,0,0,.02,0,.03,0,.15.08.31.17.44.28.01,0,.02.02.03.03,0,0-.02,0-.03.02-.21.04-.43.08-.65.12-.23.04-.45.08-.67.14-.03,0-.05,0-.06-.02-.08-.1-.16-.2-.24-.3,0,0-.03-.02-.02-.03,0,0,.02,0,.04,0,.29,0,.59.02.88.03.07,0,.14.01.2-.02Z"/>
      <path d="M90.06,34.89c.32.24.58.54.82.85.28.37.52.76.77,1.15.08.12.18.18.32.18.07,0,.15.01.19-.06.04-.07.05-.15,0-.24-.07-.14-.15-.27-.24-.4-.21-.33-.46-.64-.7-.96-.22-.29-.44-.59-.68-.87-.11-.13-.25-.17-.41-.17-.06,0-.11.03-.13.09-.03.11.02.22-.02.32.02.05.03.07.06.09Z"/>
      <path d="M93.9,37.45c-.04.09-.05.19.07.25.01,0,.02.02.04.03-.02,0-.03,0-.05,0-.33-.01-.65-.02-.98-.04-.69-.05-1.38-.08-2.05-.26-.12-.03-.17,0-.2.12,0,.02,0,.04-.01.07v.04c.04.07.12.08.16.14.14.16.24.34.35.53.22.41.42.84.57,1.29.01.03.03.06.03.1.01.17.14.21.28.25.02,0,.04,0,.05.01l.09-.02c.06-.05.08-.11.11-.18.05-.11.03-.14-.07-.21-.01,0-.02-.02-.03-.04-.2-.55-.44-1.07-.74-1.57,0,0-.01-.02-.01-.03,0-.01.02,0,.03,0,.1.01.2.03.3.05.67.08,1.34.12,2.01.14.22,0,.43.02.65,0,.14-.01.22-.16.15-.28-.14-.22-.33-.4-.6-.45-.07-.01-.12,0-.15.07Z"/>
      <path d="M10.36,34.62c-.54.45-1.05.95-1.5,1.5-.52.63-.54,1.3-.15,2,.11.2.23.38.36.54-.91,3.41-1.39,6.99-1.39,10.68,0,22.98,18.7,41.68,41.68,41.68,13.19,0,24.97-6.17,32.61-15.77.58-.32.99-.86,1.17-1.54,4.96-6.86,7.9-15.28,7.9-24.37,0-22.98-18.7-41.68-41.68-41.68-17.8,0-33.02,11.22-38.98,26.96ZM49.34,8.16c22.71,0,41.18,18.47,41.18,41.18,0,8.67-2.7,16.72-7.29,23.36-.07-1.52-1.08-2.57-2.54-2.57s-2.6,1.13-2.6,2.73,1.04,2.73,2.55,2.73c.16,0,.3-.02.44-.04-7.56,9.14-18.98,14.98-31.75,14.98-22.71,0-41.18-18.47-41.18-41.18,0-3.54.45-6.98,1.29-10.26.67.58,1.52.63,2.72.16,4.06-1.58,8.06-3.32,12.19-4.72.5-.17.7-.19.82.42.27,1.3,1.49,2.01,2.77,1.71.45-.11.91-.2,1.34-.37.6-.24.76-.15.62.52-1.02,4.8-2.1,9.6-2.39,14.51-.15,2.46-.55,14.35-.07,16.8.29,1.48,1.75,2.36,3,1.88,2.06-.79,3.68-3.78,3.04-5.9-.28-.91-.12-11.19-.1-12.08.18-6.02,1.62-11.84,2.75-17.71.06-.3.24-.36.46-.43,1.26-.43,2.51-.86,3.77-1.27,4.54-1.48,9.11-2.89,13.61-4.47,1.65-.58,3.04-1.69,3.6-3.52v-.25c-.61-1.85-1.32-2.35-3.32-2.41-1.99-.05-3.96.18-5.9.56-9.64,1.89-19.02,4.73-28.25,8.08-2.11.77-4.04,2.19-6.45,2.03-.12,0-.25.06-.36.12-.76.38-1.49.81-2.17,1.3,6.09-15.15,20.92-25.87,38.22-25.87Z"/>
    </g>
  </g>
</svg>