<?xml version="1.0" encoding="UTF-8"?>
<svg id="Camada_2" data-name="Camada 2" xmlns="http://www.w3.org/2000/svg" viewBox="0 0 104.65 104.65">
  <g id="Camada_1-2" data-name="Camada 1">
    <g>
      <path d="M52.33,0C23.47,0,0,23.47,0,52.33s23.47,52.33,52.33,52.33,52.33-23.47,52.33-52.33S81.18,0,52.33,0ZM52.33,104.12C23.76,104.12.53,80.89.53,52.33S23.76.53,52.33.53s51.8,23.24,51.8,51.8-23.24,51.8-51.8,51.8Z"/>
      <path d="M100.17,44.25c-.11.08-.13.17-.06.3.17.32.36.64.52.97.02.04.02.06-.03.07-.11.04-.15.15-.11.25.01.04.03.07.05.11.03.05.02.06-.04.06-.41-.04-.83-.08-1.24-.05-.21.01-1.21.1-1.41.17-.12.04-.18.17-.13.27.09.16.36.27.53.19.07-.03.94-.13,1.01-.13.51-.05,1.01.01,1.52.05.03,0,.03.02.04.03.05.1.1.2.15.3.17.37.34.73.52,1.1.07.13.17.24.33.27h.02c.15-.07.18-.14.17-.31-.02-.17-.06-.33-.11-.49-.26-.79-.6-1.55-.97-2.29-.09-.17-.23-.32-.24-.52,0,0,0-.02-.01-.03-.09-.13-.19-.25-.33-.34-.06-.04-.11-.03-.17,0Z"/>
      <path d="M101.67,50.16c.07,0,.12-.01.16-.04.04-.03.06-.08.07-.15,0-.02,0-.03,0-.05,0-.08-.06-.14-.17-.17-.03,0-.06-.01-.09-.02-.93-.09-1.62-.8-1.94-1.04.04,0,.08,0,.12-.01.51-.06,1.03-.11,1.55-.09.07,0,.12,0,.16-.04.04-.03.06-.08.07-.15,0-.02,0-.03,0-.05,0-.08-.06-.14-.17-.17-.03,0-.06-.01-.09-.02-.34-.04-.69-.02-1.03,0-.03,0-.05,0-.08,0-.34.02-1.88.21-1.95.22-.12.01-.2.1-.19.22,0,.01,0,.03,0,.04.02.12.1.15.23.17.16.02.31,0,.46-.02.03,0,.07,0,.1-.01.46.21.94.53,1.3.85-.13.01-.39.05-.71.13-.15.04-.3.08-.44.13-.22.08-.44.16-.63.27-.08.04-.16.08-.23.13-.04.03-.07.06-.09.11-.01.04-.01.09-.01.13h0c0,.08.05.14.13.16.11.03.25.06.4,0,.05-.02.09-.05.12-.08.02-.02.04-.04.06-.05.05-.03.22-.11.46-.19,1.31-.44,2.37-.22,2.45-.22Z"/>
      <path d="M99.53,51.5s.01,0,.02,0c.21.05.42.12.63.18.22.07.44.14.66.19.06.01.12.03.18.02.08,0,.13-.07.14-.14,0-.08-.03-.14-.11-.17-.09-.03-.17-.07-.25-.12-.08-.05-.17-.08-.25-.13-.02-.01-.05-.02-.07-.01-.05.02-.1,0-.14-.01-.04-.01-.07-.03-.11-.04-.3-.11-.6-.2-.91-.27-.2-.04-.39-.08-.63-.07-.04,0-.11,0-.17.01-.11.02-.21.05-.3.12-.07.05-.11.12-.11.21,0,.12.05.21.15.28.11.08.24.12.37.15.16.04.33.07.49.09.07,0,.14.02.21.02.12,0,.22-.13.21-.22,0-.02,0-.04-.01-.07,0-.04,0-.04.04-.04Z"/>
      <path d="M102.34,51.56c-.12.02-.24.07-.36.11-.05.02-.1.03-.15.05-.04.01-.05.01-.07-.03-.02-.05-.05-.1-.07-.15-.07-.15-.15-.3-.22-.45-.02-.04-.02-.08-.02-.12,0-.12-.03-.23-.11-.33-.08-.09-.28-.15-.42-.07-.06.03-.11.07-.13.11-.12.19-.08.41.08.52.04.03.08.07.12.1.17.15.3.32.42.51,0,0,0,.01.01.02.01.02,0,.03-.01.04-.09.03-.19.07-.28.1-.08.03-.16.06-.24.09-.11.05-.16.15-.14.25.01.08.06.13.14.15.07.02.15.02.21-.02.05-.04.11-.05.17-.07.12-.04.25-.08.37-.12.06-.02.09,0,.13.04.08.11.17.21.26.31.03.04.07.08.11.11.07.05.16.04.21-.02.04-.06.04-.12,0-.19-.07-.1-.15-.19-.23-.29-.01-.02-.03-.04-.04-.06-.02-.03-.02-.04.02-.05.12-.05.24-.09.36-.14.07-.03.11-.08.13-.16.03-.14-.1-.27-.24-.24Z"/>
      <path d="M101.17,53.25c-.19-.13-.4-.23-.63-.27-.13-.02-.24.03-.28.15-.05.12-.02.19.1.28,0,0,.01,0,.02.01,0,0,.01.01.02.02,0,0-.02,0-.03,0-.06-.01-.12-.03-.18-.04-.01,0-.03,0-.03-.01-.03-.08-.08-.16-.06-.23.03-.16-.03-.29-.11-.42-.01-.02-.03-.04-.03-.07-.01-.12-.09-.19-.19-.24-.05-.02-.11-.03-.15-.07h-.01s-.01.02-.02.02c-.09.03-.17.13-.14.22.05.18.03.37.08.55.01.04,0,.05-.04.04-.39-.11-.79-.15-1.19-.17-.08,0-.14.04-.17.14-.03.08-.01.14.05.19.08.06.18.1.28.12.39.07.78.15,1.17.22.03,0,.04.02.05.04.05.18.1.36.16.53.01.04,0,.05-.04.04-.21-.02-.41-.02-.62-.01-.16,0-.32.02-.48.06-.11.03-.16.1-.18.21-.01.09.04.14.11.18.21.13.44.13.67.13.06,0,.11-.04.14-.1.01-.03.03-.04.06-.04.14,0,.28.01.42.01.04,0,.05.01.06.05.08.3.18.61.25.91-.37-.18-.77-.3-1.2-.32-.47-.02-.81.23-.93.68-.06.22-.03.45,0,.67,0,.03,0,.05-.03.07-.06.03-.11.08-.14.13-.09.14-.11.3-.02.41.09.11.21.18.37.17.04,0,.05,0,.06.03.05.16.14.27.3.34-.24,0-.46.1-.65.31-.31.35-.41.76-.38,1.21.07.89.69,1.54,1.47,1.64.09,0,.18.02.28.02.49.03.96-.06,1.43-.22.05-.02.1-.05.14-.09.04-.04.08-.09.12-.13.21-.19.3-.44.34-.71.02-.14-.09-.2-.18-.28-.07-.06-.15-.09-.23-.01-.03.02-.03-.01-.03-.02-.16-.35-.39-.64-.66-.91-.38-.36-.8-.66-1.31-.78-.06-.02-.12-.02-.19-.03.02,0,.04,0,.05-.02.07-.07.09-.15.05-.24-.04-.11-.09-.22-.13-.33,0-.02,0-.03-.01-.05.02,0,.03,0,.05.01.23.1.44.24.64.39.11.08.23.16.37.21.17.05.31-.06.29-.24-.03-.24-.17-.44-.29-.64-.15-.25-.32-.48-.45-.74-.08-.15-.18-.22-.32-.28-.07-.03-.13-.04-.19.02-.07.08-.09.18-.05.25.05.08.11.17.16.25.12.2.25.39.37.59,0,0,0,0,0,0,0,0,0,0,0,0h0s0,0,0,0c-.02,0-.04,0-.05-.01-.2-.11-.4-.2-.61-.27-.03,0-.04-.03-.04-.05-.02-.11-.03-.22-.03-.32,0-.38.18-.57.57-.57.2,0,.39.04.58.09.53.15.98.42,1.28.89.15.22.23.46.19.73-.01.12-.11.15-.2.08-.16-.12-.3-.27-.4-.45-.07-.12-.16-.2-.28-.26-.07-.03-.13-.04-.19.02-.07.07-.09.16-.05.24.06.13.15.25.24.35.23.26.48.48.82.58.16.05.31,0,.43-.13.1-.12.16-.26.17-.42.01-.25-.05-.49-.16-.71-.2-.38-.5-.66-.85-.89.05-.04.07-.11.05-.19-.06-.31-.13-.61-.21-.92,0-.04-.02-.06.04-.05.29.05.58.12.86.18.23.05.46.13.71.14.16,0,.26-.07.3-.23.03-.14-.03-.26-.09-.37-.3-.52-.69-.97-1.2-1.3ZM98.78,58.36c.17,0,.34.05.5.11.59.26,1,.68,1.24,1.28.06.16.09.34.07.51,0,.07-.11.14-.18.12-.13-.03-.23-.1-.35-.17-.1-.06-.2-.12-.3-.18-.09-.05-.16-.03-.22.05-.05.07-.05.15,0,.22.08.1.2.14.3.21.01,0,.03.02.03.03,0,.02-.03.01-.04.01-.28.04-.57.03-.89,0-.06-.01-.15-.04-.25-.06-.19-.05-.33-.17-.41-.35-.21-.42-.28-.86-.11-1.32.11-.3.32-.46.6-.46ZM100.99,53.61h0s0,0,0,0h0ZM100.76,53.46s.21.12.22.16c-.08-.02-.16-.05-.24-.07-.02,0-.07,0-.06-.03,0-.02.04-.05.07-.06ZM101.86,54.69c-.22-.05-.46-.11-.69-.16-.24-.06-.47-.11-.71-.14-.03,0-.05-.02-.05-.05-.03-.13-.07-.27-.11-.4,0-.01-.02-.03,0-.04,0,0,.03,0,.04.01.28.13.56.27.85.4.07.03.13.07.21.06.1-.01.13-.09.16-.17,0-.01,0-.02.01-.03,0,0,.02.01.02.02.12.15.23.29.31.46,0,.01,0,.03.01.04-.01,0-.02,0-.04,0Z"/>
      <polygon points="99.31 57.08 99.3 57.08 99.31 57.08 99.31 57.08 99.31 57.08"/>
      <path d="M99.5,63.98c-.04-.2-.11-.39-.26-.54-.08-.08-.16-.09-.26-.02-.12.09-.16.18-.1.28.04.06.08.13.13.18.02.01.03.03.03.05.02.13.05.26.07.39,0,0,0,.03,0,.03-.01.01-.02,0-.03-.01-.12-.07-.23-.15-.35-.22-.03-.02-.05-.04-.05-.08,0-.15-.05-.28-.15-.39-.09-.1-.17-.11-.27-.03-.03.03-.07.05-.09.09-.02.05-.05.04-.09.02-.18-.1-.36-.18-.55-.27-.07-.03-.16,0-.22.06-.05.05-.06.12-.03.18.03.07.07.13.13.18.13.11.29.18.45.24.04.02.05.02.02.06-.22.34-.49.64-.8.88-.24.19-.5.34-.8.39-.14.02-.27.02-.39-.08-.06-.05-.14-.03-.22.04-.06.05-.08.12-.04.19.1.2.26.33.49.36.26.03.51-.04.74-.15.55-.27.98-.68,1.34-1.16.02-.03.04-.05.06-.08,0,.03.01.07.02.1.05.49.1.98.24,1.46.08.27.2.52.4.72.12.12.27.14.41.04.15-.11.2-.28.25-.41.04-.14.06-.25.07-.36.05-.46.05-.93,0-1.39-.03-.25-.06-.5-.12-.75ZM99.09,66.22s-.02.09-.04.13c0,.01-.01.04-.02.04-.02,0-.02-.02-.02-.04-.09-.24-.14-.49-.18-.75-.05-.3-.08-.61-.11-.91,0-.01,0-.04,0-.04.02-.01.03,0,.04.01.12.08.25.16.37.24.02.01.04.03.04.06.02.42.02.85-.08,1.26Z"/>
      <path d="M98.77,67.5c-.15-.18-.31-.34-.52-.44-.12-.06-.24-.04-.32.06-.08.1-.08.17.01.29,0,0,0,.01.01.02,0,0,0,.01.01.02,0,0-.02,0-.03,0-.05-.03-.11-.06-.16-.1,0,0-.02-.01-.02-.02,0-.08-.03-.17.01-.24.08-.15.05-.29.02-.43,0-.03-.02-.05-.01-.08.03-.12-.03-.21-.11-.29-.04-.04-.1-.06-.12-.11h0s-.01,0-.01,0c0,.01-.02.01-.03.01-.09,0-.2.08-.2.16,0,.19-.08.36-.08.55,0,.04-.01.05-.05.03-.34-.22-.71-.38-1.09-.51-.07-.03-.15,0-.2.08-.05.06-.05.13,0,.2.06.08.14.15.23.2.35.19.7.37,1.05.56.03.01.04.03.04.06,0,.19,0,.37,0,.56,0,.04,0,.04-.05.03-.19-.08-.39-.14-.59-.19-.16-.04-.31-.08-.47-.09-.11,0-.18.05-.23.15-.04.08,0,.14.06.2.16.18.38.26.6.33.06.02.12,0,.16-.05.02-.02.04-.03.07-.02.13.05.27.09.4.14.03.01.05.03.04.07,0,.12,0,.24,0,.35-.03-.06-.07-.11-.11-.16-.06-.07-.13-.07-.21-.03-.11.06-.17.26-.1.37.05.08.13.14.17.22.05.11.08.23.12.34,0,.02.01.03-.01.05-.14.09-.15.14-.1.29.06.18.12.35.15.54,0,.01,0,.03,0,.05-.01,0-.03,0-.04-.01-.24-.12-.47-.26-.69-.41-.04-.02-.06-.05-.07-.09-.04-.14-.08-.28-.12-.42-.04-.13-.09-.25-.19-.35-.06-.07-.13-.08-.22-.02-.09.05-.12.13-.09.21.04.09.06.18.09.27,0,.01.01.03,0,.04-.01.01-.02,0-.04-.01-.17-.08-.35-.13-.54-.14-.19,0-.33.16-.26.31.04.08.08.15.14.22.09.1.17.1.27.02.03-.03.06-.03.1-.02.16.04.3.11.44.19.05.03.08.07.1.12.15.54.3,1.08.51,1.61.14.37.3.75.64.99l.07.03c.23.05.35-.08.46-.25,0-.01.02-.02.02-.03l.05-.11s0-.02,0-.03c.11-.34.14-.68.13-1.03-.02-.6-.13-1.18-.29-1.75.05-.03.09-.08.1-.16.04-.31.05-.62.07-.94,0-.04,0-.06.06-.04.26.13.52.28.77.43.21.12.41.26.63.34.15.06.27.01.35-.13.07-.12.05-.25.02-.38-.14-.59-.38-1.13-.76-1.59ZM97.2,72.61s-.01.07-.04.07c-.03,0-.05-.04-.07-.07-.11-.19-.18-.39-.26-.59-.13-.38-.25-.76-.36-1.15,0-.01,0-.03,0-.04,0,0,.02,0,.02,0,.16.1.31.2.48.27.11.05.21.1.34.08.02,0,.02,0,.02.02.04.47.06.94-.13,1.39ZM98.49,67.8h0s0,0,0,0h0ZM98.32,67.59s.17.18.17.22c-.07-.05-.14-.09-.2-.14-.02-.01-.06-.02-.05-.04.01-.02.06-.03.09-.03ZM99.05,69.09s-.02,0-.04,0c-.2-.12-.4-.24-.61-.36-.21-.12-.42-.24-.64-.35-.03-.01-.04-.03-.04-.06,0-.14,0-.27.01-.41,0-.01,0-.03,0-.04,0,0,.02.01.03.02.23.21.46.42.69.63.05.05.1.11.18.12.1.02.15-.05.2-.12,0,0,.01-.02.02-.03,0,0,.01.02.02.03.07.17.13.35.16.53,0,.01,0,.03,0,.04Z"/>
      <path d="M96.86,73.2c-.28-.21-.59-.36-.89-.51-.02-.01-.05-.02-.07-.04-.31-.15-1.73-.76-1.79-.78-.11-.05-.22,0-.28.1,0,.01-.01.02-.02.04-.04.11,0,.18.11.26.12.1.27.16.4.21.03.01.06.03.09.04.29.41.55.93.7,1.39-.12-.05-.36-.15-.68-.24-.15-.04-.3-.08-.44-.11-.23-.05-.46-.08-.68-.09-.09,0-.18,0-.26,0-.05,0-.09.02-.13.05-.03.03-.06.07-.07.1h0c-.03.07-.02.15.03.2.08.08.19.17.34.2.06.01.1,0,.15-.01.03,0,.05-.01.07-.01.06,0,.25.02.49.07,1.36.27,2.16.99,2.23,1.03.06.04.11.05.16.04.05,0,.09-.04.13-.1.01-.01.02-.03.03-.04.04-.08.02-.15-.06-.23-.02-.02-.05-.04-.07-.06-.77-.54-1-1.5-1.17-1.87.04.02.07.03.11.05.47.2.95.42,1.39.69.06.04.11.05.16.04.05,0,.09-.04.13-.1.01-.01.02-.03.03-.04.04-.08.02-.15-.06-.23-.02-.02-.05-.04-.07-.06Z"/>
      <path d="M95.19,75.77c-.11-.2-.25-.39-.43-.53-.11-.08-.22-.08-.32,0-.1.08-.11.16-.04.29,0,0,0,.01,0,.02,0,0,0,.02,0,.02,0,0-.02,0-.03-.01-.05-.04-.09-.08-.14-.12,0,0-.02-.02-.02-.02.01-.08,0-.17.05-.23.11-.13.11-.27.1-.42,0-.03,0-.05,0-.08.05-.11.01-.21-.06-.3-.03-.04-.08-.08-.1-.13h0s-.02,0-.03,0c-.09-.02-.21.04-.23.12-.04.18-.14.34-.18.52,0,.04-.02.05-.05.02-.29-.28-.63-.5-.97-.7-.07-.04-.14-.02-.21.04-.06.05-.08.12-.04.19.05.09.11.17.19.24.31.25.62.49.93.74.02.02.03.03.02.06-.04.18-.07.36-.11.55,0,.04-.02.04-.05.02-.17-.11-.36-.21-.54-.3-.15-.07-.29-.14-.45-.17-.11-.02-.19.02-.25.1-.05.07-.02.14.02.21.12.21.33.32.53.43.06.03.11.02.16-.02.02-.02.04-.02.07,0,.12.07.24.14.37.21.03.02.04.04.03.07-.07.32-.13.63-.21.95,0,.01,0,.03,0,.04-.04-.09-.09-.18-.16-.26-.06-.07-.13-.08-.21-.05-.17.06-.24.2-.3.35-.11.26-.22.51-.33.77,0,0,0,.02-.01.02,0,0,0-.02,0-.03.02-.09.03-.18.05-.27.05-.32.11-.64.11-.96,0-.15-.08-.25-.16-.34-.12-.08-.28.02-.29.16-.04.44-.11.88-.19,1.32-.06.33-.14.65-.18.99-.02.18.04.33.15.46.08.09.17.1.27.04.16-.09.25-.24.34-.39.21-.37.37-.76.53-1.15,0-.01.01-.02.02-.04,0,.01,0,.03,0,.05,0,.24.01.47.01.71,0,.46,0,.93,0,1.39,0,.16.07.29.17.41.05.06.11.07.18.04.1-.04.14-.11.13-.18-.01-.09-.03-.17-.03-.26,0-.32.01-.64.01-.95,0-.51,0-1.02-.05-1.52.01.02.03.04.05.06.12.12.28.08.33-.08.09-.3.17-.61.24-.91,0-.04.01-.06.06-.03.24.18.46.37.68.56.18.16.35.33.56.45.14.08.26.06.37-.06.09-.11.09-.24.09-.37-.03-.6-.16-1.18-.46-1.71ZM94.74,75.77s.13.21.13.24h0s0,0,0,0c-.06-.06-.12-.12-.18-.18-.02-.02-.06-.03-.04-.05.02-.02.06-.02.09-.02ZM95.17,77.38s-.02,0-.04-.02c-.17-.15-.35-.31-.53-.46-.18-.16-.37-.32-.56-.46-.03-.02-.03-.04-.02-.07.03-.13.06-.27.09-.4,0-.01,0-.03.02-.04,0,0,.02.02.03.03.19.25.38.5.56.75.04.06.08.12.15.15.1.04.16-.02.22-.08,0,0,.02-.02.02-.02,0,0,0,.02.01.03.03.18.06.37.06.55,0,.01,0,.03,0,.04Z"/>
      <path d="M91.64,76.06c-.11.05-.18.16-.27.2-.03.05-.04.08-.04.11.01.42-.06.84-.16,1.24-.12.47-.28.94-.43,1.4-.05.15-.03.27.06.39.05.06.09.13.18.12.09-.01.16-.06.2-.15.07-.15.12-.31.17-.46.13-.4.22-.81.33-1.21.09-.38.2-.75.27-1.14.03-.18-.02-.32-.14-.45-.04-.05-.1-.07-.16-.04Z"/>
      <path d="M91.78,81.23c-.1.02-.19.09-.16.22,0,.02,0,.03,0,.05-.01-.01-.02-.02-.03-.04-.21-.28-.42-.55-.62-.84-.42-.6-.85-1.19-1.14-1.86-.05-.12-.11-.14-.24-.09-.02,0-.04.02-.06.03l-.02.03c-.03.07,0,.15-.01.22-.05.22-.12.43-.21.64-.19.46-.42.9-.68,1.33-.02.03-.04.06-.06.09-.13.13-.08.26-.02.39,0,.02.02.03.02.05l.08.06c.08.02.15,0,.22-.03.12-.03.14-.07.13-.19,0-.02,0-.03.01-.05.32-.53.59-1.08.81-1.66,0-.01,0-.03.01-.03.02,0,.02.02.02.03.06.09.11.19.16.28.38.61.79,1.19,1.22,1.76.14.18.27.37.43.54.1.1.29.08.33-.06.09-.27.11-.54-.03-.8-.03-.07-.09-.09-.16-.08Z"/>
      <path d="M88.54,84.61c-.13-.04-.21,0-.27.14-.14.34-.27.68-.43,1.02-.02.04-.03.05-.07.03-.1-.06-.21-.03-.27.07-.02.03-.04.07-.06.1-.02.05-.04.05-.07,0-.23-.34-.46-.69-.74-1-.14-.15-.84-.88-1.02-.99-.11-.07-.25-.03-.29.07-.07.17.01.45.18.53.07.04.69.65.74.71.35.37.62.8.91,1.21.01.02,0,.04,0,.05-.05.1-.1.2-.14.3-.18.36-.36.72-.53,1.09-.06.13-.08.28,0,.43h.02c.15.09.22.07.34-.04.12-.12.22-.25.31-.39.45-.7.83-1.43,1.18-2.19.08-.17.11-.37.26-.51,0,0,.01-.02.01-.03.05-.15.07-.31.06-.47,0-.07-.05-.11-.11-.13Z"/>
      <path d="M86.21,87.96c-.18-.3-.42-.55-.65-.8-.02-.02-.04-.04-.05-.06-.23-.25-1.34-1.33-1.39-1.38-.09-.09-.2-.09-.29,0,0,0-.02.02-.03.03-.08.09-.06.17.01.29.08.14.19.24.3.34.02.02.05.05.07.07.12.49.18,1.06.15,1.55-.09-.09-.28-.27-.54-.47-.12-.09-.25-.18-.37-.26-.2-.13-.4-.24-.61-.33-.08-.04-.16-.07-.24-.1-.05-.02-.09-.02-.14,0-.04.02-.08.05-.11.07h0c-.06.05-.07.13-.04.2.04.1.11.23.25.31.05.03.1.04.14.04.03,0,.05,0,.07.01.05.02.23.1.44.24,1.16.75,1.66,1.7,1.7,1.77.04.06.08.09.13.1.05,0,.1,0,.16-.04.01,0,.03-.02.04-.03.06-.06.07-.13.02-.24-.01-.03-.03-.06-.05-.08-.52-.78-.39-1.76-.41-2.16.03.03.06.06.08.08.36.36.73.73,1.04,1.15.04.06.08.09.13.1.05,0,.1,0,.16-.04.01,0,.03-.02.04-.03.06-.06.07-.13.02-.24-.01-.03-.03-.06-.05-.08Z"/>
      <path d="M83.02,89.9c.03.05.05.11.09.16.05.05.14.06.2.02.06-.05.09-.11.06-.19-.03-.09-.05-.18-.07-.27-.02-.09-.04-.19-.06-.28,0-.02-.01-.05-.03-.06-.05-.03-.06-.07-.08-.12-.01-.04-.03-.08-.04-.11-.1-.3-.22-.6-.36-.88-.09-.18-.19-.36-.34-.54-.02-.03-.07-.08-.12-.13-.08-.07-.17-.13-.28-.16-.08-.02-.16,0-.24.05-.1.07-.13.17-.13.29,0,.14.06.26.11.38.07.15.15.3.24.44.04.06.07.12.12.18.07.09.24.09.31.02.02-.02.03-.03.05-.05.02-.03.03-.03.05,0,0,0,0,.01,0,.02.09.2.17.4.25.6.09.22.17.43.26.64Z"/>
      <path d="M83.81,90.37c.07-.15.14-.3.22-.46.02-.04.05-.07.08-.09.09-.08.16-.17.19-.29.02-.12-.06-.31-.21-.37-.06-.03-.13-.04-.16-.04-.22.02-.37.19-.35.39,0,.05,0,.11,0,.16-.01.22-.07.43-.14.64,0,0,0,.01,0,.02,0,.02-.02.03-.04.01-.09-.05-.17-.1-.26-.16-.07-.05-.15-.09-.22-.13-.11-.05-.22-.03-.28.05-.05.06-.06.13-.03.2.03.07.07.13.15.15.06.02.11.05.16.09.11.07.21.15.32.22.05.03.07.07.05.13-.03.13-.05.26-.08.4-.01.05-.02.1-.02.16,0,.09.07.15.15.15.07,0,.12-.04.14-.12.03-.12.06-.24.09-.36,0-.02.01-.04.02-.07.01-.03.02-.04.05-.02.11.07.22.13.33.19.07.03.13.04.2,0,.13-.07.15-.25.04-.34-.1-.08-.2-.15-.31-.22-.04-.03-.09-.05-.13-.08-.03-.02-.04-.03-.02-.07.02-.05.05-.1.07-.15Z"/>
      <path d="M81.97,90.36c-.07-.12-.17-.16-.3-.13-.12.04-.16.1-.16.25,0,0,0,.01,0,.02,0,0,0,.02,0,.03,0,0-.01-.01-.02-.02-.03-.06-.05-.11-.08-.17,0,0-.01-.02,0-.03.04-.07.07-.16.14-.19.15-.08.21-.21.26-.35,0-.03.02-.05.04-.07.09-.09.09-.19.07-.3-.01-.05-.05-.1-.04-.16h0,0s-.02,0-.03-.01c-.08-.05-.21-.05-.26.02-.11.15-.27.26-.38.41-.03.03-.04.04-.06,0-.16-.37-.37-.71-.61-1.03-.05-.06-.12-.08-.21-.05-.08.03-.12.08-.12.16,0,.1.03.2.08.3.19.35.37.7.55,1.05.01.03.01.04,0,.07-.11.15-.21.3-.32.46-.02.03-.03.03-.06,0-.11-.17-.24-.34-.38-.49-.11-.12-.21-.24-.34-.34-.09-.06-.18-.06-.27,0-.08.04-.08.12-.07.2.03.24.17.43.32.61.04.05.1.06.16.05.03,0,.05,0,.07.02.08.11.17.23.25.34.02.03.02.05,0,.08-.18.25-.36.51-.55.76-.09-.4-.25-.79-.5-1.13-.28-.38-.69-.49-1.12-.3-.21.09-.37.26-.52.42-.02.03-.04.03-.07.02-.06-.03-.13-.03-.19-.03-.16.01-.3.11-.33.24-.03.14,0,.28.1.39.03.03.03.04.01.07-.09.14-.12.28-.07.45-.16-.18-.37-.3-.64-.31-.47-.03-.85.15-1.18.47-.65.61-.77,1.5-.36,2.17.05.08.1.15.16.23.28.4.65.72,1.06.97.05.03.1.05.16.06.06,0,.12,0,.18.01.28.04.53-.04.77-.18.12-.07.1-.2.11-.31,0-.09-.03-.17-.13-.19-.04,0,0-.03,0-.04.17-.34.26-.71.29-1.08.05-.52.01-1.03-.21-1.51-.03-.06-.06-.11-.1-.16.02,0,.03.02.05.03.1.01.17-.03.22-.11.06-.1.12-.21.17-.31,0-.01.02-.03.03-.04,0,.02.02.03.02.05.07.24.09.49.1.75,0,.14.02.28.07.42.06.16.24.2.36.08.17-.18.23-.41.31-.63.1-.27.18-.55.29-.82.07-.15.06-.28.01-.43-.02-.07-.05-.12-.14-.13-.11,0-.19.04-.22.12-.03.09-.06.19-.1.28-.08.22-.15.44-.23.66,0,0,0,0,0,0,0,0,0,0,0,0,0,0,0,0,0,0,0,0,0,0,0,0-.02-.01-.02-.03-.02-.05-.04-.22-.09-.44-.17-.65-.01-.03,0-.05.01-.07.07-.08.15-.16.23-.23.29-.24.56-.21.8.09.12.15.22.33.29.51.22.51.28,1.02.11,1.56-.08.25-.22.47-.45.61-.1.06-.19.01-.19-.1,0-.2.02-.4.1-.59.05-.13.05-.25.02-.38-.02-.07-.05-.13-.14-.14-.1-.01-.18.03-.22.11-.06.13-.1.27-.12.41-.06.34-.07.68.06,1,.06.16.19.25.36.25.16,0,.3-.04.43-.13.2-.15.35-.34.45-.57.17-.39.2-.8.16-1.22.06,0,.13-.02.18-.08.21-.24.39-.49.58-.74.02-.03.04-.05.07,0,.15.26.27.52.4.79.1.22.19.44.33.64.1.13.21.16.36.09.13-.06.18-.18.23-.3.22-.56.32-1.14.27-1.75-.02-.23-.07-.46-.18-.66ZM76.67,94.57c-.09.15-.2.28-.36.38-.06.04-.18,0-.2-.06-.05-.12-.07-.25-.09-.37-.02-.12-.03-.23-.05-.35-.02-.1-.07-.14-.17-.14-.09,0-.15.05-.16.14-.03.12.01.24.02.37,0,.01,0,.04,0,.04-.02,0-.03-.01-.04-.02-.21-.2-.38-.42-.55-.7-.02-.05-.07-.14-.11-.24-.08-.18-.07-.36.01-.54.2-.43.5-.76.96-.91.31-.1.56-.04.74.18.11.14.18.29.22.46.17.62.1,1.21-.22,1.77ZM81.68,91.92c-.04.18-.09.36-.16.53,0,.01-.02.02-.02.03,0,0-.01-.01-.03-.03-.1-.21-.2-.42-.3-.64-.1-.22-.21-.44-.33-.65-.02-.03-.01-.05,0-.07.08-.11.16-.22.24-.33,0-.01.01-.03.03-.03,0,0,.01.02.02.04.07.3.14.61.22.91.02.07.03.14.08.2.07.07.15.05.23.01.01,0,.02,0,.03-.01,0,.01,0,.02,0,.03ZM81.75,91.11s0,0,0,0h0s0,0,0,0ZM81.75,91.11c-.03-.08-.06-.15-.09-.23,0-.02-.04-.05-.02-.06.02-.01.06,0,.09.02.03.02.04.24.02.27Z"/>
      <polygon points="78 91.96 78 91.96 78 91.96 78 91.96 78 91.96"/>
      <path d="M72.84,95.67c-.15-.04-.24,0-.29.1-.03.07-.05.14-.06.21,0,.02,0,.04-.02.06-.09.1-.17.2-.26.29,0,0-.02.02-.02.02-.02,0-.01-.02-.01-.03-.02-.14-.03-.28-.05-.41,0-.04,0-.06.03-.09.12-.09.18-.22.21-.37.02-.13-.02-.2-.15-.23-.04-.01-.08-.02-.13,0-.05.01-.06-.01-.07-.06-.03-.2-.08-.4-.13-.59-.02-.08-.09-.13-.19-.13-.07,0-.13.02-.16.09-.03.07-.06.14-.06.21,0,.17.04.33.1.5.01.04.01.06-.04.06-.4.04-.8.02-1.19-.07-.29-.07-.58-.17-.8-.38-.1-.09-.18-.2-.18-.35,0-.08-.06-.13-.17-.15-.08-.01-.14.01-.17.08-.1.21-.1.41.02.61.14.23.35.37.58.48.55.26,1.14.34,1.74.32.03,0,.07,0,.1,0-.02.03-.04.05-.07.08-.36.34-.7.69-.99,1.1-.16.23-.28.48-.31.76-.02.17.06.29.23.34.18.05.34-.02.48-.06.13-.06.23-.11.33-.17.4-.25.75-.54,1.08-.88.18-.18.35-.36.51-.56.13-.16.23-.33.26-.54.01-.11-.03-.18-.14-.21ZM71.76,96.78c-.31.28-.64.55-1.03.72-.04.02-.08.04-.12.05-.01,0-.04.01-.04,0-.01-.01,0-.03.01-.04.13-.22.3-.42.47-.61.2-.23.42-.44.65-.65.01,0,.02-.03.03-.02.02,0,.01.03.01.04.02.15.03.29.05.44,0,.03,0,.05-.02.07Z"/>
      <path d="M69.78,96.26s-.02,0-.03-.01c-.06-.07-.18-.11-.25-.05-.15.11-.33.17-.48.28-.03.03-.05.02-.05-.02-.04-.4-.15-.79-.28-1.17-.03-.07-.09-.11-.19-.11-.08,0-.14.04-.16.12-.03.1-.03.2,0,.31.07.39.15.78.22,1.17,0,.03,0,.05-.02.06-.15.11-.29.23-.44.34-.03.02-.04.02-.05-.02-.06-.2-.13-.39-.22-.58-.07-.15-.13-.29-.23-.42-.07-.09-.16-.11-.26-.09-.09.02-.11.09-.12.17-.04.24.04.46.12.67.02.06.07.09.14.09.03,0,.05.01.06.04.05.13.09.27.14.4.01.03,0,.05-.02.08-.1.07-.19.15-.29.22.03-.06.05-.13.06-.2.01-.09-.02-.15-.11-.19-.11-.05-.31.03-.35.15-.03.09-.03.19-.07.27-.05.11-.13.21-.19.31-.01.02-.02.03-.05.02-.16-.05-.2-.03-.29.11-.1.16-.2.32-.33.46-.01.01-.02.02-.04.03,0-.01-.01-.03-.02-.04-.06-.26-.09-.53-.11-.79,0-.04,0-.08.03-.11.09-.12.17-.24.25-.35.08-.11.14-.23.16-.37.01-.09-.02-.15-.12-.18-.1-.03-.18-.01-.22.06-.05.08-.1.16-.16.24,0,.01-.02.03-.03.03-.02,0-.01-.02-.01-.04-.05-.18-.12-.36-.23-.51-.12-.15-.33-.16-.41,0-.04.08-.07.16-.08.25-.02.13.03.2.15.22.04,0,.06.03.07.06.06.15.1.3.13.46,0,.06,0,.1-.04.15-.33.46-.66.91-.94,1.4-.2.35-.4.7-.38,1.12l.02.07c.1.21.28.22.48.2.01,0,.03,0,.04,0l.11-.03s.02-.01.03-.02c.33-.12.62-.32.89-.55.45-.39.84-.84,1.19-1.32.06.03.13.02.2-.02.27-.17.52-.35.78-.53.03-.02.05-.04.07.02.06.29.11.58.15.87.04.24.05.48.13.71.05.15.16.22.32.19.14-.02.23-.12.31-.22.37-.47.64-1,.77-1.59.05-.23.07-.46.02-.69-.03-.13-.12-.21-.25-.21-.12,0-.18.05-.22.19,0,0,0,.01,0,.02,0,0,0,.01-.01.02,0,0,0-.02-.01-.03,0-.06-.02-.12-.03-.19,0-.01,0-.03,0-.03.06-.05.12-.13.19-.14.16-.03.26-.14.35-.26.02-.02.03-.05.05-.06.11-.06.15-.15.15-.27,0-.06-.02-.11,0-.17h0ZM65.73,99.26c-.34.33-.7.63-1.16.77-.03,0-.06.03-.08,0-.02-.03,0-.06,0-.1.08-.2.19-.39.3-.57.21-.34.44-.67.67-1,0-.01.02-.02.03-.03,0,0,0,.02,0,.02.02.19.04.37.09.54.03.11.05.23.15.32.02.02,0,.02,0,.03ZM68.82,98.78c-.09.16-.19.32-.31.46,0,.01-.02.02-.03.03,0,0,0-.02-.02-.04-.03-.23-.07-.46-.1-.7-.04-.24-.07-.48-.13-.72,0-.03,0-.05.03-.07.11-.08.22-.16.33-.25.01,0,.02-.03.04-.02,0,0,0,.03,0,.04-.02.31-.04.62-.06.93,0,.07-.02.15.02.21.05.09.13.09.22.08.01,0,.02,0,.03,0,0,0,0,.02-.01.03ZM69.13,98.03s0,0,0,0h0s0,0,0,0ZM69.11,97.72s.06.02.08.05c.02.02-.03.24-.06.27,0-.08-.02-.16-.02-.25,0-.02-.02-.06,0-.06Z"/>
      <path d="M63.71,99.04c-.07-.34-.49-1.83-.51-1.89-.03-.12-.13-.18-.25-.15-.01,0-.03,0-.04.01-.11.04-.13.12-.13.25,0,.16.05.3.09.45,0,.03.02.07.03.1-.14.49-.38,1.01-.65,1.42-.03-.12-.11-.37-.23-.68-.06-.14-.12-.28-.19-.41-.11-.21-.23-.41-.36-.59-.05-.07-.11-.14-.16-.21-.03-.04-.07-.06-.12-.07-.05,0-.09,0-.13,0h0c-.08.02-.13.07-.14.15-.01.11-.02.26.06.39.03.05.07.08.1.11.02.02.04.03.06.05.04.04.14.2.26.43.63,1.23.58,2.3.59,2.38,0,.07.03.12.07.15.04.03.09.04.16.04.02,0,.03,0,.05,0,.08-.02.13-.08.14-.19,0-.03,0-.07,0-.09-.05-.94.55-1.72.73-2.08.01.04.02.08.03.12.13.49.27,1,.32,1.52,0,.07.03.12.07.15.04.03.09.04.16.04.02,0,.03,0,.05,0,.08-.02.13-.08.14-.19,0-.03,0-.07,0-.09,0-.35-.08-.69-.16-1.02,0-.03-.01-.05-.02-.08Z"/>
      <path d="M61.4,98.69c-.04-.08-.16-.14-.24-.1-.17.08-.36.1-.52.19-.04.02-.05.01-.05-.03.03-.4,0-.8-.06-1.2-.01-.08-.07-.13-.17-.14-.08-.01-.14.01-.18.09-.05.09-.07.19-.07.3,0,.4,0,.79,0,1.19,0,.03,0,.05-.03.06-.17.08-.33.17-.49.26-.03.02-.04.01-.05-.03-.02-.21-.06-.41-.11-.61-.04-.16-.08-.31-.15-.46-.05-.1-.13-.14-.24-.13-.09,0-.12.07-.15.14-.09.23-.05.46,0,.68.01.06.06.1.12.11.03,0,.04.02.05.05.02.14.04.28.07.42,0,.04,0,.05-.04.07-.29.14-.57.3-.87.43-.01,0-.02.02-.04.02.05-.09.09-.18.1-.29.01-.09-.02-.15-.09-.2-.15-.09-.31-.06-.46-.02-.27.07-.54.15-.81.22,0,0-.02,0-.03,0,0,0,.01-.01.02-.02.08-.04.16-.09.24-.13.28-.16.57-.31.82-.51.11-.09.14-.22.17-.34-.01-.14-.19-.21-.31-.13-.37.25-.76.47-1.15.67-.3.16-.6.3-.88.48-.15.1-.23.24-.26.41-.02.12.02.2.13.24.17.07.34.05.52.02.42-.06.83-.19,1.23-.31.01,0,.03,0,.04,0-.01.01-.02.03-.03.04-.18.15-.36.31-.55.46-.36.29-.73.57-1.09.86-.13.1-.19.24-.21.39-.01.08.02.13.09.17.09.05.17.05.23-.01.06-.06.12-.13.19-.18.25-.19.5-.39.75-.59.4-.32.8-.63,1.16-.99,0,0,0,0,0,0,0,.02-.01.05-.02.07-.02.17.11.27.27.21.29-.11.58-.25.86-.38.04-.02.06-.03.06.03.01.29,0,.59-.01.88,0,.24-.04.48,0,.72.02.16.11.24.28.25.14,0,.25-.08.34-.16.45-.4.82-.86,1.05-1.42.09-.21.15-.44.15-.67,0-.14-.08-.22-.21-.25-.12-.02-.19.02-.25.15,0,0,0,.01,0,.02,0,0,0,.01-.01.02,0,0,0-.02,0-.03,0-.06,0-.12,0-.19,0-.01,0-.03,0-.03.07-.04.14-.1.21-.1.17,0,.28-.09.39-.19.02-.02.04-.04.06-.05.12-.03.17-.12.2-.23.01-.05,0-.11.04-.16h0s-.02-.02-.02-.03ZM60.04,99.74c-.08.3-.15.6-.23.91-.02.07-.04.14-.02.21.03.1.11.11.2.12.01,0,.02,0,.03,0,0,0,0,.02-.02.03-.12.14-.25.28-.39.39-.01,0-.02.01-.04.02,0,0,0-.02-.01-.04,0-.23.02-.47.03-.71,0-.24.02-.48,0-.73,0-.03,0-.05.04-.06.12-.06.25-.12.37-.18.01,0,.03-.02.04,0,0,0,0,.03,0,.04ZM60.56,100.08s-.08.23-.11.25h0s0,0,0,0c0-.08.02-.17.03-.25,0-.02,0-.07.01-.06.03,0,.05.03.07.06Z"/>
      <path d="M57.14,98.89c.35-.16.71-.32,1.06-.5.16-.09.23-.22.27-.39.01-.07,0-.12-.07-.15-.11-.06-.24-.04-.33-.09-.05,0-.08.02-.11.04-.32.28-.69.48-1.07.65-.45.2-.91.37-1.36.54-.14.05-.23.15-.26.29-.02.07-.05.15.02.22.07.06.15.09.24.06.16-.04.31-.1.47-.15.39-.14.77-.33,1.15-.5Z"/>
      <path d="M52.89,97.95s-.04-.02-.06-.03h-.04c-.08.01-.12.09-.18.12-.21.09-.42.15-.64.21-.49.11-.98.19-1.48.23-.04,0-.07,0-.11,0-.18-.03-.26.09-.33.22,0,.02-.02.03-.03.05v.1c.03.07.09.12.15.16.1.08.14.07.23-.01.01-.01.03-.02.04-.02.61-.05,1.22-.15,1.81-.32.01,0,.03,0,.03,0,.01.01,0,.02,0,.03-.04.1-.09.2-.13.3-.27.66-.5,1.34-.7,2.02-.07.22-.14.44-.18.66-.03.14.11.27.24.23.27-.08.5-.23.63-.49.03-.07.02-.13-.03-.17-.08-.07-.18-.1-.27,0-.01.01-.03.02-.04.03,0-.02,0-.03,0-.05.1-.33.2-.66.32-.99.24-.69.46-1.39.83-2.02.07-.12.05-.17-.07-.24Z"/>
      <path d="M50.77,100.71c-.35.11-.7.23-1.06.33-.04.01-.06.01-.07-.04-.02-.11-.11-.18-.22-.16-.04,0-.08.01-.12.02-.05.02-.06,0-.05-.05.11-.4.23-.8.29-1.21.03-.21.13-1.21.1-1.42-.02-.13-.13-.21-.24-.18-.18.06-.33.3-.29.48.02.08-.05.95-.06,1.02-.05.51-.2.99-.33,1.48,0,.02-.02.03-.04.03-.11.03-.22.06-.33.09-.39.1-.79.19-1.18.3-.14.04-.27.13-.32.28v.02c.04.16.1.21.27.22.17.02.34,0,.5-.01.83-.1,1.63-.29,2.43-.52.18-.05.35-.16.56-.14,0,0,.02,0,.03,0,.15-.06.28-.14.39-.26.05-.05.05-.11.02-.17-.06-.12-.14-.16-.29-.12Z"/>
      <path d="M46.97,101.3s.03-.06.03-.09c.11-.33.15-.67.19-1.01,0-.03,0-.05,0-.08.04-.34.15-1.89.16-1.95,0-.12-.06-.21-.18-.23-.01,0-.03,0-.04,0-.12,0-.17.06-.21.19-.05.15-.06.3-.07.45,0,.03,0,.07,0,.1-.3.41-.7.82-1.09,1.12.01-.13.03-.39,0-.72,0-.16-.02-.31-.04-.46-.03-.23-.08-.46-.14-.67-.02-.09-.05-.17-.08-.25-.02-.05-.05-.08-.09-.11-.04-.02-.09-.03-.12-.04h0c-.08-.01-.14.02-.18.09-.05.1-.1.23-.08.39,0,.06.04.1.06.13.01.02.03.04.04.06.02.05.07.24.1.49.18,1.37-.23,2.37-.25,2.44-.02.07-.01.12.01.16.02.04.07.07.13.09.02,0,.03,0,.05.01.08.01.15-.03.2-.14.01-.03.03-.06.03-.09.26-.9,1.1-1.43,1.39-1.71,0,.04,0,.08,0,.12-.04.51-.09,1.03-.21,1.54-.02.07-.01.12.01.16.02.04.07.07.13.09.02,0,.03,0,.05.01.08.01.15-.03.2-.14Z"/>
      <path d="M44.56,97.43c-.12-.03-.22,0-.3.09-.1.09-.16.21-.22.33-.07.15-.13.31-.18.46-.02.07-.05.14-.06.21-.03.11.08.24.18.25.02,0,.05,0,.07,0,.04,0,.04,0,.03.04,0,0,0,.01,0,.02-.09.2-.19.39-.3.58-.11.2-.22.4-.32.61-.03.05-.05.11-.06.17,0,.08.04.14.11.16.08.02.14,0,.19-.08.05-.08.1-.15.16-.23.06-.07.11-.15.17-.23.02-.02.03-.04.03-.07-.01-.05.01-.09.04-.14.02-.03.04-.07.06-.1.16-.27.32-.55.44-.84.08-.18.15-.37.19-.6,0-.04.02-.1.02-.17,0-.11-.01-.22-.06-.32-.04-.08-.1-.13-.19-.15Z"/>
      <path d="M44.63,100.22c-.16-.16-.39-.16-.52-.02-.04.04-.08.06-.13.1-.18.14-.37.23-.58.31,0,0-.01,0-.02,0-.02,0-.03,0-.04-.02-.01-.1-.03-.2-.05-.3-.01-.08-.03-.17-.05-.25-.03-.12-.11-.19-.22-.19-.08,0-.14.04-.17.1-.03.07-.05.14-.02.21.03.06.03.12.04.18.02.13.03.26.04.39,0,.06,0,.09-.06.12-.12.06-.23.13-.35.2-.05.03-.09.05-.13.09-.07.06-.07.15-.02.21.05.05.11.07.19.03.11-.05.22-.11.33-.17.02,0,.04-.02.06-.03.03-.01.04,0,.04.03.02.13.04.25.07.38.02.07.06.13.13.15.13.05.28-.05.29-.19,0-.13-.02-.25-.03-.37,0-.05-.01-.1-.02-.15,0-.04,0-.05.04-.06.05-.01.11-.03.16-.04.16-.04.33-.09.49-.13.04-.01.08,0,.12,0,.12.02.23.02.34-.05.1-.06.2-.24.15-.4-.02-.06-.05-.12-.08-.15Z"/>
      <path d="M42.33,99.21c-.1-.07-.18-.06-.29.04,0,0-.01.01-.02.01,0,0-.01,0-.02.01,0,0,0-.02,0-.03.03-.06.05-.11.08-.17,0,0,.01-.02.02-.03.08-.01.17-.04.24-.01.15.06.29.02.43-.03.03,0,.05-.02.08-.02.12.01.2-.05.27-.14.03-.04.05-.1.1-.13h0s-.01-.03-.01-.04c0-.09-.1-.19-.18-.18-.19.01-.37-.04-.55-.02-.04,0-.05,0-.03-.05.18-.36.3-.74.39-1.13.02-.08-.02-.14-.1-.19-.07-.04-.14-.04-.2.01-.08.07-.14.16-.17.25-.15.37-.3.73-.44,1.1-.01.03-.02.04-.05.04-.18.02-.37.03-.55.05-.04,0-.05,0-.03-.04.06-.2.1-.4.13-.61.02-.16.05-.32.04-.48,0-.11-.07-.18-.17-.21-.08-.03-.14.02-.2.08-.16.18-.22.4-.26.63-.01.06.01.12.07.15.03.02.03.04.03.07-.03.14-.07.27-.1.41,0,.04-.02.05-.06.05-.32.02-.63.06-.95.07.25-.33.44-.7.54-1.11.11-.46-.07-.84-.49-1.05-.21-.1-.43-.11-.66-.12-.03,0-.05,0-.06-.04-.02-.07-.06-.12-.1-.17-.12-.11-.28-.16-.39-.1-.13.07-.22.17-.24.33,0,.04-.01.05-.04.05-.15.02-.28.09-.37.21.03-.23-.02-.45-.18-.67-.28-.37-.66-.55-1.12-.6-.89-.1-1.65.38-1.89,1.12-.03.09-.05.18-.08.27-.12.48-.13.96-.06,1.44,0,.06.02.11.06.16.04.05.07.09.1.14.15.24.37.38.63.47.13.05.22-.05.31-.12.07-.06.11-.13.06-.22-.02-.03.02-.02.03-.03.37-.09.71-.26,1.02-.48.43-.3.8-.66,1.02-1.14.02-.05.03-.1.05-.15,0,0,0,.01,0,.02.06.09.13.12.22.1.12-.02.23-.04.35-.06.02,0,.03,0,.05,0,0,.02-.01.03-.02.05-.14.21-.32.39-.51.56-.1.09-.2.19-.27.32-.09.15,0,.32.18.33.24.01.46-.09.68-.17.27-.1.54-.22.81-.3.16-.05.25-.14.34-.26.04-.06.06-.12.01-.19-.06-.09-.16-.12-.24-.09-.09.03-.18.07-.27.11-.22.08-.43.17-.65.25,0,0,0,0,0,0,0,0,0,0,0,0,0,0,0,0,0,0,0,0,0,0,0,0,0-.02.01-.03.02-.05.14-.17.28-.35.38-.55.01-.03.03-.03.06-.03.11,0,.22.01.32.03.37.07.52.29.45.67-.04.19-.11.38-.2.55-.25.49-.6.88-1.12,1.09-.24.1-.5.13-.76.05-.11-.04-.13-.13-.04-.21.15-.14.33-.24.52-.3.13-.04.23-.12.31-.23.05-.06.06-.12.02-.19-.06-.08-.14-.12-.22-.1-.14.04-.27.1-.39.17-.3.17-.56.38-.73.69-.08.15-.07.31.04.44.1.12.23.21.38.24.24.06.49.05.73-.03.41-.12.75-.37,1.05-.67.03.06.1.09.18.09.31,0,.63-.01.94-.03.04,0,.06,0,.04.05-.1.28-.22.54-.34.81-.1.22-.22.43-.27.67-.04.16.01.27.16.34.13.06.26.02.38-.02.57-.2,1.08-.49,1.51-.92.16-.16.3-.35.39-.57.05-.13.01-.24-.1-.31ZM37.48,96.76c-.03.17-.11.32-.21.47-.36.53-.86.85-1.49.97-.17.03-.35.03-.52-.03-.06-.02-.11-.14-.08-.2.06-.12.15-.21.23-.31.08-.09.16-.17.23-.26.06-.07.06-.15,0-.22-.06-.07-.14-.08-.22-.03-.11.06-.18.17-.26.25,0,0-.03.03-.03.02-.02,0,0-.03,0-.04.02-.29.08-.57.18-.88.02-.05.06-.14.11-.23.09-.17.23-.29.42-.34.46-.12.9-.11,1.32.15.28.17.39.4.34.68ZM41.55,99.14c-.18.25-.37.5-.55.75-.04.06-.09.11-.1.19,0,.1.06.15.14.19.01,0,.02.01.03.02,0,0-.02.01-.02.02-.17.08-.33.17-.51.22-.01,0-.03,0-.04,0,0-.01,0-.02,0-.04.09-.21.19-.43.29-.64.1-.22.2-.44.28-.67.01-.03.03-.04.06-.04.14,0,.27-.02.41-.03.01,0,.03-.01.04,0,0,0,0,.02-.02.04ZM41.71,99.84s0,0,0,0h0s0,0,0,0ZM41.71,99.84c.04-.07.08-.15.12-.22.01-.02.02-.06.04-.05.02.01.04.05.04.08,0,.03-.16.19-.2.19Z"/>
      <polygon points="38.62 97.52 38.62 97.52 38.62 97.52 38.62 97.52 38.62 97.52"/>
      <path d="M32.52,94.25c-.07.02-.14.05-.2.09-.14.1-.23.25-.32.39-.02.04-.03.05-.07.01-.29-.28-.53-.6-.71-.96-.14-.27-.24-.55-.23-.86,0-.14.04-.27.15-.36.06-.05.06-.13,0-.22-.04-.07-.1-.1-.18-.08-.22.06-.38.19-.45.41-.08.25-.06.51,0,.75.16.59.47,1.09.88,1.54.02.02.04.05.07.08-.03,0-.07,0-.1,0-.49-.05-.98-.09-1.48-.05-.28.03-.55.09-.78.25-.14.1-.19.24-.11.39.08.17.23.25.36.32.13.07.24.11.34.14.45.14.9.23,1.37.26.25.02.51.03.76.03.2,0,.4-.03.58-.15.1-.06.12-.14.07-.25-.06-.14-.15-.19-.26-.16-.07.02-.14.05-.2.09-.02.01-.04.02-.06.02-.13,0-.26,0-.39,0-.01,0-.03,0-.03,0,0-.01,0-.02.02-.03.1-.1.19-.2.29-.3.03-.03.05-.04.09-.03.15.04.28,0,.41-.07.12-.07.14-.14.08-.26-.02-.04-.04-.08-.07-.1-.04-.03-.03-.05,0-.09.13-.15.25-.32.37-.49.05-.07.04-.15-.02-.23-.04-.06-.1-.08-.17-.06ZM31.29,95.53c-.1.11-.2.21-.3.32-.02.02-.03.03-.06.03-.42-.06-.83-.14-1.22-.32-.04-.02-.08-.04-.12-.06-.01,0-.03-.02-.03-.03,0-.02.03-.01.04-.02.25-.04.51-.04.77-.03.31,0,.61.04.92.07.01,0,.04,0,.04,0,0,.02-.01.03-.02.04Z"/>
      <path d="M29.05,94.23c-.08-.1-.16-.11-.29-.05,0,0-.01,0-.02,0,0,0-.02,0-.02,0,0,0,0-.02.01-.03.04-.05.08-.09.13-.14,0,0,.02-.02.02-.02.08.01.17,0,.23.06.13.11.27.11.42.1.03,0,.05,0,.08,0,.11.05.21.01.3-.06.04-.03.08-.08.13-.1h0s0-.03,0-.04c.02-.09-.04-.21-.12-.23-.18-.04-.34-.14-.52-.19-.04,0-.05-.02-.01-.05.28-.29.51-.62.71-.97.04-.07.03-.14-.04-.22-.05-.06-.12-.08-.19-.04-.09.04-.17.11-.24.19-.25.31-.5.61-.75.92-.02.02-.03.03-.06.02-.18-.04-.36-.08-.54-.11-.04,0-.04-.02-.02-.05.11-.17.21-.35.3-.54.07-.14.14-.29.17-.45.03-.11-.02-.19-.1-.25-.07-.05-.14-.02-.21.02-.21.12-.33.32-.44.53-.03.06-.02.11.02.16.02.02.02.04,0,.07-.07.12-.14.24-.21.37-.02.03-.04.04-.07.03-.12-.03-.24-.05-.36-.08.06-.02.13-.04.19-.08.08-.05.1-.11.07-.2-.03-.12-.23-.22-.34-.17-.09.04-.16.1-.25.12-.12.03-.24.04-.36.05-.02,0-.03,0-.05-.02-.06-.15-.1-.18-.27-.15-.19.03-.37.05-.56.05-.01,0-.03,0-.05,0,0-.01.01-.03.02-.04.16-.21.35-.41.53-.6.03-.03.06-.05.11-.05.14,0,.29-.03.43-.04.14,0,.26-.04.38-.12.08-.05.1-.11.07-.21-.03-.09-.1-.14-.19-.13-.09.02-.19.02-.28.03-.01,0-.03,0-.04,0-.01-.01.01-.02.02-.03.11-.15.2-.32.24-.51.04-.19-.09-.35-.26-.32-.09.02-.17.05-.24.1-.11.07-.14.15-.07.26.02.04.02.06,0,.1-.07.14-.17.27-.27.39-.04.05-.08.07-.14.07-.56.05-1.12.09-1.68.19-.39.07-.79.15-1.1.43l-.04.06c-.09.21.01.36.16.5.01,0,.02.02.03.03l.1.07s.02,0,.03.01c.31.17.64.27.99.33.59.09,1.19.1,1.78.05.02.06.06.11.14.14.3.1.6.17.91.25.04,0,.06.01.03.06-.18.24-.37.45-.57.68-.16.18-.33.35-.46.56-.08.14-.06.26.06.37.11.09.24.1.37.09.6-.02,1.18-.15,1.71-.44.2-.11.39-.24.54-.43.09-.11.08-.22,0-.32ZM25.67,92.1c-.13.14-.25.27-.36.42-.07.1-.14.19-.15.32,0,.02-.01.02-.03.02-.47-.05-.93-.13-1.34-.39-.02-.02-.07-.03-.06-.06,0-.03.05-.04.08-.05.2-.07.41-.11.63-.14.4-.06.8-.1,1.2-.13.01,0,.03,0,.04,0,0,0,0,.02,0,.02ZM27.5,94.87s.02.02.02.02c0,0-.02,0-.03.01-.18.03-.37.06-.55.06-.01,0-.03,0-.04,0,0,0,0-.02.02-.04.15-.17.31-.35.47-.53.16-.18.32-.37.46-.56.02-.03.04-.03.07-.02.13.03.27.06.4.09.01,0,.03,0,.04.02,0,0-.02.02-.03.03-.25.19-.5.37-.75.56-.06.04-.12.08-.15.15-.04.1.02.16.08.22ZM28.27,94.66s0,0,0,0h0s0,0,0,0ZM28.27,94.65c.06-.06.12-.12.18-.17.02-.02.03-.06.05-.04.02.02.02.06.02.09,0,.03-.21.13-.24.12Z"/>
      <path d="M23.29,92.01c.26-.23.47-.51.67-.78.02-.02.03-.04.05-.06.21-.27,1.08-1.55,1.12-1.61.07-.1.05-.22-.05-.29-.01,0-.02-.01-.03-.02-.1-.06-.18-.03-.28.06-.12.1-.2.23-.29.36-.02.03-.04.06-.06.09-.46.21-1.01.36-1.5.42.07-.11.22-.32.37-.62.07-.14.13-.28.19-.42.09-.22.16-.44.22-.65.02-.09.04-.17.06-.26,0-.05,0-.1-.03-.14-.02-.04-.06-.07-.09-.09h0c-.06-.05-.14-.05-.2,0-.09.06-.21.15-.27.3-.02.05-.02.1-.02.15,0,.03,0,.05,0,.07,0,.06-.06.24-.16.47-.53,1.28-1.39,1.93-1.44,1.99-.05.05-.07.1-.07.15s.02.09.07.15c.01.01.02.02.03.03.07.05.14.05.24-.02.03-.02.05-.04.07-.06.68-.65,1.67-.69,2.06-.78-.02.03-.05.07-.07.1-.29.42-.59.85-.95,1.23-.05.05-.07.1-.07.15s.02.09.07.15c.01.01.02.02.03.03.07.05.14.05.24-.02.03-.02.05-.04.07-.06Z"/>
      <path d="M21.76,89.25c-.06-.11-.13-.14-.28-.1,0,0-.01,0-.02,0,0,0-.02,0-.02,0,0,0,.01-.02.02-.02.05-.04.1-.08.15-.11,0,0,.02-.02.03-.01.08.03.17.04.22.1.11.13.25.16.4.17.03,0,.05,0,.08.02.1.07.2.05.31,0,.05-.02.09-.07.15-.07h0s0-.03,0-.04c.03-.09,0-.21-.08-.25-.17-.07-.31-.2-.48-.28-.04-.02-.04-.03,0-.06.33-.23.61-.52.88-.82.05-.06.05-.14,0-.22-.04-.07-.1-.1-.18-.08-.1.03-.19.07-.27.14-.3.26-.6.51-.9.77-.02.02-.04.02-.07.01-.17-.07-.34-.14-.51-.21-.04-.01-.04-.03-.01-.05.14-.15.27-.31.4-.48.09-.13.19-.26.25-.41.04-.1.02-.19-.05-.27-.06-.06-.13-.05-.21-.02-.23.08-.38.26-.52.44-.04.05-.04.11,0,.17.01.03.01.05,0,.07-.09.11-.18.21-.28.32-.02.03-.04.03-.08.02-.3-.13-.6-.25-.89-.39-.02,0-.03,0-.05-.02.1-.02.2-.05.29-.11.08-.04.11-.11.09-.2-.03-.17-.15-.27-.28-.36-.23-.16-.46-.31-.69-.47,0,0-.01-.01-.02-.02,0,0,.02,0,.03,0,.09.03.17.07.26.1.3.11.6.23.92.29.14.03.26-.03.37-.09.1-.1.03-.28-.1-.32-.43-.12-.84-.28-1.26-.44-.31-.12-.62-.27-.94-.36-.17-.05-.33-.02-.48.06-.1.06-.13.15-.1.26.06.17.19.29.32.41.32.28.68.51,1.03.74.01,0,.02.02.03.03-.02,0-.03,0-.05,0-.23-.04-.47-.08-.7-.12-.46-.09-.91-.18-1.36-.27-.16-.03-.3,0-.43.09-.07.04-.09.1-.07.17.02.1.08.16.16.16.09,0,.17,0,.26.02.31.07.62.13.93.19.5.1,1,.2,1.51.24,0,0,0,0,0,0-.02.01-.05.02-.07.04-.14.09-.14.26.01.34.28.15.56.28.85.41.04.02.06.03.01.07-.22.2-.45.38-.68.56-.19.15-.39.28-.55.46-.11.12-.11.25-.01.37.09.11.22.14.35.16.6.09,1.18.07,1.76-.12.22-.07.43-.17.61-.32.1-.09.12-.21.06-.32ZM20.12,89.59s.01.02.02.03c-.01,0-.02,0-.03,0-.19,0-.37,0-.55-.04-.01,0-.03,0-.04-.01,0,0,.01-.02.02-.04.18-.14.37-.29.56-.44.19-.15.38-.3.56-.47.02-.02.04-.02.07-.01.13.06.25.11.38.17.01,0,.03,0,.03.02,0,0-.02.02-.03.02-.28.14-.56.27-.84.41-.06.03-.14.06-.18.12-.05.09-.01.16.04.23ZM21.18,89.44s-.23.09-.26.08h0s0,0,0,0c.07-.05.14-.1.21-.14.02-.01.04-.05.06-.03.01.02,0,.06,0,.09Z"/>
      <path d="M20.05,85.58c-.44-.21-.87-.45-1.29-.69-.13-.08-.26-.08-.39-.01-.07.03-.15.06-.15.16,0,.09.03.17.11.22.14.09.28.18.42.26.36.21.75.37,1.13.55.35.16.7.34,1.07.48.17.06.32.04.47-.05.06-.03.09-.08.07-.15-.02-.12-.12-.2-.14-.31-.04-.04-.07-.05-.1-.06-.42-.07-.81-.22-1.19-.39Z"/>
      <path d="M16.21,85.3s-.03,0-.05-.01c.01,0,.03-.02.04-.02.31-.15.62-.3.94-.45.67-.3,1.33-.61,2.05-.77.13-.03.16-.08.13-.22,0-.02-.01-.04-.02-.07l-.03-.03c-.06-.05-.14-.02-.21-.05-.21-.09-.4-.2-.59-.33-.42-.28-.81-.58-1.18-.92-.03-.02-.06-.05-.07-.08-.1-.16-.24-.13-.38-.09-.02,0-.04,0-.06.01l-.07.06c-.03.07-.02.15-.02.22.01.12.04.15.17.16.02,0,.03,0,.04.02.46.41.94.79,1.47,1.11,0,0,.02.01.02.02,0,.02-.02.01-.03.02-.1.04-.21.07-.31.11-.67.25-1.32.55-1.96.86-.21.1-.42.19-.61.32-.12.08-.13.27,0,.34.25.14.51.21.79.13.07-.02.11-.07.11-.14,0-.11-.05-.2-.18-.2Z"/>
      <path d="M14.3,78.69c-.05.06-.77.55-.83.59-.43.28-.9.46-1.36.66-.02.01-.04,0-.05-.01-.09-.07-.18-.13-.27-.2-.32-.24-.64-.49-.97-.73-.12-.09-.26-.13-.42-.08h-.02c-.1.14-.1.22,0,.36.09.14.2.27.32.38.6.58,1.25,1.09,1.93,1.57.16.11.35.17.45.35,0,0,.02.01.03.02.14.08.29.13.45.14.07,0,.12-.02.15-.09.06-.12.04-.21-.09-.3-.31-.21-.62-.4-.92-.62-.04-.03-.05-.04-.01-.08.08-.08.07-.2-.01-.28-.03-.03-.06-.05-.09-.07-.05-.03-.05-.05,0-.07.38-.16.77-.32,1.12-.53.18-.11,1.02-.66,1.17-.81.09-.09.08-.24-.01-.3-.15-.1-.44-.07-.56.07Z"/>
      <path d="M12.05,77.52s-.07.04-.1.07c-.42.28-.86.58-1.33.8-.06.03-.1.07-.12.11-.02.04-.01.1.01.16,0,.02.01.03.02.04.04.07.12.09.23.07.03,0,.06-.02.09-.03.33-.12.62-.3.91-.48.02-.01.05-.03.07-.04.29-.18,1.57-1.06,1.62-1.1.1-.07.13-.18.06-.29,0-.01-.01-.02-.02-.03-.08-.09-.15-.09-.28-.04-.15.05-.27.14-.39.23-.03.02-.06.04-.08.06-.51.02-1.08-.03-1.55-.15.11-.07.32-.22.57-.44.12-.1.23-.21.33-.32.16-.17.31-.35.44-.53.05-.07.1-.15.15-.22.03-.04.03-.09.03-.14,0-.04-.03-.09-.05-.12h0c-.04-.07-.11-.1-.19-.08-.11.02-.25.06-.36.18-.04.04-.05.09-.07.13,0,.02-.02.05-.03.07-.03.05-.15.2-.32.38-.96,1-1.99,1.3-2.06,1.33-.07.03-.1.07-.12.11-.02.04-.01.1.01.16,0,.02.01.03.02.04.04.07.12.09.23.07.03,0,.06-.02.09-.03.87-.36,1.81-.04,2.2.01Z"/>
      <path d="M9.67,76.55c.11.04.31,0,.4-.13.04-.06.06-.12.07-.15.02-.22-.12-.4-.31-.42-.05,0-.1-.02-.15-.04-.22-.05-.41-.15-.6-.26,0,0-.01,0-.02-.01-.02-.01-.02-.02,0-.04.07-.07.13-.15.2-.22.06-.06.12-.13.17-.19.07-.1.08-.2,0-.29-.05-.06-.12-.08-.19-.07-.07.01-.14.05-.18.12-.03.06-.07.09-.12.14-.09.09-.19.18-.28.28-.04.04-.08.05-.14.03-.12-.05-.25-.1-.37-.15-.05-.02-.1-.04-.15-.05-.09-.01-.16.04-.17.12-.01.07.02.13.09.16.11.05.22.1.33.15.02,0,.04.02.06.03.03.02.03.02,0,.05-.09.1-.17.19-.25.29-.05.06-.06.12-.04.2.04.14.21.19.33.1.1-.08.18-.17.27-.26.04-.04.07-.07.11-.11.03-.03.04-.03.07,0,.04.03.09.06.13.1.14.1.27.2.41.3.03.03.06.06.08.1.06.11.13.19.25.24Z"/>
      <path d="M10.87,74.96c-.21.05-.43.09-.64.13-.23.04-.45.08-.68.14-.06.01-.12.03-.17.06-.06.04-.09.12-.05.19.03.07.09.11.18.1.09-.01.19-.01.28-.01.09,0,.19,0,.28,0,.02,0,.05,0,.07-.02.03-.04.08-.05.13-.05.04,0,.08-.01.12-.02.32-.04.63-.1.94-.18.19-.05.38-.11.59-.23.03-.02.09-.05.15-.09.09-.07.17-.15.21-.25.04-.08.04-.16,0-.24-.05-.11-.14-.16-.26-.18-.13-.02-.26,0-.39.04-.16.04-.32.09-.48.15-.07.02-.14.05-.2.08-.1.05-.14.22-.08.3.01.02.03.04.04.05.02.03.02.04-.02.05,0,0-.01,0-.02,0Z"/>
      <path d="M9.31,74.12c.13-.04.19-.14.18-.27-.01-.12-.07-.18-.22-.2,0,0-.01,0-.02,0,0,0-.02,0-.02,0,0,0,.02-.01.02-.01.06-.02.12-.03.18-.04.01,0,.03,0,.03,0,.06.05.14.1.16.18.05.16.16.24.29.32.02.01.05.03.06.05.07.1.17.13.28.12.06,0,.11-.03.17,0h0s0-.02.01-.03c.07-.06.09-.19.03-.26-.13-.14-.2-.31-.33-.45-.03-.03-.03-.04.02-.05.4-.08.77-.23,1.13-.4.07-.03.1-.1.09-.2-.01-.08-.05-.13-.13-.14-.1-.02-.21,0-.31.02-.38.11-.76.23-1.14.34-.03,0-.05,0-.07-.02-.13-.13-.26-.27-.39-.4-.03-.03-.02-.04.01-.05.19-.08.38-.17.55-.28.14-.08.28-.16.4-.27.08-.07.09-.17.06-.27-.03-.08-.1-.1-.18-.1-.24-.02-.45.08-.66.19-.06.03-.08.08-.08.15,0,.03,0,.05-.04.06-.13.06-.25.12-.38.18-.03.02-.05.01-.08-.02-.22-.23-.44-.46-.65-.7.42-.01.82-.09,1.21-.27.43-.2.61-.58.51-1.04-.05-.23-.18-.41-.32-.59-.02-.03-.02-.05,0-.07.04-.05.06-.12.06-.19.02-.16-.05-.32-.17-.37-.13-.06-.27-.06-.4.02-.03.02-.04.02-.07,0-.12-.12-.26-.18-.43-.16.21-.12.36-.3.43-.57.12-.45.02-.86-.23-1.25-.47-.75-1.33-1.04-2.06-.77-.09.04-.17.07-.26.11-.45.2-.83.5-1.16.86-.04.04-.07.09-.09.15-.01.06-.03.12-.04.17-.09.27-.07.53.03.78.05.13.18.14.29.16.09.02.17,0,.21-.1.01-.04.03,0,.04,0,.3.23.64.39,1.01.49.5.14,1.01.21,1.53.09.07-.02.12-.04.18-.06-.01.01-.03.03-.04.05-.03.1,0,.18.06.24.09.08.18.15.27.23.01.01.02.03.03.04-.02,0-.03.01-.05.01-.25.02-.5,0-.75-.05-.14-.02-.28-.04-.42-.01-.17.03-.25.2-.14.34.14.2.35.31.55.43.25.15.51.28.74.44.14.09.27.11.42.1.07,0,.13-.03.15-.11.03-.1,0-.2-.07-.24-.08-.05-.17-.1-.26-.15-.2-.12-.4-.23-.6-.35h0s0,0,0,0c0,0,0,0,0,0,0,0,0,0,0,0,.01-.02.03-.01.05-.01.22,0,.45,0,.67-.04.03,0,.05,0,.06.03.07.09.13.18.18.27.18.34.1.59-.24.77-.18.09-.36.15-.56.19-.54.12-1.06.08-1.55-.19-.23-.13-.42-.31-.51-.56-.04-.11.02-.19.14-.17.2.03.39.1.56.22.12.08.24.1.37.1.08,0,.14-.03.16-.11.03-.1,0-.19-.06-.24-.12-.08-.24-.15-.38-.2-.32-.12-.65-.2-.99-.14-.17.03-.28.14-.32.31-.04.15-.02.31.05.45.11.23.27.41.48.55.35.24.75.35,1.17.4-.02.06-.01.13.04.2.19.25.4.48.61.71.03.03.05.05-.01.07-.28.09-.56.17-.85.24-.23.06-.47.1-.69.2-.15.07-.2.18-.16.34.04.14.14.21.25.28.51.32,1.06.53,1.66.6.23.02.46.02.68-.05ZM8.37,68.53c-.15.08-.32.12-.49.13-.64.05-1.2-.14-1.69-.56-.13-.12-.24-.25-.3-.42-.02-.06.03-.17.1-.19.13-.03.26-.02.38-.01.12,0,.23.01.35.02.1,0,.15-.05.17-.14.02-.09-.02-.15-.11-.19-.12-.05-.24-.04-.36-.05-.01,0-.04,0-.04,0,0-.02.02-.02.03-.03.23-.16.49-.29.79-.41.06-.01.15-.04.25-.06.19-.04.37,0,.53.12.38.28.65.64.71,1.12.04.32-.07.56-.32.69ZM7.91,73.28c-.09.06-.08.14-.06.23,0,.01,0,.02,0,.03,0,0-.02,0-.03,0-.17-.08-.34-.16-.49-.26-.01,0-.02-.02-.03-.03,0,0,.02-.01.04-.02.22-.06.45-.12.68-.18.23-.06.47-.12.7-.2.03-.01.05,0,.07.02.09.1.19.2.28.3,0,0,.03.02.02.03,0,0-.03,0-.04,0-.31.01-.62.03-.93.04-.07,0-.15,0-.21.04ZM8.61,73.77h0c.08-.02.16-.04.25-.05.02,0,.06-.03.06,0,0,.02-.02.06-.04.08-.02.03-.25,0-.27-.03h0Z"/>
      <polygon points="8.49 69.91 8.49 69.91 8.49 69.91 8.49 69.91 8.49 69.91"/>
      <path d="M5.85,64.14c.07-.14.06-.24-.04-.3-.06-.04-.13-.08-.2-.1-.02,0-.04-.02-.05-.03-.08-.1-.16-.21-.24-.31,0,0-.02-.02-.01-.03,0-.01.02,0,.03,0,.14.01.28.02.42.03.04,0,.06.01.08.05.06.14.18.22.32.28.13.05.2.02.26-.1.02-.04.04-.08.03-.12,0-.05.02-.06.07-.06.2,0,.41,0,.61-.02.08,0,.14-.06.17-.16.02-.07,0-.13-.06-.18-.06-.04-.13-.08-.2-.1-.17-.04-.34-.02-.5,0-.05,0-.06,0-.05-.05.04-.4.14-.79.3-1.16.12-.28.28-.53.53-.72.11-.08.23-.14.38-.11.08.01.14-.03.18-.14.03-.07.01-.14-.05-.19-.18-.14-.38-.18-.6-.09-.25.09-.43.27-.59.48-.36.49-.55,1.05-.65,1.65,0,.03-.01.07-.02.1-.02-.03-.04-.05-.06-.08-.27-.42-.54-.82-.89-1.18-.19-.2-.41-.37-.68-.45-.17-.05-.3,0-.38.16-.09.17-.05.34-.03.48.03.14.07.25.11.36.17.44.39.85.65,1.23.14.21.29.42.45.61.13.16.28.29.48.36.11.04.18,0,.24-.1ZM5.02,62.9s-.05,0-.06-.03c-.22-.36-.41-.74-.51-1.15,0-.04-.02-.09-.03-.13,0-.02,0-.04,0-.04.02,0,.03.01.04.02.19.17.35.37.51.58.18.24.35.5.52.76,0,.01.02.03.02.04,0,.02-.03,0-.04,0-.15-.01-.29-.03-.44-.04Z"/>
      <path d="M4.82,60.58c.14,0,.23-.08.25-.2.03-.12-.01-.19-.15-.26,0,0-.01,0-.02,0,0,0-.01-.01-.02-.01,0,0,.02,0,.03,0,.06,0,.12,0,.19.01.01,0,.03,0,.03,0,.04.07.1.14.1.21,0,.17.09.28.19.39.02.02.04.04.05.06.03.12.12.17.23.2.05.01.11,0,.16.04h.01s0-.02.02-.02c.08-.04.14-.16.1-.24-.08-.17-.1-.36-.18-.52-.02-.04-.01-.05.03-.05.4.04.8,0,1.2-.05.08-.01.13-.07.14-.16.01-.08-.01-.14-.09-.18-.09-.05-.19-.07-.3-.07-.4,0-.79,0-1.19,0-.03,0-.05,0-.06-.03-.08-.17-.17-.33-.25-.5-.02-.03-.01-.04.03-.05.21-.02.41-.06.61-.1.16-.04.31-.07.46-.14.1-.05.14-.13.13-.24,0-.09-.07-.13-.14-.15-.23-.09-.46-.05-.68,0-.06.01-.1.06-.12.12,0,.03-.02.04-.05.05-.14.02-.28.04-.42.06-.04,0-.05,0-.07-.04-.05-.11-.11-.22-.17-.34.06.04.12.07.19.1.09.03.15,0,.2-.07.07-.1.03-.31-.08-.38-.08-.04-.18-.06-.25-.12-.1-.07-.18-.16-.27-.25-.01-.01-.03-.02-.01-.05.08-.15.07-.19-.05-.31-.14-.13-.27-.26-.39-.41,0-.01-.01-.03-.02-.04.02,0,.03,0,.05,0,.27,0,.53.02.8.04.04,0,.08.02.11.05.1.11.2.21.3.31.09.1.2.18.33.22.09.03.15,0,.2-.08.05-.09.05-.17-.02-.23-.07-.06-.14-.13-.2-.2,0,0-.02-.02-.02-.03,0-.02.02,0,.04,0,.19-.01.37-.05.54-.13.17-.08.22-.29.09-.4-.07-.05-.14-.1-.23-.13-.12-.04-.2-.01-.25.11-.02.04-.04.05-.08.06-.16.03-.32.04-.48.03-.06,0-.1-.02-.14-.06-.39-.41-.77-.82-1.19-1.19-.3-.26-.61-.52-1.02-.59h-.07c-.22.07-.27.24-.29.44,0,.01,0,.03,0,.04v.12s.02.02.02.03c.06.35.19.67.36.98.3.52.66.99,1.07,1.42-.04.05-.05.12-.02.2.11.29.24.58.37.86.02.04.03.06-.03.06-.29,0-.59,0-.88-.02-.24,0-.48-.04-.72,0-.16.02-.24.11-.25.28,0,.14.07.25.16.35.39.46.86.82,1.41,1.06.21.09.43.15.67.15ZM4.08,56.38c-.12,0-.24,0-.34.08-.02.01-.02,0-.03,0-.25-.4-.49-.81-.53-1.29,0-.03-.02-.07,0-.08.03-.01.06,0,.09.03.18.12.34.26.5.4.29.27.57.56.85.85,0,0,.02.02.02.03,0,0-.02,0-.02,0-.19-.01-.37-.03-.55-.02ZM4.5,60.15s-.23-.08-.25-.11h0s0,0,0,0c.08,0,.17.02.25.03.02,0,.07,0,.06.01,0,.03-.03.05-.06.07ZM3.73,59.37c-.1.03-.11.11-.12.2,0,.01,0,.02,0,.03,0,0-.02,0-.03-.02-.14-.12-.28-.25-.39-.39,0-.01-.01-.02-.02-.04.01,0,.02,0,.04-.01.23.01.47.02.71.03.24.01.48.02.73.01.03,0,.05,0,.06.04.06.12.12.25.18.37,0,.01.02.03,0,.04,0,0-.03,0-.04,0-.3-.08-.6-.16-.9-.24-.07-.02-.14-.05-.21-.02Z"/>
      <path d="M5.57,52.86c.23-.07.44-.15.64-.24.08-.04.16-.08.24-.12.04-.02.07-.06.09-.11.02-.04.02-.09.02-.12h0c0-.08-.05-.14-.12-.17-.11-.03-.25-.07-.4-.02-.05.02-.09.05-.12.08-.02.02-.04.03-.06.04-.05.03-.23.1-.47.17-1.33.39-2.37.13-2.45.12-.07,0-.12,0-.16.04-.04.03-.06.08-.07.15,0,.02,0,.03,0,.05,0,.08.06.14.16.17.03,0,.06.02.09.02.93.13,1.58.87,1.9,1.11-.04,0-.08,0-.12,0-.51.04-1.03.07-1.55.03-.07,0-.12,0-.16.04-.04.03-.06.08-.07.15,0,.02,0,.03,0,.05,0,.08.05.14.16.17.03,0,.06.02.09.02.34.06.69.05,1.03.04.03,0,.05,0,.08,0,.34,0,1.89-.13,1.95-.14.12,0,.2-.09.2-.22,0-.01,0-.03,0-.04-.02-.12-.09-.15-.22-.18-.15-.03-.31-.01-.46,0-.03,0-.07,0-.1,0-.45-.23-.92-.56-1.27-.9.13,0,.39-.03.71-.1.15-.03.3-.07.44-.11Z"/>
      <path d="M3.49,51.44c.19.13.4.23.63.27.13.02.24-.03.28-.15.05-.12.02-.19-.1-.28,0,0-.01,0-.02-.01,0,0-.01-.01-.02-.02,0,0,.02,0,.03,0,.06.01.12.03.18.04.01,0,.03,0,.03.01.03.08.07.16.06.23-.03.16.03.29.11.42.01.02.03.04.03.07.01.12.09.19.19.24.05.02.11.03.15.07h.01s.01-.02.02-.02c.09-.03.17-.13.14-.22-.05-.18-.03-.37-.08-.55-.01-.04,0-.05.04-.04.39.11.79.15,1.19.17.08,0,.14-.04.17-.14.03-.08.01-.14-.05-.19-.08-.06-.18-.1-.28-.12-.39-.07-.78-.15-1.17-.22-.03,0-.04-.02-.05-.04-.05-.18-.1-.36-.16-.53-.01-.04,0-.05.04-.04.21.02.41.02.62.01.16,0,.32-.02.48-.06.11-.03.16-.1.18-.21.01-.09-.04-.14-.11-.18-.21-.13-.44-.13-.67-.13-.07,0-.11.04-.14.1-.01.03-.03.04-.06.04-.14,0-.28-.01-.42-.01-.04,0-.05-.01-.06-.05-.09-.31-.18-.62-.25-.93,0,0,0-.02,0-.03.08.06.16.12.26.15.08.03.15.01.21-.05.12-.13.12-.29.11-.45-.02-.28-.04-.56-.07-.84,0,0,0-.02,0-.03,0,0,.01.01.02.02.03.09.05.18.08.27.1.31.2.61.35.9.07.13.19.18.3.23.14.01.24-.15.18-.28-.17-.41-.31-.83-.44-1.26-.1-.32-.18-.65-.3-.96-.07-.17-.19-.27-.35-.33-.11-.04-.2-.01-.26.09-.1.15-.11.33-.12.5-.02.43.03.85.07,1.27,0,.01,0,.03,0,.04,0-.01-.02-.02-.03-.04-.12-.21-.23-.41-.34-.62-.22-.41-.43-.82-.64-1.24-.07-.14-.2-.23-.34-.28-.07-.03-.13,0-.18.05-.07.08-.08.16-.03.22.05.07.11.14.14.22.14.28.28.57.43.85.23.45.47.89.75,1.31-.02,0-.04-.02-.06-.02-.16-.05-.29.06-.26.23.06.31.13.61.21.92,0,.04.02.06-.04.05-.29-.05-.58-.11-.86-.18-.23-.05-.46-.13-.71-.14-.16,0-.26.07-.3.23-.03.14.03.26.09.37.3.52.69.97,1.2,1.3ZM3.66,51.08h0s0,0,0,0h0ZM3.89,51.23s-.21-.12-.22-.16c.08.02.16.05.24.07.02,0,.07,0,.06.03,0,.02-.04.05-.07.06ZM2.75,50.01s.02,0,.04,0c.22.05.46.11.69.16.24.06.47.11.71.14.03,0,.05.02.05.05.03.13.07.27.11.4,0,.01.02.03,0,.04,0,0-.03,0-.04-.01-.28-.13-.56-.27-.85-.4-.07-.03-.13-.07-.21-.06-.1.01-.13.09-.16.17,0,.01,0,.02-.01.03,0,0-.02-.01-.02-.02-.12-.15-.23-.29-.31-.46,0-.01,0-.03-.01-.04Z"/>
      <path d="M5.92,46.5c-.03-.15-.1-.25-.23-.31-.07-.03-.14-.07-.22-.02-.07.05-.11.13-.1.23.01.16.04.33.06.49.07.41.18.82.28,1.23.09.38.18.76.3,1.13.05.17.17.27.33.33.06.03.12.01.16-.04.08-.09.08-.22.15-.3,0-.05,0-.09-.02-.12-.21-.37-.34-.77-.44-1.18-.11-.48-.19-.96-.27-1.44Z"/>
      <path d="M3.79,45.04c.06.04.12.04.18,0,.08-.07.12-.16.04-.27-.01-.01-.01-.03-.02-.05.01,0,.03,0,.04.02.31.15.63.3.94.45.65.33,1.3.66,1.88,1.12.1.08.16.07.25-.03.01-.02.03-.04.04-.06v-.04c0-.08-.06-.13-.08-.2-.06-.22-.09-.44-.11-.66-.04-.5-.05-1-.02-1.49,0-.04,0-.07.01-.11.06-.17-.05-.27-.17-.36-.02-.01-.03-.02-.05-.03l-.1-.02c-.08.02-.13.08-.18.13-.09.09-.09.12-.02.23,0,.01.01.03.01.05-.03.62-.02,1.23.06,1.84,0,.01,0,.03,0,.03-.01,0-.02,0-.03-.01-.09-.06-.18-.12-.28-.17-.62-.36-1.25-.68-1.9-.99-.21-.1-.41-.2-.63-.28-.14-.05-.29.07-.26.21.05.28.15.53.4.7Z"/>
      <path d="M5.84,38.41c.14-.02.19-.09.19-.25-.01-.37-.04-.74-.04-1.1,0-.04,0-.06.06-.05.11.01.2-.06.21-.17,0-.04,0-.08,0-.12,0-.05,0-.06.06-.03.36.21.71.43,1.09.59.19.08,1.13.44,1.34.47.13.02.24-.07.23-.19,0-.19-.2-.4-.39-.41-.08,0-.9-.3-.97-.33-.48-.18-.9-.46-1.34-.71-.02-.01-.02-.03-.02-.05,0-.11,0-.22,0-.34,0-.4.02-.81.02-1.21,0-.15-.05-.29-.18-.39h-.02c-.16,0-.22.03-.28.19-.06.16-.1.32-.12.49-.12.82-.15,1.65-.14,2.48,0,.19.06.38-.02.57,0,0,0,.02,0,.03.02.16.06.31.15.45.04.06.09.08.16.07Z"/>
      <path d="M6.54,34.38c.29.19.61.32.92.45.02.01.05.02.07.03.32.13,1.78.64,1.84.67.12.04.22,0,.27-.12,0-.01,0-.02.01-.04.03-.12-.02-.18-.13-.25-.13-.09-.28-.14-.42-.18-.03-.01-.06-.02-.1-.03-.32-.39-.61-.89-.79-1.34.12.04.37.13.69.2.15.03.3.06.45.08.23.03.46.04.69.04.09,0,.18,0,.26-.01.05,0,.09-.02.13-.06.03-.03.05-.07.07-.11h0c.03-.07.01-.15-.04-.2-.08-.07-.2-.16-.36-.18-.06,0-.1,0-.15.02-.02,0-.05.01-.07.02-.06,0-.25,0-.5-.03-1.37-.19-2.22-.84-2.29-.88-.06-.03-.11-.04-.16-.03-.05.01-.09.05-.13.11,0,.01-.02.03-.02.04-.03.08,0,.15.08.22.03.02.05.04.08.06.8.49,1.1,1.43,1.29,1.79-.04-.01-.08-.03-.11-.04-.48-.17-.97-.35-1.43-.6-.06-.03-.11-.04-.16-.03-.05.01-.09.05-.13.11,0,.01-.02.03-.02.04-.03.08,0,.15.08.22.02.02.05.04.08.06Z"/>
      <path d="M7.13,30.86c.12.03.25.05.37.06.05,0,.1.01.15.02.04,0,.05.01.05.06,0,.05,0,.11,0,.16,0,.17,0,.34,0,.51,0,.04-.01.08-.03.12-.05.11-.08.22-.05.34.03.12.18.26.34.25.07,0,.13-.02.16-.04.19-.11.25-.33.15-.5-.03-.05-.04-.1-.06-.15-.08-.21-.12-.42-.15-.64,0,0,0-.01,0-.02,0-.02,0-.03.03-.03.1.01.2.02.3.03.08.01.17.02.25.02.12,0,.21-.06.24-.16.02-.08,0-.14-.06-.19-.05-.05-.12-.09-.2-.07-.06.01-.12,0-.18-.01-.13-.02-.26-.04-.39-.06-.06,0-.09-.03-.1-.09-.03-.13-.06-.26-.1-.39-.01-.05-.03-.1-.05-.15-.04-.08-.12-.11-.2-.07-.06.03-.09.09-.08.17.02.12.05.24.07.36,0,.02,0,.04.01.07,0,.04,0,.04-.04.04-.13-.01-.26-.03-.38-.03-.08,0-.14.02-.18.08-.09.11-.03.29.11.33Z"/>
      <path d="M10.82,32.7c-.06-.12-.16-.21-.26-.3-.13-.11-.26-.21-.4-.3-.06-.04-.12-.08-.18-.12-.1-.06-.26.02-.29.11,0,.02-.01.04-.02.06,0,.04-.02.04-.05.02,0,0,0,0-.01-.01-.16-.14-.32-.29-.48-.44-.17-.16-.33-.32-.51-.47-.05-.04-.09-.08-.15-.1-.07-.03-.15,0-.19.07-.04.07-.03.14.02.2.06.07.12.14.17.22.05.08.11.15.17.23.01.02.03.04.06.04.06,0,.09.04.12.07.03.03.06.06.08.09.22.23.45.45.7.65.16.13.32.24.53.34.03.02.1.04.16.06.11.03.22.05.33.03.09-.02.15-.06.2-.14.06-.11.05-.21,0-.31Z"/>
      <path d="M8.92,29.89c.12.2.26.38.44.52.11.08.23.07.32-.01.09-.08.1-.16.04-.29,0,0,0-.01,0-.02,0,0,0-.02,0-.02,0,0,.02,0,.03.01.05.04.1.08.14.12,0,0,.02.02.02.02,0,.08,0,.17-.05.23-.1.13-.1.28-.09.43,0,.03,0,.05,0,.08-.04.12,0,.21.07.3.03.04.09.07.1.13h0s.02,0,.03,0c.09.01.21-.04.22-.13.03-.18.13-.35.17-.53,0-.04.02-.05.05-.02.3.27.64.49.99.68.07.04.14.02.21-.05.06-.06.08-.12.04-.19-.05-.09-.11-.17-.2-.23-.32-.24-.63-.48-.95-.72-.02-.02-.03-.03-.03-.06.03-.18.07-.37.1-.55,0-.04.02-.04.05-.02.18.11.36.2.55.29.15.06.29.13.45.16.11.02.19-.02.25-.11.05-.07.02-.14-.02-.21-.13-.21-.33-.32-.54-.42-.06-.03-.12-.02-.16.03-.02.02-.04.02-.07,0-.12-.07-.25-.14-.37-.2-.03-.02-.04-.04-.03-.07.06-.31.11-.62.18-.93.25.33.56.61.93.82.41.23.83.15,1.14-.2.15-.17.22-.39.29-.6.01-.03.02-.05.06-.05.07,0,.13-.02.19-.06.14-.08.23-.22.2-.35-.03-.14-.11-.26-.25-.31-.03-.01-.04-.02-.04-.06.03-.16,0-.31-.12-.43.22.1.45.11.71.01.43-.17.71-.49.88-.92.33-.83.06-1.69-.59-2.12-.08-.05-.16-.1-.24-.14-.43-.24-.89-.38-1.38-.44-.06,0-.11,0-.17.02-.05.02-.11.05-.16.06-.27.08-.46.26-.62.48-.08.12,0,.22.04.33.04.09.1.14.2.11.04,0,.02.02.02.03,0,.38.06.75.19,1.11.18.49.42.94.83,1.28.05.04.1.07.15.1-.02,0-.03,0-.05,0-.1.03-.15.1-.15.19,0,.12-.02.23-.03.35,0,.02,0,.03-.01.05-.01-.01-.03-.02-.04-.03-.17-.19-.29-.41-.4-.64-.06-.13-.13-.25-.24-.35-.12-.12-.31-.08-.36.08-.08.23-.04.47-.02.7.02.29.07.57.08.86,0,.17.07.28.17.39.05.06.1.09.18.06.1-.04.16-.12.15-.2,0-.1-.02-.2-.03-.29-.02-.23-.05-.46-.07-.69,0,0,0,0,0,0,0,0,0,0,0,0,0,0,0,0,0,0,0,0,0,0,0,0,.02,0,.03.02.04.04.13.18.26.36.43.51.02.02.02.04.02.07-.03.1-.07.21-.12.3-.17.34-.42.43-.76.26-.18-.09-.33-.21-.48-.34-.41-.37-.69-.81-.75-1.36-.03-.26,0-.52.15-.75.06-.1.16-.09.22.01.09.18.15.38.16.58,0,.14.06.25.14.35.05.06.1.09.18.07.1-.03.15-.1.15-.19,0-.14-.02-.29-.06-.42-.09-.33-.22-.64-.48-.88-.12-.12-.28-.15-.44-.08-.15.06-.26.16-.34.3-.12.22-.17.46-.17.71.01.43.16.82.37,1.18-.06.02-.11.07-.13.15-.09.3-.15.61-.22.92,0,.04-.01.06-.06.03-.24-.17-.47-.36-.69-.55-.19-.15-.36-.32-.57-.44-.14-.08-.26-.06-.37.07-.09.11-.09.24-.08.37.04.6.19,1.17.49,1.7ZM12.94,26.05c-.41-.49-.6-1.06-.54-1.69.01-.18.06-.34.16-.49.04-.06.16-.07.21-.03.1.09.16.2.24.3.06.1.13.2.19.29.06.08.13.1.21.05.08-.04.11-.11.09-.2-.03-.12-.11-.22-.18-.32,0-.01-.02-.03-.02-.04.01-.02.03,0,.04,0,.27.09.52.22.8.4.04.04.12.1.2.17.15.13.22.3.22.49,0,.47-.13.9-.49,1.23-.24.22-.49.27-.74.15-.16-.08-.28-.19-.39-.32ZM9.24,29.64h0s0,0,0,0h0ZM9.38,29.88s-.14-.2-.13-.24c.06.06.12.11.18.17.02.02.06.03.04.05-.02.02-.06.02-.09.02ZM8.9,28.28s.02,0,.04.02c.18.15.36.3.55.45.19.15.38.31.57.45.03.02.03.04.03.07-.03.13-.05.27-.08.4,0,.01,0,.03-.01.04,0,0-.02-.02-.03-.03-.19-.24-.39-.49-.58-.73-.05-.06-.08-.12-.16-.15-.1-.04-.16.02-.22.09,0,0-.02.02-.02.02,0,0,0-.02-.01-.03-.04-.18-.07-.36-.08-.55,0-.01,0-.03,0-.04Z"/>
      <polygon points="12.29 27.28 12.29 27.28 12.29 27.28 12.29 27.28 12.29 27.28"/>
      <path d="M15.39,21.75c.15-.02.22-.1.22-.21,0-.07-.01-.15-.04-.22,0-.02-.01-.04,0-.06.04-.12.07-.25.11-.37,0,0,0-.02.01-.03.02,0,.02.01.02.02.07.12.14.24.22.36.02.03.03.06,0,.09-.07.13-.08.27-.04.42.04.13.1.17.23.15.04,0,.08-.02.12-.05.04-.03.06-.02.09.02.11.17.24.32.37.48.05.06.14.08.23.04.07-.03.11-.08.11-.15,0-.07,0-.15-.03-.22-.07-.16-.18-.29-.3-.41-.03-.03-.04-.04,0-.07.35-.2.72-.35,1.11-.44.3-.06.59-.09.89,0,.13.04.25.1.31.24.04.07.11.09.22.06.07-.02.12-.07.12-.15,0-.23-.08-.41-.28-.54-.22-.15-.47-.19-.73-.19-.61,0-1.17.17-1.71.45-.03.02-.06.03-.09.04.01-.03.02-.07.03-.1.18-.46.34-.93.43-1.41.05-.28.05-.55-.04-.82-.05-.17-.18-.24-.35-.21-.19.03-.3.16-.4.26-.1.11-.16.2-.22.29-.25.39-.45.81-.61,1.25-.09.24-.16.48-.22.72-.05.2-.07.4,0,.6.04.11.1.15.22.13ZM16.53,19.2s.06-.07.09-.1c.01-.01.03-.03.04-.03.02,0,0,.03,0,.04-.03.26-.09.5-.17.75-.09.29-.2.58-.31.87,0,.01-.01.03-.02.04-.02,0-.02-.02-.03-.03-.08-.12-.15-.25-.23-.38-.01-.02-.02-.04,0-.07.17-.39.35-.77.63-1.09Z"/>
      <path d="M17.66,18.82c.08.11.19.14.31.08.11-.05.15-.12.12-.27,0,0,0-.01,0-.02,0,0,0-.02,0-.03,0,0,.02.01.02.02.03.05.07.1.1.16,0,0,.01.02.01.03-.03.07-.05.17-.11.21-.14.1-.18.23-.21.38,0,.03,0,.05-.02.07-.08.1-.07.2-.03.31.02.05.06.09.06.15h0s.02,0,.03,0c.08.04.21.02.25-.06.09-.17.23-.29.32-.46.02-.04.03-.04.06,0,.21.35.47.65.75.94.06.06.13.06.22.02.07-.04.11-.09.09-.17-.02-.1-.06-.2-.12-.28-.23-.32-.46-.64-.69-.96-.02-.02-.02-.04,0-.07.08-.16.17-.33.25-.5.02-.03.03-.04.05,0,.14.16.29.3.44.43.12.1.24.21.39.29.1.05.19.03.27-.03.07-.05.06-.13.04-.21-.06-.23-.23-.4-.4-.56-.05-.04-.1-.05-.16-.02-.03.01-.05,0-.07-.01-.1-.1-.2-.2-.3-.3-.03-.03-.03-.05-.01-.08.05-.1.11-.21.16-.31,0,.07,0,.13.03.2.03.09.08.12.18.12.12,0,.27-.16.26-.29-.01-.09-.06-.18-.05-.27,0-.12.03-.24.04-.36,0-.02,0-.03.03-.04.17-.02.2-.05.22-.22.02-.19.05-.37.1-.55,0-.01.01-.03.02-.04.01.01.02.02.03.03.16.21.3.44.44.67.02.04.03.07.02.12-.03.14-.05.28-.08.43-.03.13-.03.27.01.4.03.09.08.13.18.12.1,0,.17-.06.17-.15,0-.09.03-.19.04-.28,0-.01,0-.04.01-.04.02,0,.02.02.03.03.12.15.26.27.43.36.17.09.36,0,.37-.17,0-.09,0-.17-.03-.26-.04-.13-.11-.17-.23-.13-.04.01-.07,0-.09-.03-.12-.11-.22-.23-.31-.37-.03-.05-.04-.09-.03-.15.1-.55.21-1.11.25-1.67.03-.4.06-.8-.13-1.17l-.05-.06c-.18-.15-.35-.08-.52.03-.01,0-.02.01-.04.02l-.09.08s-.01.02-.02.03c-.25.25-.43.55-.57.87-.24.55-.41,1.11-.51,1.7-.06,0-.12.03-.16.1-.17.26-.32.54-.48.81-.02.04-.03.06-.07,0-.18-.23-.34-.48-.5-.72-.13-.2-.25-.41-.42-.59-.11-.12-.24-.13-.37-.04-.12.08-.16.21-.19.33-.14.59-.16,1.18-.02,1.77.05.22.13.44.27.63ZM20.32,15.49c.17-.44.36-.87.73-1.19.02-.02.04-.06.07-.04.03.01.03.06.03.09.01.21,0,.43-.03.64-.05.4-.11.8-.18,1.19,0,.01,0,.03-.01.04,0,0-.01-.01-.02-.01-.1-.16-.19-.31-.31-.45-.07-.09-.15-.19-.27-.22-.02,0-.02-.02-.01-.03ZM17.83,18.31s-.07-.23-.06-.27c.04.07.08.14.12.21.01.02.05.05.02.06-.02.01-.06,0-.09,0ZM17.77,18.04h0s0,0,0,0h0ZM17.82,16.68s.01-.02.02-.04c0,0,.02.01.03.03.13.19.26.39.39.59.13.2.27.4.42.59.02.02.02.04,0,.07-.07.12-.13.24-.19.36,0,.01,0,.03-.02.03,0,0-.02-.02-.02-.03-.11-.29-.23-.58-.34-.87-.03-.07-.05-.14-.11-.19-.08-.06-.16-.03-.23.02,0,0-.02.01-.03.02,0-.01,0-.02,0-.03.02-.18.04-.37.09-.55Z"/>
      <path d="M21.62,13.92c.15.31.37.59.57.85.02.02.03.04.05.06.21.27,1.22,1.44,1.26,1.49.08.09.19.11.29.03.01,0,.02-.02.03-.03.09-.09.07-.16.01-.28-.07-.14-.17-.26-.27-.37-.02-.03-.05-.05-.07-.08-.08-.5-.09-1.07-.02-1.56.08.1.25.29.5.52.12.1.23.2.35.29.19.14.38.27.57.38.08.04.16.08.23.12.05.02.09.02.14.01.04-.01.08-.04.11-.06h0c.06-.05.08-.12.06-.19-.03-.11-.09-.24-.22-.33-.05-.03-.09-.04-.14-.05-.03,0-.05-.01-.07-.02-.05-.02-.22-.12-.41-.28-1.09-.84-1.5-1.84-1.55-1.91-.04-.06-.08-.09-.12-.11-.05-.01-.1,0-.16.03-.02,0-.03.02-.04.03-.07.05-.08.13-.04.23.01.03.02.06.04.09.45.82.23,1.79.22,2.19-.03-.03-.05-.06-.08-.09-.33-.39-.67-.79-.94-1.23-.04-.06-.08-.1-.12-.11-.05-.01-.1,0-.16.03-.02,0-.03.02-.04.03-.07.05-.08.13-.04.23.01.03.03.06.04.09Z"/>
      <path d="M24.69,13.16c.12-.03.17-.09.17-.24,0,0,0-.01,0-.02,0,0,0-.02,0-.02,0,0,.01.01.02.02.02.06.05.11.07.17,0,0,.01.02,0,.03-.04.07-.08.15-.15.18-.15.07-.22.2-.27.34-.01.03-.02.05-.04.07-.09.08-.1.18-.08.3.01.05.04.1.03.16h0s.02,0,.03.02c.07.05.2.06.26-.01.12-.15.28-.24.39-.39.03-.03.04-.03.06,0,.14.38.34.73.56,1.06.04.07.12.09.21.06.08-.02.12-.07.12-.15,0-.1-.02-.2-.07-.3-.17-.36-.34-.72-.51-1.07-.01-.03-.01-.04,0-.07.11-.15.23-.29.34-.44.02-.03.03-.03.05,0,.11.18.23.35.36.51.1.13.2.25.33.35.09.07.18.07.27.02.08-.04.08-.12.08-.2-.02-.24-.15-.43-.29-.62-.04-.05-.09-.07-.16-.05-.03,0-.05,0-.07-.03-.08-.12-.16-.23-.24-.35-.02-.03-.02-.05,0-.08.2-.25.39-.51.6-.76,0-.01.01-.02.02-.03,0,.1,0,.2.03.3.02.09.08.13.17.14.18.02.3-.08.43-.18.21-.18.43-.36.64-.55,0,0,.01-.01.02-.02,0,0,0,.02,0,.03-.06.07-.11.15-.17.22-.19.26-.38.52-.52.81-.06.13-.04.26,0,.38.07.12.26.11.33-.01.23-.38.49-.74.75-1.1.2-.27.42-.52.6-.81.09-.15.11-.31.06-.48-.03-.11-.11-.17-.22-.16-.18.01-.33.1-.48.2-.35.24-.67.52-.99.8-.01,0-.02.02-.03.03,0-.01,0-.03.01-.04.1-.22.2-.43.3-.64.21-.42.41-.83.62-1.25.07-.14.07-.29.03-.44-.02-.07-.07-.11-.15-.12-.11,0-.18.03-.2.11-.03.08-.05.17-.09.24-.15.28-.29.56-.43.85-.22.46-.45.91-.62,1.39,0-.02,0-.04-.02-.07-.05-.16-.22-.2-.33-.08-.22.23-.42.47-.62.71-.03.03-.04.05-.07,0-.13-.26-.25-.53-.36-.8-.1-.22-.17-.45-.3-.65-.09-.14-.21-.17-.36-.11-.13.05-.19.17-.24.29-.24.55-.37,1.13-.34,1.73.01.23.05.46.15.67.06.12.17.17.29.14ZM24.76,11.47c.05-.18.1-.36.19-.52,0-.01.02-.02.02-.03,0,0,.01.02.03.03.09.21.18.43.28.65.09.22.19.45.3.66.01.03.01.05,0,.07-.09.11-.17.21-.26.32,0,.01-.01.03-.03.02,0,0-.01-.02-.01-.04-.06-.31-.12-.61-.18-.92-.01-.07-.02-.15-.07-.2-.07-.08-.15-.05-.23-.02-.01,0-.02,0-.03.01,0-.01,0-.02,0-.03ZM24.65,12.28s0,0,0,0h0,0ZM24.65,12.28c.03.08.06.16.08.23,0,.02.04.06.01.06-.02,0-.06,0-.09-.02-.03-.02-.03-.24,0-.27Z"/>
      <path d="M28.26,12.18c-.25.3-.51.59-.74.91-.11.14-.12.3-.08.46.02.07.06.11.13.11.12,0,.23-.07.33-.06.04-.03.07-.05.08-.08.17-.39.42-.73.69-1.04.32-.37.66-.72,1.01-1.07.11-.11.14-.23.12-.37-.01-.08-.02-.16-.11-.19-.09-.03-.17-.01-.24.05-.13.11-.24.22-.36.34-.3.3-.56.63-.83.95Z"/>
      <path d="M29.71,8.96c.1.02.21,0,.24-.12,0-.02.02-.03.03-.04,0,.02.01.03.01.05.06.34.13.68.19,1.03.11.72.24,1.44.21,2.18,0,.13.04.17.17.18.02,0,.05,0,.07,0l.03-.02c.06-.05.06-.13.11-.19.14-.18.3-.33.47-.48.38-.33.78-.63,1.2-.89.03-.02.06-.04.09-.05.18-.05.19-.2.19-.34,0-.02,0-.04,0-.06l-.04-.09c-.06-.05-.14-.06-.21-.07-.12-.02-.15,0-.2.12,0,.02-.02.03-.03.04-.52.34-1.01.71-1.45,1.13,0,0-.02.02-.03.02-.02,0,0-.02,0-.03,0-.11-.01-.22-.02-.32-.07-.71-.19-1.41-.32-2.12-.04-.23-.08-.45-.15-.67-.04-.14-.22-.19-.32-.09-.2.2-.33.43-.33.73,0,.07.04.12.11.14Z"/>
      <path d="M34.42,7.34c.28-.24.55-.49.84-.72.03-.03.05-.03.08,0,.06.1.18.12.27.06.03-.02.07-.04.1-.07.04-.04.06-.03.06.02.06.41.11.82.22,1.23.06.2.36,1.16.47,1.34.06.11.21.14.29.06.14-.12.19-.41.07-.56-.05-.06-.33-.89-.35-.96-.16-.49-.21-.99-.28-1.49,0-.03,0-.04.02-.05.09-.07.18-.14.26-.21.32-.25.64-.49.96-.74.11-.09.19-.22.19-.38v-.02c-.11-.13-.18-.15-.34-.1-.16.05-.31.13-.46.21-.72.42-1.38.92-2.02,1.45-.15.12-.26.29-.46.35,0,0-.02.01-.03.02-.11.12-.2.24-.26.4-.02.06,0,.12.04.16.1.09.19.09.31,0Z"/>
      <path d="M37.91,6.38s.01.05.02.08c.1.33.61,1.79.63,1.85.04.12.14.17.26.14.01,0,.02,0,.04-.01.11-.05.13-.13.12-.26-.01-.16-.06-.3-.12-.44-.01-.03-.02-.06-.04-.1.11-.49.31-1.03.55-1.46.04.12.13.37.28.66.07.14.14.27.22.4.12.2.26.39.4.56.06.07.11.13.17.2.03.04.08.06.13.06.05,0,.09,0,.13-.01h0c.07-.02.12-.08.13-.16,0-.11,0-.26-.08-.39-.03-.05-.07-.08-.11-.1-.02-.01-.04-.03-.06-.04-.04-.04-.16-.19-.28-.41-.71-1.18-.73-2.26-.74-2.34-.01-.07-.04-.12-.08-.15-.04-.03-.09-.04-.16-.03-.02,0-.03,0-.05,0-.08.02-.12.09-.13.2,0,.03,0,.07,0,.09.12.93-.43,1.75-.59,2.12-.01-.04-.03-.08-.04-.11-.16-.48-.33-.98-.42-1.49-.01-.07-.04-.12-.08-.15-.04-.03-.09-.04-.16-.03-.02,0-.03,0-.05,0-.08.02-.12.09-.13.2,0,.03,0,.07,0,.09.03.35.13.68.22,1Z"/>
      <path d="M40.98,5.78c-.04.32-.07.63-.07.95,0,.2,0,.4.07.63,0,.04.02.1.05.17.04.1.1.2.18.27.07.06.14.08.23.06.12-.02.19-.09.24-.2.05-.12.06-.26.07-.39,0-.17,0-.33-.02-.5,0-.07-.01-.14-.02-.21-.02-.11-.17-.19-.26-.16-.02,0-.04.02-.06.03-.03.02-.04,0-.05-.03,0,0,0-.01,0-.02,0-.22.02-.43.04-.65.02-.23.04-.46.05-.69,0-.06,0-.12-.01-.18-.02-.07-.09-.12-.17-.1-.08.01-.13.06-.14.14-.01.09-.03.18-.06.27-.03.09-.05.18-.07.28,0,.02-.01.05,0,.07.03.04.03.09.02.14,0,.04-.01.08-.02.12Z"/>
      <path d="M40.26,5.34c.21.08.42-.01.49-.19.02-.05.05-.09.08-.14.11-.19.25-.36.41-.51,0,0,.01-.01.02-.02.02-.01.03-.01.04,0,.05.09.11.17.16.25.04.07.09.14.14.21.07.1.18.13.28.08.07-.03.11-.09.11-.16,0-.07,0-.15-.07-.2-.05-.04-.07-.1-.1-.15-.07-.11-.13-.23-.19-.34-.03-.05-.03-.09,0-.14.08-.1.16-.21.25-.32.03-.04.06-.09.08-.13.04-.08,0-.16-.07-.2-.06-.03-.13-.02-.18.05-.08.09-.16.19-.24.28-.01.02-.03.04-.05.05-.02.02-.03.02-.05,0-.07-.11-.14-.22-.21-.32-.04-.06-.1-.09-.18-.09-.14,0-.24.15-.19.29.05.12.12.22.18.33.03.04.05.09.08.13.02.04.02.04-.01.07-.04.03-.09.07-.13.1-.13.1-.26.21-.4.31-.03.03-.07.04-.11.05-.12.03-.22.08-.29.18-.07.1-.09.3.02.42.04.05.1.09.13.11Z"/>
      <path d="M42.17,6.18c.04.08.16.14.24.09.17-.09.35-.11.52-.2.04-.02.05-.02.05.03-.02.4.02.8.09,1.2.01.08.07.13.17.14.08,0,.14-.02.18-.09.04-.1.06-.2.06-.3-.01-.4-.02-.79-.03-1.19,0-.03,0-.05.03-.06.16-.09.33-.18.49-.27.03-.02.04-.01.05.02.03.21.07.41.12.61.04.16.08.31.16.45.05.1.14.13.24.13.09,0,.12-.07.15-.15.08-.23.04-.46-.01-.68-.01-.06-.06-.1-.12-.11-.03,0-.05-.02-.05-.05-.02-.14-.05-.28-.08-.42,0-.04,0-.05.04-.07.28-.15.56-.31.85-.45-.1.41-.13.82-.06,1.25.08.47.4.74.87.77.23.01.44-.07.65-.15.03-.01.05-.01.07.02.04.05.1.09.16.11.15.06.32.04.4-.07.09-.11.13-.25.09-.4-.01-.04,0-.05.02-.07.14-.08.22-.19.25-.34.06.22.2.41.43.54.41.23.83.24,1.27.11.85-.26,1.36-1.01,1.29-1.78-.01-.09-.02-.18-.04-.28-.08-.49-.26-.93-.52-1.35-.03-.05-.07-.09-.12-.12-.05-.03-.1-.05-.15-.09-.23-.16-.49-.2-.76-.18-.14.01-.18.13-.23.23-.04.08-.05.16.04.23.03.02,0,.03-.01.04-.3.23-.55.52-.74.84-.27.45-.47.92-.48,1.45,0,.05,0,.1.01.15,0,0,0-.01-.01-.01-.09-.06-.17-.05-.24,0-.1.07-.19.13-.29.2-.01,0-.03.01-.05.02,0-.02,0-.04,0-.05.04-.25.14-.48.24-.71.06-.13.11-.26.12-.4.02-.17-.13-.29-.29-.23-.23.08-.39.26-.56.42-.21.2-.4.42-.62.6-.13.11-.18.23-.2.38-.01.07,0,.14.06.18.09.05.19.05.25,0,.07-.07.14-.14.21-.21.17-.16.33-.33.5-.49,0,0,0,0,0,0,0,0,0,0,0,0,0,0,0,0,0,0,0,0,0,0,0,0,.01.02,0,.04,0,.05-.06.21-.11.43-.13.65,0,.03-.02.04-.04.05-.1.04-.2.08-.31.1-.37.09-.59-.06-.68-.43-.04-.19-.05-.39-.04-.59.03-.55.2-1.04.59-1.44.18-.19.4-.32.68-.35.12-.01.17.07.12.18-.08.19-.2.35-.36.48-.11.09-.16.2-.19.33-.02.07,0,.14.06.18.09.05.18.06.24,0,.11-.09.21-.2.29-.31.2-.28.37-.57.39-.92.01-.17-.06-.31-.21-.39-.14-.08-.29-.1-.45-.07-.25.04-.47.15-.66.31-.33.28-.54.64-.7,1.04-.05-.04-.13-.06-.21-.02-.29.12-.57.26-.85.4-.04.02-.06.03-.06-.03-.02-.29-.01-.59,0-.88,0-.24.03-.48-.01-.72-.03-.16-.12-.24-.28-.24-.14,0-.24.08-.34.17-.44.41-.8.88-1.01,1.45-.08.22-.14.44-.13.67,0,.14.08.22.21.24.12.02.19-.02.25-.16,0,0,0-.01,0-.02,0,0,0-.01.01-.02,0,0,0,.02,0,.03,0,.06,0,.12,0,.19,0,.01,0,.03,0,.03-.07.04-.14.11-.21.11-.17,0-.28.09-.38.2-.02.02-.04.04-.06.05-.12.04-.17.13-.19.24-.01.05,0,.11-.04.16h0s.02.02.02.03ZM48.19,5.16c.12-.63.45-1.13.98-1.48.15-.1.31-.16.49-.18.07,0,.16.08.15.15,0,.13-.05.25-.09.37-.04.11-.08.22-.11.34-.03.09,0,.16.09.2.08.04.15.02.21-.06.08-.1.1-.22.14-.34,0-.01.01-.04.02-.04.02,0,.02.02.02.04.1.27.16.55.18.87,0,.06,0,.16,0,.26-.01.2-.1.36-.25.48-.37.3-.78.46-1.26.39-.32-.04-.52-.21-.58-.49-.04-.17-.03-.34,0-.51ZM43.5,3.83c.12-.14.24-.28.38-.4.01,0,.02-.01.04-.02,0,0,0,.02.01.04,0,.23,0,.47,0,.71,0,.24,0,.48.01.73,0,.03,0,.05-.04.06-.12.06-.24.13-.37.19-.01,0-.03.02-.04.01,0,0,0-.03,0-.04.07-.3.14-.61.21-.91.02-.07.04-.14.02-.21-.03-.1-.12-.11-.2-.12-.01,0-.02,0-.03,0,0,0,0-.02.02-.03ZM43.08,4.52s0,0,0,0h0s0,0,0,0ZM42.97,4.78s.07-.23.1-.25c0,.08-.01.16-.02.25,0,.02.01.07-.01.06-.03,0-.05-.03-.07-.06Z"/>
      <polygon points="46.84 5.42 46.84 5.43 46.84 5.42 46.84 5.42 46.84 5.42"/>
      <path d="M53.39,4.43c.06-.05.11-.1.14-.16.01-.02.03-.03.05-.04.12-.05.24-.1.36-.15,0,0,.02-.01.03,0,.01,0,0,.02,0,.03-.05.13-.1.26-.14.39-.01.04-.03.06-.07.06-.15.03-.26.11-.35.23-.08.11-.07.19.03.27.03.03.07.05.11.06.05.01.05.04.04.08-.06.19-.1.39-.14.59-.02.08.03.15.11.2.06.04.13.03.18-.01.06-.05.11-.1.15-.16.08-.15.11-.32.13-.49,0-.04.01-.06.06-.04.38.14.72.34,1.04.59.23.19.44.41.55.7.05.13.07.26,0,.39-.04.07,0,.14.09.21.06.05.13.05.19,0,.18-.14.27-.32.25-.55-.02-.27-.14-.49-.31-.69-.38-.47-.87-.81-1.42-1.05-.03-.01-.06-.03-.09-.04.03-.01.06-.03.1-.04.47-.15.94-.31,1.37-.55.24-.14.46-.3.62-.54.09-.15.07-.29-.05-.41-.14-.13-.32-.14-.46-.15-.15,0-.26,0-.37,0-.46.05-.92.15-1.36.31-.24.08-.48.17-.71.28-.19.09-.35.19-.47.37-.06.1-.05.18.03.25.11.1.21.12.3.04ZM54.35,4.33c.05-.14.1-.27.15-.41,0-.02.02-.04.05-.05.41-.12.82-.21,1.25-.19.04,0,.09,0,.13,0,.02,0,.04,0,.04.01,0,.02-.02.02-.03.03-.22.14-.45.24-.69.34-.28.11-.58.21-.87.3-.01,0-.03.01-.04,0-.02-.01,0-.03,0-.04Z"/>
      <path d="M56.93,4.61c.11.06.19.04.29-.08,0,0,0-.01.01-.02,0,0,.01-.01.02-.02,0,0,0,.02,0,.03-.02.06-.04.12-.06.18,0,0,0,.02-.01.03-.08.02-.16.06-.23.04-.16-.05-.29.01-.43.08-.02.01-.05.03-.07.03-.12,0-.2.07-.26.17-.03.05-.04.11-.08.14h0s0,.01,0,.01c.01,0,.01.01.02.02.02.09.12.18.2.16.18-.04.37,0,.55-.04.04,0,.05,0,.04.04-.14.38-.21.77-.26,1.17,0,.08.03.14.12.18.07.03.14.02.19-.04.07-.08.12-.17.14-.27.1-.38.21-.76.32-1.14,0-.03.02-.04.05-.05.18-.04.36-.08.54-.11.04,0,.05,0,.04.04-.03.2-.05.41-.06.62,0,.16,0,.32.02.48.02.11.09.17.19.19.09.02.14-.03.19-.1.14-.2.17-.43.19-.66,0-.06-.03-.11-.09-.14-.03-.01-.04-.03-.03-.06.02-.14.03-.28.05-.42,0-.04.02-.05.05-.06.12-.02.24-.05.36-.07-.05.05-.1.09-.14.15-.05.08-.04.14.02.21.08.1.3.11.38.02.06-.07.11-.15.18-.21.1-.07.2-.13.31-.19.02-.01.03-.02.05,0,.12.12.17.12.31.03.16-.1.32-.2.49-.27.01,0,.03,0,.04-.01,0,.02,0,.03,0,.05-.06.26-.16.51-.25.76-.02.04-.04.07-.08.09-.13.07-.25.14-.38.21-.12.06-.22.15-.3.26-.05.08-.05.14.02.22.07.07.15.09.23.04.08-.05.16-.1.24-.14.01,0,.03-.02.04-.01.02,0,0,.02,0,.04-.04.19-.05.37-.02.56.04.19.23.29.36.19.07-.05.13-.11.18-.19.08-.11.06-.19-.04-.27-.04-.03-.04-.05-.04-.09,0-.16.04-.32.09-.47.02-.06.05-.09.1-.12.49-.27.99-.53,1.46-.84.33-.22.66-.45.83-.84v-.07c.01-.23-.14-.33-.33-.39-.01,0-.03-.01-.04-.02l-.12-.02s-.02,0-.03,0c-.35-.04-.7,0-1.04.1-.58.15-1.13.38-1.65.66-.04-.05-.1-.08-.19-.07-.31.03-.62.09-.93.14-.04,0-.06.01-.05-.05.07-.29.16-.57.25-.85.07-.23.17-.45.2-.69.02-.16-.05-.27-.2-.31-.13-.04-.26,0-.38.06-.54.26-1.02.61-1.39,1.09-.14.18-.26.38-.32.61-.03.13.02.24.13.3ZM60.88,5.21c.06-.18.12-.35.16-.53.02-.12.05-.23,0-.35,0-.02,0-.02.02-.03.45-.14.91-.26,1.38-.18.03,0,.07,0,.08.03,0,.03-.03.06-.05.08-.16.15-.34.26-.52.38-.34.21-.69.41-1.04.6-.01,0-.03,0-.04.01,0,0,0-.02,0-.02ZM57.71,4.59c.15-.27.31-.54.47-.81.04-.06.08-.12.08-.2,0-.1-.08-.14-.16-.17-.01,0-.02,0-.03-.01,0,0,.01-.02.02-.02.15-.1.31-.2.48-.27.01,0,.03,0,.04,0,0,.01,0,.02,0,.04-.07.22-.14.45-.21.67-.07.23-.15.46-.2.7,0,.03-.02.04-.05.05-.14.02-.27.05-.4.08-.01,0-.03.01-.04,0,0,0,0-.03.01-.04ZM57.47,3.92h0s0,0,0,0c-.03.08-.06.16-.09.23,0,.02,0,.07-.03.06-.02,0-.04-.05-.05-.08,0-.03.14-.2.17-.21Z"/>
      <path d="M62.77,5.4c-.08.33-.36,1.86-.38,1.92-.02.12.04.22.16.25.01,0,.03,0,.04,0,.12.01.17-.05.23-.17.07-.14.09-.29.12-.44,0-.03.01-.07.02-.1.34-.37.79-.74,1.2-.99-.02.13-.07.38-.09.71,0,.16-.01.31,0,.46,0,.24.03.47.06.68.01.09.03.17.05.26.01.05.04.09.08.12.04.03.08.04.12.05h0c.07.02.14,0,.19-.07.06-.09.13-.22.12-.38,0-.06-.02-.1-.04-.14-.01-.02-.02-.04-.03-.07-.02-.06-.04-.25-.04-.5-.03-1.38.5-2.32.52-2.4.02-.07.03-.12,0-.16-.02-.04-.06-.08-.12-.11-.02,0-.03-.01-.04-.02-.08-.02-.15.02-.21.11-.02.03-.03.06-.04.08-.36.86-1.25,1.3-1.57,1.54,0-.04.02-.08.02-.12.1-.5.2-1.02.38-1.5.02-.07.03-.12,0-.16-.02-.04-.06-.08-.12-.11-.02,0-.03-.01-.04-.02-.08-.02-.15.02-.21.11-.02.03-.03.06-.04.08-.15.31-.23.65-.31.98,0,.03-.01.05-.02.08Z"/>
      <path d="M64.8,6.56s-.05.1-.11.13h0s.01.03.01.04c0,.09.08.2.17.19.19,0,.36.06.55.06.04,0,.05,0,.03.05-.21.35-.35.72-.47,1.1-.02.08,0,.15.09.2.07.05.13.05.2,0,.08-.06.15-.14.19-.24.17-.36.35-.71.52-1.07.01-.03.03-.04.06-.04.19,0,.37,0,.56-.01.04,0,.05,0,.03.04-.07.19-.13.39-.17.6-.04.16-.07.31-.07.48,0,.11.06.18.15.22.08.04.14,0,.2-.06.18-.17.25-.39.31-.61.02-.06,0-.12-.06-.16-.02-.02-.03-.04-.02-.07.04-.13.08-.27.12-.4.01-.04.03-.05.06-.05.32,0,.65-.01.97,0,.01,0,.02,0,.03,0-.09.06-.16.13-.22.21-.05.07-.05.14,0,.22.1.15.25.19.41.22.27.05.55.1.83.16,0,0,.02,0,.03,0,0,0-.02,0-.03,0-.09,0-.19,0-.28.01-.32.02-.65.03-.96.1-.14.03-.22.13-.3.23-.05.13.08.27.22.25.44-.06.88-.08,1.33-.1.33,0,.67,0,1-.04.18-.02.31-.11.41-.25.07-.09.06-.19-.02-.28-.12-.14-.29-.19-.46-.25-.41-.13-.83-.2-1.24-.27-.01,0-.03,0-.04,0,.01,0,.03-.01.04-.02.23-.06.46-.12.69-.17.45-.1.91-.2,1.36-.29.16-.03.27-.13.36-.26.05-.06.04-.13,0-.19-.06-.09-.13-.12-.21-.09-.08.03-.16.06-.25.08-.31.06-.62.13-.93.19-.5.11-.99.22-1.47.38.02-.02.04-.03.05-.05.09-.14.02-.29-.15-.31-.31-.03-.63-.03-.94-.04-.04,0-.07,0-.04-.06.12-.27.26-.53.4-.79.11-.21.25-.42.32-.65.05-.16,0-.27-.14-.35-.12-.07-.26-.04-.38,0-.58.16-1.11.41-1.57.81-.17.15-.33.33-.43.54-.06.12-.03.24.07.32.1.08.18.07.29-.02,0,0,.01,0,.02-.01,0,0,.01,0,.02-.01,0,0,0,.02,0,.03-.03.06-.06.11-.09.16,0,0-.01.02-.02.02-.08,0-.17.03-.24,0-.15-.08-.29-.04-.43,0-.03,0-.05.02-.08.01-.12-.02-.21.03-.28.12ZM66.38,6.39c.2-.24.41-.47.61-.71.05-.06.1-.11.11-.18.02-.1-.05-.15-.13-.2,0,0-.02-.01-.03-.02,0,0,.02-.01.03-.02.17-.07.34-.14.53-.18.01,0,.03,0,.04,0,0,.01,0,.02,0,.04-.11.2-.22.41-.34.62-.12.21-.23.43-.33.65-.01.03-.03.04-.06.04-.14,0-.27,0-.41,0-.01,0-.03,0-.04,0,0,0,.01-.02.02-.03ZM66.27,5.67h0s0,0,0,0c-.04.07-.09.14-.13.21-.01.02-.02.06-.04.05-.02-.01-.03-.05-.04-.08,0-.03.17-.17.21-.18Z"/>
      <path d="M70.45,8.91c.05-.06.11-.12.08-.2-.03-.09-.1-.14-.19-.16-.16-.03-.32-.05-.49-.07-.42-.04-.84-.04-1.25-.05-.39,0-.78-.03-1.17-.01-.18,0-.31.09-.41.23-.04.05-.05.11,0,.17.07.1.2.14.25.22.05.02.08.02.12.01.41-.11.83-.13,1.25-.11.49.02.97.07,1.46.12.15.02.27-.03.36-.14Z"/>
      <path d="M71.61,8.48c-.49.54-.98,1.09-1.57,1.52-.11.08-.11.14-.03.25.01.02.03.04.05.05l.04.02c.08.02.14-.03.22-.04.23,0,.45.03.67.07.49.09.97.21,1.44.38.03.01.07.02.1.04.15.1.27.02.39-.07.01-.01.03-.02.04-.03l.04-.09c0-.08-.04-.15-.07-.21-.06-.11-.1-.12-.22-.08-.02,0-.03,0-.05,0-.58-.2-1.18-.35-1.79-.43-.01,0-.03,0-.03,0,0-.01.01-.02.02-.03.08-.07.16-.14.24-.22.51-.5.99-1.03,1.45-1.57.15-.17.3-.34.43-.53.08-.12.01-.29-.13-.31-.28-.03-.55,0-.77.2-.06.05-.07.11-.04.17.05.1.13.16.25.11.01,0,.03,0,.05,0,0,.01-.02.03-.03.04-.23.26-.45.53-.69.78Z"/>
      <path d="M76.22,10.22c.36.07.73.12,1.09.2.04.01.06.02.04.07-.04.11.02.21.12.25.04.01.07.03.11.03.05,0,.06.02.02.06-.29.3-.58.6-.82.94-.12.17-.68,1.01-.75,1.21-.05.12.02.25.13.27.18.03.43-.11.48-.29.02-.08.49-.81.53-.87.28-.43.64-.78.98-1.15.02-.02.03-.01.05-.01.11.03.22.05.33.08.39.09.78.2,1.18.28.14.03.29.01.42-.09v-.02c.05-.16.02-.23-.12-.32-.14-.09-.29-.16-.45-.22-.78-.29-1.58-.5-2.39-.67-.19-.04-.39-.02-.55-.14,0,0-.02,0-.03,0-.16-.01-.32,0-.47.05-.07.02-.1.07-.1.14,0,.14.05.21.2.24Z"/>
      <path d="M80.16,11.79c.05-.05.07-.1.07-.15,0-.05-.03-.09-.08-.15-.01-.01-.02-.02-.04-.03-.07-.05-.15-.04-.24.03-.03.02-.05.04-.07.06-.25.24-.45.53-.64.8-.02.02-.03.04-.05.07-.2.28-1.02,1.59-1.05,1.65-.07.1-.04.22.06.29.01,0,.02.01.03.02.11.06.18.02.28-.07.12-.11.19-.24.27-.37.02-.03.03-.06.05-.09.45-.22,1-.4,1.48-.48-.07.11-.2.33-.34.63-.07.14-.12.28-.18.42-.08.22-.14.44-.19.66-.02.09-.03.17-.05.26,0,.05,0,.1.03.14.03.04.06.07.09.09h0c.06.05.14.05.2,0,.09-.06.2-.16.25-.31.02-.05.01-.1.01-.15,0-.03,0-.05,0-.07,0-.06.05-.24.14-.48.48-1.3,1.31-1.98,1.36-2.04.05-.05.07-.1.07-.15,0-.05-.03-.09-.08-.15-.01-.01-.02-.02-.04-.03-.07-.05-.15-.04-.24.03-.03.02-.05.04-.07.06-.65.67-1.64.76-2.03.86.02-.03.04-.07.06-.1.27-.43.56-.87.9-1.26Z"/>
      <path d="M81.29,15.02c.17-.13.35-.25.53-.38.19-.13.39-.25.57-.39.05-.04.1-.07.13-.12.04-.06.03-.15-.03-.2-.06-.05-.13-.06-.2-.02-.08.05-.16.09-.25.12-.09.04-.17.08-.26.12-.02.01-.05.02-.05.05-.01.05-.06.08-.1.1-.03.02-.07.04-.1.06-.27.16-.54.34-.79.54-.16.12-.31.26-.45.45-.02.03-.06.08-.1.14-.05.1-.09.2-.1.31,0,.09.03.16.1.22.09.08.2.09.31.06.13-.04.24-.11.35-.19.13-.1.26-.21.38-.32.05-.05.11-.1.15-.15.08-.09.04-.25-.04-.3-.02-.01-.04-.02-.06-.03-.03-.02-.03-.03,0-.05,0,0,0,0,.01-.01Z"/>
      <path d="M81.44,13.37c-.01.07-.01.13,0,.17.07.21.27.32.45.26.05-.02.1-.02.16-.03.22-.04.44-.03.66,0,0,0,.01,0,.02,0,.02,0,.03.01.02.04-.03.09-.06.19-.1.28-.03.08-.06.16-.08.24-.03.12.01.22.11.27.07.04.14.03.2-.01.06-.04.11-.1.12-.18,0-.06.03-.12.05-.17.05-.12.1-.24.15-.36.02-.05.05-.08.11-.08.13,0,.27,0,.4,0,.05,0,.11,0,.16-.02.09-.02.13-.1.11-.18-.02-.07-.07-.11-.15-.11-.12,0-.25,0-.37,0-.02,0-.05,0-.07,0-.03,0-.04,0-.03-.04.04-.12.08-.24.12-.37.02-.07,0-.14-.04-.2-.09-.11-.27-.09-.34.03-.06.11-.1.23-.14.35-.02.05-.04.1-.05.14-.01.04-.02.04-.06.03-.05-.01-.11-.02-.16-.04-.16-.04-.33-.08-.49-.11-.04,0-.08-.03-.11-.06-.09-.07-.2-.12-.32-.12-.12,0-.29.12-.32.28Z"/>
      <path d="M83.06,15.18c-.1.09-.12.2-.06.32.06.11.13.14.28.1,0,0,.01,0,.02,0,0,0,.02,0,.02,0,0,0-.01.02-.02.02-.05.04-.1.08-.15.11,0,0-.02.02-.03.01-.08-.03-.17-.04-.22-.1-.11-.13-.25-.16-.4-.18-.03,0-.05,0-.08-.02-.1-.07-.2-.05-.31,0-.05.02-.09.07-.15.07h0s0,.03,0,.04c-.03.08,0,.21.08.25.17.07.31.21.48.28.04.02.04.03,0,.06-.33.23-.61.52-.88.82-.05.06-.05.14,0,.22.04.07.1.1.18.08.1-.03.19-.07.27-.14.3-.26.6-.51.91-.77.02-.02.04-.02.07-.01.17.07.34.14.51.21.04.01.04.03.01.05-.14.15-.28.31-.4.47-.1.13-.19.26-.25.41-.04.1-.02.19.05.27.06.06.13.05.21.02.23-.08.38-.26.53-.44.04-.05.04-.11.01-.17-.01-.03-.01-.05,0-.07.09-.11.19-.21.28-.32.02-.03.04-.03.08-.02.29.13.58.24.87.38-.38.18-.72.41-1,.73-.31.35-.33.78-.05,1.16.14.19.33.3.53.41.03.02.04.03.03.07-.02.07,0,.13.01.2.05.15.17.27.3.27.14,0,.28-.05.36-.18.02-.03.03-.04.06-.03.15.06.29.06.43-.01-.13.19-.2.41-.15.68.07.46.33.8.71,1.06.74.5,1.63.43,2.2-.11.06-.07.13-.13.19-.2.33-.36.56-.79.72-1.25.02-.05.03-.11.02-.17,0-.06-.02-.12-.03-.17-.02-.28-.15-.51-.34-.71-.1-.1-.22-.06-.33-.04-.09.02-.16.06-.15.17,0,.04-.02.01-.04.01-.37-.09-.75-.1-1.12-.05-.52.07-1.01.21-1.43.53-.05.03-.08.07-.12.11,0-.01,0-.02,0-.03,0-.1-.06-.16-.15-.19-.11-.03-.23-.07-.34-.1-.02,0-.03-.01-.05-.02.01-.01.03-.02.04-.03.22-.12.46-.19.71-.26.14-.04.27-.08.39-.16.15-.09.15-.28,0-.37-.21-.13-.45-.14-.68-.17-.29-.04-.58-.05-.86-.11-.16-.03-.29,0-.42.08-.06.04-.11.08-.1.16.02.11.08.18.17.19.1.01.2.02.29.03.23.03.46.05.69.08,0,0,0,0,0,0,0,0,0,0,0,0,0,0,0,0,0,0,0,0,0,0,0,0,0,.02-.03.03-.04.03-.21.08-.41.18-.59.31-.02.02-.04.01-.07,0-.09-.05-.19-.11-.27-.18-.3-.24-.33-.5-.09-.8.12-.15.27-.28.43-.39.45-.32.94-.5,1.5-.44.26.03.5.11.69.31.08.08.05.18-.06.21-.2.05-.4.06-.6.03-.14-.03-.26,0-.38.06-.07.03-.11.08-.1.16.01.1.07.17.15.19.14.03.28.04.43.03.34-.02.68-.07.97-.27.14-.1.2-.24.17-.41-.03-.16-.1-.29-.22-.39-.19-.17-.41-.27-.66-.32-.42-.08-.83-.02-1.24.11,0-.06-.04-.12-.11-.16-.28-.15-.56-.28-.84-.41-.04-.02-.06-.03-.01-.07.22-.2.45-.38.68-.56.19-.15.39-.28.55-.46.11-.12.11-.24.01-.37-.09-.11-.22-.14-.35-.16-.6-.09-1.18-.07-1.76.11-.22.07-.43.17-.61.32ZM86.14,19.92c.11-.14.25-.24.4-.32.57-.3,1.16-.35,1.77-.16.17.05.32.14.45.27.05.05.04.17-.02.21-.1.08-.23.12-.35.16-.11.04-.22.08-.33.12-.09.04-.12.1-.1.2.02.09.08.13.18.13.13,0,.24-.06.35-.1.01,0,.04-.01.04,0,.01.02,0,.03-.01.04-.15.24-.33.46-.57.69-.05.04-.12.1-.21.16-.16.11-.34.15-.53.1-.46-.1-.85-.33-1.1-.74-.17-.28-.16-.54.02-.76ZM84.64,15.16s-.01-.02-.02-.03c.01,0,.02,0,.03,0,.19,0,.37,0,.55.05.01,0,.03,0,.04.02,0,0-.01.02-.02.03-.18.14-.37.29-.56.43-.19.15-.38.3-.56.46-.02.02-.04.02-.07.01-.12-.06-.25-.11-.38-.17-.01,0-.03,0-.03-.02,0,0,.02-.02.03-.02.28-.14.56-.27.84-.41.07-.03.14-.06.18-.12.06-.09.01-.16-.04-.23ZM83.85,15.23c-.07.05-.14.09-.21.14-.02.01-.04.05-.06.03-.01-.02,0-.06,0-.09,0-.03.23-.09.26-.08h0s0,0,0,0Z"/>
      <polygon points="85.49 18.72 85.49 18.72 85.49 18.72 85.49 18.72 85.49 18.72"/>
      <path d="M89.33,24.1c-.07.04-.1.12-.09.21.01.07.05.12.12.14.07.02.15.03.22.01.17-.03.32-.11.46-.2.04-.02.05-.03.07.02.12.38.19.78.19,1.18,0,.3-.04.6-.2.87-.07.12-.16.22-.3.25-.08.02-.11.09-.11.2,0,.08.04.13.12.15.22.05.42,0,.59-.15.19-.19.29-.42.35-.67.13-.59.09-1.18-.07-1.77,0-.03-.02-.06-.02-.1.03.02.06.03.09.05.41.27.83.54,1.29.73.26.11.53.17.81.14.17-.02.27-.12.28-.3.01-.19-.09-.33-.17-.45-.09-.12-.16-.2-.24-.28-.33-.33-.69-.62-1.09-.87-.21-.13-.43-.26-.66-.38-.18-.09-.37-.16-.58-.14-.11.01-.17.07-.18.19,0,.15.04.24.16.26.07.01.14.02.22,0,.02,0,.04,0,.06.01.11.06.23.13.34.19,0,0,.02.01.02.02,0,.02-.02.01-.03.02-.13.04-.26.09-.39.14-.04.01-.06.01-.09-.01-.11-.1-.25-.13-.4-.13-.14,0-.19.06-.19.19,0,.04,0,.09.02.13.02.05,0,.06-.04.08-.19.07-.37.17-.55.26ZM91.05,23.89c.14-.05.28-.09.42-.14.02,0,.05-.01.07,0,.35.25.67.51.93.85.03.04.05.07.08.11,0,.01.02.04.02.04-.01.01-.03,0-.04,0-.24-.08-.47-.2-.7-.33-.27-.15-.52-.32-.78-.49-.01,0-.03-.02-.03-.03,0-.02.02-.02.04-.02Z"/>
      <path d="M92.44,26.08c.03.12.09.17.24.18,0,0,.01,0,.02,0,0,0,.02,0,.02,0,0,0-.01.01-.02.02-.06.02-.12.04-.18.07,0,0-.02,0-.03,0-.07-.05-.15-.09-.18-.16-.06-.15-.19-.22-.33-.28-.02-.01-.05-.02-.07-.04-.08-.1-.18-.11-.29-.09-.05,0-.11.04-.16.03h0s0,.03,0,.03c-.06.07-.06.2,0,.26.14.12.23.29.38.41.03.03.03.04-.01.05-.38.13-.74.32-1.08.53-.07.04-.09.12-.07.21.02.08.07.12.15.13.1,0,.21-.02.3-.06.36-.16.73-.31,1.09-.47.03-.01.04-.01.07,0,.14.12.29.24.43.35.03.02.03.04,0,.05-.18.1-.35.21-.52.34-.13.1-.26.19-.36.32-.07.08-.07.18-.03.27.04.08.11.09.19.08.24-.01.44-.13.63-.27.05-.04.07-.09.06-.16,0-.03,0-.05.03-.07.12-.07.24-.15.36-.23.03-.02.05-.02.08,0,.09.07.17.15.26.22-.06,0-.13-.02-.19-.01-.09,0-.14.06-.16.15-.03.12.1.3.22.31.09,0,.19-.01.27,0,.12.03.23.08.34.12.02,0,.03.01.03.04-.02.17.01.21.17.26.18.06.35.13.52.22.01,0,.02.02.04.03-.01,0-.02.02-.04.03-.24.11-.5.2-.75.28-.04.01-.08.01-.12,0-.13-.06-.27-.11-.4-.17-.13-.05-.25-.08-.39-.07-.09,0-.14.05-.15.15-.01.1.03.18.11.2.09.03.18.07.26.1.01,0,.03.01.03.02,0,.02-.02.02-.03.02-.17.09-.32.19-.45.34-.13.15-.08.36.08.4.08.02.17.03.26.03.13,0,.19-.07.18-.2,0-.04.02-.06.05-.09.13-.09.27-.16.42-.22.06-.02.1-.02.16,0,.52.22,1.04.44,1.57.61.38.12.77.24,1.17.13l.07-.04c.18-.15.16-.33.09-.51,0-.01,0-.03-.01-.04l-.06-.1s-.02-.01-.02-.02c-.19-.3-.44-.54-.73-.75-.48-.35-1-.64-1.54-.87,0-.06,0-.12-.06-.18-.22-.22-.46-.43-.69-.64-.03-.03-.05-.04,0-.07.27-.13.54-.23.82-.34.22-.09.46-.15.66-.28.14-.09.18-.2.12-.35-.05-.13-.17-.2-.28-.25-.54-.26-1.11-.41-1.72-.4-.23,0-.46.04-.67.13-.13.06-.18.16-.15.29ZM95.22,29.11s.02-.01.03,0c.39.26.77.54,1.01.97.01.02.05.06.03.08-.02.03-.06.02-.1.01-.21-.03-.42-.1-.62-.17-.38-.13-.75-.28-1.12-.44-.01,0-.02-.01-.03-.02,0,0,.01-.01.02-.01.18-.06.35-.12.51-.2.1-.05.21-.1.28-.21ZM93.32,26.07s0,0,0,0h0s0,0,0,0ZM93.05,26.06s.24-.02.27,0c-.08.02-.16.05-.24.07-.02,0-.06.03-.06.01,0-.02.01-.06.03-.09ZM92.94,26.68c.31-.05.62-.1.92-.14.07-.01.15-.01.21-.06.08-.07.06-.15.03-.23,0-.01,0-.02-.01-.03.01,0,.02,0,.03,0,.18.06.35.12.52.21.01,0,.02.02.03.03,0,0-.02.01-.03.03-.21.08-.44.17-.66.25-.23.09-.45.18-.67.28-.03.01-.05,0-.07-.01-.1-.09-.21-.18-.31-.27-.01,0-.03-.01-.02-.03,0,0,.02-.01.04-.01Z"/>
      <path d="M96.69,31.1c.07-.02.11-.05.13-.1.02-.04.02-.09,0-.16,0-.02,0-.03-.02-.05-.04-.08-.11-.11-.22-.09-.03,0-.07.01-.09.02-.34.08-.65.23-.96.37-.02.01-.05.02-.07.03-.31.15-1.68.88-1.73.91-.11.06-.14.17-.09.28,0,.01.01.02.02.04.06.1.14.1.27.07.15-.04.29-.11.42-.18.03-.02.06-.03.09-.05.5.03,1.07.15,1.52.32-.11.06-.34.18-.61.38-.13.09-.25.18-.36.28-.18.15-.35.31-.49.48-.06.07-.12.13-.17.2-.03.04-.04.08-.04.13,0,.05.02.09.03.12h0c.03.07.1.11.17.1.11-.01.25-.04.37-.14.04-.04.06-.08.08-.12.01-.02.02-.05.03-.06.03-.05.17-.18.36-.34,1.06-.88,2.12-1.07,2.2-1.09.07-.02.11-.05.13-.1.02-.04.02-.09,0-.16,0-.02,0-.03-.02-.05-.04-.08-.11-.11-.22-.09-.03,0-.07.01-.09.02-.9.26-1.8-.16-2.19-.26.04-.02.07-.04.11-.06.45-.24.92-.48,1.41-.65Z"/>
      <path d="M96.78,33.63c-.13.03-.2.13-.2.25,0,.12.06.18.2.22,0,0,.01,0,.02,0,0,0,.02,0,.02,0,0,0-.02.01-.03.01-.06.01-.12.02-.18.03-.01,0-.03,0-.03,0-.06-.06-.13-.11-.15-.19-.03-.16-.15-.25-.27-.34-.02-.02-.05-.03-.06-.05-.06-.11-.16-.14-.27-.14-.06,0-.11.02-.17,0h-.01s0,.02-.01.03c-.07.06-.1.19-.05.26.12.14.18.32.29.47.03.03.03.05-.02.05-.4.05-.78.17-1.16.32-.07.03-.11.1-.1.19,0,.08.04.14.12.15.1.02.2.02.31,0,.39-.09.77-.17,1.16-.26.03,0,.05,0,.06.02.12.14.24.28.36.43.02.03.02.04-.02.05-.2.07-.39.15-.57.24-.14.07-.29.14-.41.24-.09.07-.11.16-.08.26.02.08.09.11.17.12.24.03.46-.05.67-.15.06-.03.09-.08.09-.14,0-.03,0-.05.04-.06.13-.05.26-.1.39-.16.03-.01.05,0,.08.02.2.25.41.5.61.75,0,0,.01.01.02.02-.09-.03-.19-.04-.29-.04-.09,0-.15.05-.17.13-.06.17,0,.31.08.46.13.25.26.49.39.74,0,0,0,.02.01.02,0,0-.02,0-.02-.02-.06-.07-.12-.14-.18-.21-.22-.24-.43-.49-.68-.69-.11-.09-.25-.09-.37-.09-.13.04-.16.23-.06.33.32.31.62.64.91.98.22.26.42.52.66.76.13.13.28.17.45.17.12,0,.19-.07.21-.18.03-.18-.03-.35-.09-.51-.15-.4-.36-.77-.57-1.14,0-.01-.01-.03-.02-.04.01,0,.03.01.04.02.19.14.38.29.56.44.36.29.72.59,1.08.88.12.1.27.13.43.12.08,0,.13-.05.15-.12.03-.1,0-.18-.06-.22-.08-.04-.15-.08-.22-.14-.24-.2-.49-.41-.73-.61-.39-.32-.78-.63-1.21-.91.02,0,.04,0,.06,0,.17-.01.24-.17.15-.31-.18-.26-.37-.51-.56-.76-.02-.03-.04-.05.02-.07.28-.07.57-.13.86-.18.24-.04.48-.07.7-.15.15-.06.21-.17.18-.33-.03-.14-.13-.22-.23-.3-.48-.36-1.02-.61-1.61-.71-.23-.04-.46-.05-.69,0ZM97.18,33.98s.24.03.27.05h0s0,0,0,0c-.08,0-.17.02-.25.03-.02,0-.06.02-.06,0,0-.03.02-.06.04-.08ZM98.11,34.56c.09-.05.09-.14.07-.22,0-.01,0-.02,0-.03,0,0,.02,0,.03.01.16.09.32.18.47.3.01,0,.02.02.03.03,0,0-.02,0-.04.02-.23.04-.46.09-.69.13-.24.04-.48.09-.71.15-.03,0-.05,0-.07-.02-.08-.11-.17-.21-.26-.32,0-.01-.03-.02-.02-.03,0,0,.03,0,.04,0,.31,0,.62.02.93.03.07,0,.15.01.21-.03Z"/>
      <path d="M97.2,39.12c.08.13.19.19.34.19.08,0,.16.01.21-.07.05-.08.05-.16,0-.25-.08-.15-.16-.28-.25-.42-.23-.35-.49-.68-.74-1.01-.24-.31-.46-.63-.72-.92-.12-.13-.26-.18-.43-.18-.07,0-.12.03-.14.1-.03.12.02.24-.02.34.02.05.04.08.06.1.34.25.62.57.87.9.29.39.55.8.82,1.21Z"/>
      <path d="M99.58,39.72c-.05.1-.05.2.07.26.01,0,.02.02.04.04-.02,0-.03,0-.05,0-.35-.01-.69-.02-1.04-.05-.73-.05-1.46-.08-2.17-.28-.13-.04-.18,0-.22.13,0,.02,0,.05-.01.07v.04c.04.07.13.09.17.15.14.17.26.37.37.56.24.44.44.89.61,1.36.01.03.03.07.03.1.01.18.15.23.29.26.02,0,.04,0,.06.01l.09-.02c.06-.05.09-.12.12-.19.05-.12.03-.15-.07-.22-.01,0-.02-.02-.03-.04-.21-.58-.47-1.14-.79-1.67,0,0-.02-.02-.01-.03,0-.01.02,0,.04,0,.11.02.21.03.32.05.71.09,1.42.13,2.14.15.23,0,.46.02.69,0,.14-.01.24-.17.16-.3-.15-.24-.35-.42-.64-.48-.07-.01-.13.01-.16.08Z"/>
      <path d="M8.13,52.33c0,24.37,19.83,44.2,44.2,44.2s44.2-19.83,44.2-44.2S76.7,8.13,52.33,8.13,8.13,27.95,8.13,52.33ZM26.05,87.18h11.13v-12.68h8.21v12.68h12.68v-12.68h7.98v12.68h12.56c-7.32,5.53-16.42,8.81-26.27,8.81s-18.96-3.29-26.27-8.81ZM37.18,61.82v-14.92h8.21v14.92h-8.21ZM58.07,61.82v-14.92h7.98v14.92h-7.98ZM24.49,18.7v11.42h20.89v-12.68h-19.29c7.31-5.51,16.39-8.78,26.23-8.78,24.08,0,43.67,19.59,43.67,43.67,0,14.17-6.78,26.77-17.27,34.76v-12.58l-7.46-6.34,7.46-6.34v-27.2h-20.66v-4.5h20.66v-12.55c-.06-.05-.12-.09-.18-.14h-20.48l-12.68,12.68v4.5h-20.89v51.34c-9.67-8.02-15.84-20.11-15.84-33.63s6.17-25.61,15.84-33.63Z"/>
      <path d="M86.88,78.94h-7.18v7.35c2.67-2.16,5.08-4.63,7.18-7.35Z"/>
    </g>
  </g>
</svg>