<?xml version="1.0" encoding="UTF-8"?>
<svg id="Camada_2" data-name="Camada 2" xmlns="http://www.w3.org/2000/svg" viewBox="0 0 269.04 98.95">
  <g id="Camada_1-2" data-name="Camada 1">
    <g>
      <g>
        <g>
          <path d="M124.87,14.29v.18c-.41,1.32-1.41,2.13-2.61,2.55-3.26,1.15-6.57,2.16-9.86,3.24-.91.3-1.82.61-2.73.92-.16.05-.29.1-.33.31-.82,4.25-1.86,8.47-1.99,12.83-.02.64-.13,8.09.07,8.75.47,1.53-.71,3.7-2.2,4.27-.91.35-1.96-.29-2.17-1.36-.35-1.77-.06-10.38.05-12.16.22-3.56.99-7.03,1.73-10.51.1-.49,0-.56-.45-.38-.31.12-.64.19-.97.27-.93.22-1.81-.3-2.01-1.24-.09-.44-.23-.42-.6-.3-2.99,1.02-5.88,2.28-8.82,3.42-1.23.48-1.94.22-2.52-.81-.28-.51-.26-.99.11-1.44.88-1.07,1.99-1.84,3.21-2.45.08-.04.17-.09.26-.09,1.75.11,3.14-.92,4.67-1.47,6.69-2.42,13.47-4.48,20.46-5.85,1.41-.28,2.83-.44,4.28-.4,1.45.04,1.96.41,2.41,1.74Z"/>
          <path d="M142.76,46.43c-.22.63-.74,1-1.4,1h-.03c-.31,0-.7-.03-1.07-.17-.4-.15-.7-.42-.9-.8-.34-.66-.66-1.34-.97-2.04-.76-1.75-1.41-3.61-1.95-5.56-.34-1.23-.63-2.51-.87-3.81-.52-2.8-.67-5.01-.73-6.12-2.96,2.95-5.9,6.89-7.95,10.69.02.29.04.59.06.87.1,1.27.2,2.58-.07,3.9-.24,1.13-.55,1.73-1.57,1.87-.11.02-.23.02-.34.02-1.04,0-1.76-.68-1.82-1.72-.03-.56-.83-13.79-.84-16.73,0-.23,0-.46,0-.68-.02-2.88-.04-5.86.52-8.78.05-.23.1-.51.19-.78.29-.92.79-1.36,1.51-1.36.13,0,.26.01.41.04.61.12,1,.33,1.25.65.25.33.34.76.28,1.37-.46,4.42-.24,8.92-.03,13.27.02.34.03.68.05,1.02,2.16-2.67,8.62-8.14,9.86-16.07.04-.24.1-.51.19-.78.29-.92.79-1.36,1.51-1.36.13,0,.26.01.41.04.61.12,1,.33,1.25.65.25.33.34.76.28,1.37-.07.68-2.45,9.58.62,21.01.56,2.07,1.14,3.6,1.38,4.03.1.17.23.33.38.5.25.29.53.61.66,1.07.37,1.3.06,2.5-.25,3.4Z"/>
          <path d="M161.18,12.83c-.27.36-.61.67-.96.96-.89.73-1.76,1.48-2.67,2.18-.41.32-.5.65-.35,1.13.33,1.07.61,2.15.94,3.21.15.49.25,1,.57,1.44.4.56.35,1.22.17,1.83-.19.6-.61,1.02-1.27,1.14-.9.16-1.71-.3-2.13-1.24-.3-.66-.54-1.35-.77-2.05-.27-.81-.56-1.62-.84-2.44-.06-.19-.17-.22-.33-.13-.06.03-.11.06-.17.1-1.6,1-3.13,2.08-4.41,3.49-.3.33-.65.63-.91,1.01-.94,1.37-2.83,1.72-4.43.65-.27-.19-.62-.63-.89-1.14-.65-1.23-.14-2.9.65-3.58.82-.7,1.78-.9,2.8-.9.37,0,.71-.04,1.04-.19,1.31-.61,2.61-1.22,3.92-1.83.43-.2.85-.4,1.27-.6.34-.17.37-.22.26-.56-.13-.42-.27-.83-.4-1.25-.32-1.02-.67-2.03-.85-3.09-.21-1.22.91-2.28,2.12-2.03.65.14,1.05.51,1.31,1.11.44,1.01.78,2.06,1.16,3.1.11.3.16.31.41.16.16-.1.32-.22.47-.34.84-.63,1.68-1.26,2.53-1.89.56-.41,1.14-.41,1.61-.02.55.45.62,1.18.17,1.78ZM154.08,22.35c.05.53-.11,1.03-.24,1.53-.5,1.91-1.15,3.78-1.76,5.66-.57,1.77-1.12,3.55-1.61,5.35-.01.05-.03.09-.04.14-.06.31.02.39.32.32.19-.04.38-.07.57-.09.82-.09,1.94.83,1.89,1.83-.03.62-.14,1.22-.23,1.83-.21,1.41-.46,2.81-.84,4.19-.3,1.1-.65,2.17-1.34,3.1-.6.8-1.36,1.28-2.4,1.21-.76-.05-1.37-.38-1.81-.99-.56-.78-.83-1.68-.97-2.62-.09-.6-.1-1.19-.1-1.5-.02-2.02.28-3.71.68-5.38.63-2.65,1.49-5.23,2.46-7.78.12-.32.23-.64.36-.95.17-.39.32-.77.13-1.21-.09-.2.02-.41.12-.6.37-.72.72-1.45,1.11-2.16.39-.69.73-1.41,1.03-2.14.27-.66.77-.96,1.45-.92.65.04,1.15.53,1.21,1.18Z"/>
          <path d="M157.68,34.81c.36-.36.36-.88.55-1.31.39-.92.94-1.59,1.99-1.73.22-.03.41-.18.6-.31,1.07-.71,2.13-1.33,3.54-1.1.63.1,1.31-.32,1.94-.59.06-.02.08-.16.09-.24.11-.52.22-1.05.32-1.57.02-.08,0-.16-.01-.24-.05.05-.1.1-.15.15-.04.05-.07.1-.1.15-.73,1.05-1.35,1.29-2.35.93-1.04-.38-1.58-1.23-1.41-2.38.29-1.98,1.09-3.78,2.11-5.47,2.69-4.43,6.36-7.9,10.72-10.66.94-.59,1.94-1.15,3.13-.92,1.37.27,2.04,1.08,2.03,2.47-.02,2.08-.58,4.07-.96,6.09-.46,2.47-.96,4.94-1.26,7.44-.06.52.13.44.47.35,2.58-.75,5.15-1.51,7.77-2.1,1.43-.32,2.43.75,2.02,2.13-.37,1.24-1.02,2.08-2.4,2.46-2.66.72-5.27,1.65-7.9,2.48-.3.09-.41.23-.41.54.02,1.21.03,2.41.01,3.62,0,.28.11.42.35.51.52.19.84.57.87,1.13.09,1.99.1,3.97-.92,5.79-.33.59-.73,1.1-1.48,1.02-.88-.09-1.55-.54-1.83-1.43-.41-1.32-.53-2.69-.65-4.06-.15-1.77-.19-3.54-.1-5.31.02-.34-.06-.39-.37-.29-1.5.52-3,1.02-4.51,1.52-.24.08-.32.21-.36.45-.51,3.35-1.03,6.7-1.53,10.05-.14.89-.45,1.71-.95,2.45-.39.57-.96.71-1.62.51-.79-.25-1.22-.74-1.22-1.42,0-3.44.23-6.86,1.05-10.22.1-.39,0-.44-.35-.33-1.52.47-3.14.39-4.66.88-.72.23-1.64-.42-1.9-1.16-.03-.09-.06-.17-.17-.19v-.09h0ZM166.74,24.46c.11.24.3.54.52.6.2.05.15-.33.21-.52.2-.68.37-1.38.55-2.07h-.03s.02.02.02.02c-.3.1-1.38,1.72-1.26,1.97ZM176.87,14.72c-.02-.18-.03-.27-.05-.35-.11.04-.23.06-.33.12-1.38.79-2.62,1.79-3.83,2.82-.07.06-.11.13-.17.2.09.02.19.05.28.08.72.18,1.4.42,1.53,1.29.1.65-.22,1.21-.46,1.78-1.04,2.46-2.09,4.91-3.14,7.37-.05.11-.12.27-.08.33.08.12.22,0,.33-.04,1.12-.35,2.24-.71,3.36-1.05.25-.08.37-.2.4-.47.22-2.06.6-4.1,1-6.14.39-2,.78-4.01,1.15-5.94Z"/>
          <path d="M198.24,34.96c-1.58,1.22-3.17,2.44-4.75,3.66-.66.51-1.31,1.05-1.99,1.54-.6.44-1.43.34-2.17-.2-.56-.41-.54-.96-.36-1.56.38-1.23.93-2.22,2.12-2.99,2.07-1.34,3.93-3,5.92-4.46,1.62-1.19,3.16-2.53,5.19-3.01,1.46-.34,2.58.8,2.25,2.25-.27,1.2-.84,2.25-1.47,3.29-1.12,1.84-2.17,3.72-2.8,5.8-.04.14-.05.29-.07.44.14-.04.29-.07.42-.14.9-.45,1.8-.91,2.69-1.38.71-.38,1.4-.32,2.07.26.53.45.53,1.01.34,1.66-.4,1.42-1.32,2.33-2.65,2.88-.27.11-.29.23-.24.54.24,1.29-.28,2.39-1.15,3.26-.81.81-2.26.81-3.48.15-.5-.27-.96-.61-1.26-1.11-.15-.26-.31-.29-.6-.21-1.87.48-3.74.93-5.69.6-3.96-.67-6.38-3.36-6.59-7.4-.26-5.08,1.15-9.79,3.43-14.26,1.74-3.41,3.99-6.44,7.25-8.58,1.8-1.18,3.77-1.86,5.92-1.98,1.36-.07,2.61.29,3.71,1.08,1.22.86,1.69,2.1,1.41,3.53-.58,2.95-2.27,5.3-4.29,7.44-.84.89-1.76,1.69-2.81,2.34-.62.38-1.4.28-2.07-.27-.55-.45-.56-1-.33-1.61.39-1.07.96-1.94,1.96-2.61,1.44-.97,2.61-2.25,3.52-3.75.52-.86.13-1.61-.87-1.64-2.33-.07-4.34.84-6.1,2.25-3.73,2.99-5.71,7-6.53,11.63-.29,1.66-.46,3.32-.3,5.01.31,3.26,2.06,4.71,5.3,4.37.93-.1,1.84-.29,2.74-.53.23-.06.36-.16.41-.41.4-1.87,1.05-3.66,1.81-5.42.06-.15.19-.29.08-.47,0,0,0,.01,0,.02,0,0,.01-.02.02-.02h0Z"/>
          <path d="M219.96,46.96c-3.81.91-7.42.59-10.75-1.61-2.87-1.89-3.9-4.65-3.6-7.94.41-4.52,2.35-8.46,4.91-12.12,1.86-2.66,4.09-4.98,6.8-6.8.09-.06.38-.09.14-.3-.73-.59-.62-1.28-.2-1.96.52-.82.9-1.84,2.12-1.86,2.35-.03,4.54.46,6.43,1.96.39.31.84.56,1.26.83.42.28.71.67.94,1.1,1.99,3.69,3.32,7.58,3.72,11.77.07.79.12,1.58.17,2.37.19,6.68-4.52,12.78-11.94,14.54ZM227.91,34.03c-.07-2.8-.42-5.21-1.11-7.57-.03-.12,0-.31-.17-.32-.05,0-.13.18-.18.29-.43.96-.66,2-1.38,2.82-.53.59-1.16.74-1.84.36-.72-.4-.97-.99-.67-1.77.35-.94.75-1.87,1.12-2.81.4-1.02.84-2.03.96-3.14.06-.59-.66-1.36-1.24-1.35-1.53.05-2.95.53-4.25,1.29-4.75,2.76-7.8,6.83-9.2,12.14-.37,1.43-.55,2.89-.32,4.36.37,2.39,1.96,3.94,4.68,4.49,4.07.83,7.69-.32,11.01-2.65,1.38-.96,2.18-2.28,2.39-3.95.1-.85.16-1.7.2-2.2Z"/>
        </g>
        <g>
          <path d="M102.03,70.04c-.27.1-.53.24-.8.35.27.11.53.22.8.32,4.83,1.86,9.14,4.51,12.61,8.39,1.47,1.65,2.59,3.51,2.92,5.76.29,1.98-.41,3.57-1.87,4.85-.5.44-1.1.43-1.66.07-.8-.52-1.1-1.09-.83-1.74.49-1.18.24-2.28-.25-3.36-1.09-2.41-2.94-4.18-5.02-5.72-2.77-2.05-5.83-3.54-9.11-4.62-.4-.13-.45-.04-.48.35-.14,1.44-.28,2.89-.94,4.21-.28.58-.74,1.05-1.22,1.48-.47.42-1.02.46-1.57.17-.74-.38-1.13-1-1.02-1.69.26-1.72.51-3.44.96-5.13.1-.38.1-.6-.35-.67-.37-.06-.67-.27-.96-.5-.91-.71-1-1.35-.37-2.32.7-1.08,1.6-1.87,2.89-2.16.32-.07.47-.26.56-.58.33-1.14.7-2.28,1.04-3.41.03-.09.13-.21.02-.29-.05-.03-.17.02-.25.06-1.01.47-2.01.95-3.02,1.42-.18.08-.29.22-.38.38-.3.55-.71,1.03-1.16,1.46-.7.67-1.57.59-2.58-.22-.78-.64-.89-1.32-.4-2.17.91-1.55,2.3-2.54,3.85-3.35,1.92-1.01,3.91-1.87,5.92-2.68,3.71-1.49,7.52-2.59,11.48-3.21.95-.15,1.91-.24,3.16-.24,1.2.08,2.71.09,3.96,1.11,1.14.93,1.37,2.17.63,3.45-1.22,2.11-3.01,3.63-5.04,4.89-3.61,2.24-7.54,3.8-11.5,5.29ZM108.32,63.26c2-.92,3.96-1.91,5.75-3.2.1-.07.3-.13.25-.28-.02-.07-.24-.09-.37-.1-.38-.01-.76,0-1.14,0-3.66.08-7.13,1.02-10.57,2.18-.24.08-.33.24-.39.45-.37,1.19-.75,2.39-1.12,3.58-.04.12-.17.27-.03.37.06.05.23-.03.34-.07,2.46-.91,4.91-1.84,7.29-2.94Z"/>
          <path d="M115.99,72.77c.36-.36.36-.88.55-1.31.39-.92.94-1.59,1.99-1.73.22-.03.41-.18.6-.31,1.07-.71,2.13-1.33,3.54-1.1.63.1,1.31-.32,1.94-.59.06-.02.08-.16.09-.24.11-.52.22-1.05.32-1.57.02-.08,0-.16-.01-.24-.05.05-.1.1-.15.15-.04.05-.07.1-.1.15-.73,1.05-1.35,1.29-2.35.93-1.04-.38-1.58-1.23-1.41-2.38.29-1.98,1.09-3.78,2.11-5.47,2.69-4.43,6.36-7.9,10.72-10.66.94-.59,1.94-1.15,3.13-.92,1.37.27,2.04,1.08,2.03,2.47-.02,2.08-.58,4.07-.96,6.09-.46,2.47-.96,4.94-1.26,7.44-.06.52.13.44.47.35,2.58-.75,5.15-1.51,7.77-2.1,1.43-.32,2.43.75,2.02,2.13-.37,1.24-1.02,2.08-2.4,2.46-2.66.72-5.27,1.65-7.9,2.48-.3.09-.41.23-.41.54.02,1.21.03,2.41.01,3.62,0,.28.11.42.35.51.52.19.84.57.87,1.13.09,1.99.1,3.97-.92,5.79-.33.59-.73,1.1-1.48,1.02-.88-.09-1.55-.54-1.83-1.43-.41-1.32-.53-2.69-.65-4.06-.15-1.77-.19-3.54-.1-5.31.02-.34-.06-.39-.37-.29-1.5.52-3,1.02-4.51,1.52-.24.08-.32.21-.36.45-.51,3.35-1.03,6.7-1.53,10.05-.14.89-.45,1.71-.95,2.45-.39.57-.96.71-1.62.51-.79-.25-1.22-.74-1.22-1.42,0-3.44.23-6.86,1.05-10.22.1-.39,0-.44-.35-.33-1.52.47-3.14.39-4.66.88-.72.23-1.64-.42-1.9-1.16-.03-.09-.06-.17-.17-.19v-.09h0ZM125.05,62.42c.11.24.3.54.52.6.2.05.15-.33.21-.52.2-.68.37-1.38.55-2.07h-.03s.02.02.02.02c-.3.1-1.38,1.72-1.26,1.97ZM135.18,52.68c-.02-.18-.03-.27-.05-.35-.11.04-.23.06-.33.12-1.38.79-2.62,1.79-3.83,2.82-.07.06-.11.13-.17.2.09.02.19.05.28.08.72.18,1.4.42,1.53,1.29.1.65-.22,1.21-.46,1.78-1.04,2.46-2.09,4.91-3.14,7.37-.05.11-.12.27-.08.33.08.12.22,0,.33-.04,1.12-.35,2.24-.71,3.36-1.05.25-.08.37-.2.4-.47.22-2.06.6-4.1,1-6.14.39-2,.78-4.01,1.15-5.94Z"/>
          <path d="M172.53,54.27v.64c-.85,3.51-3.29,5.93-5.76,8.3-3.48,3.33-7.26,6.31-11.03,9.3-.4.32-.59.66-.66,1.17-.17,1.37-.24,2.74-.06,4.11.04.31.11.53.45.7,1,.49,1.21,1.16.74,2.18-.32.69-.74,1.31-1.26,1.85-.99,1.05-2.74.53-3.32-1.02-.58-1.52-.74-3.11-.7-4.73,0-.11.11-.27-.03-.32-.07-.03-.21.1-.3.17-.62.51-1.27,1-1.84,1.58-.52.53-1.26.51-1.96,0-.69-.5-.85-1.06-.52-1.79.49-1.07,1.23-1.92,2.15-2.63.98-.76,1.93-1.55,2.9-2.31.3-.23.45-.48.52-.86.41-2.25.81-4.51.95-6.8,0-.13-.02-.26-.03-.39-.12.05-.25.08-.36.15-1.37.86-2.56,1.93-3.76,2.99-1.07.95-1.47.98-2.65.18-.21-.14-.3-.05-.42.06-.78.69-1.61,1.33-2.31,2.09-.52.57-.73,1.37-1.18,2.03-.61.9-2.45,1.1-3.26.41-.6-.51-.79-1.05-.45-1.78.58-1.24,1.51-2.21,2.47-3.15,5.3-5.15,11.25-9.38,17.95-12.51,2.72-1.27,5.57-2.15,8.59-2.39.09,0,.18-.04.26-.07h1.01c.12.03.23.06.35.08,1.7.25,3.16.8,3.5,2.76ZM168.54,55.94c-.1-.24-.47-.12-.71-.12-4.16.04-7.82,1.71-11.4,3.59-.11.06-.21.1-.11.27.55.92.48,1.93.45,2.94-.05,1.56-.31,3.1-.56,4.67,0,.03.02.11.03.18.1-.06.22-.1.3-.17,2.68-2.15,5.34-4.33,7.89-6.63,1.36-1.23,2.69-2.49,3.8-3.96.18-.23.42-.52.31-.77Z"/>
          <path d="M192.33,84.39c-.22.63-.74,1-1.4,1h-.03c-.31,0-.7-.03-1.07-.17-.4-.15-.7-.42-.9-.8-.34-.66-.66-1.34-.97-2.04-.76-1.75-1.41-3.61-1.95-5.56-.34-1.23-.63-2.51-.87-3.81-.52-2.8-.67-5.01-.73-6.12-2.96,2.95-5.9,6.89-7.95,10.69.02.29.04.59.06.87.1,1.27.2,2.58-.07,3.9-.24,1.13-.55,1.73-1.57,1.87-.11.02-.23.02-.34.02-1.04,0-1.76-.68-1.82-1.72-.03-.56-.83-13.79-.84-16.73,0-.23,0-.46,0-.68-.02-2.88-.04-5.86.52-8.78.05-.23.1-.51.19-.78.29-.92.79-1.36,1.51-1.36.13,0,.26.01.41.04.61.12,1,.33,1.25.65.25.33.34.76.28,1.37-.46,4.42-.24,8.92-.03,13.27.02.34.03.68.05,1.02,2.16-2.67,8.62-8.14,9.86-16.07.04-.24.1-.51.19-.78.29-.92.79-1.36,1.51-1.36.13,0,.26.01.41.04.61.12,1,.33,1.25.65.25.33.34.76.28,1.37-.07.68-2.45,9.58.62,21.01.56,2.07,1.14,3.6,1.38,4.03.1.17.23.33.38.5.25.29.53.61.66,1.07.37,1.3.06,2.5-.25,3.4Z"/>
          <path d="M190.44,72.77c.36-.36.36-.88.55-1.31.39-.92.94-1.59,1.99-1.73.22-.03.41-.18.6-.31,1.07-.71,2.13-1.33,3.54-1.1.63.1,1.31-.32,1.94-.59.06-.02.08-.16.09-.24.11-.52.22-1.05.32-1.57.02-.08,0-.16-.01-.24-.05.05-.1.1-.15.15-.04.05-.07.1-.1.15-.73,1.05-1.35,1.29-2.35.93-1.04-.38-1.58-1.23-1.41-2.38.29-1.98,1.09-3.78,2.11-5.47,2.69-4.43,6.36-7.9,10.72-10.66.94-.59,1.94-1.15,3.13-.92,1.37.27,2.04,1.08,2.03,2.47-.02,2.08-.58,4.07-.96,6.09-.46,2.47-.96,4.94-1.26,7.44-.06.52.13.44.47.35,2.58-.75,5.15-1.51,7.77-2.1,1.43-.32,2.43.75,2.02,2.13-.37,1.24-1.02,2.08-2.4,2.46-2.66.72-5.27,1.65-7.9,2.48-.3.09-.41.23-.41.54.02,1.21.03,2.41.01,3.62,0,.28.11.42.35.51.52.19.84.57.87,1.13.09,1.99.1,3.97-.92,5.79-.33.59-.73,1.1-1.48,1.02-.88-.09-1.55-.54-1.83-1.43-.41-1.32-.53-2.69-.65-4.06-.15-1.77-.19-3.54-.1-5.31.02-.34-.06-.39-.37-.29-1.5.52-3,1.02-4.51,1.52-.24.08-.32.21-.36.45-.51,3.35-1.03,6.7-1.53,10.05-.14.89-.45,1.71-.95,2.45-.39.57-.96.71-1.62.51-.79-.25-1.22-.74-1.22-1.42,0-3.44.23-6.86,1.05-10.22.1-.39,0-.44-.35-.33-1.52.47-3.14.39-4.66.88-.72.23-1.64-.42-1.9-1.16-.03-.09-.06-.17-.17-.19v-.09h0ZM199.5,62.42c.11.24.3.54.52.6.2.05.15-.33.21-.52.2-.68.37-1.38.55-2.07h-.03s.02.02.02.02c-.3.1-1.38,1.72-1.26,1.97ZM209.63,52.68c-.02-.18-.03-.27-.05-.35-.11.04-.23.06-.33.12-1.38.79-2.62,1.79-3.83,2.82-.07.06-.11.13-.17.2.09.02.19.05.28.08.72.18,1.4.42,1.53,1.29.1.65-.22,1.21-.46,1.78-1.04,2.46-2.09,4.91-3.14,7.37-.05.11-.12.27-.08.33.08.12.22,0,.33-.04,1.12-.35,2.24-.71,3.36-1.05.25-.08.37-.2.4-.47.22-2.06.6-4.1,1-6.14.39-2,.78-4.01,1.15-5.94Z"/>
          <path d="M243.31,74.68c-.43,1.18-1.2,1.91-2.48,2.25-4.04,1.08-8.09,2.13-12.04,3.49-3.39,1.17-6.69,2.6-9.64,4.7-.25.18-.52.24-.98.26-.73-.53-1.84-.45-2.71-1.03-.49-.33-.63-.81-.46-1.37.41-1.4,1.17-2.47,2.57-3.08,3.07-1.33,6.25-2.35,9.4-3.46,3.38-1.19,6.73-2.48,10.2-3.39,1.36-.36,2.72-.7,4.1-.94.82-.14,1.49.11,2.02.7.52.58.24,1.24.01,1.86ZM217.77,68.53c.46-1.73,1.49-3.09,2.85-4.22,3.35-2.79,7.01-5.16,10.64-7.55,2.27-1.49,4.57-2.95,6.87-4.39.64-.4,1.18-.9,1.73-1.41.5-.46,1.17-.42,1.93.08.55.35.77.86.59,1.49-.35,1.29-.97,2.4-2.12,3.15-3.33,2.16-6.67,4.3-9.99,6.48-1.7,1.11-3.35,2.29-5.02,3.44-.11.07-.19.18-.28.28.12-.01.24-.02.35-.04,3.57-.67,7.13-1.42,10.76-1.62,1.5-.08,3-.12,4.39.59.9.45,1.24,1.18.96,2.15-.42,1.42-1.19,2.55-2.54,3.25-2.55,1.32-5.26,2.28-7.91,3.38-3.51,1.46-6.99,2.99-10.32,4.82-1.05.58-2.5-.14-2.5-1.34.3-.98.64-2.06,1.69-2.75,2.32-1.53,4.87-2.6,7.39-3.73.72-.33,1.46-.62,2.19-.93.07-.03.12-.1.19-.15-.07,0-.15,0-.22.02-2.36.43-4.71.87-7.07,1.27-1.35.23-2.71.37-3.92-.52-.61-.45-.83-1.04-.63-1.77Z"/>
          <path d="M245.2,86.96c-.18-.08-.38-.15-.55-.25-.99-.58-1.19-1.07-.63-2.07,3.1-5.48,4.91-11.47,6.83-17.41.91-2.83,1.7-5.69,2.54-8.54.04-.13.05-.27.07-.4-.12.08-.28.13-.37.23-.74.85-1.6.63-2.3.04-.49-.41-.58-.92-.31-1.49,1.09-2.28,3.03-3.54,5.32-4.3,1.18-.39,2.33.72,2.13,1.94-.33,1.94-.92,3.81-1.46,5.7-1.69,5.87-3.52,11.69-5.72,17.39-.33.86-.72,1.71-1.07,2.56-.04.09-.16.2-.06.3.04.04.18-.01.27-.04,5.05-1.55,10.22-2.48,15.47-3.04.14-.02.26-.05.37-.15.8-.73,1.12-.79,1.97-.14.5.38,1.04.76,1.32,1.37v.83c-.08.14-.15.29-.23.43-.59,1.12-1.23,2.17-2.78,1.9-.29-.05-.61,0-.91.04-4.25.41-8.45,1.15-12.59,2.2-1.86.47-3.69,1.04-5.44,1.86-.58.27-.9.9-1.56,1.04h-.33Z"/>
        </g>
      </g>
      <g>
        <rect width="29.63" height="17.99"/>
        <path d="M29.63,17.99h0v6.39H0v74.57h17.99v-17.99h11.64v17.99h17.99v-17.99h11.32v17.99h17.99v-17.99l-10.58-8.99,10.58-8.99V24.38h-29.31v-6.39h29.31V0h-29.31l-17.99,17.99ZM29.63,62.97h-11.64v-21.17h11.64v21.17ZM47.62,41.8h11.32v21.17h-11.32v-21.17Z"/>
        <rect x="78.31" y="87.25" width="11.69" height="11.7"/>
      </g>
    </g>
  </g>
</svg>