<?xml version="1.0" encoding="UTF-8"?>
<svg id="Camada_2" data-name="Camada 2" xmlns="http://www.w3.org/2000/svg" viewBox="0 0 193.37 87.3">
  <g id="Camada_1-2" data-name="Camada 1">
    <g>
      <g>
        <path d="M55.12,5.8v.2c-.44,1.42-1.52,2.29-2.81,2.74-3.51,1.23-7.07,2.33-10.6,3.48-.98.32-1.96.66-2.94.99-.17.06-.31.1-.36.34-.88,4.57-2,9.11-2.14,13.8-.02.69-.14,8.7.07,9.41.5,1.65-.76,3.98-2.37,4.6-.97.37-2.11-.32-2.34-1.47-.37-1.91-.06-11.17.05-13.09.23-3.83,1.07-7.57,1.86-11.31.11-.53,0-.6-.48-.41-.33.13-.69.21-1.04.29-1,.24-1.95-.32-2.16-1.33-.1-.47-.25-.46-.64-.32-3.22,1.09-6.33,2.45-9.49,3.68-1.33.51-2.09.23-2.71-.87-.31-.54-.28-1.06.12-1.55.95-1.15,2.14-1.98,3.46-2.64.09-.04.19-.1.28-.09,1.88.12,3.38-.99,5.03-1.59,7.19-2.61,14.49-4.82,22.01-6.29,1.51-.3,3.05-.47,4.6-.43,1.56.04,2.11.44,2.59,1.87Z"/>
        <path d="M74.37,40.37c-.23.68-.8,1.08-1.51,1.08h-.04c-.33,0-.76-.03-1.15-.19-.43-.17-.75-.46-.96-.86-.37-.71-.71-1.44-1.04-2.19-.82-1.88-1.52-3.88-2.09-5.98-.36-1.33-.67-2.7-.93-4.1-.56-3.02-.72-5.39-.79-6.58-3.18,3.17-6.34,7.41-8.56,11.5.02.31.04.63.07.94.11,1.37.22,2.78-.08,4.2-.26,1.22-.59,1.86-1.69,2.01-.12.02-.25.02-.36.02-1.12,0-1.89-.73-1.96-1.85-.04-.6-.89-14.84-.91-18,0-.25,0-.49,0-.74-.02-3.1-.04-6.31.56-9.44.05-.25.11-.55.2-.84.31-.99.85-1.47,1.63-1.47.14,0,.28.02.44.05.65.13,1.08.35,1.34.69.27.35.37.82.3,1.48-.49,4.75-.26,9.59-.03,14.27.02.37.04.73.05,1.1,2.32-2.87,9.28-8.75,10.61-17.28.04-.25.11-.55.2-.84.31-.99.85-1.47,1.63-1.47.14,0,.28.02.44.05.65.13,1.08.35,1.34.69.27.35.37.82.3,1.48-.08.74-2.64,10.31.66,22.6.6,2.22,1.23,3.87,1.49,4.33.1.18.25.35.4.53.26.31.57.66.71,1.16.4,1.4.07,2.69-.27,3.66Z"/>
        <path d="M94.17,4.22c-.29.39-.66.72-1.04,1.03-.95.79-1.89,1.59-2.87,2.35-.44.34-.54.7-.38,1.22.35,1.15.66,2.31,1.01,3.46.16.53.27,1.07.61,1.54.43.6.38,1.31.18,1.96-.2.65-.66,1.1-1.37,1.22-.97.17-1.83-.32-2.29-1.34-.32-.72-.58-1.46-.83-2.2-.29-.88-.6-1.75-.9-2.62-.07-.2-.18-.24-.36-.14-.06.03-.12.07-.18.1-1.72,1.07-3.36,2.24-4.74,3.75-.33.36-.7.68-.98,1.08-1.01,1.48-3.04,1.85-4.76.7-.29-.2-.67-.67-.96-1.22-.7-1.32-.15-3.12.7-3.85.88-.75,1.91-.97,3.01-.97.39,0,.76-.04,1.11-.21,1.4-.66,2.81-1.31,4.21-1.97.46-.21.92-.43,1.37-.65.37-.18.4-.24.28-.6-.14-.45-.29-.89-.43-1.34-.34-1.1-.72-2.18-.92-3.32-.23-1.31.98-2.45,2.28-2.18.7.15,1.13.55,1.41,1.19.47,1.09.84,2.22,1.24,3.33.12.32.17.34.45.17.18-.11.34-.24.51-.36.91-.68,1.81-1.36,2.72-2.03.6-.44,1.22-.44,1.73-.02.59.48.67,1.26.18,1.92ZM86.54,14.47c.05.57-.12,1.1-.26,1.64-.53,2.06-1.24,4.07-1.89,6.09-.61,1.91-1.21,3.82-1.74,5.75-.01.05-.03.1-.04.15-.06.34.02.42.35.35.2-.05.41-.07.62-.1.89-.1,2.09.9,2.03,1.97-.03.66-.15,1.31-.25,1.97-.22,1.52-.5,3.03-.9,4.51-.33,1.18-.7,2.34-1.44,3.34-.64.87-1.46,1.38-2.58,1.3-.82-.05-1.48-.41-1.95-1.06-.6-.84-.89-1.8-1.05-2.82-.1-.64-.11-1.28-.11-1.61-.03-2.17.3-3.99.73-5.79.68-2.85,1.6-5.63,2.65-8.36.13-.34.25-.69.39-1.02.18-.42.34-.83.14-1.3-.09-.22.02-.44.13-.65.4-.77.77-1.56,1.2-2.32.42-.74.79-1.51,1.11-2.31.29-.71.83-1.04,1.55-.99.7.04,1.24.57,1.3,1.27Z"/>
        <path d="M90.41,27.88c.38-.39.39-.94.59-1.41.42-.99,1.01-1.71,2.15-1.86.24-.03.44-.19.64-.33,1.15-.77,2.29-1.43,3.81-1.18.68.11,1.41-.35,2.09-.63.06-.03.08-.17.1-.26.12-.56.24-1.12.35-1.69.02-.08,0-.17-.01-.26-.05.05-.11.11-.16.17-.04.05-.07.11-.11.16-.78,1.13-1.45,1.39-2.53,1-1.12-.41-1.7-1.32-1.52-2.56.31-2.13,1.17-4.07,2.27-5.89,2.9-4.77,6.84-8.5,11.54-11.46,1.01-.64,2.09-1.24,3.36-.99,1.48.29,2.19,1.16,2.18,2.66-.02,2.23-.63,4.38-1.04,6.56-.5,2.66-1.04,5.32-1.35,8.01-.07.56.14.48.5.37,2.77-.8,5.54-1.63,8.36-2.26,1.54-.34,2.62.81,2.17,2.3-.4,1.33-1.09,2.24-2.58,2.64-2.86.77-5.67,1.78-8.5,2.67-.32.1-.44.25-.44.58.02,1.3.03,2.6.02,3.89,0,.3.12.45.38.55.56.21.91.61.93,1.21.1,2.14.11,4.27-.99,6.23-.36.64-.79,1.18-1.59,1.1-.95-.1-1.67-.58-1.97-1.54-.44-1.42-.57-2.9-.7-4.37-.16-1.9-.21-3.81-.11-5.71.02-.36-.07-.42-.4-.31-1.61.56-3.23,1.1-4.85,1.63-.26.09-.35.23-.39.49-.54,3.6-1.1,7.2-1.65,10.81-.15.96-.48,1.84-1.03,2.64-.42.61-1.04.76-1.74.54-.85-.26-1.31-.8-1.31-1.53,0-3.7.25-7.38,1.13-11,.1-.42,0-.48-.37-.36-1.63.51-3.37.42-5.01.95-.77.25-1.76-.45-2.04-1.24-.03-.1-.06-.19-.18-.2v-.1h0ZM100.16,16.75c.12.26.33.58.55.64.21.05.16-.36.22-.56.21-.74.4-1.48.59-2.22h-.03s.02.02.02.02c-.33.11-1.48,1.85-1.36,2.12ZM111.05,6.26c-.03-.19-.04-.29-.05-.38-.12.04-.25.06-.36.13-1.49.86-2.82,1.93-4.12,3.04-.07.06-.12.14-.18.22.1.03.2.06.3.08.77.2,1.51.45,1.65,1.38.11.7-.23,1.3-.49,1.92-1.12,2.64-2.25,5.28-3.38,7.92-.05.11-.13.29-.08.36.09.13.24,0,.36-.04,1.21-.37,2.41-.76,3.62-1.12.27-.08.4-.22.43-.51.24-2.22.64-4.42,1.07-6.61.42-2.16.84-4.32,1.24-6.39Z"/>
        <path d="M134.04,28.03c-1.7,1.31-3.41,2.62-5.11,3.94-.72.55-1.41,1.13-2.14,1.66-.65.47-1.54.37-2.34-.21-.61-.45-.58-1.03-.39-1.68.41-1.33,1-2.38,2.28-3.21,2.22-1.45,4.23-3.23,6.37-4.8,1.74-1.28,3.4-2.72,5.58-3.23,1.57-.37,2.77.86,2.42,2.42-.29,1.29-.91,2.42-1.58,3.53-1.21,1.98-2.33,4-3.02,6.24-.05.15-.05.31-.08.47.15-.05.31-.08.45-.15.97-.49,1.94-.97,2.89-1.48.76-.4,1.51-.34,2.23.28.57.49.57,1.09.37,1.79-.43,1.53-1.42,2.51-2.85,3.1-.29.12-.32.25-.25.58.26,1.39-.3,2.57-1.24,3.51-.87.88-2.43.87-3.74.16-.54-.29-1.03-.65-1.35-1.19-.16-.27-.33-.31-.64-.23-2.01.52-4.02,1-6.12.64-4.26-.72-6.87-3.62-7.09-7.96-.27-5.47,1.23-10.53,3.69-15.34,1.88-3.67,4.29-6.93,7.8-9.23,1.93-1.26,4.06-2,6.37-2.13,1.46-.08,2.8.32,3.99,1.16,1.31.93,1.82,2.26,1.52,3.8-.63,3.18-2.45,5.7-4.61,8-.9.96-1.9,1.82-3.02,2.51-.67.41-1.5.3-2.23-.29-.59-.48-.6-1.07-.36-1.74.42-1.15,1.03-2.09,2.1-2.81,1.55-1.04,2.81-2.42,3.79-4.03.56-.93.14-1.73-.93-1.76-2.51-.07-4.67.9-6.57,2.42-4.02,3.21-6.14,7.53-7.03,12.51-.32,1.78-.49,3.58-.32,5.39.34,3.51,2.21,5.06,5.7,4.7,1-.1,1.98-.31,2.95-.57.25-.07.39-.17.45-.44.43-2.02,1.13-3.94,1.95-5.83.07-.16.2-.31.08-.51,0,0,0,.02,0,.02,0,0,.01-.02.02-.03h0Z"/>
        <path d="M157.42,40.94c-4.1.97-7.98.64-11.57-1.73-3.09-2.03-4.19-5-3.87-8.54.44-4.87,2.53-9.1,5.28-13.04,2-2.86,4.4-5.35,7.31-7.31.09-.06.41-.1.15-.32-.78-.64-.67-1.38-.21-2.11.56-.88.97-1.98,2.28-2,2.53-.03,4.89.49,6.92,2.11.42.34.9.6,1.35.9.45.3.76.72,1.02,1.19,2.15,3.97,3.58,8.16,4,12.67.08.85.12,1.7.18,2.55.2,7.18-4.86,13.75-12.84,15.64ZM165.97,27.04c-.08-3.02-.45-5.61-1.19-8.14-.04-.12,0-.33-.18-.34-.06,0-.14.2-.19.31-.46,1.03-.71,2.15-1.49,3.03-.57.64-1.25.79-1.98.39-.78-.43-1.04-1.06-.73-1.9.38-1.01.8-2.01,1.2-3.02.43-1.1.9-2.19,1.04-3.38.07-.63-.71-1.47-1.33-1.45-1.65.05-3.17.57-4.57,1.38-5.11,2.97-8.39,7.35-9.89,13.06-.4,1.54-.59,3.11-.35,4.69.4,2.57,2.11,4.24,5.04,4.83,4.37.89,8.27-.34,11.84-2.85,1.48-1.04,2.35-2.45,2.57-4.25.11-.91.17-1.83.22-2.37Z"/>
      </g>
      <g>
        <path d="M13.72,65.77c-.29.11-.57.25-.86.38.29.12.57.24.86.35,5.2,2,9.83,4.85,13.56,9.03,1.58,1.77,2.79,3.77,3.14,6.19.31,2.13-.44,3.84-2.01,5.22-.54.47-1.19.46-1.78.08-.86-.56-1.18-1.18-.89-1.87.53-1.27.26-2.46-.27-3.62-1.18-2.59-3.16-4.5-5.4-6.16-2.98-2.2-6.27-3.81-9.8-4.97-.43-.14-.48-.04-.52.38-.15,1.55-.3,3.11-1.01,4.53-.31.62-.79,1.13-1.31,1.59-.51.45-1.09.5-1.69.19-.8-.41-1.21-1.08-1.1-1.81.28-1.85.55-3.7,1.03-5.51.11-.41.1-.64-.38-.72-.39-.07-.72-.29-1.04-.54-.98-.76-1.08-1.46-.4-2.5.75-1.16,1.73-2.01,3.11-2.32.35-.08.5-.28.6-.62.36-1.23.75-2.45,1.12-3.67.03-.1.14-.23.02-.31-.05-.04-.18.03-.27.07-1.08.51-2.16,1.03-3.25,1.53-.19.09-.32.24-.41.41-.33.6-.76,1.11-1.25,1.57-.75.72-1.69.64-2.77-.24-.84-.68-.96-1.42-.43-2.33.98-1.67,2.47-2.73,4.14-3.6,2.07-1.09,4.2-2.01,6.36-2.88,3.99-1.61,8.09-2.79,12.35-3.45,1.02-.16,2.05-.26,3.4-.26,1.3.09,2.91.1,4.26,1.2,1.23,1,1.47,2.33.67,3.72-1.31,2.27-3.23,3.9-5.42,5.26-3.89,2.41-8.11,4.09-12.37,5.69ZM20.48,58.48c2.15-.99,4.26-2.05,6.19-3.44.11-.08.32-.14.27-.3-.02-.07-.26-.1-.4-.1-.41-.01-.82,0-1.23,0-3.93.08-7.68,1.1-11.37,2.35-.26.09-.35.26-.42.49-.4,1.28-.81,2.57-1.21,3.85-.04.13-.18.29-.03.4.07.05.24-.04.36-.08,2.65-.97,5.28-1.98,7.85-3.16Z"/>
        <path d="M28.73,68.71c.38-.39.39-.94.59-1.41.42-.99,1.01-1.71,2.15-1.86.24-.03.44-.19.64-.33,1.15-.77,2.29-1.43,3.81-1.18.68.11,1.41-.35,2.09-.63.06-.03.08-.17.1-.26.12-.56.24-1.12.35-1.69.02-.08,0-.17-.01-.26-.05.05-.11.11-.16.17-.04.05-.07.11-.11.16-.78,1.13-1.45,1.39-2.53,1-1.12-.41-1.7-1.32-1.52-2.56.31-2.13,1.17-4.07,2.27-5.89,2.9-4.77,6.84-8.5,11.54-11.46,1.01-.64,2.09-1.24,3.36-.99,1.48.29,2.19,1.16,2.18,2.66-.02,2.23-.63,4.38-1.04,6.56-.5,2.66-1.04,5.32-1.35,8.01-.07.56.14.48.5.37,2.77-.8,5.54-1.63,8.36-2.26,1.54-.34,2.62.81,2.17,2.3-.4,1.33-1.09,2.24-2.58,2.64-2.86.77-5.67,1.78-8.5,2.67-.32.1-.44.25-.44.58.02,1.3.03,2.6.02,3.89,0,.3.12.45.38.55.56.21.91.61.93,1.21.1,2.14.11,4.27-.99,6.23-.36.64-.79,1.18-1.59,1.1-.95-.1-1.67-.58-1.97-1.54-.44-1.42-.57-2.9-.7-4.37-.16-1.9-.21-3.81-.11-5.71.02-.36-.07-.42-.4-.31-1.61.56-3.23,1.1-4.85,1.63-.26.09-.35.23-.39.49-.54,3.6-1.1,7.2-1.65,10.81-.15.96-.48,1.84-1.03,2.64-.42.61-1.04.76-1.74.54-.85-.26-1.31-.8-1.31-1.53,0-3.7.25-7.38,1.13-11,.1-.42,0-.48-.37-.36-1.63.51-3.37.42-5.01.95-.77.25-1.76-.45-2.04-1.24-.03-.1-.06-.19-.18-.2v-.1h0ZM38.48,57.58c.12.26.33.58.55.64.21.05.16-.36.22-.56.21-.74.4-1.48.59-2.22h-.03s.02.02.02.02c-.33.11-1.48,1.85-1.36,2.12ZM49.37,47.1c-.03-.19-.04-.29-.05-.38-.12.04-.25.06-.36.13-1.49.86-2.82,1.93-4.12,3.04-.07.06-.12.14-.18.22.1.03.2.06.3.08.77.2,1.51.45,1.65,1.38.11.7-.23,1.3-.49,1.92-1.12,2.64-2.25,5.28-3.38,7.92-.05.11-.13.29-.08.36.09.13.24,0,.36-.04,1.21-.37,2.41-.76,3.62-1.12.27-.08.4-.22.43-.51.24-2.22.64-4.42,1.07-6.61.42-2.16.84-4.32,1.24-6.39Z"/>
        <path d="M89.55,48.81v.69c-.91,3.77-3.54,6.38-6.19,8.92-3.74,3.59-7.82,6.78-11.87,10-.43.34-.64.71-.71,1.26-.18,1.47-.26,2.94-.07,4.42.04.34.12.57.49.75,1.08.53,1.3,1.25.8,2.34-.34.74-.8,1.41-1.35,1.99-1.07,1.13-2.94.57-3.58-1.1-.62-1.63-.8-3.35-.75-5.09,0-.12.12-.29-.04-.34-.07-.03-.22.1-.32.18-.67.55-1.37,1.07-1.98,1.69-.56.57-1.35.55-2.11,0-.74-.54-.91-1.14-.56-1.92.52-1.15,1.32-2.06,2.31-2.83,1.05-.82,2.07-1.67,3.12-2.49.32-.25.48-.52.56-.93.44-2.42.87-4.85,1.02-7.31,0-.14-.02-.28-.04-.42-.13.05-.27.09-.39.16-1.47.92-2.75,2.07-4.04,3.22-1.15,1.02-1.58,1.06-2.85.2-.22-.15-.32-.05-.46.07-.83.74-1.73,1.43-2.48,2.25-.56.61-.79,1.48-1.27,2.19-.65.97-2.63,1.19-3.51.44-.65-.55-.84-1.13-.48-1.91.62-1.34,1.62-2.38,2.66-3.39,5.7-5.54,12.1-10.09,19.31-13.46,2.93-1.36,6-2.32,9.25-2.57.1,0,.19-.05.28-.07h1.08c.12.03.25.07.37.09,1.83.27,3.4.86,3.77,2.97ZM85.26,50.61c-.11-.26-.5-.13-.76-.13-4.48.05-8.41,1.84-12.26,3.86-.12.06-.22.11-.12.29.59.99.52,2.08.48,3.16-.06,1.68-.34,3.33-.61,5.03,0,.04.02.11.03.19.11-.06.23-.11.33-.18,2.88-2.32,5.74-4.66,8.49-7.13,1.46-1.32,2.89-2.68,4.09-4.26.19-.25.45-.55.33-.83Z"/>
        <path d="M110.86,81.21c-.23.68-.8,1.08-1.51,1.08h-.04c-.33,0-.76-.03-1.15-.19-.43-.17-.75-.46-.96-.86-.37-.71-.71-1.44-1.04-2.19-.82-1.88-1.52-3.88-2.09-5.98-.36-1.33-.67-2.7-.93-4.1-.56-3.02-.72-5.39-.79-6.58-3.18,3.17-6.34,7.41-8.56,11.5.02.31.04.63.07.94.11,1.37.22,2.78-.08,4.2-.26,1.22-.59,1.86-1.69,2.01-.12.02-.25.02-.36.02-1.12,0-1.89-.73-1.96-1.85-.04-.6-.89-14.84-.91-18,0-.25,0-.49,0-.74-.02-3.1-.04-6.31.56-9.44.05-.25.11-.55.2-.84.31-.99.85-1.47,1.63-1.47.14,0,.28.02.44.05.65.13,1.08.35,1.34.69.27.35.37.82.3,1.48-.49,4.75-.26,9.59-.03,14.27.02.37.04.73.05,1.1,2.32-2.87,9.28-8.75,10.61-17.28.04-.25.11-.55.2-.84.31-.99.85-1.47,1.63-1.47.14,0,.28.02.44.05.65.13,1.08.35,1.34.69.27.35.37.82.3,1.48-.08.74-2.64,10.31.66,22.6.6,2.22,1.23,3.87,1.49,4.33.1.18.25.35.4.53.26.31.57.66.71,1.16.4,1.4.07,2.69-.27,3.66Z"/>
        <path d="M108.82,68.71c.38-.39.39-.94.59-1.41.42-.99,1.01-1.71,2.15-1.86.24-.03.44-.19.64-.33,1.15-.77,2.29-1.43,3.81-1.18.68.11,1.41-.35,2.09-.63.06-.03.08-.17.1-.26.12-.56.24-1.12.35-1.69.02-.08,0-.17-.01-.26-.05.05-.11.11-.16.17-.04.05-.07.11-.11.16-.78,1.13-1.45,1.39-2.53,1-1.12-.41-1.7-1.32-1.52-2.56.31-2.13,1.17-4.07,2.27-5.89,2.9-4.77,6.84-8.5,11.54-11.46,1.01-.64,2.09-1.24,3.36-.99,1.48.29,2.19,1.16,2.18,2.66-.02,2.23-.63,4.38-1.04,6.56-.5,2.66-1.04,5.32-1.35,8.01-.07.56.14.48.5.37,2.77-.8,5.54-1.63,8.36-2.26,1.54-.34,2.62.81,2.17,2.3-.4,1.33-1.09,2.24-2.58,2.64-2.86.77-5.67,1.78-8.5,2.67-.32.1-.44.25-.44.58.02,1.3.03,2.6.02,3.89,0,.3.12.45.38.55.56.21.91.61.93,1.21.1,2.14.11,4.27-.99,6.23-.36.64-.79,1.18-1.59,1.1-.95-.1-1.67-.58-1.97-1.54-.44-1.42-.57-2.9-.7-4.37-.16-1.9-.21-3.81-.11-5.71.02-.36-.07-.42-.4-.31-1.61.56-3.23,1.1-4.85,1.63-.26.09-.35.23-.39.49-.54,3.6-1.1,7.2-1.65,10.81-.15.96-.48,1.84-1.03,2.64-.42.61-1.04.76-1.74.54-.85-.26-1.31-.8-1.31-1.53,0-3.7.25-7.38,1.13-11,.1-.42,0-.48-.37-.36-1.63.51-3.37.42-5.01.95-.77.25-1.76-.45-2.04-1.24-.03-.1-.06-.19-.18-.2v-.1h0ZM118.57,57.58c.12.26.33.58.55.64.21.05.16-.36.22-.56.21-.74.4-1.48.59-2.22h-.03s.02.02.02.02c-.33.11-1.48,1.85-1.36,2.12ZM129.46,47.1c-.03-.19-.04-.29-.05-.38-.12.04-.25.06-.36.13-1.49.86-2.82,1.93-4.12,3.04-.07.06-.12.14-.18.22.1.03.2.06.3.08.77.2,1.51.45,1.65,1.38.11.7-.23,1.3-.49,1.92-1.12,2.64-2.25,5.28-3.38,7.92-.05.11-.13.29-.08.36.09.13.24,0,.36-.04,1.21-.37,2.41-.76,3.62-1.12.27-.08.4-.22.43-.51.24-2.22.64-4.42,1.07-6.61.42-2.16.84-4.32,1.24-6.39Z"/>
        <path d="M165.7,70.77c-.47,1.27-1.29,2.05-2.66,2.42-4.34,1.17-8.7,2.3-12.95,3.76-3.65,1.25-7.19,2.8-10.37,5.06-.27.19-.56.26-1.05.28-.79-.57-1.98-.48-2.92-1.11-.53-.35-.67-.87-.5-1.47.44-1.5,1.25-2.66,2.76-3.31,3.3-1.43,6.73-2.52,10.12-3.72,3.64-1.28,7.24-2.66,10.97-3.65,1.46-.38,2.92-.75,4.41-1.01.88-.15,1.61.12,2.17.75.56.63.26,1.33.02,2ZM138.22,64.15c.5-1.87,1.61-3.33,3.06-4.54,3.6-3.01,7.54-5.55,11.45-8.12,2.44-1.61,4.91-3.17,7.39-4.72.69-.43,1.27-.97,1.86-1.52.53-.49,1.25-.45,2.08.08.59.38.82.92.64,1.61-.37,1.39-1.04,2.58-2.29,3.39-3.58,2.32-7.18,4.63-10.74,6.98-1.83,1.2-3.61,2.47-5.4,3.71-.11.08-.2.2-.3.3.13-.01.25-.02.38-.04,3.84-.72,7.67-1.53,11.58-1.74,1.61-.09,3.22-.12,4.73.63.97.49,1.34,1.27,1.03,2.32-.45,1.52-1.28,2.74-2.73,3.5-2.75,1.43-5.66,2.45-8.51,3.64-3.78,1.57-7.52,3.21-11.1,5.18-1.13.62-2.69-.15-2.69-1.44.32-1.06.69-2.21,1.82-2.95,2.5-1.64,5.24-2.79,7.95-4.01.78-.35,1.57-.67,2.35-1,.08-.03.13-.11.2-.16-.08,0-.16,0-.24.02-2.53.46-5.07.94-7.61,1.37-1.45.24-2.91.4-4.22-.56-.66-.49-.89-1.12-.68-1.9Z"/>
        <path d="M167.73,83.98c-.2-.09-.41-.16-.59-.27-1.07-.63-1.28-1.15-.67-2.22,3.33-5.9,5.28-12.34,7.35-18.73.98-3.04,1.83-6.12,2.74-9.19.04-.14.05-.29.08-.43-.13.08-.3.14-.39.25-.8.92-1.72.67-2.48.04-.53-.44-.63-.98-.33-1.6,1.17-2.45,3.26-3.81,5.72-4.63,1.26-.42,2.51.77,2.29,2.09-.35,2.09-.99,4.1-1.57,6.13-1.82,6.31-3.79,12.58-6.16,18.71-.36.93-.77,1.84-1.15,2.76-.04.1-.17.21-.07.32.04.04.19-.02.29-.04,5.43-1.67,11-2.67,16.64-3.27.15-.02.28-.06.4-.16.86-.78,1.21-.85,2.12-.15.54.41,1.12.82,1.42,1.47v.89c-.08.15-.16.31-.24.46-.64,1.21-1.32,2.33-2.99,2.04-.31-.05-.65,0-.98.04-4.58.44-9.09,1.23-13.55,2.37-2,.51-3.97,1.12-5.85,2-.62.29-.97.97-1.68,1.12h-.36Z"/>
      </g>
    </g>
  </g>
</svg>