<?xml version="1.0" encoding="UTF-8"?>
<svg id="Camada_2" data-name="Camada 2" xmlns="http://www.w3.org/2000/svg" viewBox="0 0 266.26 33.71">
  <g id="Camada_1-2" data-name="Camada 1">
    <g>
      <path d="M27.77,4.2v.14c-.32,1.03-1.1,1.66-2.04,1.99-2.54.89-5.13,1.69-7.69,2.53-.71.23-1.42.48-2.13.72-.12.04-.23.07-.26.25-.64,3.32-1.45,6.61-1.55,10.01-.02.5-.1,6.31.05,6.83.36,1.2-.55,2.89-1.72,3.33-.71.27-1.53-.23-1.69-1.06-.27-1.38-.05-8.1.04-9.49.17-2.78.78-5.49,1.35-8.2.08-.38,0-.43-.35-.3-.24.1-.5.15-.75.21-.73.17-1.41-.23-1.57-.97-.07-.34-.18-.33-.46-.23-2.33.79-4.59,1.78-6.89,2.67-.96.37-1.52.17-1.97-.63-.22-.39-.21-.77.09-1.13.69-.83,1.55-1.43,2.51-1.91.06-.03.14-.07.2-.07,1.36.09,2.45-.72,3.65-1.15,5.22-1.89,10.51-3.5,15.96-4.56,1.1-.21,2.21-.34,3.34-.31,1.13.03,1.53.32,1.88,1.36Z"/>
      <path d="M41.73,29.29c-.17.49-.58.78-1.09.78h-.03c-.24,0-.55-.02-.83-.13-.31-.12-.55-.33-.7-.63-.27-.52-.52-1.05-.75-1.59-.6-1.36-1.1-2.81-1.52-4.34-.26-.96-.49-1.96-.68-2.98-.4-2.19-.53-3.91-.57-4.77-2.31,2.3-4.6,5.37-6.21,8.34.01.23.03.46.05.68.08.99.16,2.02-.06,3.04-.19.88-.43,1.35-1.22,1.46-.09.01-.18.02-.26.02-.81,0-1.37-.53-1.42-1.35-.03-.44-.64-10.76-.66-13.05,0-.18,0-.36,0-.53-.02-2.25-.03-4.57.4-6.85.04-.18.08-.4.15-.61.23-.72.61-1.06,1.18-1.06.1,0,.21.01.32.03.47.09.78.25.97.5.2.26.27.6.22,1.07-.36,3.45-.19,6.96-.02,10.35.01.27.03.53.04.8,1.69-2.08,6.73-6.35,7.69-12.54.03-.18.08-.4.15-.61.23-.72.61-1.06,1.18-1.06.1,0,.21.01.32.03.47.09.78.25.97.5.2.26.27.6.22,1.07-.06.53-1.91,7.48.48,16.39.43,1.61.89,2.81,1.08,3.14.08.13.18.26.29.39.19.22.41.48.51.84.29,1.01.05,1.95-.19,2.65Z"/>
      <path d="M56.1,3.06c-.21.28-.48.52-.75.75-.69.57-1.37,1.16-2.08,1.7-.32.25-.39.51-.28.88.26.83.48,1.67.73,2.51.12.38.2.78.44,1.12.31.44.28.95.13,1.43-.14.47-.48.8-.99.89-.7.12-1.33-.23-1.66-.97-.23-.52-.42-1.06-.6-1.6-.21-.64-.44-1.27-.65-1.9-.05-.15-.13-.17-.26-.1-.04.02-.09.05-.13.07-1.25.78-2.44,1.63-3.44,2.72-.24.26-.51.49-.71.79-.73,1.07-2.21,1.34-3.45.51-.21-.15-.48-.49-.69-.89-.51-.96-.11-2.27.51-2.79.64-.55,1.39-.7,2.18-.7.29,0,.55-.03.81-.15,1.02-.48,2.04-.95,3.06-1.43.33-.15.66-.31.99-.47.27-.13.29-.17.2-.44-.1-.33-.21-.65-.31-.97-.25-.8-.52-1.58-.67-2.41-.17-.95.71-1.78,1.65-1.58.51.11.82.4,1.02.86.34.79.61,1.61.9,2.42.08.23.12.24.32.12.13-.08.25-.17.37-.26.66-.49,1.31-.99,1.98-1.47.43-.32.89-.32,1.26-.02.43.35.48.92.13,1.39ZM50.56,10.5c.04.41-.09.8-.19,1.19-.39,1.49-.9,2.95-1.37,4.42-.44,1.38-.88,2.77-1.26,4.17-.01.04-.02.07-.03.11-.05.24.01.31.25.25.15-.03.3-.05.45-.07.64-.07,1.51.65,1.47,1.43-.02.48-.11.95-.18,1.43-.16,1.1-.36,2.19-.66,3.27-.24.85-.51,1.7-1.05,2.42-.46.63-1.06,1-1.87.95-.59-.04-1.07-.3-1.41-.77-.43-.61-.64-1.31-.76-2.04-.07-.46-.08-.93-.08-1.17-.02-1.58.22-2.89.53-4.2.49-2.07,1.16-4.08,1.92-6.07.1-.25.18-.5.28-.74.13-.31.25-.6.1-.95-.07-.16.02-.32.09-.47.29-.56.56-1.13.87-1.68.3-.54.57-1.1.8-1.67.21-.52.6-.75,1.13-.72.51.03.9.42.94.92Z"/>
      <path d="M53.37,20.22c.28-.28.28-.68.43-1.02.31-.72.74-1.24,1.56-1.35.18-.02.32-.14.47-.24.83-.56,1.66-1.04,2.76-.85.49.08,1.02-.25,1.52-.46.04-.02.06-.12.07-.19.09-.41.17-.82.25-1.22.01-.06,0-.13-.01-.19-.04.04-.08.08-.12.12-.03.04-.05.08-.08.12-.57.82-1.05,1.01-1.83.73-.81-.3-1.23-.96-1.1-1.86.22-1.55.85-2.95,1.65-4.27,2.1-3.46,4.96-6.16,8.37-8.32.73-.46,1.52-.9,2.44-.72,1.07.21,1.59.84,1.58,1.93-.01,1.62-.46,3.18-.75,4.76-.36,1.93-.75,3.86-.98,5.81-.05.41.1.35.36.27,2.01-.58,4.02-1.18,6.07-1.64,1.12-.25,1.9.59,1.57,1.67-.29.97-.79,1.62-1.87,1.92-2.08.56-4.11,1.29-6.17,1.93-.23.07-.32.18-.32.42.02.94.02,1.88.01,2.82,0,.22.08.33.27.4.41.15.66.44.68.88.07,1.55.08,3.1-.72,4.52-.26.46-.57.86-1.15.8-.69-.07-1.21-.42-1.43-1.12-.32-1.03-.42-2.1-.51-3.17-.11-1.38-.15-2.76-.08-4.14.01-.26-.05-.31-.29-.22-1.17.4-2.34.8-3.52,1.19-.19.06-.25.16-.28.35-.39,2.61-.8,5.22-1.2,7.84-.11.7-.35,1.34-.74,1.91-.31.45-.75.55-1.26.39-.61-.19-.95-.58-.95-1.11,0-2.69.18-5.36.82-7.98.07-.31,0-.35-.27-.26-1.18.37-2.45.31-3.64.69-.56.18-1.28-.33-1.48-.9-.02-.07-.05-.14-.13-.15v-.07h0ZM60.44,12.15c.08.19.24.42.4.46.15.04.12-.26.16-.4.16-.53.29-1.07.43-1.61h-.02s.02.01.02.01c-.24.08-1.08,1.34-.99,1.54ZM68.34,4.54c-.02-.14-.03-.21-.04-.28-.09.03-.18.05-.26.09-1.08.62-2.04,1.4-2.99,2.2-.05.04-.09.1-.13.16.07.02.15.04.22.06.56.14,1.09.32,1.2,1,.08.51-.17.95-.36,1.39-.81,1.92-1.63,3.83-2.45,5.75-.04.08-.1.21-.06.26.06.09.17,0,.26-.03.88-.27,1.75-.55,2.62-.82.2-.06.29-.16.31-.37.17-1.61.47-3.2.78-4.79.31-1.56.61-3.13.9-4.63Z"/>
      <path d="M85.02,20.33c-1.24.95-2.47,1.9-3.7,2.86-.52.4-1.02.82-1.55,1.21-.47.34-1.12.27-1.7-.15-.44-.32-.42-.75-.28-1.22.29-.96.73-1.73,1.65-2.33,1.61-1.05,3.07-2.34,4.62-3.48,1.26-.93,2.47-1.97,4.05-2.35,1.14-.27,2.01.62,1.75,1.76-.21.93-.66,1.76-1.15,2.56-.88,1.44-1.69,2.9-2.19,4.52-.03.11-.04.23-.05.34.11-.03.23-.06.33-.11.7-.35,1.4-.71,2.1-1.07.55-.29,1.09-.25,1.62.2.41.35.41.79.27,1.3-.32,1.11-1.03,1.82-2.07,2.25-.21.09-.23.18-.18.42.19,1.01-.22,1.86-.9,2.54-.63.64-1.76.63-2.71.11-.39-.21-.75-.47-.98-.86-.12-.2-.24-.23-.46-.17-1.46.37-2.92.73-4.44.47-3.09-.53-4.98-2.62-5.14-5.78-.2-3.96.9-7.64,2.67-11.12,1.36-2.66,3.11-5.03,5.66-6.69,1.4-.92,2.94-1.45,4.62-1.54,1.06-.06,2.03.23,2.9.84.95.67,1.32,1.64,1.1,2.76-.45,2.3-1.77,4.13-3.34,5.8-.65.7-1.38,1.32-2.19,1.82-.48.3-1.09.22-1.62-.21-.43-.35-.44-.78-.26-1.26.31-.83.75-1.51,1.53-2.04,1.12-.75,2.04-1.76,2.75-2.92.41-.67.1-1.25-.68-1.28-1.82-.05-3.38.65-4.76,1.75-2.91,2.33-4.46,5.46-5.1,9.08-.23,1.29-.36,2.59-.23,3.91.24,2.54,1.6,3.67,4.13,3.41.72-.08,1.43-.23,2.14-.41.18-.05.28-.13.32-.32.31-1.46.82-2.86,1.41-4.23.05-.11.15-.23.06-.37,0,0,0,.01,0,.02,0,0,.01-.01.02-.02h0Z"/>
      <path d="M101.97,29.7c-2.98.71-5.79.46-8.39-1.25-2.24-1.47-3.04-3.63-2.81-6.2.32-3.53,1.83-6.6,3.83-9.46,1.45-2.08,3.19-3.88,5.3-5.3.07-.04.3-.07.11-.23-.57-.46-.49-1-.15-1.53.4-.64.7-1.44,1.65-1.45,1.83-.02,3.54.36,5.02,1.53.31.24.65.43.98.65.33.22.55.52.74.86,1.56,2.88,2.59,5.92,2.9,9.19.06.62.09,1.24.13,1.85.15,5.21-3.52,9.97-9.31,11.35ZM108.17,19.61c-.06-2.19-.33-4.07-.87-5.91-.03-.09,0-.24-.13-.25-.04,0-.1.14-.14.23-.33.75-.51,1.56-1.08,2.2-.41.46-.91.57-1.43.28-.57-.31-.75-.77-.53-1.38.27-.74.58-1.46.87-2.19.32-.8.66-1.59.75-2.45.05-.46-.52-1.06-.97-1.05-1.19.04-2.3.41-3.32,1-3.7,2.16-6.09,5.33-7.18,9.47-.29,1.11-.43,2.25-.25,3.4.29,1.86,1.53,3.07,3.66,3.51,3.17.64,6-.25,8.59-2.07,1.07-.75,1.7-1.78,1.86-3.08.08-.66.12-1.33.16-1.72Z"/>
      <path d="M135.94,18.09c-.21.08-.42.18-.62.28.21.08.41.17.62.25,3.77,1.45,7.13,3.52,9.84,6.55,1.15,1.29,2.02,2.74,2.28,4.49.22,1.54-.32,2.78-1.46,3.78-.39.34-.86.34-1.29.06-.62-.4-.86-.85-.65-1.36.39-.92.19-1.78-.19-2.62-.85-1.88-2.29-3.27-3.92-4.47-2.16-1.6-4.55-2.77-7.11-3.6-.31-.1-.35-.03-.38.27-.11,1.12-.22,2.26-.73,3.29-.22.45-.57.82-.95,1.15-.37.33-.79.36-1.23.14-.58-.3-.88-.78-.8-1.32.21-1.34.4-2.69.75-4,.08-.29.07-.46-.27-.52-.29-.05-.52-.21-.75-.39-.71-.55-.78-1.06-.29-1.81.55-.84,1.25-1.46,2.25-1.68.25-.06.36-.21.44-.45.26-.89.54-1.78.81-2.66.02-.07.1-.16.01-.22-.04-.03-.13.02-.2.05-.79.37-1.57.74-2.36,1.11-.14.07-.23.17-.3.3-.24.43-.55.8-.91,1.14-.54.52-1.22.46-2.01-.17-.61-.5-.7-1.03-.31-1.69.71-1.21,1.79-1.98,3-2.61,1.5-.79,3.05-1.46,4.62-2.09,2.89-1.17,5.87-2.02,8.96-2.5.74-.11,1.49-.19,2.47-.19.94.06,2.11.07,3.09.87.89.73,1.07,1.69.49,2.7-.95,1.65-2.35,2.83-3.93,3.82-2.82,1.75-5.88,2.96-8.97,4.13ZM140.85,12.8c1.56-.72,3.09-1.49,4.49-2.49.08-.06.23-.1.19-.21-.02-.05-.19-.07-.29-.08-.3,0-.59,0-.89,0-2.85.06-5.57.8-8.25,1.7-.19.06-.26.19-.31.35-.29.93-.59,1.86-.88,2.79-.03.1-.13.21-.02.29.05.04.18-.03.26-.06,1.92-.71,3.83-1.44,5.69-2.29Z"/>
      <path d="M146.83,20.22c.28-.28.28-.68.43-1.02.31-.72.74-1.24,1.56-1.35.18-.02.32-.14.47-.24.83-.56,1.66-1.04,2.76-.85.49.08,1.02-.25,1.52-.46.04-.02.06-.12.07-.19.09-.41.17-.82.25-1.22.01-.06,0-.13-.01-.19-.04.04-.08.08-.12.12-.03.04-.05.08-.08.12-.57.82-1.05,1.01-1.83.73-.81-.3-1.23-.96-1.1-1.86.22-1.55.85-2.95,1.65-4.27,2.1-3.46,4.96-6.16,8.37-8.32.73-.46,1.52-.9,2.44-.72,1.07.21,1.59.84,1.58,1.93-.01,1.62-.46,3.18-.75,4.76-.36,1.93-.75,3.86-.98,5.81-.05.41.1.35.36.27,2.01-.58,4.02-1.18,6.07-1.64,1.12-.25,1.9.59,1.57,1.67-.29.97-.79,1.62-1.87,1.92-2.08.56-4.11,1.29-6.17,1.93-.23.07-.32.18-.32.42.02.94.02,1.88.01,2.82,0,.22.08.33.27.4.41.15.66.44.68.88.07,1.55.08,3.1-.72,4.52-.26.46-.57.86-1.15.8-.69-.07-1.21-.42-1.43-1.12-.32-1.03-.42-2.1-.51-3.17-.11-1.38-.15-2.76-.08-4.14.01-.26-.05-.31-.29-.22-1.17.4-2.34.8-3.52,1.19-.19.06-.25.16-.28.35-.39,2.61-.8,5.22-1.2,7.84-.11.7-.35,1.34-.74,1.91-.31.45-.75.55-1.26.39-.61-.19-.95-.58-.95-1.11,0-2.69.18-5.36.82-7.98.07-.31,0-.35-.27-.26-1.18.37-2.45.31-3.64.69-.56.18-1.28-.33-1.48-.9-.02-.07-.05-.14-.13-.15v-.07h0ZM153.91,12.15c.08.19.24.42.4.46.15.04.12-.26.16-.4.16-.53.29-1.07.43-1.61h-.02s.02.01.02.01c-.24.08-1.08,1.34-.99,1.54ZM161.81,4.54c-.02-.14-.03-.21-.04-.28-.09.03-.18.05-.26.09-1.08.62-2.04,1.4-2.99,2.2-.05.04-.09.1-.13.16.07.02.15.04.22.06.56.14,1.09.32,1.2,1,.08.51-.17.95-.36,1.39-.81,1.92-1.63,3.83-2.45,5.75-.04.08-.1.21-.06.26.06.09.17,0,.26-.03.88-.27,1.75-.55,2.62-.82.2-.06.29-.16.31-.37.17-1.61.47-3.2.78-4.79.31-1.56.61-3.13.9-4.63Z"/>
      <path d="M190.95,5.79v.5c-.66,2.74-2.57,4.63-4.49,6.47-2.71,2.6-5.67,4.92-8.61,7.26-.31.25-.46.51-.51.91-.13,1.07-.19,2.13-.05,3.21.03.24.09.41.35.54.78.38.94.91.58,1.7-.25.53-.58,1.02-.98,1.44-.77.82-2.13.41-2.59-.8-.45-1.18-.58-2.43-.55-3.69,0-.09.08-.21-.03-.25-.05-.02-.16.07-.23.13-.49.4-.99.78-1.44,1.23-.41.41-.98.4-1.53,0-.54-.39-.66-.83-.4-1.39.38-.83.96-1.5,1.68-2.05.76-.59,1.5-1.21,2.26-1.8.23-.18.35-.38.4-.67.32-1.76.63-3.52.74-5.3,0-.1-.02-.21-.03-.31-.09.04-.2.07-.28.12-1.07.67-2,1.5-2.93,2.34-.83.74-1.15.77-2.07.14-.16-.11-.23-.04-.33.05-.61.54-1.26,1.04-1.8,1.63-.41.44-.57,1.07-.92,1.59-.47.7-1.91.86-2.54.32-.47-.4-.61-.82-.35-1.39.45-.97,1.18-1.73,1.93-2.46,4.14-4.02,8.78-7.32,14.01-9.76,2.12-.99,4.35-1.68,6.71-1.86.07,0,.14-.03.21-.05h.79c.09.02.18.05.27.06,1.32.19,2.46.62,2.73,2.16ZM187.83,7.09c-.08-.19-.36-.09-.55-.09-3.25.03-6.1,1.33-8.9,2.8-.09.04-.16.08-.08.21.43.72.38,1.51.35,2.29-.04,1.22-.24,2.42-.44,3.65,0,.03.01.08.02.14.08-.04.17-.08.24-.13,2.09-1.68,4.16-3.38,6.15-5.17,1.06-.96,2.1-1.95,2.97-3.09.14-.18.32-.4.24-.6Z"/>
      <path d="M206.4,29.29c-.17.49-.58.78-1.09.78h-.03c-.24,0-.55-.02-.83-.13-.31-.12-.55-.33-.7-.63-.27-.52-.52-1.05-.75-1.59-.6-1.36-1.1-2.81-1.52-4.34-.26-.96-.49-1.96-.68-2.98-.4-2.19-.53-3.91-.57-4.77-2.31,2.3-4.6,5.37-6.21,8.34.01.23.03.46.05.68.08.99.16,2.02-.06,3.04-.19.88-.43,1.35-1.22,1.46-.09.01-.18.02-.26.02-.81,0-1.37-.53-1.42-1.35-.03-.44-.64-10.76-.66-13.05,0-.18,0-.36,0-.53-.02-2.25-.03-4.57.4-6.85.04-.18.08-.4.15-.61.23-.72.61-1.06,1.18-1.06.1,0,.21.01.32.03.47.09.78.25.97.5.2.26.27.6.22,1.07-.36,3.45-.19,6.96-.02,10.35.01.27.03.53.04.8,1.69-2.08,6.73-6.35,7.69-12.54.03-.18.08-.4.15-.61.23-.72.61-1.06,1.18-1.06.1,0,.21.01.32.03.47.09.78.25.97.5.2.26.27.6.22,1.07-.06.53-1.91,7.48.48,16.39.43,1.61.89,2.81,1.08,3.14.08.13.18.26.29.39.19.22.41.48.51.84.29,1.01.05,1.95-.19,2.65Z"/>
      <path d="M204.92,20.22c.28-.28.28-.68.43-1.02.31-.72.74-1.24,1.56-1.35.18-.02.32-.14.47-.24.83-.56,1.66-1.04,2.76-.85.49.08,1.02-.25,1.51-.46.04-.02.06-.12.07-.19.09-.41.17-.82.25-1.22.01-.06,0-.13-.01-.19-.04.04-.08.08-.12.12-.03.04-.05.08-.08.12-.57.82-1.05,1.01-1.83.73-.81-.3-1.23-.96-1.1-1.86.22-1.55.85-2.95,1.65-4.27,2.1-3.46,4.96-6.16,8.37-8.32.73-.46,1.52-.9,2.44-.72,1.07.21,1.59.84,1.58,1.93-.01,1.62-.46,3.18-.75,4.76-.36,1.93-.75,3.86-.98,5.81-.05.41.1.35.36.27,2.01-.58,4.02-1.18,6.07-1.64,1.12-.25,1.9.59,1.57,1.67-.29.97-.79,1.62-1.87,1.92-2.08.56-4.11,1.29-6.17,1.93-.23.07-.32.18-.32.42.02.94.02,1.88.01,2.82,0,.22.09.33.27.4.41.15.66.44.68.88.07,1.55.08,3.1-.72,4.52-.26.46-.57.86-1.15.8-.69-.07-1.21-.42-1.43-1.12-.32-1.03-.42-2.1-.51-3.17-.11-1.38-.15-2.76-.08-4.14.01-.26-.05-.31-.29-.22-1.17.4-2.34.8-3.52,1.19-.19.06-.25.16-.28.35-.4,2.61-.8,5.22-1.2,7.84-.11.7-.35,1.34-.74,1.91-.31.45-.75.55-1.26.39-.62-.19-.95-.58-.95-1.11,0-2.69.18-5.36.82-7.98.07-.31,0-.35-.27-.26-1.18.37-2.45.31-3.64.69-.56.18-1.28-.33-1.48-.9-.02-.07-.05-.14-.13-.15v-.07h0ZM212,12.15c.08.19.24.42.4.46.15.04.12-.26.16-.4.16-.53.29-1.07.43-1.61h-.02s.02.01.02.01c-.24.08-1.08,1.34-.99,1.54ZM219.9,4.54c-.02-.14-.03-.21-.04-.28-.09.03-.18.05-.26.09-1.08.62-2.04,1.4-2.99,2.2-.05.04-.09.1-.13.16.07.02.15.04.22.06.56.14,1.09.32,1.2,1,.08.51-.17.95-.36,1.39-.81,1.92-1.63,3.83-2.45,5.75-.04.08-.1.21-.06.26.06.09.17,0,.26-.03.88-.27,1.75-.55,2.62-.82.2-.06.29-.16.31-.37.17-1.61.47-3.2.78-4.79.31-1.56.61-3.13.9-4.63Z"/>
      <path d="M246.18,21.71c-.34.92-.94,1.49-1.93,1.76-3.15.85-6.31,1.67-9.4,2.73-2.65.91-5.22,2.03-7.52,3.67-.19.14-.41.19-.76.2-.57-.41-1.44-.35-2.11-.8-.38-.26-.49-.63-.36-1.07.32-1.09.91-1.93,2.01-2.4,2.4-1.04,4.88-1.83,7.34-2.7,2.64-.93,5.25-1.93,7.96-2.65,1.06-.28,2.12-.54,3.2-.73.64-.11,1.16.09,1.57.55.41.46.19.96.01,1.45ZM226.25,16.91c.36-1.35,1.17-2.41,2.22-3.29,2.61-2.18,5.47-4.02,8.3-5.89,1.77-1.17,3.56-2.3,5.36-3.43.5-.31.92-.71,1.35-1.1.39-.36.91-.33,1.51.06.43.28.6.67.46,1.17-.27,1.01-.76,1.87-1.66,2.46-2.6,1.69-5.21,3.36-7.79,5.06-1.32.87-2.62,1.79-3.92,2.69-.08.06-.15.14-.22.22.09-.01.18-.02.28-.03,2.78-.52,5.56-1.11,8.4-1.26,1.17-.06,2.34-.09,3.43.46.7.35.97.92.75,1.68-.32,1.11-.93,1.99-1.98,2.54-1.99,1.03-4.11,1.78-6.17,2.64-2.74,1.14-5.45,2.33-8.05,3.76-.82.45-1.95-.11-1.95-1.04.24-.77.5-1.61,1.32-2.14,1.81-1.19,3.8-2.03,5.77-2.91.56-.25,1.14-.48,1.71-.73.05-.02.1-.08.15-.12-.06,0-.12,0-.17.02-1.84.33-3.67.68-5.52.99-1.05.18-2.11.29-3.06-.41-.48-.35-.64-.81-.49-1.38Z"/>
      <path d="M247.66,31.3c-.14-.07-.29-.12-.43-.2-.77-.45-.93-.84-.49-1.61,2.42-4.28,3.83-8.95,5.33-13.59.71-2.2,1.33-4.44,1.99-6.66.03-.1.04-.21.06-.31-.1.06-.22.1-.29.18-.58.67-1.25.49-1.8.03-.38-.32-.45-.71-.24-1.16.85-1.78,2.37-2.76,4.15-3.36.92-.31,1.82.56,1.66,1.52-.25,1.51-.72,2.97-1.14,4.44-1.32,4.58-2.75,9.12-4.47,13.57-.26.67-.56,1.33-.83,2-.03.07-.12.16-.05.23.03.03.14-.01.21-.03,3.94-1.21,7.98-1.94,12.07-2.37.11-.01.2-.04.29-.12.63-.57.87-.62,1.54-.11.39.3.81.59,1.03,1.07v.65c-.06.11-.12.22-.18.34-.46.88-.96,1.69-2.17,1.48-.23-.04-.47,0-.71.03-3.32.32-6.6.9-9.83,1.72-1.45.37-2.88.81-4.24,1.45-.45.21-.7.71-1.22.82h-.26Z"/>
    </g>
  </g>
</svg>