<?xml version="1.0" encoding="UTF-8"?>
<svg id="Camada_2" data-name="Camada 2" xmlns="http://www.w3.org/2000/svg" viewBox="0 0 411.85 115.15">
  <g id="Camada_1-2" data-name="Camada 1">
    <g>
      <g>
        <path d="M118.35,18.04v9.05h14.9v29.01h9.05v-29.01h14.74v-9.05h-38.69Z"/>
        <path d="M190.46,18.04v13.47h-17.24v9.05h17.24v15.54h9.05V18.04h-9.05ZM160.82,18.04v38.06h9.05V18.04h-9.05Z"/>
        <path d="M241.98,27.09v-9.05h-38.69v9.05h14.9v19.96h-14.9v9.05h38.69v-9.05h-14.75v-19.96h14.75Z"/>
        <path d="M245.75,18.04v9.05h29.7v5.32h-29.7v23.69h38.75V18.04h-38.75ZM275.45,47.05h-20.65v-5.59h20.65v5.59Z"/>
        <path d="M326.91,27.09v-9.05h-38.69v38.06h38.69v-24.59h-26.29v9.05h17.24v6.49h-20.59v-19.96h29.64Z"/>
        <path d="M330.69,18.04v38.06h38.69V18.04h-38.69ZM360.33,47.05h-20.59v-19.96h20.59v19.96Z"/>
        <path d="M157.04,59.04h-38.69v38.06h9.05v-9.05h20.59v9.05h9.05v-9.05l-5.32-4.52,5.32-4.53v-19.96ZM147.99,79h-20.59v-10.91h20.59v10.91Z"/>
        <path d="M160.82,59.04v9.05h29.69v5.32h-29.69v23.69h38.74v-38.06h-38.74ZM190.51,88.05h-20.64v-5.59h20.64v5.59Z"/>
        <path d="M203.29,59.04v38.06h9.04v-9.05h29.65v-29.01h-38.69ZM232.93,79h-20.6v-10.91h20.6v10.91Z"/>
        <path d="M275.4,59.04v13.47h-17.25v9.05h17.25v15.54h9.04v-38.06h-9.04ZM245.75,59.04v38.06h9.05v-38.06h-9.05Z"/>
        <path d="M288.22,59.04v9.05h29.7v5.32h-29.7v23.69h38.74v-38.06h-38.74ZM317.92,88.05h-20.65v-5.59h20.65v5.59Z"/>
        <path d="M369.43,68.09v-9.05h-38.74v38.06h38.74v-9.05h-29.69v-5.32h29.69v-9.05h-29.69v-5.59h29.69Z"/>
        <path d="M382.2,88.05v-29.01h-9.04v38.06h38.69v-9.05h-29.65Z"/>
      </g>
      <g>
        <rect width="34.48" height="20.94"/>
        <path d="M34.48,20.94h0v7.44H0v86.77h20.93v-20.94h13.55v20.94h20.94v-20.94h13.18v20.94h20.93v-20.94l-12.32-10.47,12.32-10.47V28.37h-34.11v-7.44h34.11V0h-34.11l-20.94,20.94ZM34.48,73.28h-13.55v-24.63h13.55v24.63ZM55.42,48.65h13.18v24.63h-13.18v-24.63Z"/>
        <rect x="91.13" y="101.53" width="13.61" height="13.61"/>
      </g>
    </g>
  </g>
</svg>