<svg width="44" height="28" viewBox="0 0 44 28" fill="none" xmlns="http://www.w3.org/2000/svg">
<path d="M12.7986 0C14.0679 0 15.2419 0.0999999 16.3146 0.396C17.3893 0.594 18.2693 0.99 19.0499 1.484C19.8326 1.97867 20.4186 2.67133 20.8079 3.562C21.1992 4.452 21.3959 5.542 21.3959 6.728C21.3959 8.114 21.1019 9.3 20.4186 10.19C19.8326 11.082 18.8553 11.872 17.6833 12.466C19.3439 12.962 20.6132 13.852 21.3959 15.038C22.1786 16.224 22.6652 17.71 22.6652 19.392C22.6652 20.778 22.3712 21.964 21.8826 22.954C21.3959 23.944 20.6132 24.834 19.7333 25.428C18.777 26.0639 17.7204 26.5319 16.6086 26.812C15.4366 27.11 14.2646 27.308 13.0926 27.308H0V0H12.7986ZM12.016 11.08C13.0906 11.08 13.9706 10.784 14.6539 10.29C15.3373 9.796 15.6313 8.904 15.6313 7.816C15.6313 7.222 15.5319 6.628 15.3373 6.234C15.1426 5.84 14.8486 5.54 14.4593 5.244C14.0612 5.01889 13.633 4.85252 13.1879 4.75C12.6993 4.65 12.2126 4.65 11.6246 4.65H5.95931V11.082L12.016 11.08ZM12.3099 22.756C12.8959 22.756 13.4819 22.656 13.9706 22.558C14.4593 22.458 14.9479 22.262 15.3373 21.964C15.7338 21.6727 16.0664 21.3023 16.3146 20.876C16.5093 20.382 16.7059 19.788 16.7059 19.096C16.7059 17.71 16.3146 16.72 15.5339 16.028C14.7513 15.434 13.6766 15.138 12.4073 15.138H5.95931V22.758L12.3099 22.756ZM31.1652 22.656C31.9465 23.448 33.1185 23.844 34.6812 23.844C35.7558 23.844 36.7332 23.548 37.5138 23.054C38.2965 22.4593 38.7852 21.8653 38.9798 21.272H43.7671C42.9845 23.646 41.8125 25.328 40.2512 26.416C38.6858 27.406 36.8305 28 34.5839 28C33.1466 28.0021 31.7217 27.7335 30.3825 27.208C29.177 26.7553 28.1025 26.0075 27.2559 25.032C26.3467 24.1227 25.6758 23.0005 25.3032 21.766C24.8146 20.48 24.6179 19.096 24.6179 17.512C24.6179 16.028 24.8146 14.644 25.3032 13.356C25.772 12.1152 26.468 10.9741 27.3552 9.99199C28.2332 9.102 29.3079 8.312 30.4799 7.816C31.7845 7.28861 33.178 7.01969 34.5839 7.024C36.2445 7.024 37.7105 7.322 38.9798 8.014C40.2512 8.706 41.2265 9.498 42.0072 10.686C42.7898 11.774 43.3778 13.06 43.7671 14.446C43.9618 15.83 44.0592 17.216 43.9618 18.798H29.7965C29.7965 20.382 30.3825 21.866 31.1652 22.658M37.3192 12.27C36.6358 11.578 35.5612 11.182 34.2899 11.182C33.5444 11.1707 32.8073 11.3402 32.1405 11.676C31.5545 11.974 31.1652 12.37 30.7739 12.766C30.412 13.1469 30.1737 13.6296 30.0905 14.15C29.9912 14.646 29.8939 15.04 29.8939 15.436H38.6858C38.4912 13.952 38.0025 12.964 37.3192 12.27ZM28.7219 1.88H39.6632V4.552H28.7239L28.7219 1.88Z" fill="#1B0AD4"/>
</svg>
