<svg width="38" height="36" viewBox="0 0 38 36" fill="none" xmlns="http://www.w3.org/2000/svg">
<path d="M12.7106 28.9592C12.7106 29.1166 12.5444 29.229 12.307 29.229C12.0696 29.229 11.8797 29.229 11.8797 28.9592C11.8797 28.6894 12.0696 28.6894 12.2833 28.6894C12.4969 28.6894 12.7106 28.8018 12.7106 28.9592ZM10.3364 28.622C10.3364 28.7794 10.3364 28.9592 10.6688 29.0042C10.7538 29.0428 10.8516 29.048 10.9406 29.0185C11.0296 28.989 11.1027 28.9272 11.1437 28.8468C11.1437 28.6894 11.1437 28.532 10.8113 28.4646C10.4789 28.3971 10.3839 28.4646 10.3364 28.622ZM13.7078 28.5096C13.4941 28.5096 13.3517 28.6894 13.3754 28.8693C13.3991 29.0491 13.5891 29.1166 13.8265 29.0716C14.0639 29.0267 14.1826 28.8693 14.1589 28.7119C14.1351 28.5545 13.9452 28.4871 13.7078 28.5096ZM18.7648 0.00141412C16.2609 -0.0209019 13.778 0.436039 11.4652 1.34482C9.15241 2.25359 7.05731 3.59547 5.30566 5.28993C3.55401 6.98439 2.1819 8.9965 1.27168 11.2055C0.361465 13.4145 -0.0681016 15.7749 0.00876048 18.145C-0.0575142 22.0275 1.15841 25.8327 3.48669 29.0291C5.81498 32.2255 9.13937 34.6535 12.9955 35.9738C13.9689 36.1312 14.3251 35.5467 14.3251 35.0745V30.578C14.3251 30.578 8.95942 31.7021 7.81981 28.3297C7.81981 28.3297 6.96511 26.0814 5.70679 25.6093C5.70679 25.6093 3.9499 24.4402 5.8255 24.4627C6.43981 24.5411 7.02614 24.7548 7.53742 25.0867C8.0487 25.4186 8.47068 25.8594 8.76949 26.3737C9.0179 26.8348 9.36319 27.243 9.78418 27.5732C10.2052 27.9034 10.693 28.1487 11.2176 28.2939C11.7423 28.4392 12.2928 28.4814 12.8353 28.418C13.3778 28.3545 13.9009 28.1868 14.3726 27.925C14.4624 26.9864 14.8898 26.1054 15.5834 25.4294C11.3099 24.9573 6.98885 24.3727 6.98885 17.2007C6.94347 16.3905 7.08092 15.5805 7.39205 14.8245C7.70318 14.0685 8.18084 13.384 8.79323 12.8166C8.21332 11.1711 8.28077 9.38258 8.98316 7.78045C10.5976 7.28583 14.2776 9.78142 14.2776 9.78142C17.4214 8.94176 20.7492 8.94176 23.893 9.78142C23.893 9.78142 27.573 7.28583 29.1874 7.78045C29.9028 9.37987 29.9705 11.1729 29.3774 12.8166C30.0125 13.3753 30.5162 14.0545 30.8558 14.8099C31.1953 15.5653 31.363 16.3799 31.3479 17.2007C31.3479 24.3952 26.837 24.9573 22.5635 25.4294C22.993 25.8856 23.3198 26.42 23.5239 26.9998C23.728 27.5797 23.8051 28.1928 23.7506 28.8018V35.0296C23.749 35.1814 23.7862 35.3313 23.8589 35.4667C23.9315 35.602 24.0376 35.7188 24.1681 35.807C24.2986 35.8953 24.4496 35.9524 24.6083 35.9736C24.7671 35.9948 24.9289 35.9795 25.0801 35.9289C28.9292 34.6199 32.2468 32.199 34.5643 29.0079C36.8818 25.8169 38.0821 22.017 37.9956 18.145C38.018 15.7508 37.5353 13.3764 36.5758 11.1612C35.6164 8.94592 34.1996 6.93436 32.4084 5.24446C30.6172 3.55457 28.4878 2.22033 26.1449 1.32001C23.8021 0.419686 21.293 -0.0286083 18.7648 0.00141412ZM7.46369 25.6542V26.0365C7.49015 26.0616 7.52161 26.0816 7.55624 26.0952C7.59087 26.1088 7.62799 26.1158 7.66549 26.1158C7.70299 26.1158 7.74012 26.1088 7.77475 26.0952C7.80938 26.0816 7.84083 26.0616 7.8673 26.0365C7.8673 26.0365 7.8673 25.7891 7.8673 25.6318C7.8673 25.4744 7.55865 25.5643 7.46369 25.6542ZM6.63272 25.0472C6.63272 25.0472 6.63272 25.272 6.79892 25.3395C6.81895 25.363 6.84427 25.3819 6.87302 25.3949C6.90178 25.4079 6.93324 25.4147 6.96511 25.4147C6.99697 25.4147 7.02844 25.4079 7.0572 25.3949C7.08595 25.3819 7.11127 25.363 7.1313 25.3395C7.1313 25.3395 7.1313 25.1147 6.96511 25.0472C6.79892 24.9798 6.68021 24.9798 6.63272 25.0472ZM9.0069 27.7002V28.1723C9.0069 28.3297 9.41051 28.3522 9.50548 28.1723C9.60045 27.9925 9.50548 27.8576 9.50548 27.7002C9.50548 27.5428 9.19684 27.5878 9.10187 27.7002H9.0069ZM8.12846 26.5985V27.0482C8.12846 27.228 8.46084 27.2955 8.57955 27.228C8.63968 27.1626 8.67279 27.0787 8.67279 26.992C8.67279 26.9052 8.63968 26.8214 8.57955 26.7559C8.46084 26.576 8.27091 26.5086 8.12846 26.5985Z" fill="#1B0AD4"/>
</svg>
